  0
SECTION
  2
HEADER
  9
$ANGBASE
  50
0.0
  9
$ANGDIR
  70
  1
  9
$MEASUREMENT
  70
0
  0
ENDSEC
  0
SECTION
  2
TABLES
  0
TABLE
  2
LTYPE
  70
4
  0
LTYPE
  5
40F
  2
CONTINUOUS
  70
0
  3
Solid line
  72
65
  73
0
  40
0.0
  0
LTYPE
  5
410
  2
DASHDOT
 70
0
  3
Dash Dot ____ _ ____ _
 72
65
 73
4
 40
2.0
 49
1.25
 49
-0.25
 49
0.25
 49
-0.25
  0
LTYPE
  5
411
  2
DASHED
 70
0
  3
Dashed __ __ __ __ __
 72
65
 73
2
 40
0.75
 49
0.5
 49
-0.25
  0
LTYPE
  5
43B
  2
DOTTED
 70
0
  3
Dotted .  .  .  .
 72
65
 73
2
 40
0.2
 49
0.0
 49
-0.2
  0
ENDTAB
  0
TABLE
  2
STYLE
  70
4
  0
STYLE
  2
KICAD
  70
0
  40
0
  41
1
  42
1
  50
0
  71
0
  3
isocp.shx
  0
STYLE
  2
KICADB
  70
0
  40
0
  41
1
  42
1
  50
0
  71
0
  3
isocp.shx
  0
STYLE
  2
KICADI
  70
0
  40
0
  41
1
  42
1
  50
15
  71
0
  3
isocp.shx
  0
STYLE
  2
KICADBI
  70
0
  40
0
  41
1
  42
1
  50
15
  71
0
  3
isocp.shx
  0
ENDTAB
  0
TABLE
  2
LAYER
  70
30
  0
LAYER
  2
BLACK
  70
0
  62
7
  6
CONTINUOUS
  0
LAYER
  2
GRAY1
  70
0
  62
251
  6
CONTINUOUS
  0
LAYER
  2
GRAY2
  70
0
  62
8
  6
CONTINUOUS
  0
LAYER
  2
GRAY3
  70
0
  62
9
  6
CONTINUOUS
  0
LAYER
  2
WHITE
  70
0
  62
7
  6
CONTINUOUS
  0
LAYER
  2
LYELLOW
  70
0
  62
51
  6
CONTINUOUS
  0
LAYER
  2
BLUE1
  70
0
  62
178
  6
CONTINUOUS
  0
LAYER
  2
GREEN1
  70
0
  62
98
  6
CONTINUOUS
  0
LAYER
  2
CYAN1
  70
0
  62
138
  6
CONTINUOUS
  0
LAYER
  2
RED1
  70
0
  62
18
  6
CONTINUOUS
  0
LAYER
  2
MAGENTA1
  70
0
  62
228
  6
CONTINUOUS
  0
LAYER
  2
BROWN1
  70
0
  62
58
  6
CONTINUOUS
  0
LAYER
  2
BLUE2
  70
0
  62
5
  6
CONTINUOUS
  0
LAYER
  2
GREEN2
  70
0
  62
3
  6
CONTINUOUS
  0
LAYER
  2
CYAN2
  70
0
  62
4
  6
CONTINUOUS
  0
LAYER
  2
RED2
  70
0
  62
1
  6
CONTINUOUS
  0
LAYER
  2
MAGENTA2
  70
0
  62
6
  6
CONTINUOUS
  0
LAYER
  2
BROWN2
  70
0
  62
54
  6
CONTINUOUS
  0
LAYER
  2
BLUE3
  70
0
  62
171
  6
CONTINUOUS
  0
LAYER
  2
GREEN3
  70
0
  62
91
  6
CONTINUOUS
  0
LAYER
  2
CYAN3
  70
0
  62
131
  6
CONTINUOUS
  0
LAYER
  2
RED3
  70
0
  62
11
  6
CONTINUOUS
  0
LAYER
  2
MAGENTA3
  70
0
  62
221
  6
CONTINUOUS
  0
LAYER
  2
YELLOW3
  70
0
  62
2
  6
CONTINUOUS
  0
LAYER
  2
BLUE4
  70
0
  62
5
  6
CONTINUOUS
  0
LAYER
  2
GREEN4
  70
0
  62
3
  6
CONTINUOUS
  0
LAYER
  2
CYAN4
  70
0
  62
4
  6
CONTINUOUS
  0
LAYER
  2
RED4
  70
0
  62
1
  6
CONTINUOUS
  0
LAYER
  2
MAGENTA4
  70
0
  62
6
  6
CONTINUOUS
  0
LAYER
  2
YELLOW4
  70
0
  62
2
  6
CONTINUOUS
  0
ENDTAB
  0
ENDSEC
  0
SECTION
  2
ENTITIES
0
LINE
8
BLACK
6
CONTINUOUS
10
130.927
20
-65.0838
11
130.933
21
-65.0838
0
LINE
8
BLACK
6
CONTINUOUS
10
130.933
20
-65.0838
11
130.94
21
-65.0861
0
LINE
8
BLACK
6
CONTINUOUS
10
130.94
20
-65.0861
11
130.946
21
-65.0873
0
LINE
8
BLACK
6
CONTINUOUS
10
130.946
20
-65.0873
11
130.952
21
-65.0907
0
LINE
8
BLACK
6
CONTINUOUS
10
130.952
20
-65.0907
11
130.959
21
-65.093
0
LINE
8
BLACK
6
CONTINUOUS
10
130.959
20
-65.093
11
130.964
21
-65.0973
0
LINE
8
BLACK
6
CONTINUOUS
10
130.964
20
-65.0973
11
130.97
21
-65.1007
0
LINE
8
BLACK
6
CONTINUOUS
10
130.97
20
-65.1007
11
130.974
21
-65.1059
0
LINE
8
BLACK
6
CONTINUOUS
10
130.974
20
-65.1059
11
130.979
21
-65.1103
0
LINE
8
BLACK
6
CONTINUOUS
10
130.979
20
-65.1103
11
130.983
21
-65.1161
0
LINE
8
BLACK
6
CONTINUOUS
10
130.983
20
-65.1161
11
130.987
21
-65.1213
0
LINE
8
BLACK
6
CONTINUOUS
10
130.987
20
-65.1213
11
130.989
21
-65.1277
0
LINE
8
BLACK
6
CONTINUOUS
10
130.989
20
-65.1277
11
130.993
21
-65.1335
0
LINE
8
BLACK
6
CONTINUOUS
10
130.993
20
-65.1335
11
130.994
21
-65.1402
0
LINE
8
BLACK
6
CONTINUOUS
10
130.994
20
-65.1402
11
130.996
21
-65.1466
0
LINE
8
BLACK
6
CONTINUOUS
10
130.996
20
-65.1466
11
130.996
21
-65.1533
0
LINE
8
BLACK
6
CONTINUOUS
10
130.996
20
-65.1533
11
130.996
21
-65.1533
0
LINE
8
BLACK
6
CONTINUOUS
10
130.996
20
-65.1533
11
130.996
21
-82.1667
0
LINE
8
BLACK
6
CONTINUOUS
10
130.996
20
-82.1667
11
130.996
21
-82.1667
0
LINE
8
BLACK
6
CONTINUOUS
10
130.996
20
-82.1667
11
130.996
21
-82.1734
0
LINE
8
BLACK
6
CONTINUOUS
10
130.996
20
-82.1734
11
130.994
21
-82.1798
0
LINE
8
BLACK
6
CONTINUOUS
10
130.994
20
-82.1798
11
130.993
21
-82.1865
0
LINE
8
BLACK
6
CONTINUOUS
10
130.993
20
-82.1865
11
130.989
21
-82.1923
0
LINE
8
BLACK
6
CONTINUOUS
10
130.989
20
-82.1923
11
130.987
21
-82.1987
0
LINE
8
BLACK
6
CONTINUOUS
10
130.987
20
-82.1987
11
130.983
21
-82.2039
0
LINE
8
BLACK
6
CONTINUOUS
10
130.983
20
-82.2039
11
130.979
21
-82.2097
0
LINE
8
BLACK
6
CONTINUOUS
10
130.979
20
-82.2097
11
130.974
21
-82.2141
0
LINE
8
BLACK
6
CONTINUOUS
10
130.974
20
-82.2141
11
130.97
21
-82.2193
0
LINE
8
BLACK
6
CONTINUOUS
10
130.97
20
-82.2193
11
130.964
21
-82.2227
0
LINE
8
BLACK
6
CONTINUOUS
10
130.964
20
-82.2227
11
130.959
21
-82.227
0
LINE
8
BLACK
6
CONTINUOUS
10
130.959
20
-82.227
11
130.952
21
-82.2293
0
LINE
8
BLACK
6
CONTINUOUS
10
130.952
20
-82.2293
11
130.946
21
-82.2327
0
LINE
8
BLACK
6
CONTINUOUS
10
130.946
20
-82.2327
11
130.94
21
-82.2339
0
LINE
8
BLACK
6
CONTINUOUS
10
130.94
20
-82.2339
11
130.933
21
-82.2362
0
LINE
8
BLACK
6
CONTINUOUS
10
130.933
20
-82.2362
11
130.927
21
-82.2362
0
LINE
8
BLACK
6
CONTINUOUS
10
130.927
20
-82.2362
11
130.927
21
-82.2362
0
LINE
8
BLACK
6
CONTINUOUS
10
130.927
20
-82.2362
11
112.913
21
-82.2362
0
LINE
8
BLACK
6
CONTINUOUS
10
112.913
20
-82.2362
11
112.913
21
-82.2362
0
LINE
8
BLACK
6
CONTINUOUS
10
112.913
20
-82.2362
11
112.907
21
-82.2362
0
LINE
8
BLACK
6
CONTINUOUS
10
112.907
20
-82.2362
11
112.9
21
-82.2339
0
LINE
8
BLACK
6
CONTINUOUS
10
112.9
20
-82.2339
11
112.894
21
-82.2327
0
LINE
8
BLACK
6
CONTINUOUS
10
112.894
20
-82.2327
11
112.888
21
-82.2293
0
LINE
8
BLACK
6
CONTINUOUS
10
112.888
20
-82.2293
11
112.881
21
-82.227
0
LINE
8
BLACK
6
CONTINUOUS
10
112.881
20
-82.227
11
112.876
21
-82.2227
0
LINE
8
BLACK
6
CONTINUOUS
10
112.876
20
-82.2227
11
112.87
21
-82.2193
0
LINE
8
BLACK
6
CONTINUOUS
10
112.87
20
-82.2193
11
112.866
21
-82.2141
0
LINE
8
BLACK
6
CONTINUOUS
10
112.866
20
-82.2141
11
112.861
21
-82.2097
0
LINE
8
BLACK
6
CONTINUOUS
10
112.861
20
-82.2097
11
112.857
21
-82.2039
0
LINE
8
BLACK
6
CONTINUOUS
10
112.857
20
-82.2039
11
112.853
21
-82.1987
0
LINE
8
BLACK
6
CONTINUOUS
10
112.853
20
-82.1987
11
112.851
21
-82.1923
0
LINE
8
BLACK
6
CONTINUOUS
10
112.851
20
-82.1923
11
112.847
21
-82.1865
0
LINE
8
BLACK
6
CONTINUOUS
10
112.847
20
-82.1865
11
112.846
21
-82.1798
0
LINE
8
BLACK
6
CONTINUOUS
10
112.846
20
-82.1798
11
112.844
21
-82.1734
0
LINE
8
BLACK
6
CONTINUOUS
10
112.844
20
-82.1734
11
112.844
21
-82.1667
0
LINE
8
BLACK
6
CONTINUOUS
10
112.844
20
-82.1667
11
112.844
21
-82.1667
0
LINE
8
BLACK
6
CONTINUOUS
10
112.844
20
-82.1667
11
112.844
21
-65.1533
0
LINE
8
BLACK
6
CONTINUOUS
10
112.844
20
-65.1533
11
112.844
21
-65.1466
0
LINE
8
BLACK
6
CONTINUOUS
10
112.844
20
-65.1466
11
112.846
21
-65.1402
0
LINE
8
BLACK
6
CONTINUOUS
10
112.846
20
-65.1402
11
112.847
21
-65.1335
0
LINE
8
BLACK
6
CONTINUOUS
10
112.847
20
-65.1335
11
112.851
21
-65.1277
0
LINE
8
BLACK
6
CONTINUOUS
10
112.851
20
-65.1277
11
112.853
21
-65.1213
0
LINE
8
BLACK
6
CONTINUOUS
10
112.853
20
-65.1213
11
112.857
21
-65.1161
0
LINE
8
BLACK
6
CONTINUOUS
10
112.857
20
-65.1161
11
112.861
21
-65.1103
0
LINE
8
BLACK
6
CONTINUOUS
10
112.861
20
-65.1103
11
112.866
21
-65.1059
0
LINE
8
BLACK
6
CONTINUOUS
10
112.866
20
-65.1059
11
112.87
21
-65.1007
0
LINE
8
BLACK
6
CONTINUOUS
10
112.87
20
-65.1007
11
112.876
21
-65.0973
0
LINE
8
BLACK
6
CONTINUOUS
10
112.876
20
-65.0973
11
112.881
21
-65.093
0
LINE
8
BLACK
6
CONTINUOUS
10
112.881
20
-65.093
11
112.888
21
-65.0907
0
LINE
8
BLACK
6
CONTINUOUS
10
112.888
20
-65.0907
11
112.894
21
-65.0873
0
LINE
8
BLACK
6
CONTINUOUS
10
112.894
20
-65.0873
11
112.9
21
-65.0861
0
LINE
8
BLACK
6
CONTINUOUS
10
112.9
20
-65.0861
11
112.907
21
-65.0838
0
LINE
8
BLACK
6
CONTINUOUS
10
112.907
20
-65.0838
11
112.913
21
-65.0838
0
LINE
8
BLACK
6
CONTINUOUS
10
112.913
20
-65.0838
11
112.913
21
-65.0838
0
LINE
8
BLACK
6
CONTINUOUS
10
112.913
20
-65.0838
11
130.927
21
-65.0838
0
LINE
8
BLACK
6
CONTINUOUS
10
130.927
20
-65.0838
11
130.927
21
-65.0838
0
LINE
8
BLACK
6
CONTINUOUS
10
112.996
20
-65.2362
11
112.996
21
-82.0838
0
LINE
8
BLACK
6
CONTINUOUS
10
112.996
20
-82.0838
11
130.844
21
-82.0838
0
LINE
8
BLACK
6
CONTINUOUS
10
130.844
20
-82.0838
11
130.844
21
-65.2362
0
LINE
8
BLACK
6
CONTINUOUS
10
130.844
20
-65.2362
11
112.996
21
-65.2362
0
LINE
8
BLACK
6
CONTINUOUS
10
123.533
20
-65.7207
11
123.534
21
-65.7207
0
LINE
8
BLACK
6
CONTINUOUS
10
123.534
20
-65.7207
11
123.55
21
-65.7264
0
LINE
8
BLACK
6
CONTINUOUS
10
123.55
20
-65.7264
11
123.565
21
-65.7316
0
LINE
8
BLACK
6
CONTINUOUS
10
123.565
20
-65.7316
11
123.566
21
-65.7324
0
LINE
8
BLACK
6
CONTINUOUS
10
123.566
20
-65.7324
11
123.567
21
-65.7328
0
LINE
8
BLACK
6
CONTINUOUS
10
123.567
20
-65.7328
11
123.58
21
-65.7434
0
LINE
8
BLACK
6
CONTINUOUS
10
123.58
20
-65.7434
11
123.593
21
-65.7537
0
LINE
8
BLACK
6
CONTINUOUS
10
123.593
20
-65.7537
11
123.593
21
-65.7547
0
LINE
8
BLACK
6
CONTINUOUS
10
123.593
20
-65.7547
11
123.594
21
-65.7555
0
LINE
8
BLACK
6
CONTINUOUS
10
123.594
20
-65.7555
11
123.603
21
-65.7697
0
LINE
8
BLACK
6
CONTINUOUS
10
123.603
20
-65.7697
11
123.611
21
-65.7838
0
LINE
8
BLACK
6
CONTINUOUS
10
123.611
20
-65.7838
11
123.611
21
-65.785
0
LINE
8
BLACK
6
CONTINUOUS
10
123.611
20
-65.785
11
123.612
21
-65.786
0
LINE
8
BLACK
6
CONTINUOUS
10
123.612
20
-65.786
11
123.615
21
-65.8023
0
LINE
8
BLACK
6
CONTINUOUS
10
123.615
20
-65.8023
11
123.618
21
-65.8184
0
LINE
8
BLACK
6
CONTINUOUS
10
123.618
20
-65.8184
11
123.618
21
-65.8196
0
LINE
8
BLACK
6
CONTINUOUS
10
123.618
20
-65.8196
11
123.618
21
-65.8208
0
LINE
8
BLACK
6
CONTINUOUS
10
123.618
20
-65.8208
11
123.618
21
-66.9892
0
LINE
8
BLACK
6
CONTINUOUS
10
123.618
20
-66.9892
11
123.952
21
-66.9892
0
LINE
8
BLACK
6
CONTINUOUS
10
123.952
20
-66.9892
11
123.987
21
-66.9953
0
LINE
8
BLACK
6
CONTINUOUS
10
123.987
20
-66.9953
11
124.017
21
-67.0129
0
LINE
8
BLACK
6
CONTINUOUS
10
124.017
20
-67.0129
11
124.04
21
-67.04
0
LINE
8
BLACK
6
CONTINUOUS
10
124.04
20
-67.04
11
124.052
21
-67.0731
0
LINE
8
BLACK
6
CONTINUOUS
10
124.052
20
-67.0731
11
124.052
21
-67.1084
0
LINE
8
BLACK
6
CONTINUOUS
10
124.052
20
-67.1084
11
124.04
21
-67.1416
0
LINE
8
BLACK
6
CONTINUOUS
10
124.04
20
-67.1416
11
124.017
21
-67.1686
0
LINE
8
BLACK
6
CONTINUOUS
10
124.017
20
-67.1686
11
123.987
21
-67.1862
0
LINE
8
BLACK
6
CONTINUOUS
10
123.987
20
-67.1862
11
123.952
21
-67.1924
0
LINE
8
BLACK
6
CONTINUOUS
10
123.952
20
-67.1924
11
123.081
21
-67.1924
0
LINE
8
BLACK
6
CONTINUOUS
10
123.081
20
-67.1924
11
123.046
21
-67.1862
0
LINE
8
BLACK
6
CONTINUOUS
10
123.046
20
-67.1862
11
123.016
21
-67.1686
0
LINE
8
BLACK
6
CONTINUOUS
10
123.016
20
-67.1686
11
122.993
21
-67.1416
0
LINE
8
BLACK
6
CONTINUOUS
10
122.993
20
-67.1416
11
122.981
21
-67.1084
0
LINE
8
BLACK
6
CONTINUOUS
10
122.981
20
-67.1084
11
122.981
21
-67.0731
0
LINE
8
BLACK
6
CONTINUOUS
10
122.981
20
-67.0731
11
122.993
21
-67.04
0
LINE
8
BLACK
6
CONTINUOUS
10
122.993
20
-67.04
11
123.016
21
-67.0129
0
LINE
8
BLACK
6
CONTINUOUS
10
123.016
20
-67.0129
11
123.046
21
-66.9953
0
LINE
8
BLACK
6
CONTINUOUS
10
123.046
20
-66.9953
11
123.081
21
-66.9892
0
LINE
8
BLACK
6
CONTINUOUS
10
123.081
20
-66.9892
11
123.415
21
-66.9892
0
LINE
8
BLACK
6
CONTINUOUS
10
123.415
20
-66.9892
11
123.415
21
-66.0982
0
LINE
8
BLACK
6
CONTINUOUS
10
123.415
20
-66.0982
11
123.291
21
-66.2012
0
LINE
8
BLACK
6
CONTINUOUS
10
123.291
20
-66.2012
11
123.278
21
-66.2087
0
LINE
8
BLACK
6
CONTINUOUS
10
123.278
20
-66.2087
11
123.265
21
-66.2169
0
LINE
8
BLACK
6
CONTINUOUS
10
123.265
20
-66.2169
11
123.12
21
-66.2774
0
LINE
8
BLACK
6
CONTINUOUS
10
123.12
20
-66.2774
11
123.086
21
-66.2851
0
LINE
8
BLACK
6
CONTINUOUS
10
123.086
20
-66.2851
11
123.051
21
-66.2806
0
LINE
8
BLACK
6
CONTINUOUS
10
123.051
20
-66.2806
11
123.019
21
-66.2644
0
LINE
8
BLACK
6
CONTINUOUS
10
123.019
20
-66.2644
11
122.996
21
-66.2384
0
LINE
8
BLACK
6
CONTINUOUS
10
122.996
20
-66.2384
11
122.982
21
-66.2058
0
LINE
8
BLACK
6
CONTINUOUS
10
122.982
20
-66.2058
11
122.98
21
-66.1706
0
LINE
8
BLACK
6
CONTINUOUS
10
122.98
20
-66.1706
11
122.991
21
-66.1369
0
LINE
8
BLACK
6
CONTINUOUS
10
122.991
20
-66.1369
11
123.012
21
-66.1089
0
LINE
8
BLACK
6
CONTINUOUS
10
123.012
20
-66.1089
11
123.042
21
-66.0898
0
LINE
8
BLACK
6
CONTINUOUS
10
123.042
20
-66.0898
11
123.173
21
-66.0353
0
LINE
8
BLACK
6
CONTINUOUS
10
123.173
20
-66.0353
11
123.299
21
-65.9307
0
LINE
8
BLACK
6
CONTINUOUS
10
123.299
20
-65.9307
11
123.437
21
-65.7573
0
LINE
8
BLACK
6
CONTINUOUS
10
123.437
20
-65.7573
11
123.438
21
-65.7565
0
LINE
8
BLACK
6
CONTINUOUS
10
123.438
20
-65.7565
11
123.439
21
-65.7555
0
LINE
8
BLACK
6
CONTINUOUS
10
123.439
20
-65.7555
11
123.451
21
-65.7449
0
LINE
8
BLACK
6
CONTINUOUS
10
123.451
20
-65.7449
11
123.464
21
-65.734
0
LINE
8
BLACK
6
CONTINUOUS
10
123.464
20
-65.734
11
123.465
21
-65.7336
0
LINE
8
BLACK
6
CONTINUOUS
10
123.465
20
-65.7336
11
123.466
21
-65.7328
0
LINE
8
BLACK
6
CONTINUOUS
10
123.466
20
-65.7328
11
123.481
21
-65.7272
0
LINE
8
BLACK
6
CONTINUOUS
10
123.481
20
-65.7272
11
123.497
21
-65.7212
0
LINE
8
BLACK
6
CONTINUOUS
10
123.497
20
-65.7212
11
123.498
21
-65.7211
0
LINE
8
BLACK
6
CONTINUOUS
10
123.498
20
-65.7211
11
123.499
21
-65.7207
0
LINE
8
BLACK
6
CONTINUOUS
10
123.499
20
-65.7207
11
123.515
21
-65.7207
0
LINE
8
BLACK
6
CONTINUOUS
10
123.515
20
-65.7207
11
123.532
21
-65.7203
0
LINE
8
BLACK
6
CONTINUOUS
10
123.532
20
-65.7203
11
123.533
21
-65.7207
0
LINE
8
BLACK
6
CONTINUOUS
10
120.555
20
-65.7216
11
120.568
21
-65.7229
0
LINE
8
BLACK
6
CONTINUOUS
10
120.568
20
-65.7229
11
120.786
21
-65.7834
0
LINE
8
BLACK
6
CONTINUOUS
10
120.786
20
-65.7834
11
120.818
21
-65.7986
0
LINE
8
BLACK
6
CONTINUOUS
10
120.818
20
-65.7986
11
120.843
21
-65.8237
0
LINE
8
BLACK
6
CONTINUOUS
10
120.843
20
-65.8237
11
120.857
21
-65.8559
0
LINE
8
BLACK
6
CONTINUOUS
10
120.857
20
-65.8559
11
120.86
21
-65.891
0
LINE
8
BLACK
6
CONTINUOUS
10
120.86
20
-65.891
11
120.851
21
-65.925
0
LINE
8
BLACK
6
CONTINUOUS
10
120.851
20
-65.925
11
120.83
21
-65.9537
0
LINE
8
BLACK
6
CONTINUOUS
10
120.83
20
-65.9537
11
120.801
21
-65.9737
0
LINE
8
BLACK
6
CONTINUOUS
10
120.801
20
-65.9737
11
120.767
21
-65.9825
0
LINE
8
BLACK
6
CONTINUOUS
10
120.767
20
-65.9825
11
120.732
21
-65.9791
0
LINE
8
BLACK
6
CONTINUOUS
10
120.732
20
-65.9791
11
120.527
21
-65.9224
0
LINE
8
BLACK
6
CONTINUOUS
10
120.527
20
-65.9224
11
120.199
21
-65.9224
0
LINE
8
BLACK
6
CONTINUOUS
10
120.199
20
-65.9224
11
120.086
21
-65.9691
0
LINE
8
BLACK
6
CONTINUOUS
10
120.086
20
-65.9691
11
120.039
21
-66.0088
0
LINE
8
BLACK
6
CONTINUOUS
10
120.039
20
-66.0088
11
119.99
21
-66.0908
0
LINE
8
BLACK
6
CONTINUOUS
10
119.99
20
-66.0908
11
119.99
21
-66.1555
0
LINE
8
BLACK
6
CONTINUOUS
10
119.99
20
-66.1555
11
120.039
21
-66.2376
0
LINE
8
BLACK
6
CONTINUOUS
10
120.039
20
-66.2376
11
120.086
21
-66.2772
0
LINE
8
BLACK
6
CONTINUOUS
10
120.086
20
-66.2772
11
120.208
21
-66.328
0
LINE
8
BLACK
6
CONTINUOUS
10
120.208
20
-66.328
11
120.489
21
-66.3865
0
LINE
8
BLACK
6
CONTINUOUS
10
120.489
20
-66.3865
11
120.498
21
-66.3901
0
LINE
8
BLACK
6
CONTINUOUS
10
120.498
20
-66.3901
11
120.508
21
-66.3922
0
LINE
8
BLACK
6
CONTINUOUS
10
120.508
20
-66.3922
11
120.653
21
-66.4527
0
LINE
8
BLACK
6
CONTINUOUS
10
120.653
20
-66.4527
11
120.666
21
-66.4609
0
LINE
8
BLACK
6
CONTINUOUS
10
120.666
20
-66.4609
11
120.679
21
-66.4684
0
LINE
8
BLACK
6
CONTINUOUS
10
120.679
20
-66.4684
11
120.751
21
-66.5289
0
LINE
8
BLACK
6
CONTINUOUS
10
120.751
20
-66.5289
11
120.762
21
-66.5419
0
LINE
8
BLACK
6
CONTINUOUS
10
120.762
20
-66.5419
11
120.773
21
-66.5547
0
LINE
8
BLACK
6
CONTINUOUS
10
120.773
20
-66.5547
11
120.846
21
-66.6756
0
LINE
8
BLACK
6
CONTINUOUS
10
120.846
20
-66.6756
11
120.849
21
-66.6847
0
LINE
8
BLACK
6
CONTINUOUS
10
120.849
20
-66.6847
11
120.854
21
-66.6932
0
LINE
8
BLACK
6
CONTINUOUS
10
120.854
20
-66.6932
11
120.856
21
-66.7011
0
LINE
8
BLACK
6
CONTINUOUS
10
120.856
20
-66.7011
11
120.859
21
-66.7086
0
LINE
8
BLACK
6
CONTINUOUS
10
120.859
20
-66.7086
11
120.859
21
-66.7183
0
LINE
8
BLACK
6
CONTINUOUS
10
120.859
20
-66.7183
11
120.86
21
-66.7279
0
LINE
8
BLACK
6
CONTINUOUS
10
120.86
20
-66.7279
11
120.86
21
-66.8489
0
LINE
8
BLACK
6
CONTINUOUS
10
120.86
20
-66.8489
11
120.859
21
-66.8585
0
LINE
8
BLACK
6
CONTINUOUS
10
120.859
20
-66.8585
11
120.859
21
-66.8682
0
LINE
8
BLACK
6
CONTINUOUS
10
120.859
20
-66.8682
11
120.856
21
-66.8757
0
LINE
8
BLACK
6
CONTINUOUS
10
120.856
20
-66.8757
11
120.854
21
-66.8836
0
LINE
8
BLACK
6
CONTINUOUS
10
120.854
20
-66.8836
11
120.849
21
-66.892
0
LINE
8
BLACK
6
CONTINUOUS
10
120.849
20
-66.892
11
120.846
21
-66.9011
0
LINE
8
BLACK
6
CONTINUOUS
10
120.846
20
-66.9011
11
120.773
21
-67.0221
0
LINE
8
BLACK
6
CONTINUOUS
10
120.773
20
-67.0221
11
120.762
21
-67.0349
0
LINE
8
BLACK
6
CONTINUOUS
10
120.762
20
-67.0349
11
120.751
21
-67.0479
0
LINE
8
BLACK
6
CONTINUOUS
10
120.751
20
-67.0479
11
120.679
21
-67.1083
0
LINE
8
BLACK
6
CONTINUOUS
10
120.679
20
-67.1083
11
120.666
21
-67.1159
0
LINE
8
BLACK
6
CONTINUOUS
10
120.666
20
-67.1159
11
120.653
21
-67.1241
0
LINE
8
BLACK
6
CONTINUOUS
10
120.653
20
-67.1241
11
120.508
21
-67.1846
0
LINE
8
BLACK
6
CONTINUOUS
10
120.508
20
-67.1846
11
120.505
21
-67.1851
0
LINE
8
BLACK
6
CONTINUOUS
10
120.505
20
-67.1851
11
120.503
21
-67.1862
0
LINE
8
BLACK
6
CONTINUOUS
10
120.503
20
-67.1862
11
120.488
21
-67.1889
0
LINE
8
BLACK
6
CONTINUOUS
10
120.488
20
-67.1889
11
120.473
21
-67.1923
0
LINE
8
BLACK
6
CONTINUOUS
10
120.473
20
-67.1923
11
120.471
21
-67.192
0
LINE
8
BLACK
6
CONTINUOUS
10
120.471
20
-67.192
11
120.469
21
-67.1924
0
LINE
8
BLACK
6
CONTINUOUS
10
120.469
20
-67.1924
11
120.106
21
-67.1924
0
LINE
8
BLACK
6
CONTINUOUS
10
120.106
20
-67.1924
11
120.092
21
-67.19
0
LINE
8
BLACK
6
CONTINUOUS
10
120.092
20
-67.19
11
120.079
21
-67.1887
0
LINE
8
BLACK
6
CONTINUOUS
10
120.079
20
-67.1887
11
119.861
21
-67.1282
0
LINE
8
BLACK
6
CONTINUOUS
10
119.861
20
-67.1282
11
119.829
21
-67.113
0
LINE
8
BLACK
6
CONTINUOUS
10
119.829
20
-67.113
11
119.804
21
-67.0878
0
LINE
8
BLACK
6
CONTINUOUS
10
119.804
20
-67.0878
11
119.79
21
-67.0557
0
LINE
8
BLACK
6
CONTINUOUS
10
119.79
20
-67.0557
11
119.787
21
-67.0205
0
LINE
8
BLACK
6
CONTINUOUS
10
119.787
20
-67.0205
11
119.796
21
-66.9865
0
LINE
8
BLACK
6
CONTINUOUS
10
119.796
20
-66.9865
11
119.817
21
-66.9578
0
LINE
8
BLACK
6
CONTINUOUS
10
119.817
20
-66.9578
11
119.846
21
-66.9378
0
LINE
8
BLACK
6
CONTINUOUS
10
119.846
20
-66.9378
11
119.88
21
-66.929
0
LINE
8
BLACK
6
CONTINUOUS
10
119.88
20
-66.929
11
119.915
21
-66.9324
0
LINE
8
BLACK
6
CONTINUOUS
10
119.915
20
-66.9324
11
120.12
21
-66.9892
0
LINE
8
BLACK
6
CONTINUOUS
10
120.12
20
-66.9892
11
120.448
21
-66.9892
0
LINE
8
BLACK
6
CONTINUOUS
10
120.448
20
-66.9892
11
120.56
21
-66.9424
0
LINE
8
BLACK
6
CONTINUOUS
10
120.56
20
-66.9424
11
120.608
21
-66.9028
0
LINE
8
BLACK
6
CONTINUOUS
10
120.608
20
-66.9028
11
120.657
21
-66.8207
0
LINE
8
BLACK
6
CONTINUOUS
10
120.657
20
-66.8207
11
120.657
21
-66.7561
0
LINE
8
BLACK
6
CONTINUOUS
10
120.657
20
-66.7561
11
120.608
21
-66.674
0
LINE
8
BLACK
6
CONTINUOUS
10
120.608
20
-66.674
11
120.56
21
-66.6344
0
LINE
8
BLACK
6
CONTINUOUS
10
120.56
20
-66.6344
11
120.438
21
-66.5835
0
LINE
8
BLACK
6
CONTINUOUS
10
120.438
20
-66.5835
11
120.158
21
-66.525
0
LINE
8
BLACK
6
CONTINUOUS
10
120.158
20
-66.525
11
120.149
21
-66.5214
0
LINE
8
BLACK
6
CONTINUOUS
10
120.149
20
-66.5214
11
120.139
21
-66.5193
0
LINE
8
BLACK
6
CONTINUOUS
10
120.139
20
-66.5193
11
119.994
21
-66.4588
0
LINE
8
BLACK
6
CONTINUOUS
10
119.994
20
-66.4588
11
119.981
21
-66.4507
0
LINE
8
BLACK
6
CONTINUOUS
10
119.981
20
-66.4507
11
119.968
21
-66.4431
0
LINE
8
BLACK
6
CONTINUOUS
10
119.968
20
-66.4431
11
119.896
21
-66.3826
0
LINE
8
BLACK
6
CONTINUOUS
10
119.896
20
-66.3826
11
119.885
21
-66.3697
0
LINE
8
BLACK
6
CONTINUOUS
10
119.885
20
-66.3697
11
119.873
21
-66.3569
0
LINE
8
BLACK
6
CONTINUOUS
10
119.873
20
-66.3569
11
119.801
21
-66.2359
0
LINE
8
BLACK
6
CONTINUOUS
10
119.801
20
-66.2359
11
119.797
21
-66.2268
0
LINE
8
BLACK
6
CONTINUOUS
10
119.797
20
-66.2268
11
119.793
21
-66.2184
0
LINE
8
BLACK
6
CONTINUOUS
10
119.793
20
-66.2184
11
119.791
21
-66.2105
0
LINE
8
BLACK
6
CONTINUOUS
10
119.791
20
-66.2105
11
119.788
21
-66.203
0
LINE
8
BLACK
6
CONTINUOUS
10
119.788
20
-66.203
11
119.788
21
-66.1932
0
LINE
8
BLACK
6
CONTINUOUS
10
119.788
20
-66.1932
11
119.786
21
-66.1836
0
LINE
8
BLACK
6
CONTINUOUS
10
119.786
20
-66.1836
11
119.786
21
-66.0627
0
LINE
8
BLACK
6
CONTINUOUS
10
119.786
20
-66.0627
11
119.788
21
-66.0531
0
LINE
8
BLACK
6
CONTINUOUS
10
119.788
20
-66.0531
11
119.788
21
-66.0434
0
LINE
8
BLACK
6
CONTINUOUS
10
119.788
20
-66.0434
11
119.791
21
-66.0358
0
LINE
8
BLACK
6
CONTINUOUS
10
119.791
20
-66.0358
11
119.793
21
-66.0279
0
LINE
8
BLACK
6
CONTINUOUS
10
119.793
20
-66.0279
11
119.797
21
-66.0195
0
LINE
8
BLACK
6
CONTINUOUS
10
119.797
20
-66.0195
11
119.801
21
-66.0104
0
LINE
8
BLACK
6
CONTINUOUS
10
119.801
20
-66.0104
11
119.873
21
-65.8895
0
LINE
8
BLACK
6
CONTINUOUS
10
119.873
20
-65.8895
11
119.885
21
-65.8767
0
LINE
8
BLACK
6
CONTINUOUS
10
119.885
20
-65.8767
11
119.896
21
-65.8637
0
LINE
8
BLACK
6
CONTINUOUS
10
119.896
20
-65.8637
11
119.968
21
-65.8032
0
LINE
8
BLACK
6
CONTINUOUS
10
119.968
20
-65.8032
11
119.981
21
-65.7956
0
LINE
8
BLACK
6
CONTINUOUS
10
119.981
20
-65.7956
11
119.994
21
-65.7875
0
LINE
8
BLACK
6
CONTINUOUS
10
119.994
20
-65.7875
11
120.139
21
-65.727
0
LINE
8
BLACK
6
CONTINUOUS
10
120.139
20
-65.727
11
120.142
21
-65.7265
0
LINE
8
BLACK
6
CONTINUOUS
10
120.142
20
-65.7265
11
120.144
21
-65.7253
0
LINE
8
BLACK
6
CONTINUOUS
10
120.144
20
-65.7253
11
120.159
21
-65.7226
0
LINE
8
BLACK
6
CONTINUOUS
10
120.159
20
-65.7226
11
120.174
21
-65.7193
0
LINE
8
BLACK
6
CONTINUOUS
10
120.174
20
-65.7193
11
120.176
21
-65.7196
0
LINE
8
BLACK
6
CONTINUOUS
10
120.176
20
-65.7196
11
120.178
21
-65.7192
0
LINE
8
BLACK
6
CONTINUOUS
10
120.178
20
-65.7192
11
120.541
21
-65.7192
0
LINE
8
BLACK
6
CONTINUOUS
10
120.541
20
-65.7192
11
120.555
21
-65.7216
0
LINE
8
BLACK
6
CONTINUOUS
10
122.618
20
-65.7294
11
122.646
21
-65.7501
0
LINE
8
BLACK
6
CONTINUOUS
10
122.646
20
-65.7501
11
122.666
21
-65.7794
0
LINE
8
BLACK
6
CONTINUOUS
10
122.666
20
-65.7794
11
122.674
21
-65.8136
0
LINE
8
BLACK
6
CONTINUOUS
10
122.674
20
-65.8136
11
122.671
21
-65.8487
0
LINE
8
BLACK
6
CONTINUOUS
10
122.671
20
-65.8487
11
122.308
21
-67.1187
0
LINE
8
BLACK
6
CONTINUOUS
10
122.308
20
-67.1187
11
122.306
21
-67.1238
0
LINE
8
BLACK
6
CONTINUOUS
10
122.306
20
-67.1238
11
122.304
21
-67.1293
0
LINE
8
BLACK
6
CONTINUOUS
10
122.304
20
-67.1293
11
122.298
21
-67.1395
0
LINE
8
BLACK
6
CONTINUOUS
10
122.298
20
-67.1395
11
122.293
21
-67.1504
0
LINE
8
BLACK
6
CONTINUOUS
10
122.293
20
-67.1504
11
122.288
21
-67.1543
0
LINE
8
BLACK
6
CONTINUOUS
10
122.288
20
-67.1543
11
122.285
21
-67.1591
0
LINE
8
BLACK
6
CONTINUOUS
10
122.285
20
-67.1591
11
122.276
21
-67.1665
0
LINE
8
BLACK
6
CONTINUOUS
10
122.276
20
-67.1665
11
122.267
21
-67.1749
0
LINE
8
BLACK
6
CONTINUOUS
10
122.267
20
-67.1749
11
122.262
21
-67.1772
0
LINE
8
BLACK
6
CONTINUOUS
10
122.262
20
-67.1772
11
122.258
21
-67.1807
0
LINE
8
BLACK
6
CONTINUOUS
10
122.258
20
-67.1807
11
122.246
21
-67.1844
0
LINE
8
BLACK
6
CONTINUOUS
10
122.246
20
-67.1844
11
122.235
21
-67.1893
0
LINE
8
BLACK
6
CONTINUOUS
10
122.235
20
-67.1893
11
122.229
21
-67.1897
0
LINE
8
BLACK
6
CONTINUOUS
10
122.229
20
-67.1897
11
122.224
21
-67.1914
0
LINE
8
BLACK
6
CONTINUOUS
10
122.224
20
-67.1914
11
122.212
21
-67.191
0
LINE
8
BLACK
6
CONTINUOUS
10
122.212
20
-67.191
11
122.2
21
-67.1918
0
LINE
8
BLACK
6
CONTINUOUS
10
122.2
20
-67.1918
11
122.194
21
-67.1903
0
LINE
8
BLACK
6
CONTINUOUS
10
122.194
20
-67.1903
11
122.189
21
-67.1901
0
LINE
8
BLACK
6
CONTINUOUS
10
122.189
20
-67.1901
11
122.177
21
-67.1855
0
LINE
8
BLACK
6
CONTINUOUS
10
122.177
20
-67.1855
11
122.166
21
-67.1821
0
LINE
8
BLACK
6
CONTINUOUS
10
122.166
20
-67.1821
11
122.161
21
-67.1788
0
LINE
8
BLACK
6
CONTINUOUS
10
122.161
20
-67.1788
11
122.156
21
-67.1767
0
LINE
8
BLACK
6
CONTINUOUS
10
122.156
20
-67.1767
11
122.147
21
-67.1685
0
LINE
8
BLACK
6
CONTINUOUS
10
122.147
20
-67.1685
11
122.137
21
-67.1614
0
LINE
8
BLACK
6
CONTINUOUS
10
122.137
20
-67.1614
11
122.134
21
-67.1568
0
LINE
8
BLACK
6
CONTINUOUS
10
122.134
20
-67.1568
11
122.13
21
-67.153
0
LINE
8
BLACK
6
CONTINUOUS
10
122.13
20
-67.153
11
122.124
21
-67.1422
0
LINE
8
BLACK
6
CONTINUOUS
10
122.124
20
-67.1422
11
122.118
21
-67.1322
0
LINE
8
BLACK
6
CONTINUOUS
10
122.118
20
-67.1322
11
122.116
21
-67.1267
0
LINE
8
BLACK
6
CONTINUOUS
10
122.116
20
-67.1267
11
122.114
21
-67.1217
0
LINE
8
BLACK
6
CONTINUOUS
10
122.114
20
-67.1217
11
121.92
21
-66.517
0
LINE
8
BLACK
6
CONTINUOUS
10
121.92
20
-66.517
11
121.726
21
-67.1217
0
LINE
8
BLACK
6
CONTINUOUS
10
121.726
20
-67.1217
11
121.724
21
-67.1267
0
LINE
8
BLACK
6
CONTINUOUS
10
121.724
20
-67.1267
11
121.722
21
-67.1322
0
LINE
8
BLACK
6
CONTINUOUS
10
121.722
20
-67.1322
11
121.716
21
-67.1422
0
LINE
8
BLACK
6
CONTINUOUS
10
121.716
20
-67.1422
11
121.71
21
-67.153
0
LINE
8
BLACK
6
CONTINUOUS
10
121.71
20
-67.153
11
121.706
21
-67.1568
0
LINE
8
BLACK
6
CONTINUOUS
10
121.706
20
-67.1568
11
121.703
21
-67.1614
0
LINE
8
BLACK
6
CONTINUOUS
10
121.703
20
-67.1614
11
121.693
21
-67.1685
0
LINE
8
BLACK
6
CONTINUOUS
10
121.693
20
-67.1685
11
121.684
21
-67.1767
0
LINE
8
BLACK
6
CONTINUOUS
10
121.684
20
-67.1767
11
121.679
21
-67.1788
0
LINE
8
BLACK
6
CONTINUOUS
10
121.679
20
-67.1788
11
121.674
21
-67.1821
0
LINE
8
BLACK
6
CONTINUOUS
10
121.674
20
-67.1821
11
121.663
21
-67.1855
0
LINE
8
BLACK
6
CONTINUOUS
10
121.663
20
-67.1855
11
121.651
21
-67.1901
0
LINE
8
BLACK
6
CONTINUOUS
10
121.651
20
-67.1901
11
121.646
21
-67.1903
0
LINE
8
BLACK
6
CONTINUOUS
10
121.646
20
-67.1903
11
121.64
21
-67.1918
0
LINE
8
BLACK
6
CONTINUOUS
10
121.64
20
-67.1918
11
121.628
21
-67.191
0
LINE
8
BLACK
6
CONTINUOUS
10
121.628
20
-67.191
11
121.616
21
-67.1914
0
LINE
8
BLACK
6
CONTINUOUS
10
121.616
20
-67.1914
11
121.611
21
-67.1897
0
LINE
8
BLACK
6
CONTINUOUS
10
121.611
20
-67.1897
11
121.605
21
-67.1893
0
LINE
8
BLACK
6
CONTINUOUS
10
121.605
20
-67.1893
11
121.594
21
-67.1844
0
LINE
8
BLACK
6
CONTINUOUS
10
121.594
20
-67.1844
11
121.582
21
-67.1807
0
LINE
8
BLACK
6
CONTINUOUS
10
121.582
20
-67.1807
11
121.578
21
-67.1772
0
LINE
8
BLACK
6
CONTINUOUS
10
121.578
20
-67.1772
11
121.573
21
-67.1749
0
LINE
8
BLACK
6
CONTINUOUS
10
121.573
20
-67.1749
11
121.564
21
-67.1665
0
LINE
8
BLACK
6
CONTINUOUS
10
121.564
20
-67.1665
11
121.555
21
-67.1591
0
LINE
8
BLACK
6
CONTINUOUS
10
121.555
20
-67.1591
11
121.552
21
-67.1543
0
LINE
8
BLACK
6
CONTINUOUS
10
121.552
20
-67.1543
11
121.547
21
-67.1504
0
LINE
8
BLACK
6
CONTINUOUS
10
121.547
20
-67.1504
11
121.542
21
-67.1395
0
LINE
8
BLACK
6
CONTINUOUS
10
121.542
20
-67.1395
11
121.536
21
-67.1293
0
LINE
8
BLACK
6
CONTINUOUS
10
121.536
20
-67.1293
11
121.534
21
-67.1238
0
LINE
8
BLACK
6
CONTINUOUS
10
121.534
20
-67.1238
11
121.532
21
-67.1187
0
LINE
8
BLACK
6
CONTINUOUS
10
121.532
20
-67.1187
11
121.169
21
-65.8487
0
LINE
8
BLACK
6
CONTINUOUS
10
121.169
20
-65.8487
11
121.166
21
-65.8136
0
LINE
8
BLACK
6
CONTINUOUS
10
121.166
20
-65.8136
11
121.174
21
-65.7794
0
LINE
8
BLACK
6
CONTINUOUS
10
121.174
20
-65.7794
11
121.194
21
-65.7501
0
LINE
8
BLACK
6
CONTINUOUS
10
121.194
20
-65.7501
11
121.222
21
-65.7294
0
LINE
8
BLACK
6
CONTINUOUS
10
121.222
20
-65.7294
11
121.256
21
-65.7197
0
LINE
8
BLACK
6
CONTINUOUS
10
121.256
20
-65.7197
11
121.292
21
-65.7222
0
LINE
8
BLACK
6
CONTINUOUS
10
121.292
20
-65.7222
11
121.324
21
-65.7366
0
LINE
8
BLACK
6
CONTINUOUS
10
121.324
20
-65.7366
11
121.349
21
-65.7611
0
LINE
8
BLACK
6
CONTINUOUS
10
121.349
20
-65.7611
11
121.365
21
-65.7929
0
LINE
8
BLACK
6
CONTINUOUS
10
121.365
20
-65.7929
11
121.635
21
-66.7402
0
LINE
8
BLACK
6
CONTINUOUS
10
121.635
20
-66.7402
11
121.823
21
-66.1527
0
LINE
8
BLACK
6
CONTINUOUS
10
121.823
20
-66.1527
11
121.825
21
-66.1491
0
LINE
8
BLACK
6
CONTINUOUS
10
121.825
20
-66.1491
11
121.826
21
-66.1452
0
LINE
8
BLACK
6
CONTINUOUS
10
121.826
20
-66.1452
11
121.833
21
-66.1336
0
LINE
8
BLACK
6
CONTINUOUS
10
121.833
20
-66.1336
11
121.84
21
-66.1214
0
LINE
8
BLACK
6
CONTINUOUS
10
121.84
20
-66.1214
11
121.843
21
-66.1187
0
LINE
8
BLACK
6
CONTINUOUS
10
121.843
20
-66.1187
11
121.845
21
-66.1153
0
LINE
8
BLACK
6
CONTINUOUS
10
121.845
20
-66.1153
11
121.856
21
-66.1069
0
LINE
8
BLACK
6
CONTINUOUS
10
121.856
20
-66.1069
11
121.866
21
-66.0977
0
LINE
8
BLACK
6
CONTINUOUS
10
121.866
20
-66.0977
11
121.87
21
-66.0962
0
LINE
8
BLACK
6
CONTINUOUS
10
121.87
20
-66.0962
11
121.873
21
-66.0937
0
LINE
8
BLACK
6
CONTINUOUS
10
121.873
20
-66.0937
11
121.886
21
-66.0895
0
LINE
8
BLACK
6
CONTINUOUS
10
121.886
20
-66.0895
11
121.898
21
-66.0843
0
LINE
8
BLACK
6
CONTINUOUS
10
121.898
20
-66.0843
11
121.902
21
-66.0842
0
LINE
8
BLACK
6
CONTINUOUS
10
121.902
20
-66.0842
11
121.906
21
-66.083
0
LINE
8
BLACK
6
CONTINUOUS
10
121.906
20
-66.083
11
121.92
21
-66.0835
0
LINE
8
BLACK
6
CONTINUOUS
10
121.92
20
-66.0835
11
121.934
21
-66.083
0
LINE
8
BLACK
6
CONTINUOUS
10
121.934
20
-66.083
11
121.938
21
-66.0842
0
LINE
8
BLACK
6
CONTINUOUS
10
121.938
20
-66.0842
11
121.942
21
-66.0843
0
LINE
8
BLACK
6
CONTINUOUS
10
121.942
20
-66.0843
11
121.954
21
-66.0895
0
LINE
8
BLACK
6
CONTINUOUS
10
121.954
20
-66.0895
11
121.967
21
-66.0937
0
LINE
8
BLACK
6
CONTINUOUS
10
121.967
20
-66.0937
11
121.97
21
-66.0962
0
LINE
8
BLACK
6
CONTINUOUS
10
121.97
20
-66.0962
11
121.974
21
-66.0977
0
LINE
8
BLACK
6
CONTINUOUS
10
121.974
20
-66.0977
11
121.984
21
-66.1069
0
LINE
8
BLACK
6
CONTINUOUS
10
121.984
20
-66.1069
11
121.995
21
-66.1153
0
LINE
8
BLACK
6
CONTINUOUS
10
121.995
20
-66.1153
11
121.997
21
-66.1187
0
LINE
8
BLACK
6
CONTINUOUS
10
121.997
20
-66.1187
11
122
21
-66.1214
0
LINE
8
BLACK
6
CONTINUOUS
10
122
20
-66.1214
11
122.007
21
-66.1336
0
LINE
8
BLACK
6
CONTINUOUS
10
122.007
20
-66.1336
11
122.014
21
-66.1452
0
LINE
8
BLACK
6
CONTINUOUS
10
122.014
20
-66.1452
11
122.015
21
-66.1491
0
LINE
8
BLACK
6
CONTINUOUS
10
122.015
20
-66.1491
11
122.017
21
-66.1527
0
LINE
8
BLACK
6
CONTINUOUS
10
122.017
20
-66.1527
11
122.205
21
-66.7402
0
LINE
8
BLACK
6
CONTINUOUS
10
122.205
20
-66.7402
11
122.475
21
-65.7929
0
LINE
8
BLACK
6
CONTINUOUS
10
122.475
20
-65.7929
11
122.491
21
-65.7611
0
LINE
8
BLACK
6
CONTINUOUS
10
122.491
20
-65.7611
11
122.516
21
-65.7366
0
LINE
8
BLACK
6
CONTINUOUS
10
122.516
20
-65.7366
11
122.548
21
-65.7222
0
LINE
8
BLACK
6
CONTINUOUS
10
122.548
20
-65.7222
11
122.584
21
-65.7197
0
LINE
8
BLACK
6
CONTINUOUS
10
122.584
20
-65.7197
11
122.618
21
-65.7294
0
LINE
8
BLACK
6
CONTINUOUS
10
149.215
20
-65.0838
11
149.221
21
-65.0838
0
LINE
8
BLACK
6
CONTINUOUS
10
149.221
20
-65.0838
11
149.228
21
-65.0861
0
LINE
8
BLACK
6
CONTINUOUS
10
149.228
20
-65.0861
11
149.234
21
-65.0873
0
LINE
8
BLACK
6
CONTINUOUS
10
149.234
20
-65.0873
11
149.24
21
-65.0907
0
LINE
8
BLACK
6
CONTINUOUS
10
149.24
20
-65.0907
11
149.247
21
-65.093
0
LINE
8
BLACK
6
CONTINUOUS
10
149.247
20
-65.093
11
149.252
21
-65.0973
0
LINE
8
BLACK
6
CONTINUOUS
10
149.252
20
-65.0973
11
149.258
21
-65.1007
0
LINE
8
BLACK
6
CONTINUOUS
10
149.258
20
-65.1007
11
149.262
21
-65.1059
0
LINE
8
BLACK
6
CONTINUOUS
10
149.262
20
-65.1059
11
149.267
21
-65.1103
0
LINE
8
BLACK
6
CONTINUOUS
10
149.267
20
-65.1103
11
149.271
21
-65.1161
0
LINE
8
BLACK
6
CONTINUOUS
10
149.271
20
-65.1161
11
149.275
21
-65.1213
0
LINE
8
BLACK
6
CONTINUOUS
10
149.275
20
-65.1213
11
149.277
21
-65.1277
0
LINE
8
BLACK
6
CONTINUOUS
10
149.277
20
-65.1277
11
149.281
21
-65.1335
0
LINE
8
BLACK
6
CONTINUOUS
10
149.281
20
-65.1335
11
149.282
21
-65.1402
0
LINE
8
BLACK
6
CONTINUOUS
10
149.282
20
-65.1402
11
149.284
21
-65.1466
0
LINE
8
BLACK
6
CONTINUOUS
10
149.284
20
-65.1466
11
149.284
21
-65.1533
0
LINE
8
BLACK
6
CONTINUOUS
10
149.284
20
-65.1533
11
149.284
21
-65.1533
0
LINE
8
BLACK
6
CONTINUOUS
10
149.284
20
-65.1533
11
149.284
21
-82.1667
0
LINE
8
BLACK
6
CONTINUOUS
10
149.284
20
-82.1667
11
149.284
21
-82.1667
0
LINE
8
BLACK
6
CONTINUOUS
10
149.284
20
-82.1667
11
149.284
21
-82.1734
0
LINE
8
BLACK
6
CONTINUOUS
10
149.284
20
-82.1734
11
149.282
21
-82.1798
0
LINE
8
BLACK
6
CONTINUOUS
10
149.282
20
-82.1798
11
149.281
21
-82.1865
0
LINE
8
BLACK
6
CONTINUOUS
10
149.281
20
-82.1865
11
149.277
21
-82.1923
0
LINE
8
BLACK
6
CONTINUOUS
10
149.277
20
-82.1923
11
149.275
21
-82.1987
0
LINE
8
BLACK
6
CONTINUOUS
10
149.275
20
-82.1987
11
149.271
21
-82.2039
0
LINE
8
BLACK
6
CONTINUOUS
10
149.271
20
-82.2039
11
149.267
21
-82.2097
0
LINE
8
BLACK
6
CONTINUOUS
10
149.267
20
-82.2097
11
149.262
21
-82.2141
0
LINE
8
BLACK
6
CONTINUOUS
10
149.262
20
-82.2141
11
149.258
21
-82.2193
0
LINE
8
BLACK
6
CONTINUOUS
10
149.258
20
-82.2193
11
149.252
21
-82.2227
0
LINE
8
BLACK
6
CONTINUOUS
10
149.252
20
-82.2227
11
149.247
21
-82.227
0
LINE
8
BLACK
6
CONTINUOUS
10
149.247
20
-82.227
11
149.24
21
-82.2293
0
LINE
8
BLACK
6
CONTINUOUS
10
149.24
20
-82.2293
11
149.234
21
-82.2327
0
LINE
8
BLACK
6
CONTINUOUS
10
149.234
20
-82.2327
11
149.228
21
-82.2339
0
LINE
8
BLACK
6
CONTINUOUS
10
149.228
20
-82.2339
11
149.221
21
-82.2362
0
LINE
8
BLACK
6
CONTINUOUS
10
149.221
20
-82.2362
11
149.215
21
-82.2362
0
LINE
8
BLACK
6
CONTINUOUS
10
149.215
20
-82.2362
11
149.215
21
-82.2362
0
LINE
8
BLACK
6
CONTINUOUS
10
149.215
20
-82.2362
11
131.201
21
-82.2362
0
LINE
8
BLACK
6
CONTINUOUS
10
131.201
20
-82.2362
11
131.201
21
-82.2362
0
LINE
8
BLACK
6
CONTINUOUS
10
131.201
20
-82.2362
11
131.195
21
-82.2362
0
LINE
8
BLACK
6
CONTINUOUS
10
131.195
20
-82.2362
11
131.188
21
-82.2339
0
LINE
8
BLACK
6
CONTINUOUS
10
131.188
20
-82.2339
11
131.182
21
-82.2327
0
LINE
8
BLACK
6
CONTINUOUS
10
131.182
20
-82.2327
11
131.176
21
-82.2293
0
LINE
8
BLACK
6
CONTINUOUS
10
131.176
20
-82.2293
11
131.169
21
-82.227
0
LINE
8
BLACK
6
CONTINUOUS
10
131.169
20
-82.227
11
131.164
21
-82.2227
0
LINE
8
BLACK
6
CONTINUOUS
10
131.164
20
-82.2227
11
131.158
21
-82.2193
0
LINE
8
BLACK
6
CONTINUOUS
10
131.158
20
-82.2193
11
131.154
21
-82.2141
0
LINE
8
BLACK
6
CONTINUOUS
10
131.154
20
-82.2141
11
131.149
21
-82.2097
0
LINE
8
BLACK
6
CONTINUOUS
10
131.149
20
-82.2097
11
131.145
21
-82.2039
0
LINE
8
BLACK
6
CONTINUOUS
10
131.145
20
-82.2039
11
131.141
21
-82.1987
0
LINE
8
BLACK
6
CONTINUOUS
10
131.141
20
-82.1987
11
131.139
21
-82.1923
0
LINE
8
BLACK
6
CONTINUOUS
10
131.139
20
-82.1923
11
131.135
21
-82.1865
0
LINE
8
BLACK
6
CONTINUOUS
10
131.135
20
-82.1865
11
131.134
21
-82.1798
0
LINE
8
BLACK
6
CONTINUOUS
10
131.134
20
-82.1798
11
131.132
21
-82.1734
0
LINE
8
BLACK
6
CONTINUOUS
10
131.132
20
-82.1734
11
131.132
21
-82.1667
0
LINE
8
BLACK
6
CONTINUOUS
10
131.132
20
-82.1667
11
131.132
21
-82.1667
0
LINE
8
BLACK
6
CONTINUOUS
10
131.132
20
-82.1667
11
131.132
21
-65.1533
0
LINE
8
BLACK
6
CONTINUOUS
10
131.132
20
-65.1533
11
131.132
21
-65.1466
0
LINE
8
BLACK
6
CONTINUOUS
10
131.132
20
-65.1466
11
131.134
21
-65.1402
0
LINE
8
BLACK
6
CONTINUOUS
10
131.134
20
-65.1402
11
131.135
21
-65.1335
0
LINE
8
BLACK
6
CONTINUOUS
10
131.135
20
-65.1335
11
131.139
21
-65.1277
0
LINE
8
BLACK
6
CONTINUOUS
10
131.139
20
-65.1277
11
131.141
21
-65.1213
0
LINE
8
BLACK
6
CONTINUOUS
10
131.141
20
-65.1213
11
131.145
21
-65.1161
0
LINE
8
BLACK
6
CONTINUOUS
10
131.145
20
-65.1161
11
131.149
21
-65.1103
0
LINE
8
BLACK
6
CONTINUOUS
10
131.149
20
-65.1103
11
131.154
21
-65.1059
0
LINE
8
BLACK
6
CONTINUOUS
10
131.154
20
-65.1059
11
131.158
21
-65.1007
0
LINE
8
BLACK
6
CONTINUOUS
10
131.158
20
-65.1007
11
131.164
21
-65.0973
0
LINE
8
BLACK
6
CONTINUOUS
10
131.164
20
-65.0973
11
131.169
21
-65.093
0
LINE
8
BLACK
6
CONTINUOUS
10
131.169
20
-65.093
11
131.176
21
-65.0907
0
LINE
8
BLACK
6
CONTINUOUS
10
131.176
20
-65.0907
11
131.182
21
-65.0873
0
LINE
8
BLACK
6
CONTINUOUS
10
131.182
20
-65.0873
11
131.188
21
-65.0861
0
LINE
8
BLACK
6
CONTINUOUS
10
131.188
20
-65.0861
11
131.195
21
-65.0838
0
LINE
8
BLACK
6
CONTINUOUS
10
131.195
20
-65.0838
11
131.201
21
-65.0838
0
LINE
8
BLACK
6
CONTINUOUS
10
131.201
20
-65.0838
11
131.201
21
-65.0838
0
LINE
8
BLACK
6
CONTINUOUS
10
131.201
20
-65.0838
11
149.215
21
-65.0838
0
LINE
8
BLACK
6
CONTINUOUS
10
149.215
20
-65.0838
11
149.215
21
-65.0838
0
LINE
8
BLACK
6
CONTINUOUS
10
131.284
20
-65.2362
11
131.284
21
-82.0838
0
LINE
8
BLACK
6
CONTINUOUS
10
131.284
20
-82.0838
11
149.132
21
-82.0838
0
LINE
8
BLACK
6
CONTINUOUS
10
149.132
20
-82.0838
11
149.132
21
-65.2362
0
LINE
8
BLACK
6
CONTINUOUS
10
149.132
20
-65.2362
11
131.284
21
-65.2362
0
LINE
8
BLACK
6
CONTINUOUS
10
141.952
20
-65.7196
11
141.954
21
-65.7193
0
LINE
8
BLACK
6
CONTINUOUS
10
141.954
20
-65.7193
11
141.969
21
-65.7226
0
LINE
8
BLACK
6
CONTINUOUS
10
141.969
20
-65.7226
11
141.984
21
-65.7253
0
LINE
8
BLACK
6
CONTINUOUS
10
141.984
20
-65.7253
11
141.987
21
-65.7265
0
LINE
8
BLACK
6
CONTINUOUS
10
141.987
20
-65.7265
11
141.989
21
-65.727
0
LINE
8
BLACK
6
CONTINUOUS
10
141.989
20
-65.727
11
142.134
21
-65.7875
0
LINE
8
BLACK
6
CONTINUOUS
10
142.134
20
-65.7875
11
142.147
21
-65.7956
0
LINE
8
BLACK
6
CONTINUOUS
10
142.147
20
-65.7956
11
142.16
21
-65.8032
0
LINE
8
BLACK
6
CONTINUOUS
10
142.16
20
-65.8032
11
142.232
21
-65.8637
0
LINE
8
BLACK
6
CONTINUOUS
10
142.232
20
-65.8637
11
142.243
21
-65.8766
0
LINE
8
BLACK
6
CONTINUOUS
10
142.243
20
-65.8766
11
142.255
21
-65.8895
0
LINE
8
BLACK
6
CONTINUOUS
10
142.255
20
-65.8895
11
142.327
21
-66.0104
0
LINE
8
BLACK
6
CONTINUOUS
10
142.327
20
-66.0104
11
142.331
21
-66.0195
0
LINE
8
BLACK
6
CONTINUOUS
10
142.331
20
-66.0195
11
142.335
21
-66.0279
0
LINE
8
BLACK
6
CONTINUOUS
10
142.335
20
-66.0279
11
142.337
21
-66.0358
0
LINE
8
BLACK
6
CONTINUOUS
10
142.337
20
-66.0358
11
142.34
21
-66.0434
0
LINE
8
BLACK
6
CONTINUOUS
10
142.34
20
-66.0434
11
142.34
21
-66.0531
0
LINE
8
BLACK
6
CONTINUOUS
10
142.34
20
-66.0531
11
142.342
21
-66.0627
0
LINE
8
BLACK
6
CONTINUOUS
10
142.342
20
-66.0627
11
142.342
21
-66.1836
0
LINE
8
BLACK
6
CONTINUOUS
10
142.342
20
-66.1836
11
142.341
21
-66.1852
0
LINE
8
BLACK
6
CONTINUOUS
10
142.341
20
-66.1852
11
142.342
21
-66.1868
0
LINE
8
BLACK
6
CONTINUOUS
10
142.342
20
-66.1868
11
142.338
21
-66.2026
0
LINE
8
BLACK
6
CONTINUOUS
10
142.338
20
-66.2026
11
142.335
21
-66.2184
0
LINE
8
BLACK
6
CONTINUOUS
10
142.335
20
-66.2184
11
142.335
21
-66.2198
0
LINE
8
BLACK
6
CONTINUOUS
10
142.335
20
-66.2198
11
142.334
21
-66.2214
0
LINE
8
BLACK
6
CONTINUOUS
10
142.334
20
-66.2214
11
142.262
21
-66.4028
0
LINE
8
BLACK
6
CONTINUOUS
10
142.262
20
-66.4028
11
142.258
21
-66.4091
0
LINE
8
BLACK
6
CONTINUOUS
10
142.258
20
-66.4091
11
142.255
21
-66.4162
0
LINE
8
BLACK
6
CONTINUOUS
10
142.255
20
-66.4162
11
142.249
21
-66.424
0
LINE
8
BLACK
6
CONTINUOUS
10
142.249
20
-66.424
11
142.243
21
-66.4328
0
LINE
8
BLACK
6
CONTINUOUS
10
142.243
20
-66.4328
11
142.237
21
-66.4374
0
LINE
8
BLACK
6
CONTINUOUS
10
142.237
20
-66.4374
11
142.232
21
-66.4431
0
LINE
8
BLACK
6
CONTINUOUS
10
142.232
20
-66.4431
11
141.577
21
-66.9892
0
LINE
8
BLACK
6
CONTINUOUS
10
141.577
20
-66.9892
11
142.24
21
-66.9892
0
LINE
8
BLACK
6
CONTINUOUS
10
142.24
20
-66.9892
11
142.275
21
-66.9953
0
LINE
8
BLACK
6
CONTINUOUS
10
142.275
20
-66.9953
11
142.305
21
-67.0129
0
LINE
8
BLACK
6
CONTINUOUS
10
142.305
20
-67.0129
11
142.328
21
-67.04
0
LINE
8
BLACK
6
CONTINUOUS
10
142.328
20
-67.04
11
142.34
21
-67.0731
0
LINE
8
BLACK
6
CONTINUOUS
10
142.34
20
-67.0731
11
142.34
21
-67.1084
0
LINE
8
BLACK
6
CONTINUOUS
10
142.34
20
-67.1084
11
142.328
21
-67.1416
0
LINE
8
BLACK
6
CONTINUOUS
10
142.328
20
-67.1416
11
142.305
21
-67.1686
0
LINE
8
BLACK
6
CONTINUOUS
10
142.305
20
-67.1686
11
142.275
21
-67.1862
0
LINE
8
BLACK
6
CONTINUOUS
10
142.275
20
-67.1862
11
142.24
21
-67.1924
0
LINE
8
BLACK
6
CONTINUOUS
10
142.24
20
-67.1924
11
141.297
21
-67.1924
0
LINE
8
BLACK
6
CONTINUOUS
10
141.297
20
-67.1924
11
141.296
21
-67.1923
0
LINE
8
BLACK
6
CONTINUOUS
10
141.296
20
-67.1923
11
141.296
21
-67.1924
0
LINE
8
BLACK
6
CONTINUOUS
10
141.296
20
-67.1924
11
141.279
21
-67.1893
0
LINE
8
BLACK
6
CONTINUOUS
10
141.279
20
-67.1893
11
141.262
21
-67.1862
0
LINE
8
BLACK
6
CONTINUOUS
10
141.262
20
-67.1862
11
141.262
21
-67.1862
0
LINE
8
BLACK
6
CONTINUOUS
10
141.262
20
-67.1862
11
141.261
21
-67.1861
0
LINE
8
BLACK
6
CONTINUOUS
10
141.261
20
-67.1861
11
141.246
21
-67.1774
0
LINE
8
BLACK
6
CONTINUOUS
10
141.246
20
-67.1774
11
141.231
21
-67.1686
0
LINE
8
BLACK
6
CONTINUOUS
10
141.231
20
-67.1686
11
141.231
21
-67.1685
0
LINE
8
BLACK
6
CONTINUOUS
10
141.231
20
-67.1685
11
141.231
21
-67.1684
0
LINE
8
BLACK
6
CONTINUOUS
10
141.231
20
-67.1684
11
141.22
21
-67.155
0
LINE
8
BLACK
6
CONTINUOUS
10
141.22
20
-67.155
11
141.209
21
-67.1416
0
LINE
8
BLACK
6
CONTINUOUS
10
141.209
20
-67.1416
11
141.209
21
-67.1414
0
LINE
8
BLACK
6
CONTINUOUS
10
141.209
20
-67.1414
11
141.208
21
-67.1413
0
LINE
8
BLACK
6
CONTINUOUS
10
141.208
20
-67.1413
11
141.202
21
-67.1247
0
LINE
8
BLACK
6
CONTINUOUS
10
141.202
20
-67.1247
11
141.197
21
-67.1084
0
LINE
8
BLACK
6
CONTINUOUS
10
141.197
20
-67.1084
11
141.197
21
-67.1082
0
LINE
8
BLACK
6
CONTINUOUS
10
141.197
20
-67.1082
11
141.196
21
-67.1081
0
LINE
8
BLACK
6
CONTINUOUS
10
141.196
20
-67.1081
11
141.197
21
-67.0904
0
LINE
8
BLACK
6
CONTINUOUS
10
141.197
20
-67.0904
11
141.197
21
-67.0731
0
LINE
8
BLACK
6
CONTINUOUS
10
141.197
20
-67.0731
11
141.197
21
-67.073
0
LINE
8
BLACK
6
CONTINUOUS
10
141.197
20
-67.073
11
141.197
21
-67.0728
0
LINE
8
BLACK
6
CONTINUOUS
10
141.197
20
-67.0728
11
141.203
21
-67.0563
0
LINE
8
BLACK
6
CONTINUOUS
10
141.203
20
-67.0563
11
141.209
21
-67.04
0
LINE
8
BLACK
6
CONTINUOUS
10
141.209
20
-67.04
11
141.209
21
-67.0398
0
LINE
8
BLACK
6
CONTINUOUS
10
141.209
20
-67.0398
11
141.209
21
-67.0397
0
LINE
8
BLACK
6
CONTINUOUS
10
141.209
20
-67.0397
11
141.22
21
-67.0263
0
LINE
8
BLACK
6
CONTINUOUS
10
141.22
20
-67.0263
11
141.231
21
-67.0129
0
LINE
8
BLACK
6
CONTINUOUS
10
141.231
20
-67.0129
11
141.231
21
-67.0129
0
LINE
8
BLACK
6
CONTINUOUS
10
141.231
20
-67.0129
11
141.232
21
-67.0127
0
LINE
8
BLACK
6
CONTINUOUS
10
141.232
20
-67.0127
11
142.083
21
-66.3035
0
LINE
8
BLACK
6
CONTINUOUS
10
142.083
20
-66.3035
11
142.138
21
-66.1641
0
LINE
8
BLACK
6
CONTINUOUS
10
142.138
20
-66.1641
11
142.138
21
-66.0908
0
LINE
8
BLACK
6
CONTINUOUS
10
142.138
20
-66.0908
11
142.089
21
-66.0088
0
LINE
8
BLACK
6
CONTINUOUS
10
142.089
20
-66.0088
11
142.042
21
-65.9691
0
LINE
8
BLACK
6
CONTINUOUS
10
142.042
20
-65.9691
11
141.929
21
-65.9224
0
LINE
8
BLACK
6
CONTINUOUS
10
141.929
20
-65.9224
11
141.607
21
-65.9224
0
LINE
8
BLACK
6
CONTINUOUS
10
141.607
20
-65.9224
11
141.495
21
-65.9691
0
LINE
8
BLACK
6
CONTINUOUS
10
141.495
20
-65.9691
11
141.434
21
-66.0198
0
LINE
8
BLACK
6
CONTINUOUS
10
141.434
20
-66.0198
11
141.404
21
-66.0373
0
LINE
8
BLACK
6
CONTINUOUS
10
141.404
20
-66.0373
11
141.369
21
-66.0433
0
LINE
8
BLACK
6
CONTINUOUS
10
141.369
20
-66.0433
11
141.334
21
-66.0371
0
LINE
8
BLACK
6
CONTINUOUS
10
141.334
20
-66.0371
11
141.304
21
-66.0193
0
LINE
8
BLACK
6
CONTINUOUS
10
141.304
20
-66.0193
11
141.281
21
-65.9922
0
LINE
8
BLACK
6
CONTINUOUS
10
141.281
20
-65.9922
11
141.269
21
-65.959
0
LINE
8
BLACK
6
CONTINUOUS
10
141.269
20
-65.959
11
141.269
21
-65.9237
0
LINE
8
BLACK
6
CONTINUOUS
10
141.269
20
-65.9237
11
141.281
21
-65.8906
0
LINE
8
BLACK
6
CONTINUOUS
10
141.281
20
-65.8906
11
141.304
21
-65.8637
0
LINE
8
BLACK
6
CONTINUOUS
10
141.304
20
-65.8637
11
141.377
21
-65.8032
0
LINE
8
BLACK
6
CONTINUOUS
10
141.377
20
-65.8032
11
141.39
21
-65.7956
0
LINE
8
BLACK
6
CONTINUOUS
10
141.39
20
-65.7956
11
141.403
21
-65.7875
0
LINE
8
BLACK
6
CONTINUOUS
10
141.403
20
-65.7875
11
141.548
21
-65.727
0
LINE
8
BLACK
6
CONTINUOUS
10
141.548
20
-65.727
11
141.55
21
-65.7265
0
LINE
8
BLACK
6
CONTINUOUS
10
141.55
20
-65.7265
11
141.552
21
-65.7253
0
LINE
8
BLACK
6
CONTINUOUS
10
141.552
20
-65.7253
11
141.567
21
-65.7226
0
LINE
8
BLACK
6
CONTINUOUS
10
141.567
20
-65.7226
11
141.582
21
-65.7193
0
LINE
8
BLACK
6
CONTINUOUS
10
141.582
20
-65.7193
11
141.585
21
-65.7196
0
LINE
8
BLACK
6
CONTINUOUS
10
141.585
20
-65.7196
11
141.587
21
-65.7192
0
LINE
8
BLACK
6
CONTINUOUS
10
141.587
20
-65.7192
11
141.95
21
-65.7192
0
LINE
8
BLACK
6
CONTINUOUS
10
141.95
20
-65.7192
11
141.952
21
-65.7196
0
LINE
8
BLACK
6
CONTINUOUS
10
138.843
20
-65.7216
11
138.856
21
-65.7229
0
LINE
8
BLACK
6
CONTINUOUS
10
138.856
20
-65.7229
11
139.074
21
-65.7834
0
LINE
8
BLACK
6
CONTINUOUS
10
139.074
20
-65.7834
11
139.106
21
-65.7986
0
LINE
8
BLACK
6
CONTINUOUS
10
139.106
20
-65.7986
11
139.131
21
-65.8237
0
LINE
8
BLACK
6
CONTINUOUS
10
139.131
20
-65.8237
11
139.145
21
-65.8559
0
LINE
8
BLACK
6
CONTINUOUS
10
139.145
20
-65.8559
11
139.148
21
-65.891
0
LINE
8
BLACK
6
CONTINUOUS
10
139.148
20
-65.891
11
139.139
21
-65.925
0
LINE
8
BLACK
6
CONTINUOUS
10
139.139
20
-65.925
11
139.118
21
-65.9537
0
LINE
8
BLACK
6
CONTINUOUS
10
139.118
20
-65.9537
11
139.089
21
-65.9737
0
LINE
8
BLACK
6
CONTINUOUS
10
139.089
20
-65.9737
11
139.055
21
-65.9825
0
LINE
8
BLACK
6
CONTINUOUS
10
139.055
20
-65.9825
11
139.02
21
-65.9791
0
LINE
8
BLACK
6
CONTINUOUS
10
139.02
20
-65.9791
11
138.815
21
-65.9224
0
LINE
8
BLACK
6
CONTINUOUS
10
138.815
20
-65.9224
11
138.487
21
-65.9224
0
LINE
8
BLACK
6
CONTINUOUS
10
138.487
20
-65.9224
11
138.374
21
-65.9691
0
LINE
8
BLACK
6
CONTINUOUS
10
138.374
20
-65.9691
11
138.327
21
-66.0088
0
LINE
8
BLACK
6
CONTINUOUS
10
138.327
20
-66.0088
11
138.278
21
-66.0908
0
LINE
8
BLACK
6
CONTINUOUS
10
138.278
20
-66.0908
11
138.278
21
-66.1555
0
LINE
8
BLACK
6
CONTINUOUS
10
138.278
20
-66.1555
11
138.327
21
-66.2376
0
LINE
8
BLACK
6
CONTINUOUS
10
138.327
20
-66.2376
11
138.374
21
-66.2772
0
LINE
8
BLACK
6
CONTINUOUS
10
138.374
20
-66.2772
11
138.496
21
-66.328
0
LINE
8
BLACK
6
CONTINUOUS
10
138.496
20
-66.328
11
138.777
21
-66.3865
0
LINE
8
BLACK
6
CONTINUOUS
10
138.777
20
-66.3865
11
138.786
21
-66.3901
0
LINE
8
BLACK
6
CONTINUOUS
10
138.786
20
-66.3901
11
138.796
21
-66.3922
0
LINE
8
BLACK
6
CONTINUOUS
10
138.796
20
-66.3922
11
138.941
21
-66.4527
0
LINE
8
BLACK
6
CONTINUOUS
10
138.941
20
-66.4527
11
138.954
21
-66.4609
0
LINE
8
BLACK
6
CONTINUOUS
10
138.954
20
-66.4609
11
138.967
21
-66.4684
0
LINE
8
BLACK
6
CONTINUOUS
10
138.967
20
-66.4684
11
139.039
21
-66.5289
0
LINE
8
BLACK
6
CONTINUOUS
10
139.039
20
-66.5289
11
139.05
21
-66.5419
0
LINE
8
BLACK
6
CONTINUOUS
10
139.05
20
-66.5419
11
139.061
21
-66.5547
0
LINE
8
BLACK
6
CONTINUOUS
10
139.061
20
-66.5547
11
139.134
21
-66.6756
0
LINE
8
BLACK
6
CONTINUOUS
10
139.134
20
-66.6756
11
139.137
21
-66.6847
0
LINE
8
BLACK
6
CONTINUOUS
10
139.137
20
-66.6847
11
139.142
21
-66.6932
0
LINE
8
BLACK
6
CONTINUOUS
10
139.142
20
-66.6932
11
139.144
21
-66.7011
0
LINE
8
BLACK
6
CONTINUOUS
10
139.144
20
-66.7011
11
139.147
21
-66.7086
0
LINE
8
BLACK
6
CONTINUOUS
10
139.147
20
-66.7086
11
139.147
21
-66.7183
0
LINE
8
BLACK
6
CONTINUOUS
10
139.147
20
-66.7183
11
139.148
21
-66.7279
0
LINE
8
BLACK
6
CONTINUOUS
10
139.148
20
-66.7279
11
139.148
21
-66.8489
0
LINE
8
BLACK
6
CONTINUOUS
10
139.148
20
-66.8489
11
139.147
21
-66.8585
0
LINE
8
BLACK
6
CONTINUOUS
10
139.147
20
-66.8585
11
139.147
21
-66.8682
0
LINE
8
BLACK
6
CONTINUOUS
10
139.147
20
-66.8682
11
139.144
21
-66.8757
0
LINE
8
BLACK
6
CONTINUOUS
10
139.144
20
-66.8757
11
139.142
21
-66.8836
0
LINE
8
BLACK
6
CONTINUOUS
10
139.142
20
-66.8836
11
139.137
21
-66.892
0
LINE
8
BLACK
6
CONTINUOUS
10
139.137
20
-66.892
11
139.134
21
-66.9011
0
LINE
8
BLACK
6
CONTINUOUS
10
139.134
20
-66.9011
11
139.061
21
-67.0221
0
LINE
8
BLACK
6
CONTINUOUS
10
139.061
20
-67.0221
11
139.05
21
-67.0349
0
LINE
8
BLACK
6
CONTINUOUS
10
139.05
20
-67.0349
11
139.039
21
-67.0479
0
LINE
8
BLACK
6
CONTINUOUS
10
139.039
20
-67.0479
11
138.967
21
-67.1083
0
LINE
8
BLACK
6
CONTINUOUS
10
138.967
20
-67.1083
11
138.954
21
-67.1159
0
LINE
8
BLACK
6
CONTINUOUS
10
138.954
20
-67.1159
11
138.941
21
-67.1241
0
LINE
8
BLACK
6
CONTINUOUS
10
138.941
20
-67.1241
11
138.796
21
-67.1846
0
LINE
8
BLACK
6
CONTINUOUS
10
138.796
20
-67.1846
11
138.793
21
-67.1851
0
LINE
8
BLACK
6
CONTINUOUS
10
138.793
20
-67.1851
11
138.791
21
-67.1862
0
LINE
8
BLACK
6
CONTINUOUS
10
138.791
20
-67.1862
11
138.776
21
-67.1889
0
LINE
8
BLACK
6
CONTINUOUS
10
138.776
20
-67.1889
11
138.761
21
-67.1923
0
LINE
8
BLACK
6
CONTINUOUS
10
138.761
20
-67.1923
11
138.759
21
-67.192
0
LINE
8
BLACK
6
CONTINUOUS
10
138.759
20
-67.192
11
138.757
21
-67.1924
0
LINE
8
BLACK
6
CONTINUOUS
10
138.757
20
-67.1924
11
138.394
21
-67.1924
0
LINE
8
BLACK
6
CONTINUOUS
10
138.394
20
-67.1924
11
138.38
21
-67.19
0
LINE
8
BLACK
6
CONTINUOUS
10
138.38
20
-67.19
11
138.367
21
-67.1887
0
LINE
8
BLACK
6
CONTINUOUS
10
138.367
20
-67.1887
11
138.149
21
-67.1282
0
LINE
8
BLACK
6
CONTINUOUS
10
138.149
20
-67.1282
11
138.117
21
-67.113
0
LINE
8
BLACK
6
CONTINUOUS
10
138.117
20
-67.113
11
138.092
21
-67.0878
0
LINE
8
BLACK
6
CONTINUOUS
10
138.092
20
-67.0878
11
138.078
21
-67.0557
0
LINE
8
BLACK
6
CONTINUOUS
10
138.078
20
-67.0557
11
138.075
21
-67.0205
0
LINE
8
BLACK
6
CONTINUOUS
10
138.075
20
-67.0205
11
138.084
21
-66.9865
0
LINE
8
BLACK
6
CONTINUOUS
10
138.084
20
-66.9865
11
138.105
21
-66.9578
0
LINE
8
BLACK
6
CONTINUOUS
10
138.105
20
-66.9578
11
138.134
21
-66.9378
0
LINE
8
BLACK
6
CONTINUOUS
10
138.134
20
-66.9378
11
138.168
21
-66.929
0
LINE
8
BLACK
6
CONTINUOUS
10
138.168
20
-66.929
11
138.203
21
-66.9324
0
LINE
8
BLACK
6
CONTINUOUS
10
138.203
20
-66.9324
11
138.408
21
-66.9892
0
LINE
8
BLACK
6
CONTINUOUS
10
138.408
20
-66.9892
11
138.736
21
-66.9892
0
LINE
8
BLACK
6
CONTINUOUS
10
138.736
20
-66.9892
11
138.848
21
-66.9424
0
LINE
8
BLACK
6
CONTINUOUS
10
138.848
20
-66.9424
11
138.896
21
-66.9028
0
LINE
8
BLACK
6
CONTINUOUS
10
138.896
20
-66.9028
11
138.945
21
-66.8207
0
LINE
8
BLACK
6
CONTINUOUS
10
138.945
20
-66.8207
11
138.945
21
-66.7561
0
LINE
8
BLACK
6
CONTINUOUS
10
138.945
20
-66.7561
11
138.896
21
-66.674
0
LINE
8
BLACK
6
CONTINUOUS
10
138.896
20
-66.674
11
138.848
21
-66.6344
0
LINE
8
BLACK
6
CONTINUOUS
10
138.848
20
-66.6344
11
138.726
21
-66.5835
0
LINE
8
BLACK
6
CONTINUOUS
10
138.726
20
-66.5835
11
138.446
21
-66.525
0
LINE
8
BLACK
6
CONTINUOUS
10
138.446
20
-66.525
11
138.437
21
-66.5214
0
LINE
8
BLACK
6
CONTINUOUS
10
138.437
20
-66.5214
11
138.427
21
-66.5193
0
LINE
8
BLACK
6
CONTINUOUS
10
138.427
20
-66.5193
11
138.282
21
-66.4588
0
LINE
8
BLACK
6
CONTINUOUS
10
138.282
20
-66.4588
11
138.269
21
-66.4507
0
LINE
8
BLACK
6
CONTINUOUS
10
138.269
20
-66.4507
11
138.256
21
-66.4431
0
LINE
8
BLACK
6
CONTINUOUS
10
138.256
20
-66.4431
11
138.184
21
-66.3826
0
LINE
8
BLACK
6
CONTINUOUS
10
138.184
20
-66.3826
11
138.173
21
-66.3697
0
LINE
8
BLACK
6
CONTINUOUS
10
138.173
20
-66.3697
11
138.161
21
-66.3569
0
LINE
8
BLACK
6
CONTINUOUS
10
138.161
20
-66.3569
11
138.089
21
-66.2359
0
LINE
8
BLACK
6
CONTINUOUS
10
138.089
20
-66.2359
11
138.085
21
-66.2268
0
LINE
8
BLACK
6
CONTINUOUS
10
138.085
20
-66.2268
11
138.081
21
-66.2184
0
LINE
8
BLACK
6
CONTINUOUS
10
138.081
20
-66.2184
11
138.079
21
-66.2105
0
LINE
8
BLACK
6
CONTINUOUS
10
138.079
20
-66.2105
11
138.076
21
-66.203
0
LINE
8
BLACK
6
CONTINUOUS
10
138.076
20
-66.203
11
138.076
21
-66.1932
0
LINE
8
BLACK
6
CONTINUOUS
10
138.076
20
-66.1932
11
138.074
21
-66.1836
0
LINE
8
BLACK
6
CONTINUOUS
10
138.074
20
-66.1836
11
138.074
21
-66.0627
0
LINE
8
BLACK
6
CONTINUOUS
10
138.074
20
-66.0627
11
138.076
21
-66.0531
0
LINE
8
BLACK
6
CONTINUOUS
10
138.076
20
-66.0531
11
138.076
21
-66.0434
0
LINE
8
BLACK
6
CONTINUOUS
10
138.076
20
-66.0434
11
138.079
21
-66.0358
0
LINE
8
BLACK
6
CONTINUOUS
10
138.079
20
-66.0358
11
138.081
21
-66.0279
0
LINE
8
BLACK
6
CONTINUOUS
10
138.081
20
-66.0279
11
138.085
21
-66.0195
0
LINE
8
BLACK
6
CONTINUOUS
10
138.085
20
-66.0195
11
138.089
21
-66.0104
0
LINE
8
BLACK
6
CONTINUOUS
10
138.089
20
-66.0104
11
138.161
21
-65.8895
0
LINE
8
BLACK
6
CONTINUOUS
10
138.161
20
-65.8895
11
138.173
21
-65.8767
0
LINE
8
BLACK
6
CONTINUOUS
10
138.173
20
-65.8767
11
138.184
21
-65.8637
0
LINE
8
BLACK
6
CONTINUOUS
10
138.184
20
-65.8637
11
138.256
21
-65.8032
0
LINE
8
BLACK
6
CONTINUOUS
10
138.256
20
-65.8032
11
138.269
21
-65.7956
0
LINE
8
BLACK
6
CONTINUOUS
10
138.269
20
-65.7956
11
138.282
21
-65.7875
0
LINE
8
BLACK
6
CONTINUOUS
10
138.282
20
-65.7875
11
138.427
21
-65.727
0
LINE
8
BLACK
6
CONTINUOUS
10
138.427
20
-65.727
11
138.43
21
-65.7265
0
LINE
8
BLACK
6
CONTINUOUS
10
138.43
20
-65.7265
11
138.432
21
-65.7253
0
LINE
8
BLACK
6
CONTINUOUS
10
138.432
20
-65.7253
11
138.447
21
-65.7226
0
LINE
8
BLACK
6
CONTINUOUS
10
138.447
20
-65.7226
11
138.462
21
-65.7193
0
LINE
8
BLACK
6
CONTINUOUS
10
138.462
20
-65.7193
11
138.464
21
-65.7196
0
LINE
8
BLACK
6
CONTINUOUS
10
138.464
20
-65.7196
11
138.466
21
-65.7192
0
LINE
8
BLACK
6
CONTINUOUS
10
138.466
20
-65.7192
11
138.829
21
-65.7192
0
LINE
8
BLACK
6
CONTINUOUS
10
138.829
20
-65.7192
11
138.843
21
-65.7216
0
LINE
8
BLACK
6
CONTINUOUS
10
140.906
20
-65.7294
11
140.934
21
-65.7501
0
LINE
8
BLACK
6
CONTINUOUS
10
140.934
20
-65.7501
11
140.954
21
-65.7794
0
LINE
8
BLACK
6
CONTINUOUS
10
140.954
20
-65.7794
11
140.962
21
-65.8136
0
LINE
8
BLACK
6
CONTINUOUS
10
140.962
20
-65.8136
11
140.959
21
-65.8487
0
LINE
8
BLACK
6
CONTINUOUS
10
140.959
20
-65.8487
11
140.596
21
-67.1187
0
LINE
8
BLACK
6
CONTINUOUS
10
140.596
20
-67.1187
11
140.594
21
-67.1238
0
LINE
8
BLACK
6
CONTINUOUS
10
140.594
20
-67.1238
11
140.592
21
-67.1293
0
LINE
8
BLACK
6
CONTINUOUS
10
140.592
20
-67.1293
11
140.586
21
-67.1395
0
LINE
8
BLACK
6
CONTINUOUS
10
140.586
20
-67.1395
11
140.581
21
-67.1504
0
LINE
8
BLACK
6
CONTINUOUS
10
140.581
20
-67.1504
11
140.576
21
-67.1543
0
LINE
8
BLACK
6
CONTINUOUS
10
140.576
20
-67.1543
11
140.573
21
-67.1591
0
LINE
8
BLACK
6
CONTINUOUS
10
140.573
20
-67.1591
11
140.564
21
-67.1665
0
LINE
8
BLACK
6
CONTINUOUS
10
140.564
20
-67.1665
11
140.555
21
-67.1749
0
LINE
8
BLACK
6
CONTINUOUS
10
140.555
20
-67.1749
11
140.55
21
-67.1772
0
LINE
8
BLACK
6
CONTINUOUS
10
140.55
20
-67.1772
11
140.546
21
-67.1807
0
LINE
8
BLACK
6
CONTINUOUS
10
140.546
20
-67.1807
11
140.534
21
-67.1844
0
LINE
8
BLACK
6
CONTINUOUS
10
140.534
20
-67.1844
11
140.523
21
-67.1893
0
LINE
8
BLACK
6
CONTINUOUS
10
140.523
20
-67.1893
11
140.517
21
-67.1897
0
LINE
8
BLACK
6
CONTINUOUS
10
140.517
20
-67.1897
11
140.512
21
-67.1914
0
LINE
8
BLACK
6
CONTINUOUS
10
140.512
20
-67.1914
11
140.5
21
-67.191
0
LINE
8
BLACK
6
CONTINUOUS
10
140.5
20
-67.191
11
140.488
21
-67.1918
0
LINE
8
BLACK
6
CONTINUOUS
10
140.488
20
-67.1918
11
140.482
21
-67.1903
0
LINE
8
BLACK
6
CONTINUOUS
10
140.482
20
-67.1903
11
140.477
21
-67.1901
0
LINE
8
BLACK
6
CONTINUOUS
10
140.477
20
-67.1901
11
140.465
21
-67.1855
0
LINE
8
BLACK
6
CONTINUOUS
10
140.465
20
-67.1855
11
140.454
21
-67.1821
0
LINE
8
BLACK
6
CONTINUOUS
10
140.454
20
-67.1821
11
140.449
21
-67.1788
0
LINE
8
BLACK
6
CONTINUOUS
10
140.449
20
-67.1788
11
140.444
21
-67.1767
0
LINE
8
BLACK
6
CONTINUOUS
10
140.444
20
-67.1767
11
140.435
21
-67.1685
0
LINE
8
BLACK
6
CONTINUOUS
10
140.435
20
-67.1685
11
140.425
21
-67.1614
0
LINE
8
BLACK
6
CONTINUOUS
10
140.425
20
-67.1614
11
140.422
21
-67.1568
0
LINE
8
BLACK
6
CONTINUOUS
10
140.422
20
-67.1568
11
140.418
21
-67.153
0
LINE
8
BLACK
6
CONTINUOUS
10
140.418
20
-67.153
11
140.412
21
-67.1422
0
LINE
8
BLACK
6
CONTINUOUS
10
140.412
20
-67.1422
11
140.406
21
-67.1322
0
LINE
8
BLACK
6
CONTINUOUS
10
140.406
20
-67.1322
11
140.404
21
-67.1267
0
LINE
8
BLACK
6
CONTINUOUS
10
140.404
20
-67.1267
11
140.402
21
-67.1217
0
LINE
8
BLACK
6
CONTINUOUS
10
140.402
20
-67.1217
11
140.208
21
-66.517
0
LINE
8
BLACK
6
CONTINUOUS
10
140.208
20
-66.517
11
140.014
21
-67.1217
0
LINE
8
BLACK
6
CONTINUOUS
10
140.014
20
-67.1217
11
140.012
21
-67.1267
0
LINE
8
BLACK
6
CONTINUOUS
10
140.012
20
-67.1267
11
140.01
21
-67.1322
0
LINE
8
BLACK
6
CONTINUOUS
10
140.01
20
-67.1322
11
140.004
21
-67.1422
0
LINE
8
BLACK
6
CONTINUOUS
10
140.004
20
-67.1422
11
139.998
21
-67.153
0
LINE
8
BLACK
6
CONTINUOUS
10
139.998
20
-67.153
11
139.994
21
-67.1568
0
LINE
8
BLACK
6
CONTINUOUS
10
139.994
20
-67.1568
11
139.991
21
-67.1614
0
LINE
8
BLACK
6
CONTINUOUS
10
139.991
20
-67.1614
11
139.981
21
-67.1685
0
LINE
8
BLACK
6
CONTINUOUS
10
139.981
20
-67.1685
11
139.972
21
-67.1767
0
LINE
8
BLACK
6
CONTINUOUS
10
139.972
20
-67.1767
11
139.967
21
-67.1788
0
LINE
8
BLACK
6
CONTINUOUS
10
139.967
20
-67.1788
11
139.962
21
-67.1821
0
LINE
8
BLACK
6
CONTINUOUS
10
139.962
20
-67.1821
11
139.951
21
-67.1855
0
LINE
8
BLACK
6
CONTINUOUS
10
139.951
20
-67.1855
11
139.939
21
-67.1901
0
LINE
8
BLACK
6
CONTINUOUS
10
139.939
20
-67.1901
11
139.934
21
-67.1903
0
LINE
8
BLACK
6
CONTINUOUS
10
139.934
20
-67.1903
11
139.928
21
-67.1918
0
LINE
8
BLACK
6
CONTINUOUS
10
139.928
20
-67.1918
11
139.916
21
-67.191
0
LINE
8
BLACK
6
CONTINUOUS
10
139.916
20
-67.191
11
139.904
21
-67.1914
0
LINE
8
BLACK
6
CONTINUOUS
10
139.904
20
-67.1914
11
139.899
21
-67.1897
0
LINE
8
BLACK
6
CONTINUOUS
10
139.899
20
-67.1897
11
139.893
21
-67.1893
0
LINE
8
BLACK
6
CONTINUOUS
10
139.893
20
-67.1893
11
139.882
21
-67.1844
0
LINE
8
BLACK
6
CONTINUOUS
10
139.882
20
-67.1844
11
139.87
21
-67.1807
0
LINE
8
BLACK
6
CONTINUOUS
10
139.87
20
-67.1807
11
139.866
21
-67.1772
0
LINE
8
BLACK
6
CONTINUOUS
10
139.866
20
-67.1772
11
139.861
21
-67.1749
0
LINE
8
BLACK
6
CONTINUOUS
10
139.861
20
-67.1749
11
139.852
21
-67.1665
0
LINE
8
BLACK
6
CONTINUOUS
10
139.852
20
-67.1665
11
139.843
21
-67.1591
0
LINE
8
BLACK
6
CONTINUOUS
10
139.843
20
-67.1591
11
139.84
21
-67.1543
0
LINE
8
BLACK
6
CONTINUOUS
10
139.84
20
-67.1543
11
139.835
21
-67.1504
0
LINE
8
BLACK
6
CONTINUOUS
10
139.835
20
-67.1504
11
139.83
21
-67.1395
0
LINE
8
BLACK
6
CONTINUOUS
10
139.83
20
-67.1395
11
139.824
21
-67.1293
0
LINE
8
BLACK
6
CONTINUOUS
10
139.824
20
-67.1293
11
139.822
21
-67.1238
0
LINE
8
BLACK
6
CONTINUOUS
10
139.822
20
-67.1238
11
139.82
21
-67.1187
0
LINE
8
BLACK
6
CONTINUOUS
10
139.82
20
-67.1187
11
139.457
21
-65.8487
0
LINE
8
BLACK
6
CONTINUOUS
10
139.457
20
-65.8487
11
139.454
21
-65.8136
0
LINE
8
BLACK
6
CONTINUOUS
10
139.454
20
-65.8136
11
139.462
21
-65.7794
0
LINE
8
BLACK
6
CONTINUOUS
10
139.462
20
-65.7794
11
139.482
21
-65.7501
0
LINE
8
BLACK
6
CONTINUOUS
10
139.482
20
-65.7501
11
139.51
21
-65.7294
0
LINE
8
BLACK
6
CONTINUOUS
10
139.51
20
-65.7294
11
139.544
21
-65.7197
0
LINE
8
BLACK
6
CONTINUOUS
10
139.544
20
-65.7197
11
139.58
21
-65.7222
0
LINE
8
BLACK
6
CONTINUOUS
10
139.58
20
-65.7222
11
139.612
21
-65.7366
0
LINE
8
BLACK
6
CONTINUOUS
10
139.612
20
-65.7366
11
139.637
21
-65.7611
0
LINE
8
BLACK
6
CONTINUOUS
10
139.637
20
-65.7611
11
139.653
21
-65.7929
0
LINE
8
BLACK
6
CONTINUOUS
10
139.653
20
-65.7929
11
139.923
21
-66.7402
0
LINE
8
BLACK
6
CONTINUOUS
10
139.923
20
-66.7402
11
140.111
21
-66.1527
0
LINE
8
BLACK
6
CONTINUOUS
10
140.111
20
-66.1527
11
140.113
21
-66.1491
0
LINE
8
BLACK
6
CONTINUOUS
10
140.113
20
-66.1491
11
140.114
21
-66.1452
0
LINE
8
BLACK
6
CONTINUOUS
10
140.114
20
-66.1452
11
140.121
21
-66.1336
0
LINE
8
BLACK
6
CONTINUOUS
10
140.121
20
-66.1336
11
140.128
21
-66.1214
0
LINE
8
BLACK
6
CONTINUOUS
10
140.128
20
-66.1214
11
140.131
21
-66.1187
0
LINE
8
BLACK
6
CONTINUOUS
10
140.131
20
-66.1187
11
140.133
21
-66.1153
0
LINE
8
BLACK
6
CONTINUOUS
10
140.133
20
-66.1153
11
140.144
21
-66.1069
0
LINE
8
BLACK
6
CONTINUOUS
10
140.144
20
-66.1069
11
140.154
21
-66.0977
0
LINE
8
BLACK
6
CONTINUOUS
10
140.154
20
-66.0977
11
140.158
21
-66.0962
0
LINE
8
BLACK
6
CONTINUOUS
10
140.158
20
-66.0962
11
140.161
21
-66.0937
0
LINE
8
BLACK
6
CONTINUOUS
10
140.161
20
-66.0937
11
140.174
21
-66.0895
0
LINE
8
BLACK
6
CONTINUOUS
10
140.174
20
-66.0895
11
140.186
21
-66.0843
0
LINE
8
BLACK
6
CONTINUOUS
10
140.186
20
-66.0843
11
140.19
21
-66.0842
0
LINE
8
BLACK
6
CONTINUOUS
10
140.19
20
-66.0842
11
140.194
21
-66.083
0
LINE
8
BLACK
6
CONTINUOUS
10
140.194
20
-66.083
11
140.208
21
-66.0835
0
LINE
8
BLACK
6
CONTINUOUS
10
140.208
20
-66.0835
11
140.222
21
-66.083
0
LINE
8
BLACK
6
CONTINUOUS
10
140.222
20
-66.083
11
140.226
21
-66.0842
0
LINE
8
BLACK
6
CONTINUOUS
10
140.226
20
-66.0842
11
140.23
21
-66.0843
0
LINE
8
BLACK
6
CONTINUOUS
10
140.23
20
-66.0843
11
140.242
21
-66.0895
0
LINE
8
BLACK
6
CONTINUOUS
10
140.242
20
-66.0895
11
140.255
21
-66.0937
0
LINE
8
BLACK
6
CONTINUOUS
10
140.255
20
-66.0937
11
140.258
21
-66.0962
0
LINE
8
BLACK
6
CONTINUOUS
10
140.258
20
-66.0962
11
140.262
21
-66.0977
0
LINE
8
BLACK
6
CONTINUOUS
10
140.262
20
-66.0977
11
140.272
21
-66.1069
0
LINE
8
BLACK
6
CONTINUOUS
10
140.272
20
-66.1069
11
140.283
21
-66.1153
0
LINE
8
BLACK
6
CONTINUOUS
10
140.283
20
-66.1153
11
140.285
21
-66.1187
0
LINE
8
BLACK
6
CONTINUOUS
10
140.285
20
-66.1187
11
140.288
21
-66.1214
0
LINE
8
BLACK
6
CONTINUOUS
10
140.288
20
-66.1214
11
140.295
21
-66.1336
0
LINE
8
BLACK
6
CONTINUOUS
10
140.295
20
-66.1336
11
140.302
21
-66.1452
0
LINE
8
BLACK
6
CONTINUOUS
10
140.302
20
-66.1452
11
140.303
21
-66.1491
0
LINE
8
BLACK
6
CONTINUOUS
10
140.303
20
-66.1491
11
140.305
21
-66.1527
0
LINE
8
BLACK
6
CONTINUOUS
10
140.305
20
-66.1527
11
140.493
21
-66.7402
0
LINE
8
BLACK
6
CONTINUOUS
10
140.493
20
-66.7402
11
140.763
21
-65.7929
0
LINE
8
BLACK
6
CONTINUOUS
10
140.763
20
-65.7929
11
140.779
21
-65.7611
0
LINE
8
BLACK
6
CONTINUOUS
10
140.779
20
-65.7611
11
140.804
21
-65.7366
0
LINE
8
BLACK
6
CONTINUOUS
10
140.804
20
-65.7366
11
140.836
21
-65.7222
0
LINE
8
BLACK
6
CONTINUOUS
10
140.836
20
-65.7222
11
140.872
21
-65.7197
0
LINE
8
BLACK
6
CONTINUOUS
10
140.872
20
-65.7197
11
140.906
21
-65.7294
0
LINE
8
BLACK
6
CONTINUOUS
10
167.503
20
-65.0838
11
167.509
21
-65.0838
0
LINE
8
BLACK
6
CONTINUOUS
10
167.509
20
-65.0838
11
167.516
21
-65.0861
0
LINE
8
BLACK
6
CONTINUOUS
10
167.516
20
-65.0861
11
167.522
21
-65.0873
0
LINE
8
BLACK
6
CONTINUOUS
10
167.522
20
-65.0873
11
167.528
21
-65.0907
0
LINE
8
BLACK
6
CONTINUOUS
10
167.528
20
-65.0907
11
167.535
21
-65.093
0
LINE
8
BLACK
6
CONTINUOUS
10
167.535
20
-65.093
11
167.54
21
-65.0973
0
LINE
8
BLACK
6
CONTINUOUS
10
167.54
20
-65.0973
11
167.546
21
-65.1007
0
LINE
8
BLACK
6
CONTINUOUS
10
167.546
20
-65.1007
11
167.55
21
-65.1059
0
LINE
8
BLACK
6
CONTINUOUS
10
167.55
20
-65.1059
11
167.555
21
-65.1103
0
LINE
8
BLACK
6
CONTINUOUS
10
167.555
20
-65.1103
11
167.559
21
-65.1161
0
LINE
8
BLACK
6
CONTINUOUS
10
167.559
20
-65.1161
11
167.563
21
-65.1213
0
LINE
8
BLACK
6
CONTINUOUS
10
167.563
20
-65.1213
11
167.565
21
-65.1277
0
LINE
8
BLACK
6
CONTINUOUS
10
167.565
20
-65.1277
11
167.569
21
-65.1335
0
LINE
8
BLACK
6
CONTINUOUS
10
167.569
20
-65.1335
11
167.57
21
-65.1402
0
LINE
8
BLACK
6
CONTINUOUS
10
167.57
20
-65.1402
11
167.572
21
-65.1466
0
LINE
8
BLACK
6
CONTINUOUS
10
167.572
20
-65.1466
11
167.572
21
-65.1533
0
LINE
8
BLACK
6
CONTINUOUS
10
167.572
20
-65.1533
11
167.572
21
-65.1533
0
LINE
8
BLACK
6
CONTINUOUS
10
167.572
20
-65.1533
11
167.572
21
-82.1667
0
LINE
8
BLACK
6
CONTINUOUS
10
167.572
20
-82.1667
11
167.572
21
-82.1667
0
LINE
8
BLACK
6
CONTINUOUS
10
167.572
20
-82.1667
11
167.572
21
-82.1734
0
LINE
8
BLACK
6
CONTINUOUS
10
167.572
20
-82.1734
11
167.57
21
-82.1798
0
LINE
8
BLACK
6
CONTINUOUS
10
167.57
20
-82.1798
11
167.569
21
-82.1865
0
LINE
8
BLACK
6
CONTINUOUS
10
167.569
20
-82.1865
11
167.565
21
-82.1923
0
LINE
8
BLACK
6
CONTINUOUS
10
167.565
20
-82.1923
11
167.563
21
-82.1987
0
LINE
8
BLACK
6
CONTINUOUS
10
167.563
20
-82.1987
11
167.559
21
-82.2039
0
LINE
8
BLACK
6
CONTINUOUS
10
167.559
20
-82.2039
11
167.555
21
-82.2097
0
LINE
8
BLACK
6
CONTINUOUS
10
167.555
20
-82.2097
11
167.55
21
-82.2141
0
LINE
8
BLACK
6
CONTINUOUS
10
167.55
20
-82.2141
11
167.546
21
-82.2193
0
LINE
8
BLACK
6
CONTINUOUS
10
167.546
20
-82.2193
11
167.54
21
-82.2227
0
LINE
8
BLACK
6
CONTINUOUS
10
167.54
20
-82.2227
11
167.535
21
-82.227
0
LINE
8
BLACK
6
CONTINUOUS
10
167.535
20
-82.227
11
167.528
21
-82.2293
0
LINE
8
BLACK
6
CONTINUOUS
10
167.528
20
-82.2293
11
167.522
21
-82.2327
0
LINE
8
BLACK
6
CONTINUOUS
10
167.522
20
-82.2327
11
167.516
21
-82.2339
0
LINE
8
BLACK
6
CONTINUOUS
10
167.516
20
-82.2339
11
167.509
21
-82.2362
0
LINE
8
BLACK
6
CONTINUOUS
10
167.509
20
-82.2362
11
167.503
21
-82.2362
0
LINE
8
BLACK
6
CONTINUOUS
10
167.503
20
-82.2362
11
167.503
21
-82.2362
0
LINE
8
BLACK
6
CONTINUOUS
10
167.503
20
-82.2362
11
149.489
21
-82.2362
0
LINE
8
BLACK
6
CONTINUOUS
10
149.489
20
-82.2362
11
149.489
21
-82.2362
0
LINE
8
BLACK
6
CONTINUOUS
10
149.489
20
-82.2362
11
149.483
21
-82.2362
0
LINE
8
BLACK
6
CONTINUOUS
10
149.483
20
-82.2362
11
149.476
21
-82.2339
0
LINE
8
BLACK
6
CONTINUOUS
10
149.476
20
-82.2339
11
149.47
21
-82.2327
0
LINE
8
BLACK
6
CONTINUOUS
10
149.47
20
-82.2327
11
149.464
21
-82.2293
0
LINE
8
BLACK
6
CONTINUOUS
10
149.464
20
-82.2293
11
149.457
21
-82.227
0
LINE
8
BLACK
6
CONTINUOUS
10
149.457
20
-82.227
11
149.452
21
-82.2227
0
LINE
8
BLACK
6
CONTINUOUS
10
149.452
20
-82.2227
11
149.446
21
-82.2193
0
LINE
8
BLACK
6
CONTINUOUS
10
149.446
20
-82.2193
11
149.442
21
-82.2141
0
LINE
8
BLACK
6
CONTINUOUS
10
149.442
20
-82.2141
11
149.437
21
-82.2097
0
LINE
8
BLACK
6
CONTINUOUS
10
149.437
20
-82.2097
11
149.433
21
-82.2039
0
LINE
8
BLACK
6
CONTINUOUS
10
149.433
20
-82.2039
11
149.429
21
-82.1987
0
LINE
8
BLACK
6
CONTINUOUS
10
149.429
20
-82.1987
11
149.427
21
-82.1923
0
LINE
8
BLACK
6
CONTINUOUS
10
149.427
20
-82.1923
11
149.423
21
-82.1865
0
LINE
8
BLACK
6
CONTINUOUS
10
149.423
20
-82.1865
11
149.422
21
-82.1798
0
LINE
8
BLACK
6
CONTINUOUS
10
149.422
20
-82.1798
11
149.42
21
-82.1734
0
LINE
8
BLACK
6
CONTINUOUS
10
149.42
20
-82.1734
11
149.42
21
-82.1667
0
LINE
8
BLACK
6
CONTINUOUS
10
149.42
20
-82.1667
11
149.42
21
-82.1667
0
LINE
8
BLACK
6
CONTINUOUS
10
149.42
20
-82.1667
11
149.42
21
-65.1533
0
LINE
8
BLACK
6
CONTINUOUS
10
149.42
20
-65.1533
11
149.42
21
-65.1466
0
LINE
8
BLACK
6
CONTINUOUS
10
149.42
20
-65.1466
11
149.422
21
-65.1402
0
LINE
8
BLACK
6
CONTINUOUS
10
149.422
20
-65.1402
11
149.423
21
-65.1335
0
LINE
8
BLACK
6
CONTINUOUS
10
149.423
20
-65.1335
11
149.427
21
-65.1277
0
LINE
8
BLACK
6
CONTINUOUS
10
149.427
20
-65.1277
11
149.429
21
-65.1213
0
LINE
8
BLACK
6
CONTINUOUS
10
149.429
20
-65.1213
11
149.433
21
-65.1161
0
LINE
8
BLACK
6
CONTINUOUS
10
149.433
20
-65.1161
11
149.437
21
-65.1103
0
LINE
8
BLACK
6
CONTINUOUS
10
149.437
20
-65.1103
11
149.442
21
-65.1059
0
LINE
8
BLACK
6
CONTINUOUS
10
149.442
20
-65.1059
11
149.446
21
-65.1007
0
LINE
8
BLACK
6
CONTINUOUS
10
149.446
20
-65.1007
11
149.452
21
-65.0973
0
LINE
8
BLACK
6
CONTINUOUS
10
149.452
20
-65.0973
11
149.457
21
-65.093
0
LINE
8
BLACK
6
CONTINUOUS
10
149.457
20
-65.093
11
149.464
21
-65.0907
0
LINE
8
BLACK
6
CONTINUOUS
10
149.464
20
-65.0907
11
149.47
21
-65.0873
0
LINE
8
BLACK
6
CONTINUOUS
10
149.47
20
-65.0873
11
149.476
21
-65.0861
0
LINE
8
BLACK
6
CONTINUOUS
10
149.476
20
-65.0861
11
149.483
21
-65.0838
0
LINE
8
BLACK
6
CONTINUOUS
10
149.483
20
-65.0838
11
149.489
21
-65.0838
0
LINE
8
BLACK
6
CONTINUOUS
10
149.489
20
-65.0838
11
149.489
21
-65.0838
0
LINE
8
BLACK
6
CONTINUOUS
10
149.489
20
-65.0838
11
167.503
21
-65.0838
0
LINE
8
BLACK
6
CONTINUOUS
10
167.503
20
-65.0838
11
167.503
21
-65.0838
0
LINE
8
BLACK
6
CONTINUOUS
10
149.572
20
-65.2362
11
149.572
21
-82.0838
0
LINE
8
BLACK
6
CONTINUOUS
10
149.572
20
-82.0838
11
167.42
21
-82.0838
0
LINE
8
BLACK
6
CONTINUOUS
10
167.42
20
-82.0838
11
167.42
21
-65.2362
0
LINE
8
BLACK
6
CONTINUOUS
10
167.42
20
-65.2362
11
149.572
21
-65.2362
0
LINE
8
BLACK
6
CONTINUOUS
10
160.542
20
-65.7217
11
160.557
21
-65.7233
0
LINE
8
BLACK
6
CONTINUOUS
10
160.557
20
-65.7233
11
160.56
21
-65.7247
0
LINE
8
BLACK
6
CONTINUOUS
10
160.56
20
-65.7247
11
160.563
21
-65.7253
0
LINE
8
BLACK
6
CONTINUOUS
10
160.563
20
-65.7253
11
160.575
21
-65.7325
0
LINE
8
BLACK
6
CONTINUOUS
10
160.575
20
-65.7325
11
160.588
21
-65.739
0
LINE
8
BLACK
6
CONTINUOUS
10
160.588
20
-65.739
11
160.591
21
-65.7413
0
LINE
8
BLACK
6
CONTINUOUS
10
160.591
20
-65.7413
11
160.593
21
-65.7429
0
LINE
8
BLACK
6
CONTINUOUS
10
160.593
20
-65.7429
11
160.603
21
-65.7541
0
LINE
8
BLACK
6
CONTINUOUS
10
160.603
20
-65.7541
11
160.613
21
-65.7645
0
LINE
8
BLACK
6
CONTINUOUS
10
160.613
20
-65.7645
11
160.614
21
-65.7675
0
LINE
8
BLACK
6
CONTINUOUS
10
160.614
20
-65.7675
11
160.616
21
-65.77
0
LINE
8
BLACK
6
CONTINUOUS
10
160.616
20
-65.77
11
160.621
21
-65.7836
0
LINE
8
BLACK
6
CONTINUOUS
10
160.621
20
-65.7836
11
160.627
21
-65.7969
0
LINE
8
BLACK
6
CONTINUOUS
10
160.627
20
-65.7969
11
160.627
21
-65.8001
0
LINE
8
BLACK
6
CONTINUOUS
10
160.627
20
-65.8001
11
160.628
21
-65.8031
0
LINE
8
BLACK
6
CONTINUOUS
10
160.628
20
-65.8031
11
160.628
21
-65.8176
0
LINE
8
BLACK
6
CONTINUOUS
10
160.628
20
-65.8176
11
160.629
21
-65.8321
0
LINE
8
BLACK
6
CONTINUOUS
10
160.629
20
-65.8321
11
160.628
21
-65.8352
0
LINE
8
BLACK
6
CONTINUOUS
10
160.628
20
-65.8352
11
160.628
21
-65.8384
0
LINE
8
BLACK
6
CONTINUOUS
10
160.628
20
-65.8384
11
160.623
21
-65.852
0
LINE
8
BLACK
6
CONTINUOUS
10
160.623
20
-65.852
11
160.619
21
-65.8659
0
LINE
8
BLACK
6
CONTINUOUS
10
160.619
20
-65.8659
11
160.617
21
-65.8685
0
LINE
8
BLACK
6
CONTINUOUS
10
160.617
20
-65.8685
11
160.616
21
-65.8716
0
LINE
8
BLACK
6
CONTINUOUS
10
160.616
20
-65.8716
11
160.607
21
-65.8827
0
LINE
8
BLACK
6
CONTINUOUS
10
160.607
20
-65.8827
11
160.598
21
-65.8943
0
LINE
8
BLACK
6
CONTINUOUS
10
160.598
20
-65.8943
11
160.268
21
-66.2084
0
LINE
8
BLACK
6
CONTINUOUS
10
160.268
20
-66.2084
11
160.272
21
-66.2091
0
LINE
8
BLACK
6
CONTINUOUS
10
160.272
20
-66.2091
11
160.274
21
-66.2103
0
LINE
8
BLACK
6
CONTINUOUS
10
160.274
20
-66.2103
11
160.277
21
-66.2108
0
LINE
8
BLACK
6
CONTINUOUS
10
160.277
20
-66.2108
11
160.422
21
-66.2713
0
LINE
8
BLACK
6
CONTINUOUS
10
160.422
20
-66.2713
11
160.435
21
-66.2795
0
LINE
8
BLACK
6
CONTINUOUS
10
160.435
20
-66.2795
11
160.448
21
-66.287
0
LINE
8
BLACK
6
CONTINUOUS
10
160.448
20
-66.287
11
160.52
21
-66.3475
0
LINE
8
BLACK
6
CONTINUOUS
10
160.52
20
-66.3475
11
160.531
21
-66.3604
0
LINE
8
BLACK
6
CONTINUOUS
10
160.531
20
-66.3604
11
160.543
21
-66.3733
0
LINE
8
BLACK
6
CONTINUOUS
10
160.543
20
-66.3733
11
160.615
21
-66.4942
0
LINE
8
BLACK
6
CONTINUOUS
10
160.615
20
-66.4942
11
160.619
21
-66.5033
0
LINE
8
BLACK
6
CONTINUOUS
10
160.619
20
-66.5033
11
160.623
21
-66.5117
0
LINE
8
BLACK
6
CONTINUOUS
10
160.623
20
-66.5117
11
160.625
21
-66.5197
0
LINE
8
BLACK
6
CONTINUOUS
10
160.625
20
-66.5197
11
160.628
21
-66.5272
0
LINE
8
BLACK
6
CONTINUOUS
10
160.628
20
-66.5272
11
160.628
21
-66.5369
0
LINE
8
BLACK
6
CONTINUOUS
10
160.628
20
-66.5369
11
160.63
21
-66.5465
0
LINE
8
BLACK
6
CONTINUOUS
10
160.63
20
-66.5465
11
160.63
21
-66.8489
0
LINE
8
BLACK
6
CONTINUOUS
10
160.63
20
-66.8489
11
160.628
21
-66.8585
0
LINE
8
BLACK
6
CONTINUOUS
10
160.628
20
-66.8585
11
160.628
21
-66.8682
0
LINE
8
BLACK
6
CONTINUOUS
10
160.628
20
-66.8682
11
160.625
21
-66.8757
0
LINE
8
BLACK
6
CONTINUOUS
10
160.625
20
-66.8757
11
160.623
21
-66.8836
0
LINE
8
BLACK
6
CONTINUOUS
10
160.623
20
-66.8836
11
160.619
21
-66.892
0
LINE
8
BLACK
6
CONTINUOUS
10
160.619
20
-66.892
11
160.615
21
-66.9011
0
LINE
8
BLACK
6
CONTINUOUS
10
160.615
20
-66.9011
11
160.543
21
-67.0221
0
LINE
8
BLACK
6
CONTINUOUS
10
160.543
20
-67.0221
11
160.531
21
-67.0349
0
LINE
8
BLACK
6
CONTINUOUS
10
160.531
20
-67.0349
11
160.52
21
-67.0479
0
LINE
8
BLACK
6
CONTINUOUS
10
160.52
20
-67.0479
11
160.448
21
-67.1083
0
LINE
8
BLACK
6
CONTINUOUS
10
160.448
20
-67.1083
11
160.435
21
-67.1159
0
LINE
8
BLACK
6
CONTINUOUS
10
160.435
20
-67.1159
11
160.422
21
-67.1241
0
LINE
8
BLACK
6
CONTINUOUS
10
160.422
20
-67.1241
11
160.277
21
-67.1846
0
LINE
8
BLACK
6
CONTINUOUS
10
160.277
20
-67.1846
11
160.274
21
-67.1851
0
LINE
8
BLACK
6
CONTINUOUS
10
160.274
20
-67.1851
11
160.272
21
-67.1862
0
LINE
8
BLACK
6
CONTINUOUS
10
160.272
20
-67.1862
11
160.257
21
-67.1889
0
LINE
8
BLACK
6
CONTINUOUS
10
160.257
20
-67.1889
11
160.242
21
-67.1923
0
LINE
8
BLACK
6
CONTINUOUS
10
160.242
20
-67.1923
11
160.24
21
-67.192
0
LINE
8
BLACK
6
CONTINUOUS
10
160.24
20
-67.192
11
160.238
21
-67.1924
0
LINE
8
BLACK
6
CONTINUOUS
10
160.238
20
-67.1924
11
159.802
21
-67.1924
0
LINE
8
BLACK
6
CONTINUOUS
10
159.802
20
-67.1924
11
159.8
21
-67.192
0
LINE
8
BLACK
6
CONTINUOUS
10
159.8
20
-67.192
11
159.798
21
-67.1923
0
LINE
8
BLACK
6
CONTINUOUS
10
159.798
20
-67.1923
11
159.783
21
-67.1889
0
LINE
8
BLACK
6
CONTINUOUS
10
159.783
20
-67.1889
11
159.768
21
-67.1862
0
LINE
8
BLACK
6
CONTINUOUS
10
159.768
20
-67.1862
11
159.766
21
-67.1851
0
LINE
8
BLACK
6
CONTINUOUS
10
159.766
20
-67.1851
11
159.763
21
-67.1846
0
LINE
8
BLACK
6
CONTINUOUS
10
159.763
20
-67.1846
11
159.618
21
-67.1241
0
LINE
8
BLACK
6
CONTINUOUS
10
159.618
20
-67.1241
11
159.605
21
-67.1159
0
LINE
8
BLACK
6
CONTINUOUS
10
159.605
20
-67.1159
11
159.592
21
-67.1083
0
LINE
8
BLACK
6
CONTINUOUS
10
159.592
20
-67.1083
11
159.52
21
-67.0479
0
LINE
8
BLACK
6
CONTINUOUS
10
159.52
20
-67.0479
11
159.497
21
-67.0209
0
LINE
8
BLACK
6
CONTINUOUS
10
159.497
20
-67.0209
11
159.485
21
-66.9878
0
LINE
8
BLACK
6
CONTINUOUS
10
159.485
20
-66.9878
11
159.484
21
-66.9525
0
LINE
8
BLACK
6
CONTINUOUS
10
159.484
20
-66.9525
11
159.496
21
-66.9193
0
LINE
8
BLACK
6
CONTINUOUS
10
159.496
20
-66.9193
11
159.519
21
-66.8922
0
LINE
8
BLACK
6
CONTINUOUS
10
159.519
20
-66.8922
11
159.549
21
-66.8745
0
LINE
8
BLACK
6
CONTINUOUS
10
159.549
20
-66.8745
11
159.584
21
-66.8682
0
LINE
8
BLACK
6
CONTINUOUS
10
159.584
20
-66.8682
11
159.619
21
-66.8742
0
LINE
8
BLACK
6
CONTINUOUS
10
159.619
20
-66.8742
11
159.65
21
-66.8918
0
LINE
8
BLACK
6
CONTINUOUS
10
159.65
20
-66.8918
11
159.71
21
-66.9424
0
LINE
8
BLACK
6
CONTINUOUS
10
159.71
20
-66.9424
11
159.823
21
-66.9892
0
LINE
8
BLACK
6
CONTINUOUS
10
159.823
20
-66.9892
11
160.217
21
-66.9892
0
LINE
8
BLACK
6
CONTINUOUS
10
160.217
20
-66.9892
11
160.33
21
-66.9424
0
LINE
8
BLACK
6
CONTINUOUS
10
160.33
20
-66.9424
11
160.377
21
-66.9028
0
LINE
8
BLACK
6
CONTINUOUS
10
160.377
20
-66.9028
11
160.426
21
-66.8207
0
LINE
8
BLACK
6
CONTINUOUS
10
160.426
20
-66.8207
11
160.426
21
-66.5746
0
LINE
8
BLACK
6
CONTINUOUS
10
160.426
20
-66.5746
11
160.377
21
-66.4926
0
LINE
8
BLACK
6
CONTINUOUS
10
160.377
20
-66.4926
11
160.33
21
-66.4529
0
LINE
8
BLACK
6
CONTINUOUS
10
160.33
20
-66.4529
11
160.217
21
-66.4062
0
LINE
8
BLACK
6
CONTINUOUS
10
160.217
20
-66.4062
11
160.02
21
-66.4062
0
LINE
8
BLACK
6
CONTINUOUS
10
160.02
20
-66.4062
11
160.006
21
-66.4037
0
LINE
8
BLACK
6
CONTINUOUS
10
160.006
20
-66.4037
11
159.991
21
-66.4021
0
LINE
8
BLACK
6
CONTINUOUS
10
159.991
20
-66.4021
11
159.988
21
-66.4006
0
LINE
8
BLACK
6
CONTINUOUS
10
159.988
20
-66.4006
11
159.985
21
-66.4001
0
LINE
8
BLACK
6
CONTINUOUS
10
159.985
20
-66.4001
11
159.973
21
-66.3928
0
LINE
8
BLACK
6
CONTINUOUS
10
159.973
20
-66.3928
11
159.96
21
-66.3864
0
LINE
8
BLACK
6
CONTINUOUS
10
159.96
20
-66.3864
11
159.957
21
-66.384
0
LINE
8
BLACK
6
CONTINUOUS
10
159.957
20
-66.384
11
159.955
21
-66.3824
0
LINE
8
BLACK
6
CONTINUOUS
10
159.955
20
-66.3824
11
159.945
21
-66.3713
0
LINE
8
BLACK
6
CONTINUOUS
10
159.945
20
-66.3713
11
159.935
21
-66.3608
0
LINE
8
BLACK
6
CONTINUOUS
10
159.935
20
-66.3608
11
159.934
21
-66.3579
0
LINE
8
BLACK
6
CONTINUOUS
10
159.934
20
-66.3579
11
159.932
21
-66.3554
0
LINE
8
BLACK
6
CONTINUOUS
10
159.932
20
-66.3554
11
159.927
21
-66.3418
0
LINE
8
BLACK
6
CONTINUOUS
10
159.927
20
-66.3418
11
159.921
21
-66.3285
0
LINE
8
BLACK
6
CONTINUOUS
10
159.921
20
-66.3285
11
159.921
21
-66.3253
0
LINE
8
BLACK
6
CONTINUOUS
10
159.921
20
-66.3253
11
159.92
21
-66.3222
0
LINE
8
BLACK
6
CONTINUOUS
10
159.92
20
-66.3222
11
159.92
21
-66.3077
0
LINE
8
BLACK
6
CONTINUOUS
10
159.92
20
-66.3077
11
159.919
21
-66.2933
0
LINE
8
BLACK
6
CONTINUOUS
10
159.919
20
-66.2933
11
159.92
21
-66.2902
0
LINE
8
BLACK
6
CONTINUOUS
10
159.92
20
-66.2902
11
159.92
21
-66.2869
0
LINE
8
BLACK
6
CONTINUOUS
10
159.92
20
-66.2869
11
159.925
21
-66.2733
0
LINE
8
BLACK
6
CONTINUOUS
10
159.925
20
-66.2733
11
159.929
21
-66.2594
0
LINE
8
BLACK
6
CONTINUOUS
10
159.929
20
-66.2594
11
159.931
21
-66.2568
0
LINE
8
BLACK
6
CONTINUOUS
10
159.931
20
-66.2568
11
159.932
21
-66.2538
0
LINE
8
BLACK
6
CONTINUOUS
10
159.932
20
-66.2538
11
159.941
21
-66.2427
0
LINE
8
BLACK
6
CONTINUOUS
10
159.941
20
-66.2427
11
159.95
21
-66.231
0
LINE
8
BLACK
6
CONTINUOUS
10
159.95
20
-66.231
11
160.274
21
-65.9224
0
LINE
8
BLACK
6
CONTINUOUS
10
160.274
20
-65.9224
11
159.585
21
-65.9224
0
LINE
8
BLACK
6
CONTINUOUS
10
159.585
20
-65.9224
11
159.55
21
-65.9162
0
LINE
8
BLACK
6
CONTINUOUS
10
159.55
20
-65.9162
11
159.519
21
-65.8986
0
LINE
8
BLACK
6
CONTINUOUS
10
159.519
20
-65.8986
11
159.497
21
-65.8716
0
LINE
8
BLACK
6
CONTINUOUS
10
159.497
20
-65.8716
11
159.485
21
-65.8384
0
LINE
8
BLACK
6
CONTINUOUS
10
159.485
20
-65.8384
11
159.485
21
-65.8031
0
LINE
8
BLACK
6
CONTINUOUS
10
159.485
20
-65.8031
11
159.497
21
-65.77
0
LINE
8
BLACK
6
CONTINUOUS
10
159.497
20
-65.77
11
159.519
21
-65.7429
0
LINE
8
BLACK
6
CONTINUOUS
10
159.519
20
-65.7429
11
159.55
21
-65.7253
0
LINE
8
BLACK
6
CONTINUOUS
10
159.55
20
-65.7253
11
159.585
21
-65.7192
0
LINE
8
BLACK
6
CONTINUOUS
10
159.585
20
-65.7192
11
160.528
21
-65.7192
0
LINE
8
BLACK
6
CONTINUOUS
10
160.528
20
-65.7192
11
160.542
21
-65.7217
0
LINE
8
BLACK
6
CONTINUOUS
10
157.131
20
-65.7216
11
157.144
21
-65.7229
0
LINE
8
BLACK
6
CONTINUOUS
10
157.144
20
-65.7229
11
157.362
21
-65.7834
0
LINE
8
BLACK
6
CONTINUOUS
10
157.362
20
-65.7834
11
157.394
21
-65.7986
0
LINE
8
BLACK
6
CONTINUOUS
10
157.394
20
-65.7986
11
157.419
21
-65.8237
0
LINE
8
BLACK
6
CONTINUOUS
10
157.419
20
-65.8237
11
157.433
21
-65.8559
0
LINE
8
BLACK
6
CONTINUOUS
10
157.433
20
-65.8559
11
157.436
21
-65.891
0
LINE
8
BLACK
6
CONTINUOUS
10
157.436
20
-65.891
11
157.427
21
-65.925
0
LINE
8
BLACK
6
CONTINUOUS
10
157.427
20
-65.925
11
157.406
21
-65.9537
0
LINE
8
BLACK
6
CONTINUOUS
10
157.406
20
-65.9537
11
157.377
21
-65.9737
0
LINE
8
BLACK
6
CONTINUOUS
10
157.377
20
-65.9737
11
157.343
21
-65.9825
0
LINE
8
BLACK
6
CONTINUOUS
10
157.343
20
-65.9825
11
157.308
21
-65.9791
0
LINE
8
BLACK
6
CONTINUOUS
10
157.308
20
-65.9791
11
157.103
21
-65.9224
0
LINE
8
BLACK
6
CONTINUOUS
10
157.103
20
-65.9224
11
156.775
21
-65.9224
0
LINE
8
BLACK
6
CONTINUOUS
10
156.775
20
-65.9224
11
156.662
21
-65.9691
0
LINE
8
BLACK
6
CONTINUOUS
10
156.662
20
-65.9691
11
156.615
21
-66.0088
0
LINE
8
BLACK
6
CONTINUOUS
10
156.615
20
-66.0088
11
156.566
21
-66.0908
0
LINE
8
BLACK
6
CONTINUOUS
10
156.566
20
-66.0908
11
156.566
21
-66.1555
0
LINE
8
BLACK
6
CONTINUOUS
10
156.566
20
-66.1555
11
156.615
21
-66.2376
0
LINE
8
BLACK
6
CONTINUOUS
10
156.615
20
-66.2376
11
156.662
21
-66.2772
0
LINE
8
BLACK
6
CONTINUOUS
10
156.662
20
-66.2772
11
156.784
21
-66.328
0
LINE
8
BLACK
6
CONTINUOUS
10
156.784
20
-66.328
11
157.065
21
-66.3865
0
LINE
8
BLACK
6
CONTINUOUS
10
157.065
20
-66.3865
11
157.074
21
-66.3901
0
LINE
8
BLACK
6
CONTINUOUS
10
157.074
20
-66.3901
11
157.084
21
-66.3922
0
LINE
8
BLACK
6
CONTINUOUS
10
157.084
20
-66.3922
11
157.229
21
-66.4527
0
LINE
8
BLACK
6
CONTINUOUS
10
157.229
20
-66.4527
11
157.242
21
-66.4609
0
LINE
8
BLACK
6
CONTINUOUS
10
157.242
20
-66.4609
11
157.255
21
-66.4684
0
LINE
8
BLACK
6
CONTINUOUS
10
157.255
20
-66.4684
11
157.327
21
-66.5289
0
LINE
8
BLACK
6
CONTINUOUS
10
157.327
20
-66.5289
11
157.338
21
-66.5419
0
LINE
8
BLACK
6
CONTINUOUS
10
157.338
20
-66.5419
11
157.349
21
-66.5547
0
LINE
8
BLACK
6
CONTINUOUS
10
157.349
20
-66.5547
11
157.422
21
-66.6756
0
LINE
8
BLACK
6
CONTINUOUS
10
157.422
20
-66.6756
11
157.425
21
-66.6847
0
LINE
8
BLACK
6
CONTINUOUS
10
157.425
20
-66.6847
11
157.43
21
-66.6932
0
LINE
8
BLACK
6
CONTINUOUS
10
157.43
20
-66.6932
11
157.432
21
-66.7011
0
LINE
8
BLACK
6
CONTINUOUS
10
157.432
20
-66.7011
11
157.435
21
-66.7086
0
LINE
8
BLACK
6
CONTINUOUS
10
157.435
20
-66.7086
11
157.435
21
-66.7183
0
LINE
8
BLACK
6
CONTINUOUS
10
157.435
20
-66.7183
11
157.436
21
-66.7279
0
LINE
8
BLACK
6
CONTINUOUS
10
157.436
20
-66.7279
11
157.436
21
-66.8489
0
LINE
8
BLACK
6
CONTINUOUS
10
157.436
20
-66.8489
11
157.435
21
-66.8585
0
LINE
8
BLACK
6
CONTINUOUS
10
157.435
20
-66.8585
11
157.435
21
-66.8682
0
LINE
8
BLACK
6
CONTINUOUS
10
157.435
20
-66.8682
11
157.432
21
-66.8757
0
LINE
8
BLACK
6
CONTINUOUS
10
157.432
20
-66.8757
11
157.43
21
-66.8836
0
LINE
8
BLACK
6
CONTINUOUS
10
157.43
20
-66.8836
11
157.425
21
-66.892
0
LINE
8
BLACK
6
CONTINUOUS
10
157.425
20
-66.892
11
157.422
21
-66.9011
0
LINE
8
BLACK
6
CONTINUOUS
10
157.422
20
-66.9011
11
157.349
21
-67.0221
0
LINE
8
BLACK
6
CONTINUOUS
10
157.349
20
-67.0221
11
157.338
21
-67.0349
0
LINE
8
BLACK
6
CONTINUOUS
10
157.338
20
-67.0349
11
157.327
21
-67.0479
0
LINE
8
BLACK
6
CONTINUOUS
10
157.327
20
-67.0479
11
157.255
21
-67.1083
0
LINE
8
BLACK
6
CONTINUOUS
10
157.255
20
-67.1083
11
157.242
21
-67.1159
0
LINE
8
BLACK
6
CONTINUOUS
10
157.242
20
-67.1159
11
157.229
21
-67.1241
0
LINE
8
BLACK
6
CONTINUOUS
10
157.229
20
-67.1241
11
157.084
21
-67.1846
0
LINE
8
BLACK
6
CONTINUOUS
10
157.084
20
-67.1846
11
157.081
21
-67.1851
0
LINE
8
BLACK
6
CONTINUOUS
10
157.081
20
-67.1851
11
157.079
21
-67.1862
0
LINE
8
BLACK
6
CONTINUOUS
10
157.079
20
-67.1862
11
157.064
21
-67.1889
0
LINE
8
BLACK
6
CONTINUOUS
10
157.064
20
-67.1889
11
157.049
21
-67.1923
0
LINE
8
BLACK
6
CONTINUOUS
10
157.049
20
-67.1923
11
157.047
21
-67.192
0
LINE
8
BLACK
6
CONTINUOUS
10
157.047
20
-67.192
11
157.045
21
-67.1924
0
LINE
8
BLACK
6
CONTINUOUS
10
157.045
20
-67.1924
11
156.682
21
-67.1924
0
LINE
8
BLACK
6
CONTINUOUS
10
156.682
20
-67.1924
11
156.668
21
-67.19
0
LINE
8
BLACK
6
CONTINUOUS
10
156.668
20
-67.19
11
156.655
21
-67.1887
0
LINE
8
BLACK
6
CONTINUOUS
10
156.655
20
-67.1887
11
156.437
21
-67.1282
0
LINE
8
BLACK
6
CONTINUOUS
10
156.437
20
-67.1282
11
156.405
21
-67.113
0
LINE
8
BLACK
6
CONTINUOUS
10
156.405
20
-67.113
11
156.38
21
-67.0878
0
LINE
8
BLACK
6
CONTINUOUS
10
156.38
20
-67.0878
11
156.366
21
-67.0557
0
LINE
8
BLACK
6
CONTINUOUS
10
156.366
20
-67.0557
11
156.363
21
-67.0205
0
LINE
8
BLACK
6
CONTINUOUS
10
156.363
20
-67.0205
11
156.372
21
-66.9865
0
LINE
8
BLACK
6
CONTINUOUS
10
156.372
20
-66.9865
11
156.393
21
-66.9578
0
LINE
8
BLACK
6
CONTINUOUS
10
156.393
20
-66.9578
11
156.422
21
-66.9378
0
LINE
8
BLACK
6
CONTINUOUS
10
156.422
20
-66.9378
11
156.456
21
-66.929
0
LINE
8
BLACK
6
CONTINUOUS
10
156.456
20
-66.929
11
156.491
21
-66.9324
0
LINE
8
BLACK
6
CONTINUOUS
10
156.491
20
-66.9324
11
156.696
21
-66.9892
0
LINE
8
BLACK
6
CONTINUOUS
10
156.696
20
-66.9892
11
157.024
21
-66.9892
0
LINE
8
BLACK
6
CONTINUOUS
10
157.024
20
-66.9892
11
157.136
21
-66.9424
0
LINE
8
BLACK
6
CONTINUOUS
10
157.136
20
-66.9424
11
157.184
21
-66.9028
0
LINE
8
BLACK
6
CONTINUOUS
10
157.184
20
-66.9028
11
157.233
21
-66.8207
0
LINE
8
BLACK
6
CONTINUOUS
10
157.233
20
-66.8207
11
157.233
21
-66.7561
0
LINE
8
BLACK
6
CONTINUOUS
10
157.233
20
-66.7561
11
157.184
21
-66.674
0
LINE
8
BLACK
6
CONTINUOUS
10
157.184
20
-66.674
11
157.136
21
-66.6344
0
LINE
8
BLACK
6
CONTINUOUS
10
157.136
20
-66.6344
11
157.014
21
-66.5835
0
LINE
8
BLACK
6
CONTINUOUS
10
157.014
20
-66.5835
11
156.734
21
-66.525
0
LINE
8
BLACK
6
CONTINUOUS
10
156.734
20
-66.525
11
156.725
21
-66.5214
0
LINE
8
BLACK
6
CONTINUOUS
10
156.725
20
-66.5214
11
156.715
21
-66.5193
0
LINE
8
BLACK
6
CONTINUOUS
10
156.715
20
-66.5193
11
156.57
21
-66.4588
0
LINE
8
BLACK
6
CONTINUOUS
10
156.57
20
-66.4588
11
156.557
21
-66.4507
0
LINE
8
BLACK
6
CONTINUOUS
10
156.557
20
-66.4507
11
156.544
21
-66.4431
0
LINE
8
BLACK
6
CONTINUOUS
10
156.544
20
-66.4431
11
156.472
21
-66.3826
0
LINE
8
BLACK
6
CONTINUOUS
10
156.472
20
-66.3826
11
156.461
21
-66.3697
0
LINE
8
BLACK
6
CONTINUOUS
10
156.461
20
-66.3697
11
156.449
21
-66.3569
0
LINE
8
BLACK
6
CONTINUOUS
10
156.449
20
-66.3569
11
156.377
21
-66.2359
0
LINE
8
BLACK
6
CONTINUOUS
10
156.377
20
-66.2359
11
156.373
21
-66.2268
0
LINE
8
BLACK
6
CONTINUOUS
10
156.373
20
-66.2268
11
156.369
21
-66.2184
0
LINE
8
BLACK
6
CONTINUOUS
10
156.369
20
-66.2184
11
156.367
21
-66.2105
0
LINE
8
BLACK
6
CONTINUOUS
10
156.367
20
-66.2105
11
156.364
21
-66.203
0
LINE
8
BLACK
6
CONTINUOUS
10
156.364
20
-66.203
11
156.364
21
-66.1932
0
LINE
8
BLACK
6
CONTINUOUS
10
156.364
20
-66.1932
11
156.362
21
-66.1836
0
LINE
8
BLACK
6
CONTINUOUS
10
156.362
20
-66.1836
11
156.362
21
-66.0627
0
LINE
8
BLACK
6
CONTINUOUS
10
156.362
20
-66.0627
11
156.364
21
-66.0531
0
LINE
8
BLACK
6
CONTINUOUS
10
156.364
20
-66.0531
11
156.364
21
-66.0434
0
LINE
8
BLACK
6
CONTINUOUS
10
156.364
20
-66.0434
11
156.367
21
-66.0358
0
LINE
8
BLACK
6
CONTINUOUS
10
156.367
20
-66.0358
11
156.369
21
-66.0279
0
LINE
8
BLACK
6
CONTINUOUS
10
156.369
20
-66.0279
11
156.373
21
-66.0195
0
LINE
8
BLACK
6
CONTINUOUS
10
156.373
20
-66.0195
11
156.377
21
-66.0104
0
LINE
8
BLACK
6
CONTINUOUS
10
156.377
20
-66.0104
11
156.449
21
-65.8895
0
LINE
8
BLACK
6
CONTINUOUS
10
156.449
20
-65.8895
11
156.461
21
-65.8767
0
LINE
8
BLACK
6
CONTINUOUS
10
156.461
20
-65.8767
11
156.472
21
-65.8637
0
LINE
8
BLACK
6
CONTINUOUS
10
156.472
20
-65.8637
11
156.544
21
-65.8032
0
LINE
8
BLACK
6
CONTINUOUS
10
156.544
20
-65.8032
11
156.557
21
-65.7956
0
LINE
8
BLACK
6
CONTINUOUS
10
156.557
20
-65.7956
11
156.57
21
-65.7875
0
LINE
8
BLACK
6
CONTINUOUS
10
156.57
20
-65.7875
11
156.715
21
-65.727
0
LINE
8
BLACK
6
CONTINUOUS
10
156.715
20
-65.727
11
156.718
21
-65.7265
0
LINE
8
BLACK
6
CONTINUOUS
10
156.718
20
-65.7265
11
156.72
21
-65.7253
0
LINE
8
BLACK
6
CONTINUOUS
10
156.72
20
-65.7253
11
156.735
21
-65.7226
0
LINE
8
BLACK
6
CONTINUOUS
10
156.735
20
-65.7226
11
156.75
21
-65.7193
0
LINE
8
BLACK
6
CONTINUOUS
10
156.75
20
-65.7193
11
156.752
21
-65.7196
0
LINE
8
BLACK
6
CONTINUOUS
10
156.752
20
-65.7196
11
156.754
21
-65.7192
0
LINE
8
BLACK
6
CONTINUOUS
10
156.754
20
-65.7192
11
157.117
21
-65.7192
0
LINE
8
BLACK
6
CONTINUOUS
10
157.117
20
-65.7192
11
157.131
21
-65.7216
0
LINE
8
BLACK
6
CONTINUOUS
10
159.194
20
-65.7294
11
159.222
21
-65.7501
0
LINE
8
BLACK
6
CONTINUOUS
10
159.222
20
-65.7501
11
159.242
21
-65.7794
0
LINE
8
BLACK
6
CONTINUOUS
10
159.242
20
-65.7794
11
159.25
21
-65.8136
0
LINE
8
BLACK
6
CONTINUOUS
10
159.25
20
-65.8136
11
159.247
21
-65.8487
0
LINE
8
BLACK
6
CONTINUOUS
10
159.247
20
-65.8487
11
158.884
21
-67.1187
0
LINE
8
BLACK
6
CONTINUOUS
10
158.884
20
-67.1187
11
158.882
21
-67.1238
0
LINE
8
BLACK
6
CONTINUOUS
10
158.882
20
-67.1238
11
158.88
21
-67.1293
0
LINE
8
BLACK
6
CONTINUOUS
10
158.88
20
-67.1293
11
158.874
21
-67.1395
0
LINE
8
BLACK
6
CONTINUOUS
10
158.874
20
-67.1395
11
158.869
21
-67.1504
0
LINE
8
BLACK
6
CONTINUOUS
10
158.869
20
-67.1504
11
158.864
21
-67.1543
0
LINE
8
BLACK
6
CONTINUOUS
10
158.864
20
-67.1543
11
158.861
21
-67.1591
0
LINE
8
BLACK
6
CONTINUOUS
10
158.861
20
-67.1591
11
158.852
21
-67.1665
0
LINE
8
BLACK
6
CONTINUOUS
10
158.852
20
-67.1665
11
158.843
21
-67.1749
0
LINE
8
BLACK
6
CONTINUOUS
10
158.843
20
-67.1749
11
158.838
21
-67.1772
0
LINE
8
BLACK
6
CONTINUOUS
10
158.838
20
-67.1772
11
158.834
21
-67.1807
0
LINE
8
BLACK
6
CONTINUOUS
10
158.834
20
-67.1807
11
158.822
21
-67.1844
0
LINE
8
BLACK
6
CONTINUOUS
10
158.822
20
-67.1844
11
158.811
21
-67.1893
0
LINE
8
BLACK
6
CONTINUOUS
10
158.811
20
-67.1893
11
158.805
21
-67.1897
0
LINE
8
BLACK
6
CONTINUOUS
10
158.805
20
-67.1897
11
158.8
21
-67.1914
0
LINE
8
BLACK
6
CONTINUOUS
10
158.8
20
-67.1914
11
158.788
21
-67.191
0
LINE
8
BLACK
6
CONTINUOUS
10
158.788
20
-67.191
11
158.776
21
-67.1918
0
LINE
8
BLACK
6
CONTINUOUS
10
158.776
20
-67.1918
11
158.77
21
-67.1903
0
LINE
8
BLACK
6
CONTINUOUS
10
158.77
20
-67.1903
11
158.765
21
-67.1901
0
LINE
8
BLACK
6
CONTINUOUS
10
158.765
20
-67.1901
11
158.753
21
-67.1855
0
LINE
8
BLACK
6
CONTINUOUS
10
158.753
20
-67.1855
11
158.742
21
-67.1821
0
LINE
8
BLACK
6
CONTINUOUS
10
158.742
20
-67.1821
11
158.737
21
-67.1788
0
LINE
8
BLACK
6
CONTINUOUS
10
158.737
20
-67.1788
11
158.732
21
-67.1767
0
LINE
8
BLACK
6
CONTINUOUS
10
158.732
20
-67.1767
11
158.723
21
-67.1685
0
LINE
8
BLACK
6
CONTINUOUS
10
158.723
20
-67.1685
11
158.713
21
-67.1614
0
LINE
8
BLACK
6
CONTINUOUS
10
158.713
20
-67.1614
11
158.71
21
-67.1568
0
LINE
8
BLACK
6
CONTINUOUS
10
158.71
20
-67.1568
11
158.706
21
-67.153
0
LINE
8
BLACK
6
CONTINUOUS
10
158.706
20
-67.153
11
158.7
21
-67.1422
0
LINE
8
BLACK
6
CONTINUOUS
10
158.7
20
-67.1422
11
158.694
21
-67.1322
0
LINE
8
BLACK
6
CONTINUOUS
10
158.694
20
-67.1322
11
158.692
21
-67.1267
0
LINE
8
BLACK
6
CONTINUOUS
10
158.692
20
-67.1267
11
158.69
21
-67.1217
0
LINE
8
BLACK
6
CONTINUOUS
10
158.69
20
-67.1217
11
158.496
21
-66.517
0
LINE
8
BLACK
6
CONTINUOUS
10
158.496
20
-66.517
11
158.302
21
-67.1217
0
LINE
8
BLACK
6
CONTINUOUS
10
158.302
20
-67.1217
11
158.3
21
-67.1267
0
LINE
8
BLACK
6
CONTINUOUS
10
158.3
20
-67.1267
11
158.298
21
-67.1322
0
LINE
8
BLACK
6
CONTINUOUS
10
158.298
20
-67.1322
11
158.292
21
-67.1422
0
LINE
8
BLACK
6
CONTINUOUS
10
158.292
20
-67.1422
11
158.286
21
-67.153
0
LINE
8
BLACK
6
CONTINUOUS
10
158.286
20
-67.153
11
158.282
21
-67.1568
0
LINE
8
BLACK
6
CONTINUOUS
10
158.282
20
-67.1568
11
158.279
21
-67.1614
0
LINE
8
BLACK
6
CONTINUOUS
10
158.279
20
-67.1614
11
158.269
21
-67.1685
0
LINE
8
BLACK
6
CONTINUOUS
10
158.269
20
-67.1685
11
158.26
21
-67.1767
0
LINE
8
BLACK
6
CONTINUOUS
10
158.26
20
-67.1767
11
158.255
21
-67.1788
0
LINE
8
BLACK
6
CONTINUOUS
10
158.255
20
-67.1788
11
158.25
21
-67.1821
0
LINE
8
BLACK
6
CONTINUOUS
10
158.25
20
-67.1821
11
158.239
21
-67.1855
0
LINE
8
BLACK
6
CONTINUOUS
10
158.239
20
-67.1855
11
158.227
21
-67.1901
0
LINE
8
BLACK
6
CONTINUOUS
10
158.227
20
-67.1901
11
158.222
21
-67.1903
0
LINE
8
BLACK
6
CONTINUOUS
10
158.222
20
-67.1903
11
158.216
21
-67.1918
0
LINE
8
BLACK
6
CONTINUOUS
10
158.216
20
-67.1918
11
158.204
21
-67.191
0
LINE
8
BLACK
6
CONTINUOUS
10
158.204
20
-67.191
11
158.192
21
-67.1914
0
LINE
8
BLACK
6
CONTINUOUS
10
158.192
20
-67.1914
11
158.187
21
-67.1897
0
LINE
8
BLACK
6
CONTINUOUS
10
158.187
20
-67.1897
11
158.181
21
-67.1893
0
LINE
8
BLACK
6
CONTINUOUS
10
158.181
20
-67.1893
11
158.17
21
-67.1844
0
LINE
8
BLACK
6
CONTINUOUS
10
158.17
20
-67.1844
11
158.158
21
-67.1807
0
LINE
8
BLACK
6
CONTINUOUS
10
158.158
20
-67.1807
11
158.154
21
-67.1772
0
LINE
8
BLACK
6
CONTINUOUS
10
158.154
20
-67.1772
11
158.149
21
-67.1749
0
LINE
8
BLACK
6
CONTINUOUS
10
158.149
20
-67.1749
11
158.14
21
-67.1665
0
LINE
8
BLACK
6
CONTINUOUS
10
158.14
20
-67.1665
11
158.131
21
-67.1591
0
LINE
8
BLACK
6
CONTINUOUS
10
158.131
20
-67.1591
11
158.128
21
-67.1543
0
LINE
8
BLACK
6
CONTINUOUS
10
158.128
20
-67.1543
11
158.123
21
-67.1504
0
LINE
8
BLACK
6
CONTINUOUS
10
158.123
20
-67.1504
11
158.118
21
-67.1395
0
LINE
8
BLACK
6
CONTINUOUS
10
158.118
20
-67.1395
11
158.112
21
-67.1293
0
LINE
8
BLACK
6
CONTINUOUS
10
158.112
20
-67.1293
11
158.11
21
-67.1238
0
LINE
8
BLACK
6
CONTINUOUS
10
158.11
20
-67.1238
11
158.108
21
-67.1187
0
LINE
8
BLACK
6
CONTINUOUS
10
158.108
20
-67.1187
11
157.745
21
-65.8487
0
LINE
8
BLACK
6
CONTINUOUS
10
157.745
20
-65.8487
11
157.742
21
-65.8136
0
LINE
8
BLACK
6
CONTINUOUS
10
157.742
20
-65.8136
11
157.75
21
-65.7794
0
LINE
8
BLACK
6
CONTINUOUS
10
157.75
20
-65.7794
11
157.77
21
-65.7501
0
LINE
8
BLACK
6
CONTINUOUS
10
157.77
20
-65.7501
11
157.798
21
-65.7294
0
LINE
8
BLACK
6
CONTINUOUS
10
157.798
20
-65.7294
11
157.832
21
-65.7197
0
LINE
8
BLACK
6
CONTINUOUS
10
157.832
20
-65.7197
11
157.868
21
-65.7222
0
LINE
8
BLACK
6
CONTINUOUS
10
157.868
20
-65.7222
11
157.9
21
-65.7366
0
LINE
8
BLACK
6
CONTINUOUS
10
157.9
20
-65.7366
11
157.925
21
-65.7611
0
LINE
8
BLACK
6
CONTINUOUS
10
157.925
20
-65.7611
11
157.941
21
-65.7929
0
LINE
8
BLACK
6
CONTINUOUS
10
157.941
20
-65.7929
11
158.211
21
-66.7402
0
LINE
8
BLACK
6
CONTINUOUS
10
158.211
20
-66.7402
11
158.399
21
-66.1527
0
LINE
8
BLACK
6
CONTINUOUS
10
158.399
20
-66.1527
11
158.401
21
-66.1491
0
LINE
8
BLACK
6
CONTINUOUS
10
158.401
20
-66.1491
11
158.402
21
-66.1452
0
LINE
8
BLACK
6
CONTINUOUS
10
158.402
20
-66.1452
11
158.409
21
-66.1336
0
LINE
8
BLACK
6
CONTINUOUS
10
158.409
20
-66.1336
11
158.416
21
-66.1214
0
LINE
8
BLACK
6
CONTINUOUS
10
158.416
20
-66.1214
11
158.419
21
-66.1187
0
LINE
8
BLACK
6
CONTINUOUS
10
158.419
20
-66.1187
11
158.421
21
-66.1153
0
LINE
8
BLACK
6
CONTINUOUS
10
158.421
20
-66.1153
11
158.432
21
-66.1069
0
LINE
8
BLACK
6
CONTINUOUS
10
158.432
20
-66.1069
11
158.442
21
-66.0977
0
LINE
8
BLACK
6
CONTINUOUS
10
158.442
20
-66.0977
11
158.446
21
-66.0962
0
LINE
8
BLACK
6
CONTINUOUS
10
158.446
20
-66.0962
11
158.449
21
-66.0937
0
LINE
8
BLACK
6
CONTINUOUS
10
158.449
20
-66.0937
11
158.462
21
-66.0895
0
LINE
8
BLACK
6
CONTINUOUS
10
158.462
20
-66.0895
11
158.474
21
-66.0843
0
LINE
8
BLACK
6
CONTINUOUS
10
158.474
20
-66.0843
11
158.478
21
-66.0842
0
LINE
8
BLACK
6
CONTINUOUS
10
158.478
20
-66.0842
11
158.482
21
-66.083
0
LINE
8
BLACK
6
CONTINUOUS
10
158.482
20
-66.083
11
158.496
21
-66.0835
0
LINE
8
BLACK
6
CONTINUOUS
10
158.496
20
-66.0835
11
158.51
21
-66.083
0
LINE
8
BLACK
6
CONTINUOUS
10
158.51
20
-66.083
11
158.514
21
-66.0842
0
LINE
8
BLACK
6
CONTINUOUS
10
158.514
20
-66.0842
11
158.518
21
-66.0843
0
LINE
8
BLACK
6
CONTINUOUS
10
158.518
20
-66.0843
11
158.53
21
-66.0895
0
LINE
8
BLACK
6
CONTINUOUS
10
158.53
20
-66.0895
11
158.543
21
-66.0937
0
LINE
8
BLACK
6
CONTINUOUS
10
158.543
20
-66.0937
11
158.546
21
-66.0962
0
LINE
8
BLACK
6
CONTINUOUS
10
158.546
20
-66.0962
11
158.55
21
-66.0977
0
LINE
8
BLACK
6
CONTINUOUS
10
158.55
20
-66.0977
11
158.56
21
-66.1069
0
LINE
8
BLACK
6
CONTINUOUS
10
158.56
20
-66.1069
11
158.571
21
-66.1153
0
LINE
8
BLACK
6
CONTINUOUS
10
158.571
20
-66.1153
11
158.573
21
-66.1187
0
LINE
8
BLACK
6
CONTINUOUS
10
158.573
20
-66.1187
11
158.576
21
-66.1214
0
LINE
8
BLACK
6
CONTINUOUS
10
158.576
20
-66.1214
11
158.583
21
-66.1336
0
LINE
8
BLACK
6
CONTINUOUS
10
158.583
20
-66.1336
11
158.59
21
-66.1452
0
LINE
8
BLACK
6
CONTINUOUS
10
158.59
20
-66.1452
11
158.591
21
-66.1491
0
LINE
8
BLACK
6
CONTINUOUS
10
158.591
20
-66.1491
11
158.593
21
-66.1527
0
LINE
8
BLACK
6
CONTINUOUS
10
158.593
20
-66.1527
11
158.781
21
-66.7402
0
LINE
8
BLACK
6
CONTINUOUS
10
158.781
20
-66.7402
11
159.051
21
-65.7929
0
LINE
8
BLACK
6
CONTINUOUS
10
159.051
20
-65.7929
11
159.067
21
-65.7611
0
LINE
8
BLACK
6
CONTINUOUS
10
159.067
20
-65.7611
11
159.092
21
-65.7366
0
LINE
8
BLACK
6
CONTINUOUS
10
159.092
20
-65.7366
11
159.124
21
-65.7222
0
LINE
8
BLACK
6
CONTINUOUS
10
159.124
20
-65.7222
11
159.16
21
-65.7197
0
LINE
8
BLACK
6
CONTINUOUS
10
159.16
20
-65.7197
11
159.194
21
-65.7294
0
LINE
8
BLACK
6
CONTINUOUS
10
167.777
20
-82.2362
11
167.771
21
-82.2362
0
LINE
8
BLACK
6
CONTINUOUS
10
167.771
20
-82.2362
11
167.764
21
-82.2339
0
LINE
8
BLACK
6
CONTINUOUS
10
167.764
20
-82.2339
11
167.758
21
-82.2327
0
LINE
8
BLACK
6
CONTINUOUS
10
167.758
20
-82.2327
11
167.752
21
-82.2293
0
LINE
8
BLACK
6
CONTINUOUS
10
167.752
20
-82.2293
11
167.745
21
-82.227
0
LINE
8
BLACK
6
CONTINUOUS
10
167.745
20
-82.227
11
167.74
21
-82.2227
0
LINE
8
BLACK
6
CONTINUOUS
10
167.74
20
-82.2227
11
167.734
21
-82.2193
0
LINE
8
BLACK
6
CONTINUOUS
10
167.734
20
-82.2193
11
167.73
21
-82.2141
0
LINE
8
BLACK
6
CONTINUOUS
10
167.73
20
-82.2141
11
167.725
21
-82.2097
0
LINE
8
BLACK
6
CONTINUOUS
10
167.725
20
-82.2097
11
167.721
21
-82.2039
0
LINE
8
BLACK
6
CONTINUOUS
10
167.721
20
-82.2039
11
167.717
21
-82.1987
0
LINE
8
BLACK
6
CONTINUOUS
10
167.717
20
-82.1987
11
167.715
21
-82.1923
0
LINE
8
BLACK
6
CONTINUOUS
10
167.715
20
-82.1923
11
167.711
21
-82.1865
0
LINE
8
BLACK
6
CONTINUOUS
10
167.711
20
-82.1865
11
167.71
21
-82.1798
0
LINE
8
BLACK
6
CONTINUOUS
10
167.71
20
-82.1798
11
167.708
21
-82.1734
0
LINE
8
BLACK
6
CONTINUOUS
10
167.708
20
-82.1734
11
167.708
21
-82.1667
0
LINE
8
BLACK
6
CONTINUOUS
10
167.708
20
-82.1667
11
167.708
21
-82.1667
0
LINE
8
BLACK
6
CONTINUOUS
10
167.708
20
-82.1667
11
167.708
21
-65.1533
0
LINE
8
BLACK
6
CONTINUOUS
10
167.708
20
-65.1533
11
167.708
21
-65.1466
0
LINE
8
BLACK
6
CONTINUOUS
10
167.708
20
-65.1466
11
167.71
21
-65.1402
0
LINE
8
BLACK
6
CONTINUOUS
10
167.71
20
-65.1402
11
167.711
21
-65.1335
0
LINE
8
BLACK
6
CONTINUOUS
10
167.711
20
-65.1335
11
167.715
21
-65.1277
0
LINE
8
BLACK
6
CONTINUOUS
10
167.715
20
-65.1277
11
167.717
21
-65.1213
0
LINE
8
BLACK
6
CONTINUOUS
10
167.717
20
-65.1213
11
167.721
21
-65.1161
0
LINE
8
BLACK
6
CONTINUOUS
10
167.721
20
-65.1161
11
167.725
21
-65.1103
0
LINE
8
BLACK
6
CONTINUOUS
10
167.725
20
-65.1103
11
167.73
21
-65.1059
0
LINE
8
BLACK
6
CONTINUOUS
10
167.73
20
-65.1059
11
167.734
21
-65.1007
0
LINE
8
BLACK
6
CONTINUOUS
10
167.734
20
-65.1007
11
167.74
21
-65.0973
0
LINE
8
BLACK
6
CONTINUOUS
10
167.74
20
-65.0973
11
167.745
21
-65.093
0
LINE
8
BLACK
6
CONTINUOUS
10
167.745
20
-65.093
11
167.752
21
-65.0907
0
LINE
8
BLACK
6
CONTINUOUS
10
167.752
20
-65.0907
11
167.758
21
-65.0873
0
LINE
8
BLACK
6
CONTINUOUS
10
167.758
20
-65.0873
11
167.764
21
-65.0861
0
LINE
8
BLACK
6
CONTINUOUS
10
167.764
20
-65.0861
11
167.771
21
-65.0838
0
LINE
8
BLACK
6
CONTINUOUS
10
167.771
20
-65.0838
11
167.777
21
-65.0838
0
LINE
8
BLACK
6
CONTINUOUS
10
167.777
20
-65.0838
11
167.777
21
-65.0838
0
LINE
8
BLACK
6
CONTINUOUS
10
167.777
20
-65.0838
11
203.571
21
-65.0838
0
LINE
8
BLACK
6
CONTINUOUS
10
203.571
20
-65.0838
11
203.571
21
-65.0838
0
LINE
8
BLACK
6
CONTINUOUS
10
203.571
20
-65.0838
11
203.577
21
-65.0838
0
LINE
8
BLACK
6
CONTINUOUS
10
203.577
20
-65.0838
11
203.584
21
-65.0861
0
LINE
8
BLACK
6
CONTINUOUS
10
203.584
20
-65.0861
11
203.59
21
-65.0873
0
LINE
8
BLACK
6
CONTINUOUS
10
203.59
20
-65.0873
11
203.596
21
-65.0907
0
LINE
8
BLACK
6
CONTINUOUS
10
203.596
20
-65.0907
11
203.603
21
-65.093
0
LINE
8
BLACK
6
CONTINUOUS
10
203.603
20
-65.093
11
203.608
21
-65.0973
0
LINE
8
BLACK
6
CONTINUOUS
10
203.608
20
-65.0973
11
203.614
21
-65.1007
0
LINE
8
BLACK
6
CONTINUOUS
10
203.614
20
-65.1007
11
203.618
21
-65.1059
0
LINE
8
BLACK
6
CONTINUOUS
10
203.618
20
-65.1059
11
203.623
21
-65.1103
0
LINE
8
BLACK
6
CONTINUOUS
10
203.623
20
-65.1103
11
203.627
21
-65.1161
0
LINE
8
BLACK
6
CONTINUOUS
10
203.627
20
-65.1161
11
203.631
21
-65.1213
0
LINE
8
BLACK
6
CONTINUOUS
10
203.631
20
-65.1213
11
203.633
21
-65.1277
0
LINE
8
BLACK
6
CONTINUOUS
10
203.633
20
-65.1277
11
203.637
21
-65.1335
0
LINE
8
BLACK
6
CONTINUOUS
10
203.637
20
-65.1335
11
203.638
21
-65.1402
0
LINE
8
BLACK
6
CONTINUOUS
10
203.638
20
-65.1402
11
203.64
21
-65.1466
0
LINE
8
BLACK
6
CONTINUOUS
10
203.64
20
-65.1466
11
203.64
21
-65.1533
0
LINE
8
BLACK
6
CONTINUOUS
10
203.64
20
-65.1533
11
203.64
21
-65.1533
0
LINE
8
BLACK
6
CONTINUOUS
10
203.64
20
-65.1533
11
203.64
21
-82.1667
0
LINE
8
BLACK
6
CONTINUOUS
10
203.64
20
-82.1667
11
203.64
21
-82.1667
0
LINE
8
BLACK
6
CONTINUOUS
10
203.64
20
-82.1667
11
203.64
21
-82.1734
0
LINE
8
BLACK
6
CONTINUOUS
10
203.64
20
-82.1734
11
203.638
21
-82.1798
0
LINE
8
BLACK
6
CONTINUOUS
10
203.638
20
-82.1798
11
203.637
21
-82.1865
0
LINE
8
BLACK
6
CONTINUOUS
10
203.637
20
-82.1865
11
203.633
21
-82.1923
0
LINE
8
BLACK
6
CONTINUOUS
10
203.633
20
-82.1923
11
203.631
21
-82.1987
0
LINE
8
BLACK
6
CONTINUOUS
10
203.631
20
-82.1987
11
203.627
21
-82.2039
0
LINE
8
BLACK
6
CONTINUOUS
10
203.627
20
-82.2039
11
203.623
21
-82.2097
0
LINE
8
BLACK
6
CONTINUOUS
10
203.623
20
-82.2097
11
203.618
21
-82.2141
0
LINE
8
BLACK
6
CONTINUOUS
10
203.618
20
-82.2141
11
203.614
21
-82.2193
0
LINE
8
BLACK
6
CONTINUOUS
10
203.614
20
-82.2193
11
203.608
21
-82.2227
0
LINE
8
BLACK
6
CONTINUOUS
10
203.608
20
-82.2227
11
203.603
21
-82.227
0
LINE
8
BLACK
6
CONTINUOUS
10
203.603
20
-82.227
11
203.596
21
-82.2293
0
LINE
8
BLACK
6
CONTINUOUS
10
203.596
20
-82.2293
11
203.59
21
-82.2327
0
LINE
8
BLACK
6
CONTINUOUS
10
203.59
20
-82.2327
11
203.584
21
-82.2339
0
LINE
8
BLACK
6
CONTINUOUS
10
203.584
20
-82.2339
11
203.577
21
-82.2362
0
LINE
8
BLACK
6
CONTINUOUS
10
203.577
20
-82.2362
11
203.571
21
-82.2362
0
LINE
8
BLACK
6
CONTINUOUS
10
203.571
20
-82.2362
11
203.571
21
-82.2362
0
LINE
8
BLACK
6
CONTINUOUS
10
203.571
20
-82.2362
11
167.777
21
-82.2362
0
LINE
8
BLACK
6
CONTINUOUS
10
167.777
20
-82.2362
11
167.777
21
-82.2362
0
LINE
8
BLACK
6
CONTINUOUS
10
185.86
20
-65.2362
11
185.86
21
-82.0838
0
LINE
8
BLACK
6
CONTINUOUS
10
185.86
20
-82.0838
11
203.488
21
-82.0838
0
LINE
8
BLACK
6
CONTINUOUS
10
203.488
20
-82.0838
11
203.488
21
-65.2362
0
LINE
8
BLACK
6
CONTINUOUS
10
203.488
20
-65.2362
11
185.86
21
-65.2362
0
LINE
8
BLACK
6
CONTINUOUS
10
167.86
20
-65.2362
11
167.86
21
-82.0838
0
LINE
8
BLACK
6
CONTINUOUS
10
167.86
20
-82.0838
11
185.488
21
-82.0838
0
LINE
8
BLACK
6
CONTINUOUS
10
185.488
20
-82.0838
11
185.488
21
-65.2362
0
LINE
8
BLACK
6
CONTINUOUS
10
185.488
20
-65.2362
11
167.86
21
-65.2362
0
LINE
8
BLACK
6
CONTINUOUS
10
185.64
20
-65.2362
11
185.64
21
-82.0838
0
LINE
8
BLACK
6
CONTINUOUS
10
185.64
20
-82.0838
11
185.708
21
-82.0838
0
LINE
8
BLACK
6
CONTINUOUS
10
185.708
20
-82.0838
11
185.708
21
-65.2362
0
LINE
8
BLACK
6
CONTINUOUS
10
185.708
20
-65.2362
11
185.64
21
-65.2362
0
LINE
8
BLACK
6
CONTINUOUS
10
193.199
20
-65.7216
11
193.212
21
-65.7229
0
LINE
8
BLACK
6
CONTINUOUS
10
193.212
20
-65.7229
11
193.43
21
-65.7834
0
LINE
8
BLACK
6
CONTINUOUS
10
193.43
20
-65.7834
11
193.462
21
-65.7986
0
LINE
8
BLACK
6
CONTINUOUS
10
193.462
20
-65.7986
11
193.487
21
-65.8237
0
LINE
8
BLACK
6
CONTINUOUS
10
193.487
20
-65.8237
11
193.501
21
-65.8559
0
LINE
8
BLACK
6
CONTINUOUS
10
193.501
20
-65.8559
11
193.504
21
-65.891
0
LINE
8
BLACK
6
CONTINUOUS
10
193.504
20
-65.891
11
193.495
21
-65.925
0
LINE
8
BLACK
6
CONTINUOUS
10
193.495
20
-65.925
11
193.474
21
-65.9537
0
LINE
8
BLACK
6
CONTINUOUS
10
193.474
20
-65.9537
11
193.445
21
-65.9737
0
LINE
8
BLACK
6
CONTINUOUS
10
193.445
20
-65.9737
11
193.411
21
-65.9825
0
LINE
8
BLACK
6
CONTINUOUS
10
193.411
20
-65.9825
11
193.376
21
-65.9791
0
LINE
8
BLACK
6
CONTINUOUS
10
193.376
20
-65.9791
11
193.171
21
-65.9224
0
LINE
8
BLACK
6
CONTINUOUS
10
193.171
20
-65.9224
11
192.843
21
-65.9224
0
LINE
8
BLACK
6
CONTINUOUS
10
192.843
20
-65.9224
11
192.73
21
-65.9691
0
LINE
8
BLACK
6
CONTINUOUS
10
192.73
20
-65.9691
11
192.683
21
-66.0088
0
LINE
8
BLACK
6
CONTINUOUS
10
192.683
20
-66.0088
11
192.634
21
-66.0908
0
LINE
8
BLACK
6
CONTINUOUS
10
192.634
20
-66.0908
11
192.634
21
-66.1555
0
LINE
8
BLACK
6
CONTINUOUS
10
192.634
20
-66.1555
11
192.683
21
-66.2376
0
LINE
8
BLACK
6
CONTINUOUS
10
192.683
20
-66.2376
11
192.73
21
-66.2772
0
LINE
8
BLACK
6
CONTINUOUS
10
192.73
20
-66.2772
11
192.852
21
-66.328
0
LINE
8
BLACK
6
CONTINUOUS
10
192.852
20
-66.328
11
193.133
21
-66.3865
0
LINE
8
BLACK
6
CONTINUOUS
10
193.133
20
-66.3865
11
193.142
21
-66.3901
0
LINE
8
BLACK
6
CONTINUOUS
10
193.142
20
-66.3901
11
193.152
21
-66.3922
0
LINE
8
BLACK
6
CONTINUOUS
10
193.152
20
-66.3922
11
193.297
21
-66.4527
0
LINE
8
BLACK
6
CONTINUOUS
10
193.297
20
-66.4527
11
193.31
21
-66.4609
0
LINE
8
BLACK
6
CONTINUOUS
10
193.31
20
-66.4609
11
193.323
21
-66.4684
0
LINE
8
BLACK
6
CONTINUOUS
10
193.323
20
-66.4684
11
193.395
21
-66.5289
0
LINE
8
BLACK
6
CONTINUOUS
10
193.395
20
-66.5289
11
193.406
21
-66.5419
0
LINE
8
BLACK
6
CONTINUOUS
10
193.406
20
-66.5419
11
193.417
21
-66.5547
0
LINE
8
BLACK
6
CONTINUOUS
10
193.417
20
-66.5547
11
193.49
21
-66.6756
0
LINE
8
BLACK
6
CONTINUOUS
10
193.49
20
-66.6756
11
193.493
21
-66.6847
0
LINE
8
BLACK
6
CONTINUOUS
10
193.493
20
-66.6847
11
193.498
21
-66.6932
0
LINE
8
BLACK
6
CONTINUOUS
10
193.498
20
-66.6932
11
193.5
21
-66.7011
0
LINE
8
BLACK
6
CONTINUOUS
10
193.5
20
-66.7011
11
193.503
21
-66.7086
0
LINE
8
BLACK
6
CONTINUOUS
10
193.503
20
-66.7086
11
193.503
21
-66.7183
0
LINE
8
BLACK
6
CONTINUOUS
10
193.503
20
-66.7183
11
193.504
21
-66.7279
0
LINE
8
BLACK
6
CONTINUOUS
10
193.504
20
-66.7279
11
193.504
21
-66.8489
0
LINE
8
BLACK
6
CONTINUOUS
10
193.504
20
-66.8489
11
193.503
21
-66.8585
0
LINE
8
BLACK
6
CONTINUOUS
10
193.503
20
-66.8585
11
193.503
21
-66.8682
0
LINE
8
BLACK
6
CONTINUOUS
10
193.503
20
-66.8682
11
193.5
21
-66.8757
0
LINE
8
BLACK
6
CONTINUOUS
10
193.5
20
-66.8757
11
193.498
21
-66.8836
0
LINE
8
BLACK
6
CONTINUOUS
10
193.498
20
-66.8836
11
193.493
21
-66.892
0
LINE
8
BLACK
6
CONTINUOUS
10
193.493
20
-66.892
11
193.49
21
-66.9011
0
LINE
8
BLACK
6
CONTINUOUS
10
193.49
20
-66.9011
11
193.417
21
-67.0221
0
LINE
8
BLACK
6
CONTINUOUS
10
193.417
20
-67.0221
11
193.406
21
-67.0349
0
LINE
8
BLACK
6
CONTINUOUS
10
193.406
20
-67.0349
11
193.395
21
-67.0479
0
LINE
8
BLACK
6
CONTINUOUS
10
193.395
20
-67.0479
11
193.323
21
-67.1083
0
LINE
8
BLACK
6
CONTINUOUS
10
193.323
20
-67.1083
11
193.31
21
-67.1159
0
LINE
8
BLACK
6
CONTINUOUS
10
193.31
20
-67.1159
11
193.297
21
-67.1241
0
LINE
8
BLACK
6
CONTINUOUS
10
193.297
20
-67.1241
11
193.152
21
-67.1846
0
LINE
8
BLACK
6
CONTINUOUS
10
193.152
20
-67.1846
11
193.149
21
-67.1851
0
LINE
8
BLACK
6
CONTINUOUS
10
193.149
20
-67.1851
11
193.147
21
-67.1862
0
LINE
8
BLACK
6
CONTINUOUS
10
193.147
20
-67.1862
11
193.132
21
-67.1889
0
LINE
8
BLACK
6
CONTINUOUS
10
193.132
20
-67.1889
11
193.117
21
-67.1923
0
LINE
8
BLACK
6
CONTINUOUS
10
193.117
20
-67.1923
11
193.115
21
-67.192
0
LINE
8
BLACK
6
CONTINUOUS
10
193.115
20
-67.192
11
193.113
21
-67.1924
0
LINE
8
BLACK
6
CONTINUOUS
10
193.113
20
-67.1924
11
192.75
21
-67.1924
0
LINE
8
BLACK
6
CONTINUOUS
10
192.75
20
-67.1924
11
192.736
21
-67.19
0
LINE
8
BLACK
6
CONTINUOUS
10
192.736
20
-67.19
11
192.723
21
-67.1887
0
LINE
8
BLACK
6
CONTINUOUS
10
192.723
20
-67.1887
11
192.505
21
-67.1282
0
LINE
8
BLACK
6
CONTINUOUS
10
192.505
20
-67.1282
11
192.473
21
-67.113
0
LINE
8
BLACK
6
CONTINUOUS
10
192.473
20
-67.113
11
192.448
21
-67.0878
0
LINE
8
BLACK
6
CONTINUOUS
10
192.448
20
-67.0878
11
192.434
21
-67.0557
0
LINE
8
BLACK
6
CONTINUOUS
10
192.434
20
-67.0557
11
192.431
21
-67.0205
0
LINE
8
BLACK
6
CONTINUOUS
10
192.431
20
-67.0205
11
192.44
21
-66.9865
0
LINE
8
BLACK
6
CONTINUOUS
10
192.44
20
-66.9865
11
192.461
21
-66.9578
0
LINE
8
BLACK
6
CONTINUOUS
10
192.461
20
-66.9578
11
192.49
21
-66.9378
0
LINE
8
BLACK
6
CONTINUOUS
10
192.49
20
-66.9378
11
192.524
21
-66.929
0
LINE
8
BLACK
6
CONTINUOUS
10
192.524
20
-66.929
11
192.559
21
-66.9324
0
LINE
8
BLACK
6
CONTINUOUS
10
192.559
20
-66.9324
11
192.764
21
-66.9892
0
LINE
8
BLACK
6
CONTINUOUS
10
192.764
20
-66.9892
11
193.092
21
-66.9892
0
LINE
8
BLACK
6
CONTINUOUS
10
193.092
20
-66.9892
11
193.204
21
-66.9424
0
LINE
8
BLACK
6
CONTINUOUS
10
193.204
20
-66.9424
11
193.252
21
-66.9028
0
LINE
8
BLACK
6
CONTINUOUS
10
193.252
20
-66.9028
11
193.301
21
-66.8207
0
LINE
8
BLACK
6
CONTINUOUS
10
193.301
20
-66.8207
11
193.301
21
-66.7561
0
LINE
8
BLACK
6
CONTINUOUS
10
193.301
20
-66.7561
11
193.252
21
-66.674
0
LINE
8
BLACK
6
CONTINUOUS
10
193.252
20
-66.674
11
193.204
21
-66.6344
0
LINE
8
BLACK
6
CONTINUOUS
10
193.204
20
-66.6344
11
193.082
21
-66.5835
0
LINE
8
BLACK
6
CONTINUOUS
10
193.082
20
-66.5835
11
192.802
21
-66.525
0
LINE
8
BLACK
6
CONTINUOUS
10
192.802
20
-66.525
11
192.793
21
-66.5214
0
LINE
8
BLACK
6
CONTINUOUS
10
192.793
20
-66.5214
11
192.783
21
-66.5193
0
LINE
8
BLACK
6
CONTINUOUS
10
192.783
20
-66.5193
11
192.638
21
-66.4588
0
LINE
8
BLACK
6
CONTINUOUS
10
192.638
20
-66.4588
11
192.625
21
-66.4507
0
LINE
8
BLACK
6
CONTINUOUS
10
192.625
20
-66.4507
11
192.612
21
-66.4431
0
LINE
8
BLACK
6
CONTINUOUS
10
192.612
20
-66.4431
11
192.54
21
-66.3826
0
LINE
8
BLACK
6
CONTINUOUS
10
192.54
20
-66.3826
11
192.529
21
-66.3697
0
LINE
8
BLACK
6
CONTINUOUS
10
192.529
20
-66.3697
11
192.517
21
-66.3569
0
LINE
8
BLACK
6
CONTINUOUS
10
192.517
20
-66.3569
11
192.445
21
-66.2359
0
LINE
8
BLACK
6
CONTINUOUS
10
192.445
20
-66.2359
11
192.441
21
-66.2268
0
LINE
8
BLACK
6
CONTINUOUS
10
192.441
20
-66.2268
11
192.437
21
-66.2184
0
LINE
8
BLACK
6
CONTINUOUS
10
192.437
20
-66.2184
11
192.435
21
-66.2105
0
LINE
8
BLACK
6
CONTINUOUS
10
192.435
20
-66.2105
11
192.432
21
-66.203
0
LINE
8
BLACK
6
CONTINUOUS
10
192.432
20
-66.203
11
192.432
21
-66.1932
0
LINE
8
BLACK
6
CONTINUOUS
10
192.432
20
-66.1932
11
192.43
21
-66.1836
0
LINE
8
BLACK
6
CONTINUOUS
10
192.43
20
-66.1836
11
192.43
21
-66.0627
0
LINE
8
BLACK
6
CONTINUOUS
10
192.43
20
-66.0627
11
192.432
21
-66.0531
0
LINE
8
BLACK
6
CONTINUOUS
10
192.432
20
-66.0531
11
192.432
21
-66.0434
0
LINE
8
BLACK
6
CONTINUOUS
10
192.432
20
-66.0434
11
192.435
21
-66.0358
0
LINE
8
BLACK
6
CONTINUOUS
10
192.435
20
-66.0358
11
192.437
21
-66.0279
0
LINE
8
BLACK
6
CONTINUOUS
10
192.437
20
-66.0279
11
192.441
21
-66.0195
0
LINE
8
BLACK
6
CONTINUOUS
10
192.441
20
-66.0195
11
192.445
21
-66.0104
0
LINE
8
BLACK
6
CONTINUOUS
10
192.445
20
-66.0104
11
192.517
21
-65.8895
0
LINE
8
BLACK
6
CONTINUOUS
10
192.517
20
-65.8895
11
192.529
21
-65.8767
0
LINE
8
BLACK
6
CONTINUOUS
10
192.529
20
-65.8767
11
192.54
21
-65.8637
0
LINE
8
BLACK
6
CONTINUOUS
10
192.54
20
-65.8637
11
192.612
21
-65.8032
0
LINE
8
BLACK
6
CONTINUOUS
10
192.612
20
-65.8032
11
192.625
21
-65.7956
0
LINE
8
BLACK
6
CONTINUOUS
10
192.625
20
-65.7956
11
192.638
21
-65.7875
0
LINE
8
BLACK
6
CONTINUOUS
10
192.638
20
-65.7875
11
192.783
21
-65.727
0
LINE
8
BLACK
6
CONTINUOUS
10
192.783
20
-65.727
11
192.786
21
-65.7265
0
LINE
8
BLACK
6
CONTINUOUS
10
192.786
20
-65.7265
11
192.788
21
-65.7253
0
LINE
8
BLACK
6
CONTINUOUS
10
192.788
20
-65.7253
11
192.803
21
-65.7226
0
LINE
8
BLACK
6
CONTINUOUS
10
192.803
20
-65.7226
11
192.818
21
-65.7193
0
LINE
8
BLACK
6
CONTINUOUS
10
192.818
20
-65.7193
11
192.82
21
-65.7196
0
LINE
8
BLACK
6
CONTINUOUS
10
192.82
20
-65.7196
11
192.822
21
-65.7192
0
LINE
8
BLACK
6
CONTINUOUS
10
192.822
20
-65.7192
11
193.185
21
-65.7192
0
LINE
8
BLACK
6
CONTINUOUS
10
193.185
20
-65.7192
11
193.199
21
-65.7216
0
LINE
8
BLACK
6
CONTINUOUS
10
196.558
20
-65.7253
11
196.589
21
-65.7429
0
LINE
8
BLACK
6
CONTINUOUS
10
196.589
20
-65.7429
11
196.611
21
-65.77
0
LINE
8
BLACK
6
CONTINUOUS
10
196.611
20
-65.77
11
196.623
21
-65.8031
0
LINE
8
BLACK
6
CONTINUOUS
10
196.623
20
-65.8031
11
196.623
21
-65.8384
0
LINE
8
BLACK
6
CONTINUOUS
10
196.623
20
-65.8384
11
196.611
21
-65.8716
0
LINE
8
BLACK
6
CONTINUOUS
10
196.611
20
-65.8716
11
196.589
21
-65.8986
0
LINE
8
BLACK
6
CONTINUOUS
10
196.589
20
-65.8986
11
196.558
21
-65.9162
0
LINE
8
BLACK
6
CONTINUOUS
10
196.558
20
-65.9162
11
196.523
21
-65.9224
0
LINE
8
BLACK
6
CONTINUOUS
10
196.523
20
-65.9224
11
195.888
21
-65.9224
0
LINE
8
BLACK
6
CONTINUOUS
10
195.888
20
-65.9224
11
195.851
21
-66.233
0
LINE
8
BLACK
6
CONTINUOUS
10
195.851
20
-66.233
11
195.904
21
-66.2108
0
LINE
8
BLACK
6
CONTINUOUS
10
195.904
20
-66.2108
11
195.906
21
-66.2103
0
LINE
8
BLACK
6
CONTINUOUS
10
195.906
20
-66.2103
11
195.908
21
-66.2091
0
LINE
8
BLACK
6
CONTINUOUS
10
195.908
20
-66.2091
11
195.923
21
-66.2064
0
LINE
8
BLACK
6
CONTINUOUS
10
195.923
20
-66.2064
11
195.938
21
-66.2031
0
LINE
8
BLACK
6
CONTINUOUS
10
195.938
20
-66.2031
11
195.941
21
-66.2034
0
LINE
8
BLACK
6
CONTINUOUS
10
195.941
20
-66.2034
11
195.943
21
-66.203
0
LINE
8
BLACK
6
CONTINUOUS
10
195.943
20
-66.203
11
196.306
21
-66.203
0
LINE
8
BLACK
6
CONTINUOUS
10
196.306
20
-66.203
11
196.308
21
-66.2034
0
LINE
8
BLACK
6
CONTINUOUS
10
196.308
20
-66.2034
11
196.31
21
-66.2031
0
LINE
8
BLACK
6
CONTINUOUS
10
196.31
20
-66.2031
11
196.325
21
-66.2064
0
LINE
8
BLACK
6
CONTINUOUS
10
196.325
20
-66.2064
11
196.34
21
-66.2091
0
LINE
8
BLACK
6
CONTINUOUS
10
196.34
20
-66.2091
11
196.342
21
-66.2103
0
LINE
8
BLACK
6
CONTINUOUS
10
196.342
20
-66.2103
11
196.345
21
-66.2108
0
LINE
8
BLACK
6
CONTINUOUS
10
196.345
20
-66.2108
11
196.49
21
-66.2713
0
LINE
8
BLACK
6
CONTINUOUS
10
196.49
20
-66.2713
11
196.503
21
-66.2795
0
LINE
8
BLACK
6
CONTINUOUS
10
196.503
20
-66.2795
11
196.516
21
-66.287
0
LINE
8
BLACK
6
CONTINUOUS
10
196.516
20
-66.287
11
196.588
21
-66.3475
0
LINE
8
BLACK
6
CONTINUOUS
10
196.588
20
-66.3475
11
196.599
21
-66.3604
0
LINE
8
BLACK
6
CONTINUOUS
10
196.599
20
-66.3604
11
196.611
21
-66.3733
0
LINE
8
BLACK
6
CONTINUOUS
10
196.611
20
-66.3733
11
196.683
21
-66.4942
0
LINE
8
BLACK
6
CONTINUOUS
10
196.683
20
-66.4942
11
196.687
21
-66.5033
0
LINE
8
BLACK
6
CONTINUOUS
10
196.687
20
-66.5033
11
196.691
21
-66.5117
0
LINE
8
BLACK
6
CONTINUOUS
10
196.691
20
-66.5117
11
196.693
21
-66.5197
0
LINE
8
BLACK
6
CONTINUOUS
10
196.693
20
-66.5197
11
196.696
21
-66.5272
0
LINE
8
BLACK
6
CONTINUOUS
10
196.696
20
-66.5272
11
196.696
21
-66.5369
0
LINE
8
BLACK
6
CONTINUOUS
10
196.696
20
-66.5369
11
196.698
21
-66.5465
0
LINE
8
BLACK
6
CONTINUOUS
10
196.698
20
-66.5465
11
196.698
21
-66.8489
0
LINE
8
BLACK
6
CONTINUOUS
10
196.698
20
-66.8489
11
196.696
21
-66.8585
0
LINE
8
BLACK
6
CONTINUOUS
10
196.696
20
-66.8585
11
196.696
21
-66.8682
0
LINE
8
BLACK
6
CONTINUOUS
10
196.696
20
-66.8682
11
196.693
21
-66.8757
0
LINE
8
BLACK
6
CONTINUOUS
10
196.693
20
-66.8757
11
196.691
21
-66.8836
0
LINE
8
BLACK
6
CONTINUOUS
10
196.691
20
-66.8836
11
196.687
21
-66.892
0
LINE
8
BLACK
6
CONTINUOUS
10
196.687
20
-66.892
11
196.683
21
-66.9011
0
LINE
8
BLACK
6
CONTINUOUS
10
196.683
20
-66.9011
11
196.611
21
-67.0221
0
LINE
8
BLACK
6
CONTINUOUS
10
196.611
20
-67.0221
11
196.599
21
-67.0349
0
LINE
8
BLACK
6
CONTINUOUS
10
196.599
20
-67.0349
11
196.588
21
-67.0479
0
LINE
8
BLACK
6
CONTINUOUS
10
196.588
20
-67.0479
11
196.516
21
-67.1083
0
LINE
8
BLACK
6
CONTINUOUS
10
196.516
20
-67.1083
11
196.503
21
-67.1159
0
LINE
8
BLACK
6
CONTINUOUS
10
196.503
20
-67.1159
11
196.49
21
-67.1241
0
LINE
8
BLACK
6
CONTINUOUS
10
196.49
20
-67.1241
11
196.345
21
-67.1846
0
LINE
8
BLACK
6
CONTINUOUS
10
196.345
20
-67.1846
11
196.342
21
-67.1851
0
LINE
8
BLACK
6
CONTINUOUS
10
196.342
20
-67.1851
11
196.34
21
-67.1862
0
LINE
8
BLACK
6
CONTINUOUS
10
196.34
20
-67.1862
11
196.325
21
-67.1889
0
LINE
8
BLACK
6
CONTINUOUS
10
196.325
20
-67.1889
11
196.31
21
-67.1923
0
LINE
8
BLACK
6
CONTINUOUS
10
196.31
20
-67.1923
11
196.308
21
-67.192
0
LINE
8
BLACK
6
CONTINUOUS
10
196.308
20
-67.192
11
196.306
21
-67.1924
0
LINE
8
BLACK
6
CONTINUOUS
10
196.306
20
-67.1924
11
195.943
21
-67.1924
0
LINE
8
BLACK
6
CONTINUOUS
10
195.943
20
-67.1924
11
195.941
21
-67.192
0
LINE
8
BLACK
6
CONTINUOUS
10
195.941
20
-67.192
11
195.938
21
-67.1923
0
LINE
8
BLACK
6
CONTINUOUS
10
195.938
20
-67.1923
11
195.923
21
-67.1889
0
LINE
8
BLACK
6
CONTINUOUS
10
195.923
20
-67.1889
11
195.908
21
-67.1862
0
LINE
8
BLACK
6
CONTINUOUS
10
195.908
20
-67.1862
11
195.906
21
-67.1851
0
LINE
8
BLACK
6
CONTINUOUS
10
195.906
20
-67.1851
11
195.904
21
-67.1846
0
LINE
8
BLACK
6
CONTINUOUS
10
195.904
20
-67.1846
11
195.759
21
-67.1241
0
LINE
8
BLACK
6
CONTINUOUS
10
195.759
20
-67.1241
11
195.746
21
-67.1159
0
LINE
8
BLACK
6
CONTINUOUS
10
195.746
20
-67.1159
11
195.733
21
-67.1083
0
LINE
8
BLACK
6
CONTINUOUS
10
195.733
20
-67.1083
11
195.66
21
-67.0479
0
LINE
8
BLACK
6
CONTINUOUS
10
195.66
20
-67.0479
11
195.637
21
-67.0209
0
LINE
8
BLACK
6
CONTINUOUS
10
195.637
20
-67.0209
11
195.625
21
-66.9878
0
LINE
8
BLACK
6
CONTINUOUS
10
195.625
20
-66.9878
11
195.625
21
-66.9525
0
LINE
8
BLACK
6
CONTINUOUS
10
195.625
20
-66.9525
11
195.637
21
-66.9193
0
LINE
8
BLACK
6
CONTINUOUS
10
195.637
20
-66.9193
11
195.66
21
-66.8922
0
LINE
8
BLACK
6
CONTINUOUS
10
195.66
20
-66.8922
11
195.69
21
-66.8745
0
LINE
8
BLACK
6
CONTINUOUS
10
195.69
20
-66.8745
11
195.725
21
-66.8682
0
LINE
8
BLACK
6
CONTINUOUS
10
195.725
20
-66.8682
11
195.76
21
-66.8742
0
LINE
8
BLACK
6
CONTINUOUS
10
195.76
20
-66.8742
11
195.79
21
-66.8918
0
LINE
8
BLACK
6
CONTINUOUS
10
195.79
20
-66.8918
11
195.851
21
-66.9424
0
LINE
8
BLACK
6
CONTINUOUS
10
195.851
20
-66.9424
11
195.963
21
-66.9892
0
LINE
8
BLACK
6
CONTINUOUS
10
195.963
20
-66.9892
11
196.285
21
-66.9892
0
LINE
8
BLACK
6
CONTINUOUS
10
196.285
20
-66.9892
11
196.398
21
-66.9424
0
LINE
8
BLACK
6
CONTINUOUS
10
196.398
20
-66.9424
11
196.445
21
-66.9028
0
LINE
8
BLACK
6
CONTINUOUS
10
196.445
20
-66.9028
11
196.494
21
-66.8207
0
LINE
8
BLACK
6
CONTINUOUS
10
196.494
20
-66.8207
11
196.494
21
-66.5746
0
LINE
8
BLACK
6
CONTINUOUS
10
196.494
20
-66.5746
11
196.445
21
-66.4926
0
LINE
8
BLACK
6
CONTINUOUS
10
196.445
20
-66.4926
11
196.398
21
-66.4529
0
LINE
8
BLACK
6
CONTINUOUS
10
196.398
20
-66.4529
11
196.285
21
-66.4062
0
LINE
8
BLACK
6
CONTINUOUS
10
196.285
20
-66.4062
11
195.963
21
-66.4062
0
LINE
8
BLACK
6
CONTINUOUS
10
195.963
20
-66.4062
11
195.851
21
-66.4529
0
LINE
8
BLACK
6
CONTINUOUS
10
195.851
20
-66.4529
11
195.79
21
-66.5036
0
LINE
8
BLACK
6
CONTINUOUS
10
195.79
20
-66.5036
11
195.777
21
-66.5109
0
LINE
8
BLACK
6
CONTINUOUS
10
195.777
20
-66.5109
11
195.765
21
-66.5189
0
LINE
8
BLACK
6
CONTINUOUS
10
195.765
20
-66.5189
11
195.762
21
-66.5196
0
LINE
8
BLACK
6
CONTINUOUS
10
195.762
20
-66.5196
11
195.76
21
-66.5211
0
LINE
8
BLACK
6
CONTINUOUS
10
195.76
20
-66.5211
11
195.745
21
-66.5236
0
LINE
8
BLACK
6
CONTINUOUS
10
195.745
20
-66.5236
11
195.731
21
-66.527
0
LINE
8
BLACK
6
CONTINUOUS
10
195.731
20
-66.527
11
195.728
21
-66.5266
0
LINE
8
BLACK
6
CONTINUOUS
10
195.728
20
-66.5266
11
195.725
21
-66.5271
0
LINE
8
BLACK
6
CONTINUOUS
10
195.725
20
-66.5271
11
195.71
21
-66.5245
0
LINE
8
BLACK
6
CONTINUOUS
10
195.71
20
-66.5245
11
195.696
21
-66.5228
0
LINE
8
BLACK
6
CONTINUOUS
10
195.696
20
-66.5228
11
195.693
21
-66.5214
0
LINE
8
BLACK
6
CONTINUOUS
10
195.693
20
-66.5214
11
195.69
21
-66.5209
0
LINE
8
BLACK
6
CONTINUOUS
10
195.69
20
-66.5209
11
195.677
21
-66.5135
0
LINE
8
BLACK
6
CONTINUOUS
10
195.677
20
-66.5135
11
195.664
21
-66.5068
0
LINE
8
BLACK
6
CONTINUOUS
10
195.664
20
-66.5068
11
195.662
21
-66.5047
0
LINE
8
BLACK
6
CONTINUOUS
10
195.662
20
-66.5047
11
195.66
21
-66.5031
0
LINE
8
BLACK
6
CONTINUOUS
10
195.66
20
-66.5031
11
195.65
21
-66.4918
0
LINE
8
BLACK
6
CONTINUOUS
10
195.65
20
-66.4918
11
195.64
21
-66.4811
0
LINE
8
BLACK
6
CONTINUOUS
10
195.64
20
-66.4811
11
195.639
21
-66.4783
0
LINE
8
BLACK
6
CONTINUOUS
10
195.639
20
-66.4783
11
195.637
21
-66.476
0
LINE
8
BLACK
6
CONTINUOUS
10
195.637
20
-66.476
11
195.632
21
-66.4622
0
LINE
8
BLACK
6
CONTINUOUS
10
195.632
20
-66.4622
11
195.626
21
-66.4487
0
LINE
8
BLACK
6
CONTINUOUS
10
195.626
20
-66.4487
11
195.626
21
-66.4457
0
LINE
8
BLACK
6
CONTINUOUS
10
195.626
20
-66.4457
11
195.625
21
-66.4428
0
LINE
8
BLACK
6
CONTINUOUS
10
195.625
20
-66.4428
11
195.625
21
-66.4281
0
LINE
8
BLACK
6
CONTINUOUS
10
195.625
20
-66.4281
11
195.624
21
-66.4134
0
LINE
8
BLACK
6
CONTINUOUS
10
195.624
20
-66.4134
11
195.697
21
-65.8087
0
LINE
8
BLACK
6
CONTINUOUS
10
195.697
20
-65.8087
11
195.698
21
-65.806
0
LINE
8
BLACK
6
CONTINUOUS
10
195.698
20
-65.806
11
195.698
21
-65.8031
0
LINE
8
BLACK
6
CONTINUOUS
10
195.698
20
-65.8031
11
195.703
21
-65.7891
0
LINE
8
BLACK
6
CONTINUOUS
10
195.703
20
-65.7891
11
195.707
21
-65.7749
0
LINE
8
BLACK
6
CONTINUOUS
10
195.707
20
-65.7749
11
195.709
21
-65.7726
0
LINE
8
BLACK
6
CONTINUOUS
10
195.709
20
-65.7726
11
195.71
21
-65.77
0
LINE
8
BLACK
6
CONTINUOUS
10
195.71
20
-65.77
11
195.719
21
-65.7586
0
LINE
8
BLACK
6
CONTINUOUS
10
195.719
20
-65.7586
11
195.728
21
-65.7467
0
LINE
8
BLACK
6
CONTINUOUS
10
195.728
20
-65.7467
11
195.731
21
-65.7451
0
LINE
8
BLACK
6
CONTINUOUS
10
195.731
20
-65.7451
11
195.732
21
-65.7429
0
LINE
8
BLACK
6
CONTINUOUS
10
195.732
20
-65.7429
11
195.745
21
-65.7355
0
LINE
8
BLACK
6
CONTINUOUS
10
195.745
20
-65.7355
11
195.758
21
-65.7274
0
LINE
8
BLACK
6
CONTINUOUS
10
195.758
20
-65.7274
11
195.761
21
-65.7267
0
LINE
8
BLACK
6
CONTINUOUS
10
195.761
20
-65.7267
11
195.763
21
-65.7253
0
LINE
8
BLACK
6
CONTINUOUS
10
195.763
20
-65.7253
11
195.778
21
-65.7227
0
LINE
8
BLACK
6
CONTINUOUS
10
195.778
20
-65.7227
11
195.792
21
-65.7193
0
LINE
8
BLACK
6
CONTINUOUS
10
195.792
20
-65.7193
11
195.795
21
-65.7197
0
LINE
8
BLACK
6
CONTINUOUS
10
195.795
20
-65.7197
11
195.798
21
-65.7192
0
LINE
8
BLACK
6
CONTINUOUS
10
195.798
20
-65.7192
11
196.523
21
-65.7192
0
LINE
8
BLACK
6
CONTINUOUS
10
196.523
20
-65.7192
11
196.558
21
-65.7253
0
LINE
8
BLACK
6
CONTINUOUS
10
195.262
20
-65.7294
11
195.29
21
-65.7501
0
LINE
8
BLACK
6
CONTINUOUS
10
195.29
20
-65.7501
11
195.31
21
-65.7794
0
LINE
8
BLACK
6
CONTINUOUS
10
195.31
20
-65.7794
11
195.318
21
-65.8136
0
LINE
8
BLACK
6
CONTINUOUS
10
195.318
20
-65.8136
11
195.315
21
-65.8487
0
LINE
8
BLACK
6
CONTINUOUS
10
195.315
20
-65.8487
11
194.952
21
-67.1187
0
LINE
8
BLACK
6
CONTINUOUS
10
194.952
20
-67.1187
11
194.95
21
-67.1238
0
LINE
8
BLACK
6
CONTINUOUS
10
194.95
20
-67.1238
11
194.948
21
-67.1293
0
LINE
8
BLACK
6
CONTINUOUS
10
194.948
20
-67.1293
11
194.942
21
-67.1395
0
LINE
8
BLACK
6
CONTINUOUS
10
194.942
20
-67.1395
11
194.937
21
-67.1504
0
LINE
8
BLACK
6
CONTINUOUS
10
194.937
20
-67.1504
11
194.932
21
-67.1543
0
LINE
8
BLACK
6
CONTINUOUS
10
194.932
20
-67.1543
11
194.929
21
-67.1591
0
LINE
8
BLACK
6
CONTINUOUS
10
194.929
20
-67.1591
11
194.92
21
-67.1665
0
LINE
8
BLACK
6
CONTINUOUS
10
194.92
20
-67.1665
11
194.911
21
-67.1749
0
LINE
8
BLACK
6
CONTINUOUS
10
194.911
20
-67.1749
11
194.906
21
-67.1772
0
LINE
8
BLACK
6
CONTINUOUS
10
194.906
20
-67.1772
11
194.902
21
-67.1807
0
LINE
8
BLACK
6
CONTINUOUS
10
194.902
20
-67.1807
11
194.89
21
-67.1844
0
LINE
8
BLACK
6
CONTINUOUS
10
194.89
20
-67.1844
11
194.879
21
-67.1893
0
LINE
8
BLACK
6
CONTINUOUS
10
194.879
20
-67.1893
11
194.873
21
-67.1897
0
LINE
8
BLACK
6
CONTINUOUS
10
194.873
20
-67.1897
11
194.868
21
-67.1914
0
LINE
8
BLACK
6
CONTINUOUS
10
194.868
20
-67.1914
11
194.856
21
-67.191
0
LINE
8
BLACK
6
CONTINUOUS
10
194.856
20
-67.191
11
194.844
21
-67.1918
0
LINE
8
BLACK
6
CONTINUOUS
10
194.844
20
-67.1918
11
194.838
21
-67.1903
0
LINE
8
BLACK
6
CONTINUOUS
10
194.838
20
-67.1903
11
194.833
21
-67.1901
0
LINE
8
BLACK
6
CONTINUOUS
10
194.833
20
-67.1901
11
194.821
21
-67.1855
0
LINE
8
BLACK
6
CONTINUOUS
10
194.821
20
-67.1855
11
194.81
21
-67.1821
0
LINE
8
BLACK
6
CONTINUOUS
10
194.81
20
-67.1821
11
194.805
21
-67.1788
0
LINE
8
BLACK
6
CONTINUOUS
10
194.805
20
-67.1788
11
194.8
21
-67.1767
0
LINE
8
BLACK
6
CONTINUOUS
10
194.8
20
-67.1767
11
194.791
21
-67.1685
0
LINE
8
BLACK
6
CONTINUOUS
10
194.791
20
-67.1685
11
194.781
21
-67.1614
0
LINE
8
BLACK
6
CONTINUOUS
10
194.781
20
-67.1614
11
194.778
21
-67.1568
0
LINE
8
BLACK
6
CONTINUOUS
10
194.778
20
-67.1568
11
194.774
21
-67.153
0
LINE
8
BLACK
6
CONTINUOUS
10
194.774
20
-67.153
11
194.768
21
-67.1422
0
LINE
8
BLACK
6
CONTINUOUS
10
194.768
20
-67.1422
11
194.762
21
-67.1322
0
LINE
8
BLACK
6
CONTINUOUS
10
194.762
20
-67.1322
11
194.76
21
-67.1267
0
LINE
8
BLACK
6
CONTINUOUS
10
194.76
20
-67.1267
11
194.758
21
-67.1217
0
LINE
8
BLACK
6
CONTINUOUS
10
194.758
20
-67.1217
11
194.564
21
-66.517
0
LINE
8
BLACK
6
CONTINUOUS
10
194.564
20
-66.517
11
194.37
21
-67.1217
0
LINE
8
BLACK
6
CONTINUOUS
10
194.37
20
-67.1217
11
194.368
21
-67.1267
0
LINE
8
BLACK
6
CONTINUOUS
10
194.368
20
-67.1267
11
194.366
21
-67.1322
0
LINE
8
BLACK
6
CONTINUOUS
10
194.366
20
-67.1322
11
194.36
21
-67.1422
0
LINE
8
BLACK
6
CONTINUOUS
10
194.36
20
-67.1422
11
194.354
21
-67.153
0
LINE
8
BLACK
6
CONTINUOUS
10
194.354
20
-67.153
11
194.35
21
-67.1568
0
LINE
8
BLACK
6
CONTINUOUS
10
194.35
20
-67.1568
11
194.347
21
-67.1614
0
LINE
8
BLACK
6
CONTINUOUS
10
194.347
20
-67.1614
11
194.337
21
-67.1685
0
LINE
8
BLACK
6
CONTINUOUS
10
194.337
20
-67.1685
11
194.328
21
-67.1767
0
LINE
8
BLACK
6
CONTINUOUS
10
194.328
20
-67.1767
11
194.323
21
-67.1788
0
LINE
8
BLACK
6
CONTINUOUS
10
194.323
20
-67.1788
11
194.318
21
-67.1821
0
LINE
8
BLACK
6
CONTINUOUS
10
194.318
20
-67.1821
11
194.307
21
-67.1855
0
LINE
8
BLACK
6
CONTINUOUS
10
194.307
20
-67.1855
11
194.295
21
-67.1901
0
LINE
8
BLACK
6
CONTINUOUS
10
194.295
20
-67.1901
11
194.29
21
-67.1903
0
LINE
8
BLACK
6
CONTINUOUS
10
194.29
20
-67.1903
11
194.284
21
-67.1918
0
LINE
8
BLACK
6
CONTINUOUS
10
194.284
20
-67.1918
11
194.272
21
-67.191
0
LINE
8
BLACK
6
CONTINUOUS
10
194.272
20
-67.191
11
194.26
21
-67.1914
0
LINE
8
BLACK
6
CONTINUOUS
10
194.26
20
-67.1914
11
194.255
21
-67.1897
0
LINE
8
BLACK
6
CONTINUOUS
10
194.255
20
-67.1897
11
194.249
21
-67.1893
0
LINE
8
BLACK
6
CONTINUOUS
10
194.249
20
-67.1893
11
194.238
21
-67.1844
0
LINE
8
BLACK
6
CONTINUOUS
10
194.238
20
-67.1844
11
194.226
21
-67.1807
0
LINE
8
BLACK
6
CONTINUOUS
10
194.226
20
-67.1807
11
194.222
21
-67.1772
0
LINE
8
BLACK
6
CONTINUOUS
10
194.222
20
-67.1772
11
194.217
21
-67.1749
0
LINE
8
BLACK
6
CONTINUOUS
10
194.217
20
-67.1749
11
194.208
21
-67.1665
0
LINE
8
BLACK
6
CONTINUOUS
10
194.208
20
-67.1665
11
194.199
21
-67.1591
0
LINE
8
BLACK
6
CONTINUOUS
10
194.199
20
-67.1591
11
194.196
21
-67.1543
0
LINE
8
BLACK
6
CONTINUOUS
10
194.196
20
-67.1543
11
194.191
21
-67.1504
0
LINE
8
BLACK
6
CONTINUOUS
10
194.191
20
-67.1504
11
194.186
21
-67.1395
0
LINE
8
BLACK
6
CONTINUOUS
10
194.186
20
-67.1395
11
194.18
21
-67.1293
0
LINE
8
BLACK
6
CONTINUOUS
10
194.18
20
-67.1293
11
194.178
21
-67.1238
0
LINE
8
BLACK
6
CONTINUOUS
10
194.178
20
-67.1238
11
194.176
21
-67.1187
0
LINE
8
BLACK
6
CONTINUOUS
10
194.176
20
-67.1187
11
193.813
21
-65.8487
0
LINE
8
BLACK
6
CONTINUOUS
10
193.813
20
-65.8487
11
193.81
21
-65.8136
0
LINE
8
BLACK
6
CONTINUOUS
10
193.81
20
-65.8136
11
193.818
21
-65.7794
0
LINE
8
BLACK
6
CONTINUOUS
10
193.818
20
-65.7794
11
193.838
21
-65.7501
0
LINE
8
BLACK
6
CONTINUOUS
10
193.838
20
-65.7501
11
193.866
21
-65.7294
0
LINE
8
BLACK
6
CONTINUOUS
10
193.866
20
-65.7294
11
193.9
21
-65.7197
0
LINE
8
BLACK
6
CONTINUOUS
10
193.9
20
-65.7197
11
193.936
21
-65.7222
0
LINE
8
BLACK
6
CONTINUOUS
10
193.936
20
-65.7222
11
193.968
21
-65.7366
0
LINE
8
BLACK
6
CONTINUOUS
10
193.968
20
-65.7366
11
193.993
21
-65.7611
0
LINE
8
BLACK
6
CONTINUOUS
10
193.993
20
-65.7611
11
194.009
21
-65.7929
0
LINE
8
BLACK
6
CONTINUOUS
10
194.009
20
-65.7929
11
194.279
21
-66.7402
0
LINE
8
BLACK
6
CONTINUOUS
10
194.279
20
-66.7402
11
194.467
21
-66.1527
0
LINE
8
BLACK
6
CONTINUOUS
10
194.467
20
-66.1527
11
194.469
21
-66.1491
0
LINE
8
BLACK
6
CONTINUOUS
10
194.469
20
-66.1491
11
194.47
21
-66.1452
0
LINE
8
BLACK
6
CONTINUOUS
10
194.47
20
-66.1452
11
194.477
21
-66.1336
0
LINE
8
BLACK
6
CONTINUOUS
10
194.477
20
-66.1336
11
194.484
21
-66.1214
0
LINE
8
BLACK
6
CONTINUOUS
10
194.484
20
-66.1214
11
194.487
21
-66.1187
0
LINE
8
BLACK
6
CONTINUOUS
10
194.487
20
-66.1187
11
194.489
21
-66.1153
0
LINE
8
BLACK
6
CONTINUOUS
10
194.489
20
-66.1153
11
194.5
21
-66.1069
0
LINE
8
BLACK
6
CONTINUOUS
10
194.5
20
-66.1069
11
194.51
21
-66.0977
0
LINE
8
BLACK
6
CONTINUOUS
10
194.51
20
-66.0977
11
194.514
21
-66.0962
0
LINE
8
BLACK
6
CONTINUOUS
10
194.514
20
-66.0962
11
194.517
21
-66.0937
0
LINE
8
BLACK
6
CONTINUOUS
10
194.517
20
-66.0937
11
194.53
21
-66.0895
0
LINE
8
BLACK
6
CONTINUOUS
10
194.53
20
-66.0895
11
194.542
21
-66.0843
0
LINE
8
BLACK
6
CONTINUOUS
10
194.542
20
-66.0843
11
194.546
21
-66.0842
0
LINE
8
BLACK
6
CONTINUOUS
10
194.546
20
-66.0842
11
194.55
21
-66.083
0
LINE
8
BLACK
6
CONTINUOUS
10
194.55
20
-66.083
11
194.564
21
-66.0835
0
LINE
8
BLACK
6
CONTINUOUS
10
194.564
20
-66.0835
11
194.578
21
-66.083
0
LINE
8
BLACK
6
CONTINUOUS
10
194.578
20
-66.083
11
194.582
21
-66.0842
0
LINE
8
BLACK
6
CONTINUOUS
10
194.582
20
-66.0842
11
194.586
21
-66.0843
0
LINE
8
BLACK
6
CONTINUOUS
10
194.586
20
-66.0843
11
194.598
21
-66.0895
0
LINE
8
BLACK
6
CONTINUOUS
10
194.598
20
-66.0895
11
194.611
21
-66.0937
0
LINE
8
BLACK
6
CONTINUOUS
10
194.611
20
-66.0937
11
194.614
21
-66.0962
0
LINE
8
BLACK
6
CONTINUOUS
10
194.614
20
-66.0962
11
194.618
21
-66.0977
0
LINE
8
BLACK
6
CONTINUOUS
10
194.618
20
-66.0977
11
194.628
21
-66.1069
0
LINE
8
BLACK
6
CONTINUOUS
10
194.628
20
-66.1069
11
194.639
21
-66.1153
0
LINE
8
BLACK
6
CONTINUOUS
10
194.639
20
-66.1153
11
194.641
21
-66.1187
0
LINE
8
BLACK
6
CONTINUOUS
10
194.641
20
-66.1187
11
194.644
21
-66.1214
0
LINE
8
BLACK
6
CONTINUOUS
10
194.644
20
-66.1214
11
194.651
21
-66.1336
0
LINE
8
BLACK
6
CONTINUOUS
10
194.651
20
-66.1336
11
194.658
21
-66.1452
0
LINE
8
BLACK
6
CONTINUOUS
10
194.658
20
-66.1452
11
194.659
21
-66.1491
0
LINE
8
BLACK
6
CONTINUOUS
10
194.659
20
-66.1491
11
194.661
21
-66.1527
0
LINE
8
BLACK
6
CONTINUOUS
10
194.661
20
-66.1527
11
194.849
21
-66.7402
0
LINE
8
BLACK
6
CONTINUOUS
10
194.849
20
-66.7402
11
195.119
21
-65.7929
0
LINE
8
BLACK
6
CONTINUOUS
10
195.119
20
-65.7929
11
195.135
21
-65.7611
0
LINE
8
BLACK
6
CONTINUOUS
10
195.135
20
-65.7611
11
195.16
21
-65.7366
0
LINE
8
BLACK
6
CONTINUOUS
10
195.16
20
-65.7366
11
195.192
21
-65.7222
0
LINE
8
BLACK
6
CONTINUOUS
10
195.192
20
-65.7222
11
195.228
21
-65.7197
0
LINE
8
BLACK
6
CONTINUOUS
10
195.228
20
-65.7197
11
195.262
21
-65.7294
0
LINE
8
BLACK
6
CONTINUOUS
10
175.419
20
-65.7216
11
175.432
21
-65.7229
0
LINE
8
BLACK
6
CONTINUOUS
10
175.432
20
-65.7229
11
175.65
21
-65.7834
0
LINE
8
BLACK
6
CONTINUOUS
10
175.65
20
-65.7834
11
175.682
21
-65.7986
0
LINE
8
BLACK
6
CONTINUOUS
10
175.682
20
-65.7986
11
175.707
21
-65.8237
0
LINE
8
BLACK
6
CONTINUOUS
10
175.707
20
-65.8237
11
175.721
21
-65.8559
0
LINE
8
BLACK
6
CONTINUOUS
10
175.721
20
-65.8559
11
175.724
21
-65.891
0
LINE
8
BLACK
6
CONTINUOUS
10
175.724
20
-65.891
11
175.715
21
-65.925
0
LINE
8
BLACK
6
CONTINUOUS
10
175.715
20
-65.925
11
175.694
21
-65.9537
0
LINE
8
BLACK
6
CONTINUOUS
10
175.694
20
-65.9537
11
175.665
21
-65.9737
0
LINE
8
BLACK
6
CONTINUOUS
10
175.665
20
-65.9737
11
175.631
21
-65.9825
0
LINE
8
BLACK
6
CONTINUOUS
10
175.631
20
-65.9825
11
175.596
21
-65.9791
0
LINE
8
BLACK
6
CONTINUOUS
10
175.596
20
-65.9791
11
175.391
21
-65.9224
0
LINE
8
BLACK
6
CONTINUOUS
10
175.391
20
-65.9224
11
175.063
21
-65.9224
0
LINE
8
BLACK
6
CONTINUOUS
10
175.063
20
-65.9224
11
174.95
21
-65.9691
0
LINE
8
BLACK
6
CONTINUOUS
10
174.95
20
-65.9691
11
174.903
21
-66.0088
0
LINE
8
BLACK
6
CONTINUOUS
10
174.903
20
-66.0088
11
174.854
21
-66.0908
0
LINE
8
BLACK
6
CONTINUOUS
10
174.854
20
-66.0908
11
174.854
21
-66.1555
0
LINE
8
BLACK
6
CONTINUOUS
10
174.854
20
-66.1555
11
174.903
21
-66.2376
0
LINE
8
BLACK
6
CONTINUOUS
10
174.903
20
-66.2376
11
174.95
21
-66.2772
0
LINE
8
BLACK
6
CONTINUOUS
10
174.95
20
-66.2772
11
175.072
21
-66.328
0
LINE
8
BLACK
6
CONTINUOUS
10
175.072
20
-66.328
11
175.353
21
-66.3865
0
LINE
8
BLACK
6
CONTINUOUS
10
175.353
20
-66.3865
11
175.362
21
-66.3901
0
LINE
8
BLACK
6
CONTINUOUS
10
175.362
20
-66.3901
11
175.372
21
-66.3922
0
LINE
8
BLACK
6
CONTINUOUS
10
175.372
20
-66.3922
11
175.517
21
-66.4527
0
LINE
8
BLACK
6
CONTINUOUS
10
175.517
20
-66.4527
11
175.53
21
-66.4609
0
LINE
8
BLACK
6
CONTINUOUS
10
175.53
20
-66.4609
11
175.543
21
-66.4684
0
LINE
8
BLACK
6
CONTINUOUS
10
175.543
20
-66.4684
11
175.615
21
-66.5289
0
LINE
8
BLACK
6
CONTINUOUS
10
175.615
20
-66.5289
11
175.626
21
-66.5419
0
LINE
8
BLACK
6
CONTINUOUS
10
175.626
20
-66.5419
11
175.637
21
-66.5547
0
LINE
8
BLACK
6
CONTINUOUS
10
175.637
20
-66.5547
11
175.71
21
-66.6756
0
LINE
8
BLACK
6
CONTINUOUS
10
175.71
20
-66.6756
11
175.713
21
-66.6847
0
LINE
8
BLACK
6
CONTINUOUS
10
175.713
20
-66.6847
11
175.718
21
-66.6932
0
LINE
8
BLACK
6
CONTINUOUS
10
175.718
20
-66.6932
11
175.72
21
-66.7011
0
LINE
8
BLACK
6
CONTINUOUS
10
175.72
20
-66.7011
11
175.723
21
-66.7086
0
LINE
8
BLACK
6
CONTINUOUS
10
175.723
20
-66.7086
11
175.723
21
-66.7183
0
LINE
8
BLACK
6
CONTINUOUS
10
175.723
20
-66.7183
11
175.724
21
-66.7279
0
LINE
8
BLACK
6
CONTINUOUS
10
175.724
20
-66.7279
11
175.724
21
-66.8489
0
LINE
8
BLACK
6
CONTINUOUS
10
175.724
20
-66.8489
11
175.723
21
-66.8585
0
LINE
8
BLACK
6
CONTINUOUS
10
175.723
20
-66.8585
11
175.723
21
-66.8682
0
LINE
8
BLACK
6
CONTINUOUS
10
175.723
20
-66.8682
11
175.72
21
-66.8757
0
LINE
8
BLACK
6
CONTINUOUS
10
175.72
20
-66.8757
11
175.718
21
-66.8836
0
LINE
8
BLACK
6
CONTINUOUS
10
175.718
20
-66.8836
11
175.713
21
-66.892
0
LINE
8
BLACK
6
CONTINUOUS
10
175.713
20
-66.892
11
175.71
21
-66.9011
0
LINE
8
BLACK
6
CONTINUOUS
10
175.71
20
-66.9011
11
175.637
21
-67.0221
0
LINE
8
BLACK
6
CONTINUOUS
10
175.637
20
-67.0221
11
175.626
21
-67.0349
0
LINE
8
BLACK
6
CONTINUOUS
10
175.626
20
-67.0349
11
175.615
21
-67.0479
0
LINE
8
BLACK
6
CONTINUOUS
10
175.615
20
-67.0479
11
175.543
21
-67.1083
0
LINE
8
BLACK
6
CONTINUOUS
10
175.543
20
-67.1083
11
175.53
21
-67.1159
0
LINE
8
BLACK
6
CONTINUOUS
10
175.53
20
-67.1159
11
175.517
21
-67.1241
0
LINE
8
BLACK
6
CONTINUOUS
10
175.517
20
-67.1241
11
175.372
21
-67.1846
0
LINE
8
BLACK
6
CONTINUOUS
10
175.372
20
-67.1846
11
175.369
21
-67.1851
0
LINE
8
BLACK
6
CONTINUOUS
10
175.369
20
-67.1851
11
175.367
21
-67.1862
0
LINE
8
BLACK
6
CONTINUOUS
10
175.367
20
-67.1862
11
175.352
21
-67.1889
0
LINE
8
BLACK
6
CONTINUOUS
10
175.352
20
-67.1889
11
175.337
21
-67.1923
0
LINE
8
BLACK
6
CONTINUOUS
10
175.337
20
-67.1923
11
175.335
21
-67.192
0
LINE
8
BLACK
6
CONTINUOUS
10
175.335
20
-67.192
11
175.333
21
-67.1924
0
LINE
8
BLACK
6
CONTINUOUS
10
175.333
20
-67.1924
11
174.97
21
-67.1924
0
LINE
8
BLACK
6
CONTINUOUS
10
174.97
20
-67.1924
11
174.956
21
-67.19
0
LINE
8
BLACK
6
CONTINUOUS
10
174.956
20
-67.19
11
174.943
21
-67.1887
0
LINE
8
BLACK
6
CONTINUOUS
10
174.943
20
-67.1887
11
174.725
21
-67.1282
0
LINE
8
BLACK
6
CONTINUOUS
10
174.725
20
-67.1282
11
174.693
21
-67.113
0
LINE
8
BLACK
6
CONTINUOUS
10
174.693
20
-67.113
11
174.668
21
-67.0878
0
LINE
8
BLACK
6
CONTINUOUS
10
174.668
20
-67.0878
11
174.654
21
-67.0557
0
LINE
8
BLACK
6
CONTINUOUS
10
174.654
20
-67.0557
11
174.651
21
-67.0205
0
LINE
8
BLACK
6
CONTINUOUS
10
174.651
20
-67.0205
11
174.66
21
-66.9865
0
LINE
8
BLACK
6
CONTINUOUS
10
174.66
20
-66.9865
11
174.681
21
-66.9578
0
LINE
8
BLACK
6
CONTINUOUS
10
174.681
20
-66.9578
11
174.71
21
-66.9378
0
LINE
8
BLACK
6
CONTINUOUS
10
174.71
20
-66.9378
11
174.744
21
-66.929
0
LINE
8
BLACK
6
CONTINUOUS
10
174.744
20
-66.929
11
174.779
21
-66.9324
0
LINE
8
BLACK
6
CONTINUOUS
10
174.779
20
-66.9324
11
174.984
21
-66.9892
0
LINE
8
BLACK
6
CONTINUOUS
10
174.984
20
-66.9892
11
175.312
21
-66.9892
0
LINE
8
BLACK
6
CONTINUOUS
10
175.312
20
-66.9892
11
175.424
21
-66.9424
0
LINE
8
BLACK
6
CONTINUOUS
10
175.424
20
-66.9424
11
175.472
21
-66.9028
0
LINE
8
BLACK
6
CONTINUOUS
10
175.472
20
-66.9028
11
175.521
21
-66.8207
0
LINE
8
BLACK
6
CONTINUOUS
10
175.521
20
-66.8207
11
175.521
21
-66.7561
0
LINE
8
BLACK
6
CONTINUOUS
10
175.521
20
-66.7561
11
175.472
21
-66.674
0
LINE
8
BLACK
6
CONTINUOUS
10
175.472
20
-66.674
11
175.424
21
-66.6344
0
LINE
8
BLACK
6
CONTINUOUS
10
175.424
20
-66.6344
11
175.302
21
-66.5835
0
LINE
8
BLACK
6
CONTINUOUS
10
175.302
20
-66.5835
11
175.022
21
-66.525
0
LINE
8
BLACK
6
CONTINUOUS
10
175.022
20
-66.525
11
175.013
21
-66.5214
0
LINE
8
BLACK
6
CONTINUOUS
10
175.013
20
-66.5214
11
175.003
21
-66.5193
0
LINE
8
BLACK
6
CONTINUOUS
10
175.003
20
-66.5193
11
174.858
21
-66.4588
0
LINE
8
BLACK
6
CONTINUOUS
10
174.858
20
-66.4588
11
174.845
21
-66.4507
0
LINE
8
BLACK
6
CONTINUOUS
10
174.845
20
-66.4507
11
174.832
21
-66.4431
0
LINE
8
BLACK
6
CONTINUOUS
10
174.832
20
-66.4431
11
174.76
21
-66.3826
0
LINE
8
BLACK
6
CONTINUOUS
10
174.76
20
-66.3826
11
174.749
21
-66.3697
0
LINE
8
BLACK
6
CONTINUOUS
10
174.749
20
-66.3697
11
174.737
21
-66.3569
0
LINE
8
BLACK
6
CONTINUOUS
10
174.737
20
-66.3569
11
174.665
21
-66.2359
0
LINE
8
BLACK
6
CONTINUOUS
10
174.665
20
-66.2359
11
174.661
21
-66.2268
0
LINE
8
BLACK
6
CONTINUOUS
10
174.661
20
-66.2268
11
174.657
21
-66.2184
0
LINE
8
BLACK
6
CONTINUOUS
10
174.657
20
-66.2184
11
174.655
21
-66.2105
0
LINE
8
BLACK
6
CONTINUOUS
10
174.655
20
-66.2105
11
174.652
21
-66.203
0
LINE
8
BLACK
6
CONTINUOUS
10
174.652
20
-66.203
11
174.652
21
-66.1932
0
LINE
8
BLACK
6
CONTINUOUS
10
174.652
20
-66.1932
11
174.65
21
-66.1836
0
LINE
8
BLACK
6
CONTINUOUS
10
174.65
20
-66.1836
11
174.65
21
-66.0627
0
LINE
8
BLACK
6
CONTINUOUS
10
174.65
20
-66.0627
11
174.652
21
-66.0531
0
LINE
8
BLACK
6
CONTINUOUS
10
174.652
20
-66.0531
11
174.652
21
-66.0434
0
LINE
8
BLACK
6
CONTINUOUS
10
174.652
20
-66.0434
11
174.655
21
-66.0358
0
LINE
8
BLACK
6
CONTINUOUS
10
174.655
20
-66.0358
11
174.657
21
-66.0279
0
LINE
8
BLACK
6
CONTINUOUS
10
174.657
20
-66.0279
11
174.661
21
-66.0195
0
LINE
8
BLACK
6
CONTINUOUS
10
174.661
20
-66.0195
11
174.665
21
-66.0104
0
LINE
8
BLACK
6
CONTINUOUS
10
174.665
20
-66.0104
11
174.737
21
-65.8895
0
LINE
8
BLACK
6
CONTINUOUS
10
174.737
20
-65.8895
11
174.749
21
-65.8767
0
LINE
8
BLACK
6
CONTINUOUS
10
174.749
20
-65.8767
11
174.76
21
-65.8637
0
LINE
8
BLACK
6
CONTINUOUS
10
174.76
20
-65.8637
11
174.832
21
-65.8032
0
LINE
8
BLACK
6
CONTINUOUS
10
174.832
20
-65.8032
11
174.845
21
-65.7956
0
LINE
8
BLACK
6
CONTINUOUS
10
174.845
20
-65.7956
11
174.858
21
-65.7875
0
LINE
8
BLACK
6
CONTINUOUS
10
174.858
20
-65.7875
11
175.003
21
-65.727
0
LINE
8
BLACK
6
CONTINUOUS
10
175.003
20
-65.727
11
175.006
21
-65.7265
0
LINE
8
BLACK
6
CONTINUOUS
10
175.006
20
-65.7265
11
175.008
21
-65.7253
0
LINE
8
BLACK
6
CONTINUOUS
10
175.008
20
-65.7253
11
175.023
21
-65.7226
0
LINE
8
BLACK
6
CONTINUOUS
10
175.023
20
-65.7226
11
175.038
21
-65.7193
0
LINE
8
BLACK
6
CONTINUOUS
10
175.038
20
-65.7193
11
175.04
21
-65.7196
0
LINE
8
BLACK
6
CONTINUOUS
10
175.04
20
-65.7196
11
175.042
21
-65.7192
0
LINE
8
BLACK
6
CONTINUOUS
10
175.042
20
-65.7192
11
175.405
21
-65.7192
0
LINE
8
BLACK
6
CONTINUOUS
10
175.405
20
-65.7192
11
175.419
21
-65.7216
0
LINE
8
BLACK
6
CONTINUOUS
10
177.482
20
-65.7294
11
177.51
21
-65.7501
0
LINE
8
BLACK
6
CONTINUOUS
10
177.51
20
-65.7501
11
177.53
21
-65.7794
0
LINE
8
BLACK
6
CONTINUOUS
10
177.53
20
-65.7794
11
177.538
21
-65.8136
0
LINE
8
BLACK
6
CONTINUOUS
10
177.538
20
-65.8136
11
177.535
21
-65.8487
0
LINE
8
BLACK
6
CONTINUOUS
10
177.535
20
-65.8487
11
177.172
21
-67.1187
0
LINE
8
BLACK
6
CONTINUOUS
10
177.172
20
-67.1187
11
177.17
21
-67.1238
0
LINE
8
BLACK
6
CONTINUOUS
10
177.17
20
-67.1238
11
177.168
21
-67.1293
0
LINE
8
BLACK
6
CONTINUOUS
10
177.168
20
-67.1293
11
177.162
21
-67.1395
0
LINE
8
BLACK
6
CONTINUOUS
10
177.162
20
-67.1395
11
177.157
21
-67.1504
0
LINE
8
BLACK
6
CONTINUOUS
10
177.157
20
-67.1504
11
177.152
21
-67.1543
0
LINE
8
BLACK
6
CONTINUOUS
10
177.152
20
-67.1543
11
177.149
21
-67.1591
0
LINE
8
BLACK
6
CONTINUOUS
10
177.149
20
-67.1591
11
177.14
21
-67.1665
0
LINE
8
BLACK
6
CONTINUOUS
10
177.14
20
-67.1665
11
177.131
21
-67.1749
0
LINE
8
BLACK
6
CONTINUOUS
10
177.131
20
-67.1749
11
177.126
21
-67.1772
0
LINE
8
BLACK
6
CONTINUOUS
10
177.126
20
-67.1772
11
177.122
21
-67.1807
0
LINE
8
BLACK
6
CONTINUOUS
10
177.122
20
-67.1807
11
177.11
21
-67.1844
0
LINE
8
BLACK
6
CONTINUOUS
10
177.11
20
-67.1844
11
177.099
21
-67.1893
0
LINE
8
BLACK
6
CONTINUOUS
10
177.099
20
-67.1893
11
177.093
21
-67.1897
0
LINE
8
BLACK
6
CONTINUOUS
10
177.093
20
-67.1897
11
177.088
21
-67.1914
0
LINE
8
BLACK
6
CONTINUOUS
10
177.088
20
-67.1914
11
177.076
21
-67.191
0
LINE
8
BLACK
6
CONTINUOUS
10
177.076
20
-67.191
11
177.064
21
-67.1918
0
LINE
8
BLACK
6
CONTINUOUS
10
177.064
20
-67.1918
11
177.058
21
-67.1903
0
LINE
8
BLACK
6
CONTINUOUS
10
177.058
20
-67.1903
11
177.053
21
-67.1901
0
LINE
8
BLACK
6
CONTINUOUS
10
177.053
20
-67.1901
11
177.041
21
-67.1855
0
LINE
8
BLACK
6
CONTINUOUS
10
177.041
20
-67.1855
11
177.03
21
-67.1821
0
LINE
8
BLACK
6
CONTINUOUS
10
177.03
20
-67.1821
11
177.025
21
-67.1788
0
LINE
8
BLACK
6
CONTINUOUS
10
177.025
20
-67.1788
11
177.02
21
-67.1767
0
LINE
8
BLACK
6
CONTINUOUS
10
177.02
20
-67.1767
11
177.011
21
-67.1685
0
LINE
8
BLACK
6
CONTINUOUS
10
177.011
20
-67.1685
11
177.001
21
-67.1614
0
LINE
8
BLACK
6
CONTINUOUS
10
177.001
20
-67.1614
11
176.998
21
-67.1568
0
LINE
8
BLACK
6
CONTINUOUS
10
176.998
20
-67.1568
11
176.994
21
-67.153
0
LINE
8
BLACK
6
CONTINUOUS
10
176.994
20
-67.153
11
176.988
21
-67.1422
0
LINE
8
BLACK
6
CONTINUOUS
10
176.988
20
-67.1422
11
176.982
21
-67.1322
0
LINE
8
BLACK
6
CONTINUOUS
10
176.982
20
-67.1322
11
176.98
21
-67.1267
0
LINE
8
BLACK
6
CONTINUOUS
10
176.98
20
-67.1267
11
176.978
21
-67.1217
0
LINE
8
BLACK
6
CONTINUOUS
10
176.978
20
-67.1217
11
176.784
21
-66.517
0
LINE
8
BLACK
6
CONTINUOUS
10
176.784
20
-66.517
11
176.59
21
-67.1217
0
LINE
8
BLACK
6
CONTINUOUS
10
176.59
20
-67.1217
11
176.588
21
-67.1267
0
LINE
8
BLACK
6
CONTINUOUS
10
176.588
20
-67.1267
11
176.586
21
-67.1322
0
LINE
8
BLACK
6
CONTINUOUS
10
176.586
20
-67.1322
11
176.58
21
-67.1422
0
LINE
8
BLACK
6
CONTINUOUS
10
176.58
20
-67.1422
11
176.574
21
-67.153
0
LINE
8
BLACK
6
CONTINUOUS
10
176.574
20
-67.153
11
176.57
21
-67.1568
0
LINE
8
BLACK
6
CONTINUOUS
10
176.57
20
-67.1568
11
176.567
21
-67.1614
0
LINE
8
BLACK
6
CONTINUOUS
10
176.567
20
-67.1614
11
176.557
21
-67.1685
0
LINE
8
BLACK
6
CONTINUOUS
10
176.557
20
-67.1685
11
176.548
21
-67.1767
0
LINE
8
BLACK
6
CONTINUOUS
10
176.548
20
-67.1767
11
176.543
21
-67.1788
0
LINE
8
BLACK
6
CONTINUOUS
10
176.543
20
-67.1788
11
176.538
21
-67.1821
0
LINE
8
BLACK
6
CONTINUOUS
10
176.538
20
-67.1821
11
176.527
21
-67.1855
0
LINE
8
BLACK
6
CONTINUOUS
10
176.527
20
-67.1855
11
176.515
21
-67.1901
0
LINE
8
BLACK
6
CONTINUOUS
10
176.515
20
-67.1901
11
176.51
21
-67.1903
0
LINE
8
BLACK
6
CONTINUOUS
10
176.51
20
-67.1903
11
176.504
21
-67.1918
0
LINE
8
BLACK
6
CONTINUOUS
10
176.504
20
-67.1918
11
176.492
21
-67.191
0
LINE
8
BLACK
6
CONTINUOUS
10
176.492
20
-67.191
11
176.48
21
-67.1914
0
LINE
8
BLACK
6
CONTINUOUS
10
176.48
20
-67.1914
11
176.475
21
-67.1897
0
LINE
8
BLACK
6
CONTINUOUS
10
176.475
20
-67.1897
11
176.469
21
-67.1893
0
LINE
8
BLACK
6
CONTINUOUS
10
176.469
20
-67.1893
11
176.458
21
-67.1844
0
LINE
8
BLACK
6
CONTINUOUS
10
176.458
20
-67.1844
11
176.446
21
-67.1807
0
LINE
8
BLACK
6
CONTINUOUS
10
176.446
20
-67.1807
11
176.442
21
-67.1772
0
LINE
8
BLACK
6
CONTINUOUS
10
176.442
20
-67.1772
11
176.437
21
-67.1749
0
LINE
8
BLACK
6
CONTINUOUS
10
176.437
20
-67.1749
11
176.428
21
-67.1665
0
LINE
8
BLACK
6
CONTINUOUS
10
176.428
20
-67.1665
11
176.419
21
-67.1591
0
LINE
8
BLACK
6
CONTINUOUS
10
176.419
20
-67.1591
11
176.416
21
-67.1543
0
LINE
8
BLACK
6
CONTINUOUS
10
176.416
20
-67.1543
11
176.411
21
-67.1504
0
LINE
8
BLACK
6
CONTINUOUS
10
176.411
20
-67.1504
11
176.406
21
-67.1395
0
LINE
8
BLACK
6
CONTINUOUS
10
176.406
20
-67.1395
11
176.4
21
-67.1293
0
LINE
8
BLACK
6
CONTINUOUS
10
176.4
20
-67.1293
11
176.398
21
-67.1238
0
LINE
8
BLACK
6
CONTINUOUS
10
176.398
20
-67.1238
11
176.396
21
-67.1187
0
LINE
8
BLACK
6
CONTINUOUS
10
176.396
20
-67.1187
11
176.033
21
-65.8487
0
LINE
8
BLACK
6
CONTINUOUS
10
176.033
20
-65.8487
11
176.03
21
-65.8136
0
LINE
8
BLACK
6
CONTINUOUS
10
176.03
20
-65.8136
11
176.038
21
-65.7794
0
LINE
8
BLACK
6
CONTINUOUS
10
176.038
20
-65.7794
11
176.058
21
-65.7501
0
LINE
8
BLACK
6
CONTINUOUS
10
176.058
20
-65.7501
11
176.086
21
-65.7294
0
LINE
8
BLACK
6
CONTINUOUS
10
176.086
20
-65.7294
11
176.12
21
-65.7197
0
LINE
8
BLACK
6
CONTINUOUS
10
176.12
20
-65.7197
11
176.156
21
-65.7222
0
LINE
8
BLACK
6
CONTINUOUS
10
176.156
20
-65.7222
11
176.188
21
-65.7366
0
LINE
8
BLACK
6
CONTINUOUS
10
176.188
20
-65.7366
11
176.213
21
-65.7611
0
LINE
8
BLACK
6
CONTINUOUS
10
176.213
20
-65.7611
11
176.229
21
-65.7929
0
LINE
8
BLACK
6
CONTINUOUS
10
176.229
20
-65.7929
11
176.499
21
-66.7402
0
LINE
8
BLACK
6
CONTINUOUS
10
176.499
20
-66.7402
11
176.687
21
-66.1527
0
LINE
8
BLACK
6
CONTINUOUS
10
176.687
20
-66.1527
11
176.689
21
-66.1491
0
LINE
8
BLACK
6
CONTINUOUS
10
176.689
20
-66.1491
11
176.69
21
-66.1452
0
LINE
8
BLACK
6
CONTINUOUS
10
176.69
20
-66.1452
11
176.697
21
-66.1336
0
LINE
8
BLACK
6
CONTINUOUS
10
176.697
20
-66.1336
11
176.704
21
-66.1214
0
LINE
8
BLACK
6
CONTINUOUS
10
176.704
20
-66.1214
11
176.707
21
-66.1187
0
LINE
8
BLACK
6
CONTINUOUS
10
176.707
20
-66.1187
11
176.709
21
-66.1153
0
LINE
8
BLACK
6
CONTINUOUS
10
176.709
20
-66.1153
11
176.72
21
-66.1069
0
LINE
8
BLACK
6
CONTINUOUS
10
176.72
20
-66.1069
11
176.73
21
-66.0977
0
LINE
8
BLACK
6
CONTINUOUS
10
176.73
20
-66.0977
11
176.734
21
-66.0962
0
LINE
8
BLACK
6
CONTINUOUS
10
176.734
20
-66.0962
11
176.737
21
-66.0937
0
LINE
8
BLACK
6
CONTINUOUS
10
176.737
20
-66.0937
11
176.75
21
-66.0895
0
LINE
8
BLACK
6
CONTINUOUS
10
176.75
20
-66.0895
11
176.762
21
-66.0843
0
LINE
8
BLACK
6
CONTINUOUS
10
176.762
20
-66.0843
11
176.766
21
-66.0842
0
LINE
8
BLACK
6
CONTINUOUS
10
176.766
20
-66.0842
11
176.77
21
-66.083
0
LINE
8
BLACK
6
CONTINUOUS
10
176.77
20
-66.083
11
176.784
21
-66.0835
0
LINE
8
BLACK
6
CONTINUOUS
10
176.784
20
-66.0835
11
176.798
21
-66.083
0
LINE
8
BLACK
6
CONTINUOUS
10
176.798
20
-66.083
11
176.802
21
-66.0842
0
LINE
8
BLACK
6
CONTINUOUS
10
176.802
20
-66.0842
11
176.806
21
-66.0843
0
LINE
8
BLACK
6
CONTINUOUS
10
176.806
20
-66.0843
11
176.818
21
-66.0895
0
LINE
8
BLACK
6
CONTINUOUS
10
176.818
20
-66.0895
11
176.831
21
-66.0937
0
LINE
8
BLACK
6
CONTINUOUS
10
176.831
20
-66.0937
11
176.834
21
-66.0962
0
LINE
8
BLACK
6
CONTINUOUS
10
176.834
20
-66.0962
11
176.838
21
-66.0977
0
LINE
8
BLACK
6
CONTINUOUS
10
176.838
20
-66.0977
11
176.848
21
-66.1069
0
LINE
8
BLACK
6
CONTINUOUS
10
176.848
20
-66.1069
11
176.859
21
-66.1153
0
LINE
8
BLACK
6
CONTINUOUS
10
176.859
20
-66.1153
11
176.861
21
-66.1187
0
LINE
8
BLACK
6
CONTINUOUS
10
176.861
20
-66.1187
11
176.864
21
-66.1214
0
LINE
8
BLACK
6
CONTINUOUS
10
176.864
20
-66.1214
11
176.871
21
-66.1336
0
LINE
8
BLACK
6
CONTINUOUS
10
176.871
20
-66.1336
11
176.878
21
-66.1452
0
LINE
8
BLACK
6
CONTINUOUS
10
176.878
20
-66.1452
11
176.879
21
-66.1491
0
LINE
8
BLACK
6
CONTINUOUS
10
176.879
20
-66.1491
11
176.881
21
-66.1527
0
LINE
8
BLACK
6
CONTINUOUS
10
176.881
20
-66.1527
11
177.069
21
-66.7402
0
LINE
8
BLACK
6
CONTINUOUS
10
177.069
20
-66.7402
11
177.339
21
-65.7929
0
LINE
8
BLACK
6
CONTINUOUS
10
177.339
20
-65.7929
11
177.355
21
-65.7611
0
LINE
8
BLACK
6
CONTINUOUS
10
177.355
20
-65.7611
11
177.38
21
-65.7366
0
LINE
8
BLACK
6
CONTINUOUS
10
177.38
20
-65.7366
11
177.412
21
-65.7222
0
LINE
8
BLACK
6
CONTINUOUS
10
177.412
20
-65.7222
11
177.448
21
-65.7197
0
LINE
8
BLACK
6
CONTINUOUS
10
177.448
20
-65.7197
11
177.482
21
-65.7294
0
LINE
8
BLACK
6
CONTINUOUS
10
178.329
20
-65.6608
11
178.362
21
-65.6739
0
LINE
8
BLACK
6
CONTINUOUS
10
178.362
20
-65.6739
11
178.388
21
-65.6975
0
LINE
8
BLACK
6
CONTINUOUS
10
178.388
20
-65.6975
11
178.405
21
-65.7286
0
LINE
8
BLACK
6
CONTINUOUS
10
178.405
20
-65.7286
11
178.41
21
-65.7635
0
LINE
8
BLACK
6
CONTINUOUS
10
178.41
20
-65.7635
11
178.402
21
-65.798
0
LINE
8
BLACK
6
CONTINUOUS
10
178.402
20
-65.798
11
178.095
21
-66.5658
0
LINE
8
BLACK
6
CONTINUOUS
10
178.095
20
-66.5658
11
178.569
21
-66.5658
0
LINE
8
BLACK
6
CONTINUOUS
10
178.569
20
-66.5658
11
178.569
21
-66.2441
0
LINE
8
BLACK
6
CONTINUOUS
10
178.569
20
-66.2441
11
178.575
21
-66.2094
0
LINE
8
BLACK
6
CONTINUOUS
10
178.575
20
-66.2094
11
178.593
21
-66.1788
0
LINE
8
BLACK
6
CONTINUOUS
10
178.593
20
-66.1788
11
178.62
21
-66.1561
0
LINE
8
BLACK
6
CONTINUOUS
10
178.62
20
-66.1561
11
178.653
21
-66.1441
0
LINE
8
BLACK
6
CONTINUOUS
10
178.653
20
-66.1441
11
178.689
21
-66.1441
0
LINE
8
BLACK
6
CONTINUOUS
10
178.689
20
-66.1441
11
178.722
21
-66.1561
0
LINE
8
BLACK
6
CONTINUOUS
10
178.722
20
-66.1561
11
178.749
21
-66.1788
0
LINE
8
BLACK
6
CONTINUOUS
10
178.749
20
-66.1788
11
178.766
21
-66.2094
0
LINE
8
BLACK
6
CONTINUOUS
10
178.766
20
-66.2094
11
178.772
21
-66.2441
0
LINE
8
BLACK
6
CONTINUOUS
10
178.772
20
-66.2441
11
178.772
21
-66.5658
0
LINE
8
BLACK
6
CONTINUOUS
10
178.772
20
-66.5658
11
178.889
21
-66.5658
0
LINE
8
BLACK
6
CONTINUOUS
10
178.889
20
-66.5658
11
178.923
21
-66.572
0
LINE
8
BLACK
6
CONTINUOUS
10
178.923
20
-66.572
11
178.954
21
-66.5896
0
LINE
8
BLACK
6
CONTINUOUS
10
178.954
20
-66.5896
11
178.977
21
-66.6166
0
LINE
8
BLACK
6
CONTINUOUS
10
178.977
20
-66.6166
11
178.989
21
-66.6498
0
LINE
8
BLACK
6
CONTINUOUS
10
178.989
20
-66.6498
11
178.989
21
-66.6851
0
LINE
8
BLACK
6
CONTINUOUS
10
178.989
20
-66.6851
11
178.977
21
-66.7182
0
LINE
8
BLACK
6
CONTINUOUS
10
178.977
20
-66.7182
11
178.954
21
-66.7453
0
LINE
8
BLACK
6
CONTINUOUS
10
178.954
20
-66.7453
11
178.923
21
-66.7629
0
LINE
8
BLACK
6
CONTINUOUS
10
178.923
20
-66.7629
11
178.889
21
-66.769
0
LINE
8
BLACK
6
CONTINUOUS
10
178.889
20
-66.769
11
178.772
21
-66.769
0
LINE
8
BLACK
6
CONTINUOUS
10
178.772
20
-66.769
11
178.772
21
-67.0908
0
LINE
8
BLACK
6
CONTINUOUS
10
178.772
20
-67.0908
11
178.766
21
-67.1255
0
LINE
8
BLACK
6
CONTINUOUS
10
178.766
20
-67.1255
11
178.749
21
-67.1561
0
LINE
8
BLACK
6
CONTINUOUS
10
178.749
20
-67.1561
11
178.722
21
-67.1788
0
LINE
8
BLACK
6
CONTINUOUS
10
178.722
20
-67.1788
11
178.689
21
-67.1908
0
LINE
8
BLACK
6
CONTINUOUS
10
178.689
20
-67.1908
11
178.653
21
-67.1908
0
LINE
8
BLACK
6
CONTINUOUS
10
178.653
20
-67.1908
11
178.62
21
-67.1788
0
LINE
8
BLACK
6
CONTINUOUS
10
178.62
20
-67.1788
11
178.593
21
-67.1561
0
LINE
8
BLACK
6
CONTINUOUS
10
178.593
20
-67.1561
11
178.575
21
-67.1255
0
LINE
8
BLACK
6
CONTINUOUS
10
178.575
20
-67.1255
11
178.569
21
-67.0908
0
LINE
8
BLACK
6
CONTINUOUS
10
178.569
20
-67.0908
11
178.569
21
-66.769
0
LINE
8
BLACK
6
CONTINUOUS
10
178.569
20
-66.769
11
177.945
21
-66.769
0
LINE
8
BLACK
6
CONTINUOUS
10
177.945
20
-66.769
11
177.935
21
-66.7672
0
LINE
8
BLACK
6
CONTINUOUS
10
177.935
20
-66.7672
11
177.924
21
-66.7669
0
LINE
8
BLACK
6
CONTINUOUS
10
177.924
20
-66.7669
11
177.918
21
-66.7642
0
LINE
8
BLACK
6
CONTINUOUS
10
177.918
20
-66.7642
11
177.91
21
-66.7629
0
LINE
8
BLACK
6
CONTINUOUS
10
177.91
20
-66.7629
11
177.901
21
-66.7577
0
LINE
8
BLACK
6
CONTINUOUS
10
177.901
20
-66.7577
11
177.892
21
-66.7538
0
LINE
8
BLACK
6
CONTINUOUS
10
177.892
20
-66.7538
11
177.886
21
-66.7489
0
LINE
8
BLACK
6
CONTINUOUS
10
177.886
20
-66.7489
11
177.88
21
-66.7453
0
LINE
8
BLACK
6
CONTINUOUS
10
177.88
20
-66.7453
11
177.873
21
-66.7372
0
LINE
8
BLACK
6
CONTINUOUS
10
177.873
20
-66.7372
11
177.865
21
-66.7303
0
LINE
8
BLACK
6
CONTINUOUS
10
177.865
20
-66.7303
11
177.862
21
-66.7238
0
LINE
8
BLACK
6
CONTINUOUS
10
177.862
20
-66.7238
11
177.857
21
-66.7182
0
LINE
8
BLACK
6
CONTINUOUS
10
177.857
20
-66.7182
11
177.854
21
-66.7084
0
LINE
8
BLACK
6
CONTINUOUS
10
177.854
20
-66.7084
11
177.849
21
-66.6992
0
LINE
8
BLACK
6
CONTINUOUS
10
177.849
20
-66.6992
11
177.848
21
-66.6919
0
LINE
8
BLACK
6
CONTINUOUS
10
177.848
20
-66.6919
11
177.845
21
-66.6851
0
LINE
8
BLACK
6
CONTINUOUS
10
177.845
20
-66.6851
11
177.845
21
-66.6746
0
LINE
8
BLACK
6
CONTINUOUS
10
177.845
20
-66.6746
11
177.844
21
-66.6642
0
LINE
8
BLACK
6
CONTINUOUS
10
177.844
20
-66.6642
11
177.845
21
-66.6571
0
LINE
8
BLACK
6
CONTINUOUS
10
177.845
20
-66.6571
11
177.845
21
-66.6498
0
LINE
8
BLACK
6
CONTINUOUS
10
177.845
20
-66.6498
11
177.849
21
-66.64
0
LINE
8
BLACK
6
CONTINUOUS
10
177.849
20
-66.64
11
177.851
21
-66.6297
0
LINE
8
BLACK
6
CONTINUOUS
10
177.851
20
-66.6297
11
178.214
21
-65.7226
0
LINE
8
BLACK
6
CONTINUOUS
10
178.214
20
-65.7226
11
178.232
21
-65.6926
0
LINE
8
BLACK
6
CONTINUOUS
10
178.232
20
-65.6926
11
178.26
21
-65.6708
0
LINE
8
BLACK
6
CONTINUOUS
10
178.26
20
-65.6708
11
178.294
21
-65.6597
0
LINE
8
BLACK
6
CONTINUOUS
10
178.294
20
-65.6597
11
178.329
21
-65.6608
0
LINE
8
BLACK
6
CONTINUOUS
10
221.859
20
-65.0838
11
221.865
21
-65.0838
0
LINE
8
BLACK
6
CONTINUOUS
10
221.865
20
-65.0838
11
221.872
21
-65.0861
0
LINE
8
BLACK
6
CONTINUOUS
10
221.872
20
-65.0861
11
221.878
21
-65.0873
0
LINE
8
BLACK
6
CONTINUOUS
10
221.878
20
-65.0873
11
221.884
21
-65.0907
0
LINE
8
BLACK
6
CONTINUOUS
10
221.884
20
-65.0907
11
221.891
21
-65.093
0
LINE
8
BLACK
6
CONTINUOUS
10
221.891
20
-65.093
11
221.896
21
-65.0973
0
LINE
8
BLACK
6
CONTINUOUS
10
221.896
20
-65.0973
11
221.902
21
-65.1007
0
LINE
8
BLACK
6
CONTINUOUS
10
221.902
20
-65.1007
11
221.906
21
-65.1059
0
LINE
8
BLACK
6
CONTINUOUS
10
221.906
20
-65.1059
11
221.911
21
-65.1103
0
LINE
8
BLACK
6
CONTINUOUS
10
221.911
20
-65.1103
11
221.915
21
-65.1161
0
LINE
8
BLACK
6
CONTINUOUS
10
221.915
20
-65.1161
11
221.919
21
-65.1213
0
LINE
8
BLACK
6
CONTINUOUS
10
221.919
20
-65.1213
11
221.921
21
-65.1277
0
LINE
8
BLACK
6
CONTINUOUS
10
221.921
20
-65.1277
11
221.925
21
-65.1335
0
LINE
8
BLACK
6
CONTINUOUS
10
221.925
20
-65.1335
11
221.926
21
-65.1402
0
LINE
8
BLACK
6
CONTINUOUS
10
221.926
20
-65.1402
11
221.928
21
-65.1466
0
LINE
8
BLACK
6
CONTINUOUS
10
221.928
20
-65.1466
11
221.928
21
-65.1533
0
LINE
8
BLACK
6
CONTINUOUS
10
221.928
20
-65.1533
11
221.928
21
-65.1533
0
LINE
8
BLACK
6
CONTINUOUS
10
221.928
20
-65.1533
11
221.928
21
-82.1667
0
LINE
8
BLACK
6
CONTINUOUS
10
221.928
20
-82.1667
11
221.928
21
-82.1667
0
LINE
8
BLACK
6
CONTINUOUS
10
221.928
20
-82.1667
11
221.928
21
-82.1734
0
LINE
8
BLACK
6
CONTINUOUS
10
221.928
20
-82.1734
11
221.926
21
-82.1798
0
LINE
8
BLACK
6
CONTINUOUS
10
221.926
20
-82.1798
11
221.925
21
-82.1865
0
LINE
8
BLACK
6
CONTINUOUS
10
221.925
20
-82.1865
11
221.921
21
-82.1923
0
LINE
8
BLACK
6
CONTINUOUS
10
221.921
20
-82.1923
11
221.919
21
-82.1987
0
LINE
8
BLACK
6
CONTINUOUS
10
221.919
20
-82.1987
11
221.915
21
-82.2039
0
LINE
8
BLACK
6
CONTINUOUS
10
221.915
20
-82.2039
11
221.911
21
-82.2097
0
LINE
8
BLACK
6
CONTINUOUS
10
221.911
20
-82.2097
11
221.906
21
-82.2141
0
LINE
8
BLACK
6
CONTINUOUS
10
221.906
20
-82.2141
11
221.902
21
-82.2193
0
LINE
8
BLACK
6
CONTINUOUS
10
221.902
20
-82.2193
11
221.896
21
-82.2227
0
LINE
8
BLACK
6
CONTINUOUS
10
221.896
20
-82.2227
11
221.891
21
-82.227
0
LINE
8
BLACK
6
CONTINUOUS
10
221.891
20
-82.227
11
221.884
21
-82.2293
0
LINE
8
BLACK
6
CONTINUOUS
10
221.884
20
-82.2293
11
221.878
21
-82.2327
0
LINE
8
BLACK
6
CONTINUOUS
10
221.878
20
-82.2327
11
221.872
21
-82.2339
0
LINE
8
BLACK
6
CONTINUOUS
10
221.872
20
-82.2339
11
221.865
21
-82.2362
0
LINE
8
BLACK
6
CONTINUOUS
10
221.865
20
-82.2362
11
221.859
21
-82.2362
0
LINE
8
BLACK
6
CONTINUOUS
10
221.859
20
-82.2362
11
221.859
21
-82.2362
0
LINE
8
BLACK
6
CONTINUOUS
10
221.859
20
-82.2362
11
203.845
21
-82.2362
0
LINE
8
BLACK
6
CONTINUOUS
10
203.845
20
-82.2362
11
203.845
21
-82.2362
0
LINE
8
BLACK
6
CONTINUOUS
10
203.845
20
-82.2362
11
203.839
21
-82.2362
0
LINE
8
BLACK
6
CONTINUOUS
10
203.839
20
-82.2362
11
203.832
21
-82.2339
0
LINE
8
BLACK
6
CONTINUOUS
10
203.832
20
-82.2339
11
203.826
21
-82.2327
0
LINE
8
BLACK
6
CONTINUOUS
10
203.826
20
-82.2327
11
203.82
21
-82.2293
0
LINE
8
BLACK
6
CONTINUOUS
10
203.82
20
-82.2293
11
203.813
21
-82.227
0
LINE
8
BLACK
6
CONTINUOUS
10
203.813
20
-82.227
11
203.808
21
-82.2227
0
LINE
8
BLACK
6
CONTINUOUS
10
203.808
20
-82.2227
11
203.802
21
-82.2193
0
LINE
8
BLACK
6
CONTINUOUS
10
203.802
20
-82.2193
11
203.798
21
-82.2141
0
LINE
8
BLACK
6
CONTINUOUS
10
203.798
20
-82.2141
11
203.793
21
-82.2097
0
LINE
8
BLACK
6
CONTINUOUS
10
203.793
20
-82.2097
11
203.789
21
-82.2039
0
LINE
8
BLACK
6
CONTINUOUS
10
203.789
20
-82.2039
11
203.785
21
-82.1987
0
LINE
8
BLACK
6
CONTINUOUS
10
203.785
20
-82.1987
11
203.783
21
-82.1923
0
LINE
8
BLACK
6
CONTINUOUS
10
203.783
20
-82.1923
11
203.779
21
-82.1865
0
LINE
8
BLACK
6
CONTINUOUS
10
203.779
20
-82.1865
11
203.778
21
-82.1798
0
LINE
8
BLACK
6
CONTINUOUS
10
203.778
20
-82.1798
11
203.776
21
-82.1734
0
LINE
8
BLACK
6
CONTINUOUS
10
203.776
20
-82.1734
11
203.776
21
-82.1667
0
LINE
8
BLACK
6
CONTINUOUS
10
203.776
20
-82.1667
11
203.776
21
-82.1667
0
LINE
8
BLACK
6
CONTINUOUS
10
203.776
20
-82.1667
11
203.776
21
-65.1533
0
LINE
8
BLACK
6
CONTINUOUS
10
203.776
20
-65.1533
11
203.776
21
-65.1466
0
LINE
8
BLACK
6
CONTINUOUS
10
203.776
20
-65.1466
11
203.778
21
-65.1402
0
LINE
8
BLACK
6
CONTINUOUS
10
203.778
20
-65.1402
11
203.779
21
-65.1335
0
LINE
8
BLACK
6
CONTINUOUS
10
203.779
20
-65.1335
11
203.783
21
-65.1277
0
LINE
8
BLACK
6
CONTINUOUS
10
203.783
20
-65.1277
11
203.785
21
-65.1213
0
LINE
8
BLACK
6
CONTINUOUS
10
203.785
20
-65.1213
11
203.789
21
-65.1161
0
LINE
8
BLACK
6
CONTINUOUS
10
203.789
20
-65.1161
11
203.793
21
-65.1103
0
LINE
8
BLACK
6
CONTINUOUS
10
203.793
20
-65.1103
11
203.798
21
-65.1059
0
LINE
8
BLACK
6
CONTINUOUS
10
203.798
20
-65.1059
11
203.802
21
-65.1007
0
LINE
8
BLACK
6
CONTINUOUS
10
203.802
20
-65.1007
11
203.808
21
-65.0973
0
LINE
8
BLACK
6
CONTINUOUS
10
203.808
20
-65.0973
11
203.813
21
-65.093
0
LINE
8
BLACK
6
CONTINUOUS
10
203.813
20
-65.093
11
203.82
21
-65.0907
0
LINE
8
BLACK
6
CONTINUOUS
10
203.82
20
-65.0907
11
203.826
21
-65.0873
0
LINE
8
BLACK
6
CONTINUOUS
10
203.826
20
-65.0873
11
203.832
21
-65.0861
0
LINE
8
BLACK
6
CONTINUOUS
10
203.832
20
-65.0861
11
203.839
21
-65.0838
0
LINE
8
BLACK
6
CONTINUOUS
10
203.839
20
-65.0838
11
203.845
21
-65.0838
0
LINE
8
BLACK
6
CONTINUOUS
10
203.845
20
-65.0838
11
203.845
21
-65.0838
0
LINE
8
BLACK
6
CONTINUOUS
10
203.845
20
-65.0838
11
221.859
21
-65.0838
0
LINE
8
BLACK
6
CONTINUOUS
10
221.859
20
-65.0838
11
221.859
21
-65.0838
0
LINE
8
BLACK
6
CONTINUOUS
10
203.928
20
-65.2362
11
203.928
21
-82.0838
0
LINE
8
BLACK
6
CONTINUOUS
10
203.928
20
-82.0838
11
221.776
21
-82.0838
0
LINE
8
BLACK
6
CONTINUOUS
10
221.776
20
-82.0838
11
221.776
21
-65.2362
0
LINE
8
BLACK
6
CONTINUOUS
10
221.776
20
-65.2362
11
203.928
21
-65.2362
0
LINE
8
BLACK
6
CONTINUOUS
10
211.487
20
-65.7216
11
211.5
21
-65.7229
0
LINE
8
BLACK
6
CONTINUOUS
10
211.5
20
-65.7229
11
211.718
21
-65.7834
0
LINE
8
BLACK
6
CONTINUOUS
10
211.718
20
-65.7834
11
211.75
21
-65.7986
0
LINE
8
BLACK
6
CONTINUOUS
10
211.75
20
-65.7986
11
211.775
21
-65.8237
0
LINE
8
BLACK
6
CONTINUOUS
10
211.775
20
-65.8237
11
211.789
21
-65.8559
0
LINE
8
BLACK
6
CONTINUOUS
10
211.789
20
-65.8559
11
211.792
21
-65.891
0
LINE
8
BLACK
6
CONTINUOUS
10
211.792
20
-65.891
11
211.783
21
-65.925
0
LINE
8
BLACK
6
CONTINUOUS
10
211.783
20
-65.925
11
211.762
21
-65.9537
0
LINE
8
BLACK
6
CONTINUOUS
10
211.762
20
-65.9537
11
211.733
21
-65.9737
0
LINE
8
BLACK
6
CONTINUOUS
10
211.733
20
-65.9737
11
211.699
21
-65.9825
0
LINE
8
BLACK
6
CONTINUOUS
10
211.699
20
-65.9825
11
211.664
21
-65.9791
0
LINE
8
BLACK
6
CONTINUOUS
10
211.664
20
-65.9791
11
211.459
21
-65.9224
0
LINE
8
BLACK
6
CONTINUOUS
10
211.459
20
-65.9224
11
211.131
21
-65.9224
0
LINE
8
BLACK
6
CONTINUOUS
10
211.131
20
-65.9224
11
211.018
21
-65.9691
0
LINE
8
BLACK
6
CONTINUOUS
10
211.018
20
-65.9691
11
210.971
21
-66.0088
0
LINE
8
BLACK
6
CONTINUOUS
10
210.971
20
-66.0088
11
210.922
21
-66.0908
0
LINE
8
BLACK
6
CONTINUOUS
10
210.922
20
-66.0908
11
210.922
21
-66.1555
0
LINE
8
BLACK
6
CONTINUOUS
10
210.922
20
-66.1555
11
210.971
21
-66.2376
0
LINE
8
BLACK
6
CONTINUOUS
10
210.971
20
-66.2376
11
211.018
21
-66.2772
0
LINE
8
BLACK
6
CONTINUOUS
10
211.018
20
-66.2772
11
211.14
21
-66.328
0
LINE
8
BLACK
6
CONTINUOUS
10
211.14
20
-66.328
11
211.421
21
-66.3865
0
LINE
8
BLACK
6
CONTINUOUS
10
211.421
20
-66.3865
11
211.43
21
-66.3901
0
LINE
8
BLACK
6
CONTINUOUS
10
211.43
20
-66.3901
11
211.44
21
-66.3922
0
LINE
8
BLACK
6
CONTINUOUS
10
211.44
20
-66.3922
11
211.585
21
-66.4527
0
LINE
8
BLACK
6
CONTINUOUS
10
211.585
20
-66.4527
11
211.598
21
-66.4609
0
LINE
8
BLACK
6
CONTINUOUS
10
211.598
20
-66.4609
11
211.611
21
-66.4684
0
LINE
8
BLACK
6
CONTINUOUS
10
211.611
20
-66.4684
11
211.683
21
-66.5289
0
LINE
8
BLACK
6
CONTINUOUS
10
211.683
20
-66.5289
11
211.694
21
-66.5419
0
LINE
8
BLACK
6
CONTINUOUS
10
211.694
20
-66.5419
11
211.705
21
-66.5547
0
LINE
8
BLACK
6
CONTINUOUS
10
211.705
20
-66.5547
11
211.778
21
-66.6756
0
LINE
8
BLACK
6
CONTINUOUS
10
211.778
20
-66.6756
11
211.781
21
-66.6847
0
LINE
8
BLACK
6
CONTINUOUS
10
211.781
20
-66.6847
11
211.786
21
-66.6932
0
LINE
8
BLACK
6
CONTINUOUS
10
211.786
20
-66.6932
11
211.788
21
-66.7011
0
LINE
8
BLACK
6
CONTINUOUS
10
211.788
20
-66.7011
11
211.791
21
-66.7086
0
LINE
8
BLACK
6
CONTINUOUS
10
211.791
20
-66.7086
11
211.791
21
-66.7183
0
LINE
8
BLACK
6
CONTINUOUS
10
211.791
20
-66.7183
11
211.792
21
-66.7279
0
LINE
8
BLACK
6
CONTINUOUS
10
211.792
20
-66.7279
11
211.792
21
-66.8489
0
LINE
8
BLACK
6
CONTINUOUS
10
211.792
20
-66.8489
11
211.791
21
-66.8585
0
LINE
8
BLACK
6
CONTINUOUS
10
211.791
20
-66.8585
11
211.791
21
-66.8682
0
LINE
8
BLACK
6
CONTINUOUS
10
211.791
20
-66.8682
11
211.788
21
-66.8757
0
LINE
8
BLACK
6
CONTINUOUS
10
211.788
20
-66.8757
11
211.786
21
-66.8836
0
LINE
8
BLACK
6
CONTINUOUS
10
211.786
20
-66.8836
11
211.781
21
-66.892
0
LINE
8
BLACK
6
CONTINUOUS
10
211.781
20
-66.892
11
211.778
21
-66.9011
0
LINE
8
BLACK
6
CONTINUOUS
10
211.778
20
-66.9011
11
211.705
21
-67.0221
0
LINE
8
BLACK
6
CONTINUOUS
10
211.705
20
-67.0221
11
211.694
21
-67.0349
0
LINE
8
BLACK
6
CONTINUOUS
10
211.694
20
-67.0349
11
211.683
21
-67.0479
0
LINE
8
BLACK
6
CONTINUOUS
10
211.683
20
-67.0479
11
211.611
21
-67.1083
0
LINE
8
BLACK
6
CONTINUOUS
10
211.611
20
-67.1083
11
211.598
21
-67.1159
0
LINE
8
BLACK
6
CONTINUOUS
10
211.598
20
-67.1159
11
211.585
21
-67.1241
0
LINE
8
BLACK
6
CONTINUOUS
10
211.585
20
-67.1241
11
211.44
21
-67.1846
0
LINE
8
BLACK
6
CONTINUOUS
10
211.44
20
-67.1846
11
211.437
21
-67.1851
0
LINE
8
BLACK
6
CONTINUOUS
10
211.437
20
-67.1851
11
211.435
21
-67.1862
0
LINE
8
BLACK
6
CONTINUOUS
10
211.435
20
-67.1862
11
211.42
21
-67.1889
0
LINE
8
BLACK
6
CONTINUOUS
10
211.42
20
-67.1889
11
211.405
21
-67.1923
0
LINE
8
BLACK
6
CONTINUOUS
10
211.405
20
-67.1923
11
211.403
21
-67.192
0
LINE
8
BLACK
6
CONTINUOUS
10
211.403
20
-67.192
11
211.401
21
-67.1924
0
LINE
8
BLACK
6
CONTINUOUS
10
211.401
20
-67.1924
11
211.038
21
-67.1924
0
LINE
8
BLACK
6
CONTINUOUS
10
211.038
20
-67.1924
11
211.024
21
-67.19
0
LINE
8
BLACK
6
CONTINUOUS
10
211.024
20
-67.19
11
211.011
21
-67.1887
0
LINE
8
BLACK
6
CONTINUOUS
10
211.011
20
-67.1887
11
210.793
21
-67.1282
0
LINE
8
BLACK
6
CONTINUOUS
10
210.793
20
-67.1282
11
210.761
21
-67.113
0
LINE
8
BLACK
6
CONTINUOUS
10
210.761
20
-67.113
11
210.736
21
-67.0878
0
LINE
8
BLACK
6
CONTINUOUS
10
210.736
20
-67.0878
11
210.722
21
-67.0557
0
LINE
8
BLACK
6
CONTINUOUS
10
210.722
20
-67.0557
11
210.719
21
-67.0205
0
LINE
8
BLACK
6
CONTINUOUS
10
210.719
20
-67.0205
11
210.728
21
-66.9865
0
LINE
8
BLACK
6
CONTINUOUS
10
210.728
20
-66.9865
11
210.749
21
-66.9578
0
LINE
8
BLACK
6
CONTINUOUS
10
210.749
20
-66.9578
11
210.778
21
-66.9378
0
LINE
8
BLACK
6
CONTINUOUS
10
210.778
20
-66.9378
11
210.812
21
-66.929
0
LINE
8
BLACK
6
CONTINUOUS
10
210.812
20
-66.929
11
210.847
21
-66.9324
0
LINE
8
BLACK
6
CONTINUOUS
10
210.847
20
-66.9324
11
211.052
21
-66.9892
0
LINE
8
BLACK
6
CONTINUOUS
10
211.052
20
-66.9892
11
211.38
21
-66.9892
0
LINE
8
BLACK
6
CONTINUOUS
10
211.38
20
-66.9892
11
211.492
21
-66.9424
0
LINE
8
BLACK
6
CONTINUOUS
10
211.492
20
-66.9424
11
211.54
21
-66.9028
0
LINE
8
BLACK
6
CONTINUOUS
10
211.54
20
-66.9028
11
211.589
21
-66.8207
0
LINE
8
BLACK
6
CONTINUOUS
10
211.589
20
-66.8207
11
211.589
21
-66.7561
0
LINE
8
BLACK
6
CONTINUOUS
10
211.589
20
-66.7561
11
211.54
21
-66.674
0
LINE
8
BLACK
6
CONTINUOUS
10
211.54
20
-66.674
11
211.492
21
-66.6344
0
LINE
8
BLACK
6
CONTINUOUS
10
211.492
20
-66.6344
11
211.37
21
-66.5835
0
LINE
8
BLACK
6
CONTINUOUS
10
211.37
20
-66.5835
11
211.09
21
-66.525
0
LINE
8
BLACK
6
CONTINUOUS
10
211.09
20
-66.525
11
211.081
21
-66.5214
0
LINE
8
BLACK
6
CONTINUOUS
10
211.081
20
-66.5214
11
211.071
21
-66.5193
0
LINE
8
BLACK
6
CONTINUOUS
10
211.071
20
-66.5193
11
210.926
21
-66.4588
0
LINE
8
BLACK
6
CONTINUOUS
10
210.926
20
-66.4588
11
210.913
21
-66.4507
0
LINE
8
BLACK
6
CONTINUOUS
10
210.913
20
-66.4507
11
210.9
21
-66.4431
0
LINE
8
BLACK
6
CONTINUOUS
10
210.9
20
-66.4431
11
210.828
21
-66.3826
0
LINE
8
BLACK
6
CONTINUOUS
10
210.828
20
-66.3826
11
210.817
21
-66.3697
0
LINE
8
BLACK
6
CONTINUOUS
10
210.817
20
-66.3697
11
210.805
21
-66.3569
0
LINE
8
BLACK
6
CONTINUOUS
10
210.805
20
-66.3569
11
210.733
21
-66.2359
0
LINE
8
BLACK
6
CONTINUOUS
10
210.733
20
-66.2359
11
210.729
21
-66.2268
0
LINE
8
BLACK
6
CONTINUOUS
10
210.729
20
-66.2268
11
210.725
21
-66.2184
0
LINE
8
BLACK
6
CONTINUOUS
10
210.725
20
-66.2184
11
210.723
21
-66.2105
0
LINE
8
BLACK
6
CONTINUOUS
10
210.723
20
-66.2105
11
210.72
21
-66.203
0
LINE
8
BLACK
6
CONTINUOUS
10
210.72
20
-66.203
11
210.72
21
-66.1932
0
LINE
8
BLACK
6
CONTINUOUS
10
210.72
20
-66.1932
11
210.718
21
-66.1836
0
LINE
8
BLACK
6
CONTINUOUS
10
210.718
20
-66.1836
11
210.718
21
-66.0627
0
LINE
8
BLACK
6
CONTINUOUS
10
210.718
20
-66.0627
11
210.72
21
-66.0531
0
LINE
8
BLACK
6
CONTINUOUS
10
210.72
20
-66.0531
11
210.72
21
-66.0434
0
LINE
8
BLACK
6
CONTINUOUS
10
210.72
20
-66.0434
11
210.723
21
-66.0358
0
LINE
8
BLACK
6
CONTINUOUS
10
210.723
20
-66.0358
11
210.725
21
-66.0279
0
LINE
8
BLACK
6
CONTINUOUS
10
210.725
20
-66.0279
11
210.729
21
-66.0195
0
LINE
8
BLACK
6
CONTINUOUS
10
210.729
20
-66.0195
11
210.733
21
-66.0104
0
LINE
8
BLACK
6
CONTINUOUS
10
210.733
20
-66.0104
11
210.805
21
-65.8895
0
LINE
8
BLACK
6
CONTINUOUS
10
210.805
20
-65.8895
11
210.817
21
-65.8767
0
LINE
8
BLACK
6
CONTINUOUS
10
210.817
20
-65.8767
11
210.828
21
-65.8637
0
LINE
8
BLACK
6
CONTINUOUS
10
210.828
20
-65.8637
11
210.9
21
-65.8032
0
LINE
8
BLACK
6
CONTINUOUS
10
210.9
20
-65.8032
11
210.913
21
-65.7956
0
LINE
8
BLACK
6
CONTINUOUS
10
210.913
20
-65.7956
11
210.926
21
-65.7875
0
LINE
8
BLACK
6
CONTINUOUS
10
210.926
20
-65.7875
11
211.071
21
-65.727
0
LINE
8
BLACK
6
CONTINUOUS
10
211.071
20
-65.727
11
211.074
21
-65.7265
0
LINE
8
BLACK
6
CONTINUOUS
10
211.074
20
-65.7265
11
211.076
21
-65.7253
0
LINE
8
BLACK
6
CONTINUOUS
10
211.076
20
-65.7253
11
211.091
21
-65.7226
0
LINE
8
BLACK
6
CONTINUOUS
10
211.091
20
-65.7226
11
211.106
21
-65.7193
0
LINE
8
BLACK
6
CONTINUOUS
10
211.106
20
-65.7193
11
211.108
21
-65.7196
0
LINE
8
BLACK
6
CONTINUOUS
10
211.108
20
-65.7196
11
211.11
21
-65.7192
0
LINE
8
BLACK
6
CONTINUOUS
10
211.11
20
-65.7192
11
211.473
21
-65.7192
0
LINE
8
BLACK
6
CONTINUOUS
10
211.473
20
-65.7192
11
211.487
21
-65.7216
0
LINE
8
BLACK
6
CONTINUOUS
10
214.774
20
-65.7253
11
214.804
21
-65.7429
0
LINE
8
BLACK
6
CONTINUOUS
10
214.804
20
-65.7429
11
214.827
21
-65.77
0
LINE
8
BLACK
6
CONTINUOUS
10
214.827
20
-65.77
11
214.839
21
-65.8031
0
LINE
8
BLACK
6
CONTINUOUS
10
214.839
20
-65.8031
11
214.839
21
-65.8384
0
LINE
8
BLACK
6
CONTINUOUS
10
214.839
20
-65.8384
11
214.827
21
-65.8716
0
LINE
8
BLACK
6
CONTINUOUS
10
214.827
20
-65.8716
11
214.804
21
-65.8986
0
LINE
8
BLACK
6
CONTINUOUS
10
214.804
20
-65.8986
11
214.774
21
-65.9162
0
LINE
8
BLACK
6
CONTINUOUS
10
214.774
20
-65.9162
11
214.739
21
-65.9224
0
LINE
8
BLACK
6
CONTINUOUS
10
214.739
20
-65.9224
11
214.469
21
-65.9224
0
LINE
8
BLACK
6
CONTINUOUS
10
214.469
20
-65.9224
11
214.357
21
-65.9691
0
LINE
8
BLACK
6
CONTINUOUS
10
214.357
20
-65.9691
11
214.304
21
-66.0132
0
LINE
8
BLACK
6
CONTINUOUS
10
214.304
20
-66.0132
11
214.177
21
-66.1712
0
LINE
8
BLACK
6
CONTINUOUS
10
214.177
20
-66.1712
11
214.151
21
-66.2579
0
LINE
8
BLACK
6
CONTINUOUS
10
214.151
20
-66.2579
11
214.264
21
-66.2108
0
LINE
8
BLACK
6
CONTINUOUS
10
214.264
20
-66.2108
11
214.267
21
-66.2103
0
LINE
8
BLACK
6
CONTINUOUS
10
214.267
20
-66.2103
11
214.269
21
-66.2091
0
LINE
8
BLACK
6
CONTINUOUS
10
214.269
20
-66.2091
11
214.284
21
-66.2064
0
LINE
8
BLACK
6
CONTINUOUS
10
214.284
20
-66.2064
11
214.299
21
-66.2031
0
LINE
8
BLACK
6
CONTINUOUS
10
214.299
20
-66.2031
11
214.301
21
-66.2034
0
LINE
8
BLACK
6
CONTINUOUS
10
214.301
20
-66.2034
11
214.303
21
-66.203
0
LINE
8
BLACK
6
CONTINUOUS
10
214.303
20
-66.203
11
214.594
21
-66.203
0
LINE
8
BLACK
6
CONTINUOUS
10
214.594
20
-66.203
11
214.596
21
-66.2034
0
LINE
8
BLACK
6
CONTINUOUS
10
214.596
20
-66.2034
11
214.598
21
-66.2031
0
LINE
8
BLACK
6
CONTINUOUS
10
214.598
20
-66.2031
11
214.613
21
-66.2064
0
LINE
8
BLACK
6
CONTINUOUS
10
214.613
20
-66.2064
11
214.628
21
-66.2091
0
LINE
8
BLACK
6
CONTINUOUS
10
214.628
20
-66.2091
11
214.63
21
-66.2103
0
LINE
8
BLACK
6
CONTINUOUS
10
214.63
20
-66.2103
11
214.633
21
-66.2108
0
LINE
8
BLACK
6
CONTINUOUS
10
214.633
20
-66.2108
11
214.778
21
-66.2713
0
LINE
8
BLACK
6
CONTINUOUS
10
214.778
20
-66.2713
11
214.791
21
-66.2795
0
LINE
8
BLACK
6
CONTINUOUS
10
214.791
20
-66.2795
11
214.804
21
-66.287
0
LINE
8
BLACK
6
CONTINUOUS
10
214.804
20
-66.287
11
214.876
21
-66.3475
0
LINE
8
BLACK
6
CONTINUOUS
10
214.876
20
-66.3475
11
214.887
21
-66.3604
0
LINE
8
BLACK
6
CONTINUOUS
10
214.887
20
-66.3604
11
214.899
21
-66.3733
0
LINE
8
BLACK
6
CONTINUOUS
10
214.899
20
-66.3733
11
214.971
21
-66.4942
0
LINE
8
BLACK
6
CONTINUOUS
10
214.971
20
-66.4942
11
214.975
21
-66.5033
0
LINE
8
BLACK
6
CONTINUOUS
10
214.975
20
-66.5033
11
214.979
21
-66.5117
0
LINE
8
BLACK
6
CONTINUOUS
10
214.979
20
-66.5117
11
214.981
21
-66.5197
0
LINE
8
BLACK
6
CONTINUOUS
10
214.981
20
-66.5197
11
214.984
21
-66.5272
0
LINE
8
BLACK
6
CONTINUOUS
10
214.984
20
-66.5272
11
214.984
21
-66.5369
0
LINE
8
BLACK
6
CONTINUOUS
10
214.984
20
-66.5369
11
214.986
21
-66.5465
0
LINE
8
BLACK
6
CONTINUOUS
10
214.986
20
-66.5465
11
214.986
21
-66.8489
0
LINE
8
BLACK
6
CONTINUOUS
10
214.986
20
-66.8489
11
214.984
21
-66.8585
0
LINE
8
BLACK
6
CONTINUOUS
10
214.984
20
-66.8585
11
214.984
21
-66.8682
0
LINE
8
BLACK
6
CONTINUOUS
10
214.984
20
-66.8682
11
214.981
21
-66.8757
0
LINE
8
BLACK
6
CONTINUOUS
10
214.981
20
-66.8757
11
214.979
21
-66.8836
0
LINE
8
BLACK
6
CONTINUOUS
10
214.979
20
-66.8836
11
214.975
21
-66.892
0
LINE
8
BLACK
6
CONTINUOUS
10
214.975
20
-66.892
11
214.971
21
-66.9011
0
LINE
8
BLACK
6
CONTINUOUS
10
214.971
20
-66.9011
11
214.899
21
-67.0221
0
LINE
8
BLACK
6
CONTINUOUS
10
214.899
20
-67.0221
11
214.887
21
-67.0349
0
LINE
8
BLACK
6
CONTINUOUS
10
214.887
20
-67.0349
11
214.876
21
-67.0479
0
LINE
8
BLACK
6
CONTINUOUS
10
214.876
20
-67.0479
11
214.804
21
-67.1083
0
LINE
8
BLACK
6
CONTINUOUS
10
214.804
20
-67.1083
11
214.791
21
-67.1159
0
LINE
8
BLACK
6
CONTINUOUS
10
214.791
20
-67.1159
11
214.778
21
-67.1241
0
LINE
8
BLACK
6
CONTINUOUS
10
214.778
20
-67.1241
11
214.633
21
-67.1846
0
LINE
8
BLACK
6
CONTINUOUS
10
214.633
20
-67.1846
11
214.63
21
-67.1851
0
LINE
8
BLACK
6
CONTINUOUS
10
214.63
20
-67.1851
11
214.628
21
-67.1862
0
LINE
8
BLACK
6
CONTINUOUS
10
214.628
20
-67.1862
11
214.613
21
-67.1889
0
LINE
8
BLACK
6
CONTINUOUS
10
214.613
20
-67.1889
11
214.598
21
-67.1923
0
LINE
8
BLACK
6
CONTINUOUS
10
214.598
20
-67.1923
11
214.596
21
-67.192
0
LINE
8
BLACK
6
CONTINUOUS
10
214.596
20
-67.192
11
214.594
21
-67.1924
0
LINE
8
BLACK
6
CONTINUOUS
10
214.594
20
-67.1924
11
214.303
21
-67.1924
0
LINE
8
BLACK
6
CONTINUOUS
10
214.303
20
-67.1924
11
214.301
21
-67.192
0
LINE
8
BLACK
6
CONTINUOUS
10
214.301
20
-67.192
11
214.299
21
-67.1923
0
LINE
8
BLACK
6
CONTINUOUS
10
214.299
20
-67.1923
11
214.284
21
-67.1889
0
LINE
8
BLACK
6
CONTINUOUS
10
214.284
20
-67.1889
11
214.269
21
-67.1862
0
LINE
8
BLACK
6
CONTINUOUS
10
214.269
20
-67.1862
11
214.267
21
-67.1851
0
LINE
8
BLACK
6
CONTINUOUS
10
214.267
20
-67.1851
11
214.264
21
-67.1846
0
LINE
8
BLACK
6
CONTINUOUS
10
214.264
20
-67.1846
11
214.119
21
-67.1241
0
LINE
8
BLACK
6
CONTINUOUS
10
214.119
20
-67.1241
11
214.106
21
-67.1159
0
LINE
8
BLACK
6
CONTINUOUS
10
214.106
20
-67.1159
11
214.093
21
-67.1083
0
LINE
8
BLACK
6
CONTINUOUS
10
214.093
20
-67.1083
11
214.021
21
-67.0479
0
LINE
8
BLACK
6
CONTINUOUS
10
214.021
20
-67.0479
11
214.01
21
-67.0349
0
LINE
8
BLACK
6
CONTINUOUS
10
214.01
20
-67.0349
11
213.999
21
-67.0221
0
LINE
8
BLACK
6
CONTINUOUS
10
213.999
20
-67.0221
11
213.926
21
-66.9011
0
LINE
8
BLACK
6
CONTINUOUS
10
213.926
20
-66.9011
11
213.923
21
-66.892
0
LINE
8
BLACK
6
CONTINUOUS
10
213.923
20
-66.892
11
213.918
21
-66.8836
0
LINE
8
BLACK
6
CONTINUOUS
10
213.918
20
-66.8836
11
213.916
21
-66.8757
0
LINE
8
BLACK
6
CONTINUOUS
10
213.916
20
-66.8757
11
213.913
21
-66.8682
0
LINE
8
BLACK
6
CONTINUOUS
10
213.913
20
-66.8682
11
213.913
21
-66.8585
0
LINE
8
BLACK
6
CONTINUOUS
10
213.913
20
-66.8585
11
213.912
21
-66.8489
0
LINE
8
BLACK
6
CONTINUOUS
10
213.912
20
-66.8489
11
213.912
21
-66.3651
0
LINE
8
BLACK
6
CONTINUOUS
10
213.912
20
-66.3651
11
213.914
21
-66.3505
0
LINE
8
BLACK
6
CONTINUOUS
10
213.914
20
-66.3505
11
213.916
21
-66.3359
0
LINE
8
BLACK
6
CONTINUOUS
10
213.916
20
-66.3359
11
213.988
21
-66.094
0
LINE
8
BLACK
6
CONTINUOUS
10
213.988
20
-66.094
11
213.989
21
-66.0924
0
LINE
8
BLACK
6
CONTINUOUS
10
213.989
20
-66.0924
11
213.989
21
-66.0906
0
LINE
8
BLACK
6
CONTINUOUS
10
213.989
20
-66.0906
11
213.997
21
-66.0767
0
LINE
8
BLACK
6
CONTINUOUS
10
213.997
20
-66.0767
11
214.004
21
-66.0624
0
LINE
8
BLACK
6
CONTINUOUS
10
214.004
20
-66.0624
11
214.006
21
-66.0612
0
LINE
8
BLACK
6
CONTINUOUS
10
214.006
20
-66.0612
11
214.006
21
-66.0597
0
LINE
8
BLACK
6
CONTINUOUS
10
214.006
20
-66.0597
11
214.152
21
-65.8783
0
LINE
8
BLACK
6
CONTINUOUS
10
214.152
20
-65.8783
11
214.159
21
-65.8715
0
LINE
8
BLACK
6
CONTINUOUS
10
214.159
20
-65.8715
11
214.166
21
-65.8637
0
LINE
8
BLACK
6
CONTINUOUS
10
214.166
20
-65.8637
11
214.238
21
-65.8032
0
LINE
8
BLACK
6
CONTINUOUS
10
214.238
20
-65.8032
11
214.252
21
-65.7956
0
LINE
8
BLACK
6
CONTINUOUS
10
214.252
20
-65.7956
11
214.264
21
-65.7875
0
LINE
8
BLACK
6
CONTINUOUS
10
214.264
20
-65.7875
11
214.409
21
-65.727
0
LINE
8
BLACK
6
CONTINUOUS
10
214.409
20
-65.727
11
214.412
21
-65.7265
0
LINE
8
BLACK
6
CONTINUOUS
10
214.412
20
-65.7265
11
214.414
21
-65.7253
0
LINE
8
BLACK
6
CONTINUOUS
10
214.414
20
-65.7253
11
214.429
21
-65.7226
0
LINE
8
BLACK
6
CONTINUOUS
10
214.429
20
-65.7226
11
214.444
21
-65.7193
0
LINE
8
BLACK
6
CONTINUOUS
10
214.444
20
-65.7193
11
214.446
21
-65.7196
0
LINE
8
BLACK
6
CONTINUOUS
10
214.446
20
-65.7196
11
214.449
21
-65.7192
0
LINE
8
BLACK
6
CONTINUOUS
10
214.449
20
-65.7192
11
214.739
21
-65.7192
0
LINE
8
BLACK
6
CONTINUOUS
10
214.739
20
-65.7192
11
214.774
21
-65.7253
0
LINE
8
BLACK
6
CONTINUOUS
10
214.324
20
-66.4062
11
214.212
21
-66.4529
0
LINE
8
BLACK
6
CONTINUOUS
10
214.212
20
-66.4529
11
214.164
21
-66.4926
0
LINE
8
BLACK
6
CONTINUOUS
10
214.164
20
-66.4926
11
214.115
21
-66.5746
0
LINE
8
BLACK
6
CONTINUOUS
10
214.115
20
-66.5746
11
214.115
21
-66.8207
0
LINE
8
BLACK
6
CONTINUOUS
10
214.115
20
-66.8207
11
214.164
21
-66.9028
0
LINE
8
BLACK
6
CONTINUOUS
10
214.164
20
-66.9028
11
214.212
21
-66.9424
0
LINE
8
BLACK
6
CONTINUOUS
10
214.212
20
-66.9424
11
214.324
21
-66.9892
0
LINE
8
BLACK
6
CONTINUOUS
10
214.324
20
-66.9892
11
214.573
21
-66.9892
0
LINE
8
BLACK
6
CONTINUOUS
10
214.573
20
-66.9892
11
214.686
21
-66.9424
0
LINE
8
BLACK
6
CONTINUOUS
10
214.686
20
-66.9424
11
214.733
21
-66.9028
0
LINE
8
BLACK
6
CONTINUOUS
10
214.733
20
-66.9028
11
214.782
21
-66.8207
0
LINE
8
BLACK
6
CONTINUOUS
10
214.782
20
-66.8207
11
214.782
21
-66.5746
0
LINE
8
BLACK
6
CONTINUOUS
10
214.782
20
-66.5746
11
214.733
21
-66.4926
0
LINE
8
BLACK
6
CONTINUOUS
10
214.733
20
-66.4926
11
214.686
21
-66.4529
0
LINE
8
BLACK
6
CONTINUOUS
10
214.686
20
-66.4529
11
214.573
21
-66.4062
0
LINE
8
BLACK
6
CONTINUOUS
10
214.573
20
-66.4062
11
214.324
21
-66.4062
0
LINE
8
BLACK
6
CONTINUOUS
10
213.55
20
-65.7294
11
213.578
21
-65.7501
0
LINE
8
BLACK
6
CONTINUOUS
10
213.578
20
-65.7501
11
213.598
21
-65.7794
0
LINE
8
BLACK
6
CONTINUOUS
10
213.598
20
-65.7794
11
213.606
21
-65.8136
0
LINE
8
BLACK
6
CONTINUOUS
10
213.606
20
-65.8136
11
213.603
21
-65.8487
0
LINE
8
BLACK
6
CONTINUOUS
10
213.603
20
-65.8487
11
213.24
21
-67.1187
0
LINE
8
BLACK
6
CONTINUOUS
10
213.24
20
-67.1187
11
213.238
21
-67.1238
0
LINE
8
BLACK
6
CONTINUOUS
10
213.238
20
-67.1238
11
213.236
21
-67.1293
0
LINE
8
BLACK
6
CONTINUOUS
10
213.236
20
-67.1293
11
213.23
21
-67.1395
0
LINE
8
BLACK
6
CONTINUOUS
10
213.23
20
-67.1395
11
213.225
21
-67.1504
0
LINE
8
BLACK
6
CONTINUOUS
10
213.225
20
-67.1504
11
213.22
21
-67.1543
0
LINE
8
BLACK
6
CONTINUOUS
10
213.22
20
-67.1543
11
213.217
21
-67.1591
0
LINE
8
BLACK
6
CONTINUOUS
10
213.217
20
-67.1591
11
213.208
21
-67.1665
0
LINE
8
BLACK
6
CONTINUOUS
10
213.208
20
-67.1665
11
213.199
21
-67.1749
0
LINE
8
BLACK
6
CONTINUOUS
10
213.199
20
-67.1749
11
213.194
21
-67.1772
0
LINE
8
BLACK
6
CONTINUOUS
10
213.194
20
-67.1772
11
213.19
21
-67.1807
0
LINE
8
BLACK
6
CONTINUOUS
10
213.19
20
-67.1807
11
213.178
21
-67.1844
0
LINE
8
BLACK
6
CONTINUOUS
10
213.178
20
-67.1844
11
213.167
21
-67.1893
0
LINE
8
BLACK
6
CONTINUOUS
10
213.167
20
-67.1893
11
213.161
21
-67.1897
0
LINE
8
BLACK
6
CONTINUOUS
10
213.161
20
-67.1897
11
213.156
21
-67.1914
0
LINE
8
BLACK
6
CONTINUOUS
10
213.156
20
-67.1914
11
213.144
21
-67.191
0
LINE
8
BLACK
6
CONTINUOUS
10
213.144
20
-67.191
11
213.132
21
-67.1918
0
LINE
8
BLACK
6
CONTINUOUS
10
213.132
20
-67.1918
11
213.126
21
-67.1903
0
LINE
8
BLACK
6
CONTINUOUS
10
213.126
20
-67.1903
11
213.121
21
-67.1901
0
LINE
8
BLACK
6
CONTINUOUS
10
213.121
20
-67.1901
11
213.109
21
-67.1855
0
LINE
8
BLACK
6
CONTINUOUS
10
213.109
20
-67.1855
11
213.098
21
-67.1821
0
LINE
8
BLACK
6
CONTINUOUS
10
213.098
20
-67.1821
11
213.093
21
-67.1788
0
LINE
8
BLACK
6
CONTINUOUS
10
213.093
20
-67.1788
11
213.088
21
-67.1767
0
LINE
8
BLACK
6
CONTINUOUS
10
213.088
20
-67.1767
11
213.079
21
-67.1685
0
LINE
8
BLACK
6
CONTINUOUS
10
213.079
20
-67.1685
11
213.069
21
-67.1614
0
LINE
8
BLACK
6
CONTINUOUS
10
213.069
20
-67.1614
11
213.066
21
-67.1568
0
LINE
8
BLACK
6
CONTINUOUS
10
213.066
20
-67.1568
11
213.062
21
-67.153
0
LINE
8
BLACK
6
CONTINUOUS
10
213.062
20
-67.153
11
213.056
21
-67.1422
0
LINE
8
BLACK
6
CONTINUOUS
10
213.056
20
-67.1422
11
213.05
21
-67.1322
0
LINE
8
BLACK
6
CONTINUOUS
10
213.05
20
-67.1322
11
213.048
21
-67.1267
0
LINE
8
BLACK
6
CONTINUOUS
10
213.048
20
-67.1267
11
213.046
21
-67.1217
0
LINE
8
BLACK
6
CONTINUOUS
10
213.046
20
-67.1217
11
212.852
21
-66.517
0
LINE
8
BLACK
6
CONTINUOUS
10
212.852
20
-66.517
11
212.658
21
-67.1217
0
LINE
8
BLACK
6
CONTINUOUS
10
212.658
20
-67.1217
11
212.656
21
-67.1267
0
LINE
8
BLACK
6
CONTINUOUS
10
212.656
20
-67.1267
11
212.654
21
-67.1322
0
LINE
8
BLACK
6
CONTINUOUS
10
212.654
20
-67.1322
11
212.648
21
-67.1422
0
LINE
8
BLACK
6
CONTINUOUS
10
212.648
20
-67.1422
11
212.642
21
-67.153
0
LINE
8
BLACK
6
CONTINUOUS
10
212.642
20
-67.153
11
212.638
21
-67.1568
0
LINE
8
BLACK
6
CONTINUOUS
10
212.638
20
-67.1568
11
212.635
21
-67.1614
0
LINE
8
BLACK
6
CONTINUOUS
10
212.635
20
-67.1614
11
212.625
21
-67.1685
0
LINE
8
BLACK
6
CONTINUOUS
10
212.625
20
-67.1685
11
212.616
21
-67.1767
0
LINE
8
BLACK
6
CONTINUOUS
10
212.616
20
-67.1767
11
212.611
21
-67.1788
0
LINE
8
BLACK
6
CONTINUOUS
10
212.611
20
-67.1788
11
212.606
21
-67.1821
0
LINE
8
BLACK
6
CONTINUOUS
10
212.606
20
-67.1821
11
212.595
21
-67.1855
0
LINE
8
BLACK
6
CONTINUOUS
10
212.595
20
-67.1855
11
212.583
21
-67.1901
0
LINE
8
BLACK
6
CONTINUOUS
10
212.583
20
-67.1901
11
212.578
21
-67.1903
0
LINE
8
BLACK
6
CONTINUOUS
10
212.578
20
-67.1903
11
212.572
21
-67.1918
0
LINE
8
BLACK
6
CONTINUOUS
10
212.572
20
-67.1918
11
212.56
21
-67.191
0
LINE
8
BLACK
6
CONTINUOUS
10
212.56
20
-67.191
11
212.548
21
-67.1914
0
LINE
8
BLACK
6
CONTINUOUS
10
212.548
20
-67.1914
11
212.543
21
-67.1897
0
LINE
8
BLACK
6
CONTINUOUS
10
212.543
20
-67.1897
11
212.537
21
-67.1893
0
LINE
8
BLACK
6
CONTINUOUS
10
212.537
20
-67.1893
11
212.526
21
-67.1844
0
LINE
8
BLACK
6
CONTINUOUS
10
212.526
20
-67.1844
11
212.514
21
-67.1807
0
LINE
8
BLACK
6
CONTINUOUS
10
212.514
20
-67.1807
11
212.51
21
-67.1772
0
LINE
8
BLACK
6
CONTINUOUS
10
212.51
20
-67.1772
11
212.505
21
-67.1749
0
LINE
8
BLACK
6
CONTINUOUS
10
212.505
20
-67.1749
11
212.496
21
-67.1665
0
LINE
8
BLACK
6
CONTINUOUS
10
212.496
20
-67.1665
11
212.487
21
-67.1591
0
LINE
8
BLACK
6
CONTINUOUS
10
212.487
20
-67.1591
11
212.484
21
-67.1543
0
LINE
8
BLACK
6
CONTINUOUS
10
212.484
20
-67.1543
11
212.479
21
-67.1504
0
LINE
8
BLACK
6
CONTINUOUS
10
212.479
20
-67.1504
11
212.474
21
-67.1395
0
LINE
8
BLACK
6
CONTINUOUS
10
212.474
20
-67.1395
11
212.468
21
-67.1293
0
LINE
8
BLACK
6
CONTINUOUS
10
212.468
20
-67.1293
11
212.466
21
-67.1238
0
LINE
8
BLACK
6
CONTINUOUS
10
212.466
20
-67.1238
11
212.464
21
-67.1187
0
LINE
8
BLACK
6
CONTINUOUS
10
212.464
20
-67.1187
11
212.101
21
-65.8487
0
LINE
8
BLACK
6
CONTINUOUS
10
212.101
20
-65.8487
11
212.098
21
-65.8136
0
LINE
8
BLACK
6
CONTINUOUS
10
212.098
20
-65.8136
11
212.106
21
-65.7794
0
LINE
8
BLACK
6
CONTINUOUS
10
212.106
20
-65.7794
11
212.126
21
-65.7501
0
LINE
8
BLACK
6
CONTINUOUS
10
212.126
20
-65.7501
11
212.154
21
-65.7294
0
LINE
8
BLACK
6
CONTINUOUS
10
212.154
20
-65.7294
11
212.188
21
-65.7197
0
LINE
8
BLACK
6
CONTINUOUS
10
212.188
20
-65.7197
11
212.224
21
-65.7222
0
LINE
8
BLACK
6
CONTINUOUS
10
212.224
20
-65.7222
11
212.256
21
-65.7366
0
LINE
8
BLACK
6
CONTINUOUS
10
212.256
20
-65.7366
11
212.281
21
-65.7611
0
LINE
8
BLACK
6
CONTINUOUS
10
212.281
20
-65.7611
11
212.297
21
-65.7929
0
LINE
8
BLACK
6
CONTINUOUS
10
212.297
20
-65.7929
11
212.567
21
-66.7402
0
LINE
8
BLACK
6
CONTINUOUS
10
212.567
20
-66.7402
11
212.755
21
-66.1527
0
LINE
8
BLACK
6
CONTINUOUS
10
212.755
20
-66.1527
11
212.757
21
-66.1491
0
LINE
8
BLACK
6
CONTINUOUS
10
212.757
20
-66.1491
11
212.758
21
-66.1452
0
LINE
8
BLACK
6
CONTINUOUS
10
212.758
20
-66.1452
11
212.765
21
-66.1336
0
LINE
8
BLACK
6
CONTINUOUS
10
212.765
20
-66.1336
11
212.772
21
-66.1214
0
LINE
8
BLACK
6
CONTINUOUS
10
212.772
20
-66.1214
11
212.775
21
-66.1187
0
LINE
8
BLACK
6
CONTINUOUS
10
212.775
20
-66.1187
11
212.777
21
-66.1153
0
LINE
8
BLACK
6
CONTINUOUS
10
212.777
20
-66.1153
11
212.788
21
-66.1069
0
LINE
8
BLACK
6
CONTINUOUS
10
212.788
20
-66.1069
11
212.798
21
-66.0977
0
LINE
8
BLACK
6
CONTINUOUS
10
212.798
20
-66.0977
11
212.802
21
-66.0962
0
LINE
8
BLACK
6
CONTINUOUS
10
212.802
20
-66.0962
11
212.805
21
-66.0937
0
LINE
8
BLACK
6
CONTINUOUS
10
212.805
20
-66.0937
11
212.818
21
-66.0895
0
LINE
8
BLACK
6
CONTINUOUS
10
212.818
20
-66.0895
11
212.83
21
-66.0843
0
LINE
8
BLACK
6
CONTINUOUS
10
212.83
20
-66.0843
11
212.834
21
-66.0842
0
LINE
8
BLACK
6
CONTINUOUS
10
212.834
20
-66.0842
11
212.838
21
-66.083
0
LINE
8
BLACK
6
CONTINUOUS
10
212.838
20
-66.083
11
212.852
21
-66.0835
0
LINE
8
BLACK
6
CONTINUOUS
10
212.852
20
-66.0835
11
212.866
21
-66.083
0
LINE
8
BLACK
6
CONTINUOUS
10
212.866
20
-66.083
11
212.87
21
-66.0842
0
LINE
8
BLACK
6
CONTINUOUS
10
212.87
20
-66.0842
11
212.874
21
-66.0843
0
LINE
8
BLACK
6
CONTINUOUS
10
212.874
20
-66.0843
11
212.886
21
-66.0895
0
LINE
8
BLACK
6
CONTINUOUS
10
212.886
20
-66.0895
11
212.899
21
-66.0937
0
LINE
8
BLACK
6
CONTINUOUS
10
212.899
20
-66.0937
11
212.902
21
-66.0962
0
LINE
8
BLACK
6
CONTINUOUS
10
212.902
20
-66.0962
11
212.906
21
-66.0977
0
LINE
8
BLACK
6
CONTINUOUS
10
212.906
20
-66.0977
11
212.916
21
-66.1069
0
LINE
8
BLACK
6
CONTINUOUS
10
212.916
20
-66.1069
11
212.927
21
-66.1153
0
LINE
8
BLACK
6
CONTINUOUS
10
212.927
20
-66.1153
11
212.929
21
-66.1187
0
LINE
8
BLACK
6
CONTINUOUS
10
212.929
20
-66.1187
11
212.932
21
-66.1214
0
LINE
8
BLACK
6
CONTINUOUS
10
212.932
20
-66.1214
11
212.939
21
-66.1336
0
LINE
8
BLACK
6
CONTINUOUS
10
212.939
20
-66.1336
11
212.946
21
-66.1452
0
LINE
8
BLACK
6
CONTINUOUS
10
212.946
20
-66.1452
11
212.947
21
-66.1491
0
LINE
8
BLACK
6
CONTINUOUS
10
212.947
20
-66.1491
11
212.949
21
-66.1527
0
LINE
8
BLACK
6
CONTINUOUS
10
212.949
20
-66.1527
11
213.137
21
-66.7402
0
LINE
8
BLACK
6
CONTINUOUS
10
213.137
20
-66.7402
11
213.407
21
-65.7929
0
LINE
8
BLACK
6
CONTINUOUS
10
213.407
20
-65.7929
11
213.423
21
-65.7611
0
LINE
8
BLACK
6
CONTINUOUS
10
213.423
20
-65.7611
11
213.448
21
-65.7366
0
LINE
8
BLACK
6
CONTINUOUS
10
213.448
20
-65.7366
11
213.48
21
-65.7222
0
LINE
8
BLACK
6
CONTINUOUS
10
213.48
20
-65.7222
11
213.516
21
-65.7197
0
LINE
8
BLACK
6
CONTINUOUS
10
213.516
20
-65.7197
11
213.55
21
-65.7294
  0
ENDSEC
  0
EOF
