  0
SECTION
  2
HEADER
  9
$ANGBASE
  50
0.0
  9
$ANGDIR
  70
  1
  9
$MEASUREMENT
  70
0
  0
ENDSEC
  0
SECTION
  2
TABLES
  0
TABLE
  2
LTYPE
  70
4
  0
LTYPE
  5
40F
  2
CONTINUOUS
  70
0
  3
Solid line
  72
65
  73
0
  40
0.0
  0
LTYPE
  5
410
  2
DASHDOT
 70
0
  3
Dash Dot ____ _ ____ _
 72
65
 73
4
 40
2.0
 49
1.25
 49
-0.25
 49
0.25
 49
-0.25
  0
LTYPE
  5
411
  2
DASHED
 70
0
  3
Dashed __ __ __ __ __
 72
65
 73
2
 40
0.75
 49
0.5
 49
-0.25
  0
LTYPE
  5
43B
  2
DOTTED
 70
0
  3
Dotted .  .  .  .
 72
65
 73
2
 40
0.2
 49
0.0
 49
-0.2
  0
ENDTAB
  0
TABLE
  2
STYLE
  70
4
  0
STYLE
  2
KICAD
  70
0
  40
0
  41
1
  42
1
  50
0
  71
0
  3
isocp.shx
  0
STYLE
  2
KICADB
  70
0
  40
0
  41
1
  42
1
  50
0
  71
0
  3
isocp.shx
  0
STYLE
  2
KICADI
  70
0
  40
0
  41
1
  42
1
  50
15
  71
0
  3
isocp.shx
  0
STYLE
  2
KICADBI
  70
0
  40
0
  41
1
  42
1
  50
15
  71
0
  3
isocp.shx
  0
ENDTAB
  0
TABLE
  2
LAYER
  70
30
  0
LAYER
  2
BLACK
  70
0
  62
7
  6
CONTINUOUS
  0
LAYER
  2
GRAY1
  70
0
  62
251
  6
CONTINUOUS
  0
LAYER
  2
GRAY2
  70
0
  62
8
  6
CONTINUOUS
  0
LAYER
  2
GRAY3
  70
0
  62
9
  6
CONTINUOUS
  0
LAYER
  2
WHITE
  70
0
  62
7
  6
CONTINUOUS
  0
LAYER
  2
LYELLOW
  70
0
  62
51
  6
CONTINUOUS
  0
LAYER
  2
BLUE1
  70
0
  62
178
  6
CONTINUOUS
  0
LAYER
  2
GREEN1
  70
0
  62
98
  6
CONTINUOUS
  0
LAYER
  2
CYAN1
  70
0
  62
138
  6
CONTINUOUS
  0
LAYER
  2
RED1
  70
0
  62
18
  6
CONTINUOUS
  0
LAYER
  2
MAGENTA1
  70
0
  62
228
  6
CONTINUOUS
  0
LAYER
  2
BROWN1
  70
0
  62
58
  6
CONTINUOUS
  0
LAYER
  2
BLUE2
  70
0
  62
5
  6
CONTINUOUS
  0
LAYER
  2
GREEN2
  70
0
  62
3
  6
CONTINUOUS
  0
LAYER
  2
CYAN2
  70
0
  62
4
  6
CONTINUOUS
  0
LAYER
  2
RED2
  70
0
  62
1
  6
CONTINUOUS
  0
LAYER
  2
MAGENTA2
  70
0
  62
6
  6
CONTINUOUS
  0
LAYER
  2
BROWN2
  70
0
  62
54
  6
CONTINUOUS
  0
LAYER
  2
BLUE3
  70
0
  62
171
  6
CONTINUOUS
  0
LAYER
  2
GREEN3
  70
0
  62
91
  6
CONTINUOUS
  0
LAYER
  2
CYAN3
  70
0
  62
131
  6
CONTINUOUS
  0
LAYER
  2
RED3
  70
0
  62
11
  6
CONTINUOUS
  0
LAYER
  2
MAGENTA3
  70
0
  62
221
  6
CONTINUOUS
  0
LAYER
  2
YELLOW3
  70
0
  62
2
  6
CONTINUOUS
  0
LAYER
  2
BLUE4
  70
0
  62
5
  6
CONTINUOUS
  0
LAYER
  2
GREEN4
  70
0
  62
3
  6
CONTINUOUS
  0
LAYER
  2
CYAN4
  70
0
  62
4
  6
CONTINUOUS
  0
LAYER
  2
RED4
  70
0
  62
1
  6
CONTINUOUS
  0
LAYER
  2
MAGENTA4
  70
0
  62
6
  6
CONTINUOUS
  0
LAYER
  2
YELLOW4
  70
0
  62
2
  6
CONTINUOUS
  0
ENDTAB
  0
ENDSEC
  0
SECTION
  2
ENTITIES
0
LINE
8
BLACK
6
CONTINUOUS
10
216.4
20
-82.796
11
215.4
21
-82.796
0
LINE
8
BLACK
6
CONTINUOUS
10
215.4
20
-82.796
11
215.4
21
-81.796
0
LINE
8
BLACK
6
CONTINUOUS
10
215.4
20
-81.796
11
216.4
21
-81.796
0
LINE
8
BLACK
6
CONTINUOUS
10
216.4
20
-81.796
11
216.4
21
-82.796
0
LINE
8
BLACK
6
CONTINUOUS
10
162.044
20
-82.796
11
161.044
21
-82.796
0
LINE
8
BLACK
6
CONTINUOUS
10
161.044
20
-82.796
11
161.044
21
-81.796
0
LINE
8
BLACK
6
CONTINUOUS
10
161.044
20
-81.796
11
162.044
21
-81.796
0
LINE
8
BLACK
6
CONTINUOUS
10
162.044
20
-81.796
11
162.044
21
-82.796
0
LINE
8
BLACK
6
CONTINUOUS
10
143.756
20
-82.796
11
142.756
21
-82.796
0
LINE
8
BLACK
6
CONTINUOUS
10
142.756
20
-82.796
11
142.756
21
-81.796
0
LINE
8
BLACK
6
CONTINUOUS
10
142.756
20
-81.796
11
143.756
21
-81.796
0
LINE
8
BLACK
6
CONTINUOUS
10
143.756
20
-81.796
11
143.756
21
-82.796
0
LINE
8
BLACK
6
CONTINUOUS
10
125.468
20
-82.796
11
124.468
21
-82.796
0
LINE
8
BLACK
6
CONTINUOUS
10
124.468
20
-82.796
11
124.468
21
-81.796
0
LINE
8
BLACK
6
CONTINUOUS
10
124.468
20
-81.796
11
125.468
21
-81.796
0
LINE
8
BLACK
6
CONTINUOUS
10
125.468
20
-81.796
11
125.468
21
-82.796
0
LINE
8
BLACK
6
CONTINUOUS
10
198.112
20
-82.796
11
197.112
21
-82.796
0
LINE
8
BLACK
6
CONTINUOUS
10
197.112
20
-82.796
11
197.112
21
-81.796
0
LINE
8
BLACK
6
CONTINUOUS
10
197.112
20
-81.796
11
198.112
21
-81.796
0
LINE
8
BLACK
6
CONTINUOUS
10
198.112
20
-81.796
11
198.112
21
-82.796
0
LINE
8
BLACK
6
CONTINUOUS
10
180.332
20
-82.796
11
179.332
21
-82.796
0
LINE
8
BLACK
6
CONTINUOUS
10
179.332
20
-82.796
11
179.332
21
-81.796
0
LINE
8
BLACK
6
CONTINUOUS
10
179.332
20
-81.796
11
180.332
21
-81.796
0
LINE
8
BLACK
6
CONTINUOUS
10
180.332
20
-81.796
11
180.332
21
-82.796
0
LINE
8
BLACK
6
CONTINUOUS
10
140.555
20
-78.6058
11
140.861
21
-78.7821
0
LINE
8
BLACK
6
CONTINUOUS
10
140.861
20
-78.7821
11
141.087
21
-79.0523
0
LINE
8
BLACK
6
CONTINUOUS
10
141.087
20
-79.0523
11
141.208
21
-79.3837
0
LINE
8
BLACK
6
CONTINUOUS
10
141.208
20
-79.3837
11
141.208
21
-79.7363
0
LINE
8
BLACK
6
CONTINUOUS
10
141.208
20
-79.7363
11
141.087
21
-80.0677
0
LINE
8
BLACK
6
CONTINUOUS
10
141.087
20
-80.0677
11
140.861
21
-80.3379
0
LINE
8
BLACK
6
CONTINUOUS
10
140.861
20
-80.3379
11
140.555
21
-80.5142
0
LINE
8
BLACK
6
CONTINUOUS
10
140.555
20
-80.5142
11
140.208
21
-80.5754
0
LINE
8
BLACK
6
CONTINUOUS
10
140.208
20
-80.5754
11
139.861
21
-80.5142
0
LINE
8
BLACK
6
CONTINUOUS
10
139.861
20
-80.5142
11
139.555
21
-80.3379
0
LINE
8
BLACK
6
CONTINUOUS
10
139.555
20
-80.3379
11
139.329
21
-80.0677
0
LINE
8
BLACK
6
CONTINUOUS
10
139.329
20
-80.0677
11
139.208
21
-79.7363
0
LINE
8
BLACK
6
CONTINUOUS
10
139.208
20
-79.7363
11
139.208
21
-79.3837
0
LINE
8
BLACK
6
CONTINUOUS
10
139.208
20
-79.3837
11
139.329
21
-79.0523
0
LINE
8
BLACK
6
CONTINUOUS
10
139.329
20
-79.0523
11
139.555
21
-78.7821
0
LINE
8
BLACK
6
CONTINUOUS
10
139.555
20
-78.7821
11
139.861
21
-78.6058
0
LINE
8
BLACK
6
CONTINUOUS
10
139.861
20
-78.6058
11
140.208
21
-78.5446
0
LINE
8
BLACK
6
CONTINUOUS
10
140.208
20
-78.5446
11
140.555
21
-78.6058
0
LINE
8
BLACK
6
CONTINUOUS
10
122.267
20
-78.6058
11
122.573
21
-78.7821
0
LINE
8
BLACK
6
CONTINUOUS
10
122.573
20
-78.7821
11
122.799
21
-79.0523
0
LINE
8
BLACK
6
CONTINUOUS
10
122.799
20
-79.0523
11
122.92
21
-79.3837
0
LINE
8
BLACK
6
CONTINUOUS
10
122.92
20
-79.3837
11
122.92
21
-79.7363
0
LINE
8
BLACK
6
CONTINUOUS
10
122.92
20
-79.7363
11
122.799
21
-80.0677
0
LINE
8
BLACK
6
CONTINUOUS
10
122.799
20
-80.0677
11
122.573
21
-80.3379
0
LINE
8
BLACK
6
CONTINUOUS
10
122.573
20
-80.3379
11
122.267
21
-80.5142
0
LINE
8
BLACK
6
CONTINUOUS
10
122.267
20
-80.5142
11
121.92
21
-80.5754
0
LINE
8
BLACK
6
CONTINUOUS
10
121.92
20
-80.5754
11
121.573
21
-80.5142
0
LINE
8
BLACK
6
CONTINUOUS
10
121.573
20
-80.5142
11
121.267
21
-80.3379
0
LINE
8
BLACK
6
CONTINUOUS
10
121.267
20
-80.3379
11
121.041
21
-80.0677
0
LINE
8
BLACK
6
CONTINUOUS
10
121.041
20
-80.0677
11
120.92
21
-79.7363
0
LINE
8
BLACK
6
CONTINUOUS
10
120.92
20
-79.7363
11
120.92
21
-79.3837
0
LINE
8
BLACK
6
CONTINUOUS
10
120.92
20
-79.3837
11
121.041
21
-79.0523
0
LINE
8
BLACK
6
CONTINUOUS
10
121.041
20
-79.0523
11
121.267
21
-78.7821
0
LINE
8
BLACK
6
CONTINUOUS
10
121.267
20
-78.7821
11
121.573
21
-78.6058
0
LINE
8
BLACK
6
CONTINUOUS
10
121.573
20
-78.6058
11
121.92
21
-78.5446
0
LINE
8
BLACK
6
CONTINUOUS
10
121.92
20
-78.5446
11
122.267
21
-78.6058
0
LINE
8
BLACK
6
CONTINUOUS
10
158.843
20
-78.6058
11
159.149
21
-78.7821
0
LINE
8
BLACK
6
CONTINUOUS
10
159.149
20
-78.7821
11
159.375
21
-79.0523
0
LINE
8
BLACK
6
CONTINUOUS
10
159.375
20
-79.0523
11
159.496
21
-79.3837
0
LINE
8
BLACK
6
CONTINUOUS
10
159.496
20
-79.3837
11
159.496
21
-79.7363
0
LINE
8
BLACK
6
CONTINUOUS
10
159.496
20
-79.7363
11
159.375
21
-80.0677
0
LINE
8
BLACK
6
CONTINUOUS
10
159.375
20
-80.0677
11
159.149
21
-80.3379
0
LINE
8
BLACK
6
CONTINUOUS
10
159.149
20
-80.3379
11
158.843
21
-80.5142
0
LINE
8
BLACK
6
CONTINUOUS
10
158.843
20
-80.5142
11
158.496
21
-80.5754
0
LINE
8
BLACK
6
CONTINUOUS
10
158.496
20
-80.5754
11
158.149
21
-80.5142
0
LINE
8
BLACK
6
CONTINUOUS
10
158.149
20
-80.5142
11
157.843
21
-80.3379
0
LINE
8
BLACK
6
CONTINUOUS
10
157.843
20
-80.3379
11
157.617
21
-80.0677
0
LINE
8
BLACK
6
CONTINUOUS
10
157.617
20
-80.0677
11
157.496
21
-79.7363
0
LINE
8
BLACK
6
CONTINUOUS
10
157.496
20
-79.7363
11
157.496
21
-79.3837
0
LINE
8
BLACK
6
CONTINUOUS
10
157.496
20
-79.3837
11
157.617
21
-79.0523
0
LINE
8
BLACK
6
CONTINUOUS
10
157.617
20
-79.0523
11
157.843
21
-78.7821
0
LINE
8
BLACK
6
CONTINUOUS
10
157.843
20
-78.7821
11
158.149
21
-78.6058
0
LINE
8
BLACK
6
CONTINUOUS
10
158.149
20
-78.6058
11
158.496
21
-78.5446
0
LINE
8
BLACK
6
CONTINUOUS
10
158.496
20
-78.5446
11
158.843
21
-78.6058
0
LINE
8
BLACK
6
CONTINUOUS
10
177.131
20
-78.6058
11
177.437
21
-78.7821
0
LINE
8
BLACK
6
CONTINUOUS
10
177.437
20
-78.7821
11
177.663
21
-79.0523
0
LINE
8
BLACK
6
CONTINUOUS
10
177.663
20
-79.0523
11
177.784
21
-79.3837
0
LINE
8
BLACK
6
CONTINUOUS
10
177.784
20
-79.3837
11
177.784
21
-79.7363
0
LINE
8
BLACK
6
CONTINUOUS
10
177.784
20
-79.7363
11
177.663
21
-80.0677
0
LINE
8
BLACK
6
CONTINUOUS
10
177.663
20
-80.0677
11
177.437
21
-80.3379
0
LINE
8
BLACK
6
CONTINUOUS
10
177.437
20
-80.3379
11
177.131
21
-80.5142
0
LINE
8
BLACK
6
CONTINUOUS
10
177.131
20
-80.5142
11
176.784
21
-80.5754
0
LINE
8
BLACK
6
CONTINUOUS
10
176.784
20
-80.5754
11
176.437
21
-80.5142
0
LINE
8
BLACK
6
CONTINUOUS
10
176.437
20
-80.5142
11
176.131
21
-80.3379
0
LINE
8
BLACK
6
CONTINUOUS
10
176.131
20
-80.3379
11
175.905
21
-80.0677
0
LINE
8
BLACK
6
CONTINUOUS
10
175.905
20
-80.0677
11
175.784
21
-79.7363
0
LINE
8
BLACK
6
CONTINUOUS
10
175.784
20
-79.7363
11
175.784
21
-79.3837
0
LINE
8
BLACK
6
CONTINUOUS
10
175.784
20
-79.3837
11
175.905
21
-79.0523
0
LINE
8
BLACK
6
CONTINUOUS
10
175.905
20
-79.0523
11
176.131
21
-78.7821
0
LINE
8
BLACK
6
CONTINUOUS
10
176.131
20
-78.7821
11
176.437
21
-78.6058
0
LINE
8
BLACK
6
CONTINUOUS
10
176.437
20
-78.6058
11
176.784
21
-78.5446
0
LINE
8
BLACK
6
CONTINUOUS
10
176.784
20
-78.5446
11
177.131
21
-78.6058
0
LINE
8
BLACK
6
CONTINUOUS
10
194.911
20
-78.6058
11
195.217
21
-78.7821
0
LINE
8
BLACK
6
CONTINUOUS
10
195.217
20
-78.7821
11
195.443
21
-79.0523
0
LINE
8
BLACK
6
CONTINUOUS
10
195.443
20
-79.0523
11
195.564
21
-79.3837
0
LINE
8
BLACK
6
CONTINUOUS
10
195.564
20
-79.3837
11
195.564
21
-79.7363
0
LINE
8
BLACK
6
CONTINUOUS
10
195.564
20
-79.7363
11
195.443
21
-80.0677
0
LINE
8
BLACK
6
CONTINUOUS
10
195.443
20
-80.0677
11
195.217
21
-80.3379
0
LINE
8
BLACK
6
CONTINUOUS
10
195.217
20
-80.3379
11
194.911
21
-80.5142
0
LINE
8
BLACK
6
CONTINUOUS
10
194.911
20
-80.5142
11
194.564
21
-80.5754
0
LINE
8
BLACK
6
CONTINUOUS
10
194.564
20
-80.5754
11
194.217
21
-80.5142
0
LINE
8
BLACK
6
CONTINUOUS
10
194.217
20
-80.5142
11
193.911
21
-80.3379
0
LINE
8
BLACK
6
CONTINUOUS
10
193.911
20
-80.3379
11
193.685
21
-80.0677
0
LINE
8
BLACK
6
CONTINUOUS
10
193.685
20
-80.0677
11
193.564
21
-79.7363
0
LINE
8
BLACK
6
CONTINUOUS
10
193.564
20
-79.7363
11
193.564
21
-79.3837
0
LINE
8
BLACK
6
CONTINUOUS
10
193.564
20
-79.3837
11
193.685
21
-79.0523
0
LINE
8
BLACK
6
CONTINUOUS
10
193.685
20
-79.0523
11
193.911
21
-78.7821
0
LINE
8
BLACK
6
CONTINUOUS
10
193.911
20
-78.7821
11
194.217
21
-78.6058
0
LINE
8
BLACK
6
CONTINUOUS
10
194.217
20
-78.6058
11
194.564
21
-78.5446
0
LINE
8
BLACK
6
CONTINUOUS
10
194.564
20
-78.5446
11
194.911
21
-78.6058
0
LINE
8
BLACK
6
CONTINUOUS
10
213.199
20
-78.6058
11
213.505
21
-78.7821
0
LINE
8
BLACK
6
CONTINUOUS
10
213.505
20
-78.7821
11
213.731
21
-79.0523
0
LINE
8
BLACK
6
CONTINUOUS
10
213.731
20
-79.0523
11
213.852
21
-79.3837
0
LINE
8
BLACK
6
CONTINUOUS
10
213.852
20
-79.3837
11
213.852
21
-79.7363
0
LINE
8
BLACK
6
CONTINUOUS
10
213.852
20
-79.7363
11
213.731
21
-80.0677
0
LINE
8
BLACK
6
CONTINUOUS
10
213.731
20
-80.0677
11
213.505
21
-80.3379
0
LINE
8
BLACK
6
CONTINUOUS
10
213.505
20
-80.3379
11
213.199
21
-80.5142
0
LINE
8
BLACK
6
CONTINUOUS
10
213.199
20
-80.5142
11
212.852
21
-80.5754
0
LINE
8
BLACK
6
CONTINUOUS
10
212.852
20
-80.5754
11
212.505
21
-80.5142
0
LINE
8
BLACK
6
CONTINUOUS
10
212.505
20
-80.5142
11
212.199
21
-80.3379
0
LINE
8
BLACK
6
CONTINUOUS
10
212.199
20
-80.3379
11
211.973
21
-80.0677
0
LINE
8
BLACK
6
CONTINUOUS
10
211.973
20
-80.0677
11
211.852
21
-79.7363
0
LINE
8
BLACK
6
CONTINUOUS
10
211.852
20
-79.7363
11
211.852
21
-79.3837
0
LINE
8
BLACK
6
CONTINUOUS
10
211.852
20
-79.3837
11
211.973
21
-79.0523
0
LINE
8
BLACK
6
CONTINUOUS
10
211.973
20
-79.0523
11
212.199
21
-78.7821
0
LINE
8
BLACK
6
CONTINUOUS
10
212.199
20
-78.7821
11
212.505
21
-78.6058
0
LINE
8
BLACK
6
CONTINUOUS
10
212.505
20
-78.6058
11
212.852
21
-78.5446
0
LINE
8
BLACK
6
CONTINUOUS
10
212.852
20
-78.5446
11
213.199
21
-78.6058
0
LINE
8
BLACK
6
CONTINUOUS
10
189.911
20
-76.5058
11
190.217
21
-76.6821
0
LINE
8
BLACK
6
CONTINUOUS
10
190.217
20
-76.6821
11
190.443
21
-76.9523
0
LINE
8
BLACK
6
CONTINUOUS
10
190.443
20
-76.9523
11
190.564
21
-77.2837
0
LINE
8
BLACK
6
CONTINUOUS
10
190.564
20
-77.2837
11
190.564
21
-77.6363
0
LINE
8
BLACK
6
CONTINUOUS
10
190.564
20
-77.6363
11
190.443
21
-77.9677
0
LINE
8
BLACK
6
CONTINUOUS
10
190.443
20
-77.9677
11
190.217
21
-78.2379
0
LINE
8
BLACK
6
CONTINUOUS
10
190.217
20
-78.2379
11
189.911
21
-78.4142
0
LINE
8
BLACK
6
CONTINUOUS
10
189.911
20
-78.4142
11
189.564
21
-78.4754
0
LINE
8
BLACK
6
CONTINUOUS
10
189.564
20
-78.4754
11
189.217
21
-78.4142
0
LINE
8
BLACK
6
CONTINUOUS
10
189.217
20
-78.4142
11
188.911
21
-78.2379
0
LINE
8
BLACK
6
CONTINUOUS
10
188.911
20
-78.2379
11
188.685
21
-77.9677
0
LINE
8
BLACK
6
CONTINUOUS
10
188.685
20
-77.9677
11
188.564
21
-77.6363
0
LINE
8
BLACK
6
CONTINUOUS
10
188.564
20
-77.6363
11
188.564
21
-77.2837
0
LINE
8
BLACK
6
CONTINUOUS
10
188.564
20
-77.2837
11
188.685
21
-76.9523
0
LINE
8
BLACK
6
CONTINUOUS
10
188.685
20
-76.9523
11
188.911
21
-76.6821
0
LINE
8
BLACK
6
CONTINUOUS
10
188.911
20
-76.6821
11
189.217
21
-76.5058
0
LINE
8
BLACK
6
CONTINUOUS
10
189.217
20
-76.5058
11
189.564
21
-76.4446
0
LINE
8
BLACK
6
CONTINUOUS
10
189.564
20
-76.4446
11
189.911
21
-76.5058
0
LINE
8
BLACK
6
CONTINUOUS
10
199.911
20
-76.5058
11
200.217
21
-76.6821
0
LINE
8
BLACK
6
CONTINUOUS
10
200.217
20
-76.6821
11
200.443
21
-76.9523
0
LINE
8
BLACK
6
CONTINUOUS
10
200.443
20
-76.9523
11
200.564
21
-77.2837
0
LINE
8
BLACK
6
CONTINUOUS
10
200.564
20
-77.2837
11
200.564
21
-77.6363
0
LINE
8
BLACK
6
CONTINUOUS
10
200.564
20
-77.6363
11
200.443
21
-77.9677
0
LINE
8
BLACK
6
CONTINUOUS
10
200.443
20
-77.9677
11
200.217
21
-78.2379
0
LINE
8
BLACK
6
CONTINUOUS
10
200.217
20
-78.2379
11
199.911
21
-78.4142
0
LINE
8
BLACK
6
CONTINUOUS
10
199.911
20
-78.4142
11
199.564
21
-78.4754
0
LINE
8
BLACK
6
CONTINUOUS
10
199.564
20
-78.4754
11
199.217
21
-78.4142
0
LINE
8
BLACK
6
CONTINUOUS
10
199.217
20
-78.4142
11
198.911
21
-78.2379
0
LINE
8
BLACK
6
CONTINUOUS
10
198.911
20
-78.2379
11
198.685
21
-77.9677
0
LINE
8
BLACK
6
CONTINUOUS
10
198.685
20
-77.9677
11
198.564
21
-77.6363
0
LINE
8
BLACK
6
CONTINUOUS
10
198.564
20
-77.6363
11
198.564
21
-77.2837
0
LINE
8
BLACK
6
CONTINUOUS
10
198.564
20
-77.2837
11
198.685
21
-76.9523
0
LINE
8
BLACK
6
CONTINUOUS
10
198.685
20
-76.9523
11
198.911
21
-76.6821
0
LINE
8
BLACK
6
CONTINUOUS
10
198.911
20
-76.6821
11
199.217
21
-76.5058
0
LINE
8
BLACK
6
CONTINUOUS
10
199.217
20
-76.5058
11
199.564
21
-76.4446
0
LINE
8
BLACK
6
CONTINUOUS
10
199.564
20
-76.4446
11
199.911
21
-76.5058
0
LINE
8
BLACK
6
CONTINUOUS
10
172.131
20
-76.5058
11
172.437
21
-76.6821
0
LINE
8
BLACK
6
CONTINUOUS
10
172.437
20
-76.6821
11
172.663
21
-76.9523
0
LINE
8
BLACK
6
CONTINUOUS
10
172.663
20
-76.9523
11
172.784
21
-77.2837
0
LINE
8
BLACK
6
CONTINUOUS
10
172.784
20
-77.2837
11
172.784
21
-77.6363
0
LINE
8
BLACK
6
CONTINUOUS
10
172.784
20
-77.6363
11
172.663
21
-77.9677
0
LINE
8
BLACK
6
CONTINUOUS
10
172.663
20
-77.9677
11
172.437
21
-78.2379
0
LINE
8
BLACK
6
CONTINUOUS
10
172.437
20
-78.2379
11
172.131
21
-78.4142
0
LINE
8
BLACK
6
CONTINUOUS
10
172.131
20
-78.4142
11
171.784
21
-78.4754
0
LINE
8
BLACK
6
CONTINUOUS
10
171.784
20
-78.4754
11
171.437
21
-78.4142
0
LINE
8
BLACK
6
CONTINUOUS
10
171.437
20
-78.4142
11
171.131
21
-78.2379
0
LINE
8
BLACK
6
CONTINUOUS
10
171.131
20
-78.2379
11
170.905
21
-77.9677
0
LINE
8
BLACK
6
CONTINUOUS
10
170.905
20
-77.9677
11
170.784
21
-77.6363
0
LINE
8
BLACK
6
CONTINUOUS
10
170.784
20
-77.6363
11
170.784
21
-77.2837
0
LINE
8
BLACK
6
CONTINUOUS
10
170.784
20
-77.2837
11
170.905
21
-76.9523
0
LINE
8
BLACK
6
CONTINUOUS
10
170.905
20
-76.9523
11
171.131
21
-76.6821
0
LINE
8
BLACK
6
CONTINUOUS
10
171.131
20
-76.6821
11
171.437
21
-76.5058
0
LINE
8
BLACK
6
CONTINUOUS
10
171.437
20
-76.5058
11
171.784
21
-76.4446
0
LINE
8
BLACK
6
CONTINUOUS
10
171.784
20
-76.4446
11
172.131
21
-76.5058
0
LINE
8
BLACK
6
CONTINUOUS
10
218.199
20
-76.5058
11
218.505
21
-76.6821
0
LINE
8
BLACK
6
CONTINUOUS
10
218.505
20
-76.6821
11
218.731
21
-76.9523
0
LINE
8
BLACK
6
CONTINUOUS
10
218.731
20
-76.9523
11
218.852
21
-77.2837
0
LINE
8
BLACK
6
CONTINUOUS
10
218.852
20
-77.2837
11
218.852
21
-77.6363
0
LINE
8
BLACK
6
CONTINUOUS
10
218.852
20
-77.6363
11
218.731
21
-77.9677
0
LINE
8
BLACK
6
CONTINUOUS
10
218.731
20
-77.9677
11
218.505
21
-78.2379
0
LINE
8
BLACK
6
CONTINUOUS
10
218.505
20
-78.2379
11
218.199
21
-78.4142
0
LINE
8
BLACK
6
CONTINUOUS
10
218.199
20
-78.4142
11
217.852
21
-78.4754
0
LINE
8
BLACK
6
CONTINUOUS
10
217.852
20
-78.4754
11
217.505
21
-78.4142
0
LINE
8
BLACK
6
CONTINUOUS
10
217.505
20
-78.4142
11
217.199
21
-78.2379
0
LINE
8
BLACK
6
CONTINUOUS
10
217.199
20
-78.2379
11
216.973
21
-77.9677
0
LINE
8
BLACK
6
CONTINUOUS
10
216.973
20
-77.9677
11
216.852
21
-77.6363
0
LINE
8
BLACK
6
CONTINUOUS
10
216.852
20
-77.6363
11
216.852
21
-77.2837
0
LINE
8
BLACK
6
CONTINUOUS
10
216.852
20
-77.2837
11
216.973
21
-76.9523
0
LINE
8
BLACK
6
CONTINUOUS
10
216.973
20
-76.9523
11
217.199
21
-76.6821
0
LINE
8
BLACK
6
CONTINUOUS
10
217.199
20
-76.6821
11
217.505
21
-76.5058
0
LINE
8
BLACK
6
CONTINUOUS
10
217.505
20
-76.5058
11
217.852
21
-76.4446
0
LINE
8
BLACK
6
CONTINUOUS
10
217.852
20
-76.4446
11
218.199
21
-76.5058
0
LINE
8
BLACK
6
CONTINUOUS
10
182.131
20
-76.5058
11
182.437
21
-76.6821
0
LINE
8
BLACK
6
CONTINUOUS
10
182.437
20
-76.6821
11
182.663
21
-76.9523
0
LINE
8
BLACK
6
CONTINUOUS
10
182.663
20
-76.9523
11
182.784
21
-77.2837
0
LINE
8
BLACK
6
CONTINUOUS
10
182.784
20
-77.2837
11
182.784
21
-77.6363
0
LINE
8
BLACK
6
CONTINUOUS
10
182.784
20
-77.6363
11
182.663
21
-77.9677
0
LINE
8
BLACK
6
CONTINUOUS
10
182.663
20
-77.9677
11
182.437
21
-78.2379
0
LINE
8
BLACK
6
CONTINUOUS
10
182.437
20
-78.2379
11
182.131
21
-78.4142
0
LINE
8
BLACK
6
CONTINUOUS
10
182.131
20
-78.4142
11
181.784
21
-78.4754
0
LINE
8
BLACK
6
CONTINUOUS
10
181.784
20
-78.4754
11
181.437
21
-78.4142
0
LINE
8
BLACK
6
CONTINUOUS
10
181.437
20
-78.4142
11
181.131
21
-78.2379
0
LINE
8
BLACK
6
CONTINUOUS
10
181.131
20
-78.2379
11
180.905
21
-77.9677
0
LINE
8
BLACK
6
CONTINUOUS
10
180.905
20
-77.9677
11
180.784
21
-77.6363
0
LINE
8
BLACK
6
CONTINUOUS
10
180.784
20
-77.6363
11
180.784
21
-77.2837
0
LINE
8
BLACK
6
CONTINUOUS
10
180.784
20
-77.2837
11
180.905
21
-76.9523
0
LINE
8
BLACK
6
CONTINUOUS
10
180.905
20
-76.9523
11
181.131
21
-76.6821
0
LINE
8
BLACK
6
CONTINUOUS
10
181.131
20
-76.6821
11
181.437
21
-76.5058
0
LINE
8
BLACK
6
CONTINUOUS
10
181.437
20
-76.5058
11
181.784
21
-76.4446
0
LINE
8
BLACK
6
CONTINUOUS
10
181.784
20
-76.4446
11
182.131
21
-76.5058
0
LINE
8
BLACK
6
CONTINUOUS
10
208.199
20
-76.5058
11
208.505
21
-76.6821
0
LINE
8
BLACK
6
CONTINUOUS
10
208.505
20
-76.6821
11
208.731
21
-76.9523
0
LINE
8
BLACK
6
CONTINUOUS
10
208.731
20
-76.9523
11
208.852
21
-77.2837
0
LINE
8
BLACK
6
CONTINUOUS
10
208.852
20
-77.2837
11
208.852
21
-77.6363
0
LINE
8
BLACK
6
CONTINUOUS
10
208.852
20
-77.6363
11
208.731
21
-77.9677
0
LINE
8
BLACK
6
CONTINUOUS
10
208.731
20
-77.9677
11
208.505
21
-78.2379
0
LINE
8
BLACK
6
CONTINUOUS
10
208.505
20
-78.2379
11
208.199
21
-78.4142
0
LINE
8
BLACK
6
CONTINUOUS
10
208.199
20
-78.4142
11
207.852
21
-78.4754
0
LINE
8
BLACK
6
CONTINUOUS
10
207.852
20
-78.4754
11
207.505
21
-78.4142
0
LINE
8
BLACK
6
CONTINUOUS
10
207.505
20
-78.4142
11
207.199
21
-78.2379
0
LINE
8
BLACK
6
CONTINUOUS
10
207.199
20
-78.2379
11
206.973
21
-77.9677
0
LINE
8
BLACK
6
CONTINUOUS
10
206.973
20
-77.9677
11
206.852
21
-77.6363
0
LINE
8
BLACK
6
CONTINUOUS
10
206.852
20
-77.6363
11
206.852
21
-77.2837
0
LINE
8
BLACK
6
CONTINUOUS
10
206.852
20
-77.2837
11
206.973
21
-76.9523
0
LINE
8
BLACK
6
CONTINUOUS
10
206.973
20
-76.9523
11
207.199
21
-76.6821
0
LINE
8
BLACK
6
CONTINUOUS
10
207.199
20
-76.6821
11
207.505
21
-76.5058
0
LINE
8
BLACK
6
CONTINUOUS
10
207.505
20
-76.5058
11
207.852
21
-76.4446
0
LINE
8
BLACK
6
CONTINUOUS
10
207.852
20
-76.4446
11
208.199
21
-76.5058
0
LINE
8
BLACK
6
CONTINUOUS
10
163.843
20
-76.5058
11
164.149
21
-76.6821
0
LINE
8
BLACK
6
CONTINUOUS
10
164.149
20
-76.6821
11
164.375
21
-76.9523
0
LINE
8
BLACK
6
CONTINUOUS
10
164.375
20
-76.9523
11
164.496
21
-77.2837
0
LINE
8
BLACK
6
CONTINUOUS
10
164.496
20
-77.2837
11
164.496
21
-77.6363
0
LINE
8
BLACK
6
CONTINUOUS
10
164.496
20
-77.6363
11
164.375
21
-77.9677
0
LINE
8
BLACK
6
CONTINUOUS
10
164.375
20
-77.9677
11
164.149
21
-78.2379
0
LINE
8
BLACK
6
CONTINUOUS
10
164.149
20
-78.2379
11
163.843
21
-78.4142
0
LINE
8
BLACK
6
CONTINUOUS
10
163.843
20
-78.4142
11
163.496
21
-78.4754
0
LINE
8
BLACK
6
CONTINUOUS
10
163.496
20
-78.4754
11
163.149
21
-78.4142
0
LINE
8
BLACK
6
CONTINUOUS
10
163.149
20
-78.4142
11
162.843
21
-78.2379
0
LINE
8
BLACK
6
CONTINUOUS
10
162.843
20
-78.2379
11
162.617
21
-77.9677
0
LINE
8
BLACK
6
CONTINUOUS
10
162.617
20
-77.9677
11
162.496
21
-77.6363
0
LINE
8
BLACK
6
CONTINUOUS
10
162.496
20
-77.6363
11
162.496
21
-77.2837
0
LINE
8
BLACK
6
CONTINUOUS
10
162.496
20
-77.2837
11
162.617
21
-76.9523
0
LINE
8
BLACK
6
CONTINUOUS
10
162.617
20
-76.9523
11
162.843
21
-76.6821
0
LINE
8
BLACK
6
CONTINUOUS
10
162.843
20
-76.6821
11
163.149
21
-76.5058
0
LINE
8
BLACK
6
CONTINUOUS
10
163.149
20
-76.5058
11
163.496
21
-76.4446
0
LINE
8
BLACK
6
CONTINUOUS
10
163.496
20
-76.4446
11
163.843
21
-76.5058
0
LINE
8
BLACK
6
CONTINUOUS
10
135.555
20
-76.5058
11
135.861
21
-76.6821
0
LINE
8
BLACK
6
CONTINUOUS
10
135.861
20
-76.6821
11
136.087
21
-76.9523
0
LINE
8
BLACK
6
CONTINUOUS
10
136.087
20
-76.9523
11
136.208
21
-77.2837
0
LINE
8
BLACK
6
CONTINUOUS
10
136.208
20
-77.2837
11
136.208
21
-77.6363
0
LINE
8
BLACK
6
CONTINUOUS
10
136.208
20
-77.6363
11
136.087
21
-77.9677
0
LINE
8
BLACK
6
CONTINUOUS
10
136.087
20
-77.9677
11
135.861
21
-78.2379
0
LINE
8
BLACK
6
CONTINUOUS
10
135.861
20
-78.2379
11
135.555
21
-78.4142
0
LINE
8
BLACK
6
CONTINUOUS
10
135.555
20
-78.4142
11
135.208
21
-78.4754
0
LINE
8
BLACK
6
CONTINUOUS
10
135.208
20
-78.4754
11
134.861
21
-78.4142
0
LINE
8
BLACK
6
CONTINUOUS
10
134.861
20
-78.4142
11
134.555
21
-78.2379
0
LINE
8
BLACK
6
CONTINUOUS
10
134.555
20
-78.2379
11
134.329
21
-77.9677
0
LINE
8
BLACK
6
CONTINUOUS
10
134.329
20
-77.9677
11
134.208
21
-77.6363
0
LINE
8
BLACK
6
CONTINUOUS
10
134.208
20
-77.6363
11
134.208
21
-77.2837
0
LINE
8
BLACK
6
CONTINUOUS
10
134.208
20
-77.2837
11
134.329
21
-76.9523
0
LINE
8
BLACK
6
CONTINUOUS
10
134.329
20
-76.9523
11
134.555
21
-76.6821
0
LINE
8
BLACK
6
CONTINUOUS
10
134.555
20
-76.6821
11
134.861
21
-76.5058
0
LINE
8
BLACK
6
CONTINUOUS
10
134.861
20
-76.5058
11
135.208
21
-76.4446
0
LINE
8
BLACK
6
CONTINUOUS
10
135.208
20
-76.4446
11
135.555
21
-76.5058
0
LINE
8
BLACK
6
CONTINUOUS
10
153.843
20
-76.5058
11
154.149
21
-76.6821
0
LINE
8
BLACK
6
CONTINUOUS
10
154.149
20
-76.6821
11
154.375
21
-76.9523
0
LINE
8
BLACK
6
CONTINUOUS
10
154.375
20
-76.9523
11
154.496
21
-77.2837
0
LINE
8
BLACK
6
CONTINUOUS
10
154.496
20
-77.2837
11
154.496
21
-77.6363
0
LINE
8
BLACK
6
CONTINUOUS
10
154.496
20
-77.6363
11
154.375
21
-77.9677
0
LINE
8
BLACK
6
CONTINUOUS
10
154.375
20
-77.9677
11
154.149
21
-78.2379
0
LINE
8
BLACK
6
CONTINUOUS
10
154.149
20
-78.2379
11
153.843
21
-78.4142
0
LINE
8
BLACK
6
CONTINUOUS
10
153.843
20
-78.4142
11
153.496
21
-78.4754
0
LINE
8
BLACK
6
CONTINUOUS
10
153.496
20
-78.4754
11
153.149
21
-78.4142
0
LINE
8
BLACK
6
CONTINUOUS
10
153.149
20
-78.4142
11
152.843
21
-78.2379
0
LINE
8
BLACK
6
CONTINUOUS
10
152.843
20
-78.2379
11
152.617
21
-77.9677
0
LINE
8
BLACK
6
CONTINUOUS
10
152.617
20
-77.9677
11
152.496
21
-77.6363
0
LINE
8
BLACK
6
CONTINUOUS
10
152.496
20
-77.6363
11
152.496
21
-77.2837
0
LINE
8
BLACK
6
CONTINUOUS
10
152.496
20
-77.2837
11
152.617
21
-76.9523
0
LINE
8
BLACK
6
CONTINUOUS
10
152.617
20
-76.9523
11
152.843
21
-76.6821
0
LINE
8
BLACK
6
CONTINUOUS
10
152.843
20
-76.6821
11
153.149
21
-76.5058
0
LINE
8
BLACK
6
CONTINUOUS
10
153.149
20
-76.5058
11
153.496
21
-76.4446
0
LINE
8
BLACK
6
CONTINUOUS
10
153.496
20
-76.4446
11
153.843
21
-76.5058
0
LINE
8
BLACK
6
CONTINUOUS
10
145.555
20
-76.5058
11
145.861
21
-76.6821
0
LINE
8
BLACK
6
CONTINUOUS
10
145.861
20
-76.6821
11
146.087
21
-76.9523
0
LINE
8
BLACK
6
CONTINUOUS
10
146.087
20
-76.9523
11
146.208
21
-77.2837
0
LINE
8
BLACK
6
CONTINUOUS
10
146.208
20
-77.2837
11
146.208
21
-77.6363
0
LINE
8
BLACK
6
CONTINUOUS
10
146.208
20
-77.6363
11
146.087
21
-77.9677
0
LINE
8
BLACK
6
CONTINUOUS
10
146.087
20
-77.9677
11
145.861
21
-78.2379
0
LINE
8
BLACK
6
CONTINUOUS
10
145.861
20
-78.2379
11
145.555
21
-78.4142
0
LINE
8
BLACK
6
CONTINUOUS
10
145.555
20
-78.4142
11
145.208
21
-78.4754
0
LINE
8
BLACK
6
CONTINUOUS
10
145.208
20
-78.4754
11
144.861
21
-78.4142
0
LINE
8
BLACK
6
CONTINUOUS
10
144.861
20
-78.4142
11
144.555
21
-78.2379
0
LINE
8
BLACK
6
CONTINUOUS
10
144.555
20
-78.2379
11
144.329
21
-77.9677
0
LINE
8
BLACK
6
CONTINUOUS
10
144.329
20
-77.9677
11
144.208
21
-77.6363
0
LINE
8
BLACK
6
CONTINUOUS
10
144.208
20
-77.6363
11
144.208
21
-77.2837
0
LINE
8
BLACK
6
CONTINUOUS
10
144.208
20
-77.2837
11
144.329
21
-76.9523
0
LINE
8
BLACK
6
CONTINUOUS
10
144.329
20
-76.9523
11
144.555
21
-76.6821
0
LINE
8
BLACK
6
CONTINUOUS
10
144.555
20
-76.6821
11
144.861
21
-76.5058
0
LINE
8
BLACK
6
CONTINUOUS
10
144.861
20
-76.5058
11
145.208
21
-76.4446
0
LINE
8
BLACK
6
CONTINUOUS
10
145.208
20
-76.4446
11
145.555
21
-76.5058
0
LINE
8
BLACK
6
CONTINUOUS
10
117.267
20
-76.5058
11
117.573
21
-76.6821
0
LINE
8
BLACK
6
CONTINUOUS
10
117.573
20
-76.6821
11
117.799
21
-76.9523
0
LINE
8
BLACK
6
CONTINUOUS
10
117.799
20
-76.9523
11
117.92
21
-77.2837
0
LINE
8
BLACK
6
CONTINUOUS
10
117.92
20
-77.2837
11
117.92
21
-77.6363
0
LINE
8
BLACK
6
CONTINUOUS
10
117.92
20
-77.6363
11
117.799
21
-77.9677
0
LINE
8
BLACK
6
CONTINUOUS
10
117.799
20
-77.9677
11
117.573
21
-78.2379
0
LINE
8
BLACK
6
CONTINUOUS
10
117.573
20
-78.2379
11
117.267
21
-78.4142
0
LINE
8
BLACK
6
CONTINUOUS
10
117.267
20
-78.4142
11
116.92
21
-78.4754
0
LINE
8
BLACK
6
CONTINUOUS
10
116.92
20
-78.4754
11
116.573
21
-78.4142
0
LINE
8
BLACK
6
CONTINUOUS
10
116.573
20
-78.4142
11
116.267
21
-78.2379
0
LINE
8
BLACK
6
CONTINUOUS
10
116.267
20
-78.2379
11
116.041
21
-77.9677
0
LINE
8
BLACK
6
CONTINUOUS
10
116.041
20
-77.9677
11
115.92
21
-77.6363
0
LINE
8
BLACK
6
CONTINUOUS
10
115.92
20
-77.6363
11
115.92
21
-77.2837
0
LINE
8
BLACK
6
CONTINUOUS
10
115.92
20
-77.2837
11
116.041
21
-76.9523
0
LINE
8
BLACK
6
CONTINUOUS
10
116.041
20
-76.9523
11
116.267
21
-76.6821
0
LINE
8
BLACK
6
CONTINUOUS
10
116.267
20
-76.6821
11
116.573
21
-76.5058
0
LINE
8
BLACK
6
CONTINUOUS
10
116.573
20
-76.5058
11
116.92
21
-76.4446
0
LINE
8
BLACK
6
CONTINUOUS
10
116.92
20
-76.4446
11
117.267
21
-76.5058
0
LINE
8
BLACK
6
CONTINUOUS
10
127.267
20
-76.5058
11
127.573
21
-76.6821
0
LINE
8
BLACK
6
CONTINUOUS
10
127.573
20
-76.6821
11
127.799
21
-76.9523
0
LINE
8
BLACK
6
CONTINUOUS
10
127.799
20
-76.9523
11
127.92
21
-77.2837
0
LINE
8
BLACK
6
CONTINUOUS
10
127.92
20
-77.2837
11
127.92
21
-77.6363
0
LINE
8
BLACK
6
CONTINUOUS
10
127.92
20
-77.6363
11
127.799
21
-77.9677
0
LINE
8
BLACK
6
CONTINUOUS
10
127.799
20
-77.9677
11
127.573
21
-78.2379
0
LINE
8
BLACK
6
CONTINUOUS
10
127.573
20
-78.2379
11
127.267
21
-78.4142
0
LINE
8
BLACK
6
CONTINUOUS
10
127.267
20
-78.4142
11
126.92
21
-78.4754
0
LINE
8
BLACK
6
CONTINUOUS
10
126.92
20
-78.4754
11
126.573
21
-78.4142
0
LINE
8
BLACK
6
CONTINUOUS
10
126.573
20
-78.4142
11
126.267
21
-78.2379
0
LINE
8
BLACK
6
CONTINUOUS
10
126.267
20
-78.2379
11
126.041
21
-77.9677
0
LINE
8
BLACK
6
CONTINUOUS
10
126.041
20
-77.9677
11
125.92
21
-77.6363
0
LINE
8
BLACK
6
CONTINUOUS
10
125.92
20
-77.6363
11
125.92
21
-77.2837
0
LINE
8
BLACK
6
CONTINUOUS
10
125.92
20
-77.2837
11
126.041
21
-76.9523
0
LINE
8
BLACK
6
CONTINUOUS
10
126.041
20
-76.9523
11
126.267
21
-76.6821
0
LINE
8
BLACK
6
CONTINUOUS
10
126.267
20
-76.6821
11
126.573
21
-76.5058
0
LINE
8
BLACK
6
CONTINUOUS
10
126.573
20
-76.5058
11
126.92
21
-76.4446
0
LINE
8
BLACK
6
CONTINUOUS
10
126.92
20
-76.4446
11
127.267
21
-76.5058
0
LINE
8
BLACK
6
CONTINUOUS
10
204.534
20
-78.2955
11
202.882
21
-78.2955
0
LINE
8
BLACK
6
CONTINUOUS
10
202.882
20
-78.2955
11
202.882
21
-76.6445
0
LINE
8
BLACK
6
CONTINUOUS
10
202.882
20
-76.6445
11
204.534
21
-76.6445
0
LINE
8
BLACK
6
CONTINUOUS
10
204.534
20
-76.6445
11
204.534
21
-78.2955
0
LINE
8
BLACK
6
CONTINUOUS
10
131.889
20
-78.2955
11
130.238
21
-78.2955
0
LINE
8
BLACK
6
CONTINUOUS
10
130.238
20
-78.2955
11
130.238
21
-76.6445
0
LINE
8
BLACK
6
CONTINUOUS
10
130.238
20
-76.6445
11
131.889
21
-76.6445
0
LINE
8
BLACK
6
CONTINUOUS
10
131.889
20
-76.6445
11
131.889
21
-78.2955
0
LINE
8
BLACK
6
CONTINUOUS
10
150.177
20
-78.2955
11
148.526
21
-78.2955
0
LINE
8
BLACK
6
CONTINUOUS
10
148.526
20
-78.2955
11
148.526
21
-76.6445
0
LINE
8
BLACK
6
CONTINUOUS
10
148.526
20
-76.6445
11
150.177
21
-76.6445
0
LINE
8
BLACK
6
CONTINUOUS
10
150.177
20
-76.6445
11
150.177
21
-78.2955
0
LINE
8
BLACK
6
CONTINUOUS
10
168.465
20
-78.2955
11
166.814
21
-78.2955
0
LINE
8
BLACK
6
CONTINUOUS
10
166.814
20
-78.2955
11
166.814
21
-76.6445
0
LINE
8
BLACK
6
CONTINUOUS
10
166.814
20
-76.6445
11
168.465
21
-76.6445
0
LINE
8
BLACK
6
CONTINUOUS
10
168.465
20
-76.6445
11
168.465
21
-78.2955
0
LINE
8
BLACK
6
CONTINUOUS
10
186.754
20
-78.2955
11
185.102
21
-78.2955
0
LINE
8
BLACK
6
CONTINUOUS
10
185.102
20
-78.2955
11
185.102
21
-76.6445
0
LINE
8
BLACK
6
CONTINUOUS
10
185.102
20
-76.6445
11
186.754
21
-76.6445
0
LINE
8
BLACK
6
CONTINUOUS
10
186.754
20
-76.6445
11
186.754
21
-78.2955
0
LINE
8
BLACK
6
CONTINUOUS
10
222.821
20
-78.2955
11
221.171
21
-78.2955
0
LINE
8
BLACK
6
CONTINUOUS
10
221.171
20
-78.2955
11
221.171
21
-76.6445
0
LINE
8
BLACK
6
CONTINUOUS
10
221.171
20
-76.6445
11
222.821
21
-76.6445
0
LINE
8
BLACK
6
CONTINUOUS
10
222.821
20
-76.6445
11
222.821
21
-78.2955
0
LINE
8
BLACK
6
CONTINUOUS
10
228.695
20
-70.6066
11
229.673
21
-71.1708
0
LINE
8
BLACK
6
CONTINUOUS
10
229.673
20
-71.1708
11
230.398
21
-72.0353
0
LINE
8
BLACK
6
CONTINUOUS
10
230.398
20
-72.0353
11
230.784
21
-73.0958
0
LINE
8
BLACK
6
CONTINUOUS
10
230.784
20
-73.0958
11
230.784
21
-74.2242
0
LINE
8
BLACK
6
CONTINUOUS
10
230.784
20
-74.2242
11
230.398
21
-75.2847
0
LINE
8
BLACK
6
CONTINUOUS
10
230.398
20
-75.2847
11
229.673
21
-76.1492
0
LINE
8
BLACK
6
CONTINUOUS
10
229.673
20
-76.1492
11
228.695
21
-76.7134
0
LINE
8
BLACK
6
CONTINUOUS
10
228.695
20
-76.7134
11
227.584
21
-76.9094
0
LINE
8
BLACK
6
CONTINUOUS
10
227.584
20
-76.9094
11
226.473
21
-76.7134
0
LINE
8
BLACK
6
CONTINUOUS
10
226.473
20
-76.7134
11
225.495
21
-76.1492
0
LINE
8
BLACK
6
CONTINUOUS
10
225.495
20
-76.1492
11
224.77
21
-75.2847
0
LINE
8
BLACK
6
CONTINUOUS
10
224.77
20
-75.2847
11
224.384
21
-74.2242
0
LINE
8
BLACK
6
CONTINUOUS
10
224.384
20
-74.2242
11
224.384
21
-73.0958
0
LINE
8
BLACK
6
CONTINUOUS
10
224.384
20
-73.0958
11
224.77
21
-72.0353
0
LINE
8
BLACK
6
CONTINUOUS
10
224.77
20
-72.0353
11
225.495
21
-71.1708
0
LINE
8
BLACK
6
CONTINUOUS
10
225.495
20
-71.1708
11
226.473
21
-70.6066
0
LINE
8
BLACK
6
CONTINUOUS
10
226.473
20
-70.6066
11
227.584
21
-70.4106
0
LINE
8
BLACK
6
CONTINUOUS
10
227.584
20
-70.4106
11
228.695
21
-70.6066
0
LINE
8
BLACK
6
CONTINUOUS
10
110.331
20
-70.0986
11
111.309
21
-70.6628
0
LINE
8
BLACK
6
CONTINUOUS
10
111.309
20
-70.6628
11
112.034
21
-71.5273
0
LINE
8
BLACK
6
CONTINUOUS
10
112.034
20
-71.5273
11
112.42
21
-72.5878
0
LINE
8
BLACK
6
CONTINUOUS
10
112.42
20
-72.5878
11
112.42
21
-73.7162
0
LINE
8
BLACK
6
CONTINUOUS
10
112.42
20
-73.7162
11
112.034
21
-74.7767
0
LINE
8
BLACK
6
CONTINUOUS
10
112.034
20
-74.7767
11
111.309
21
-75.6412
0
LINE
8
BLACK
6
CONTINUOUS
10
111.309
20
-75.6412
11
110.331
21
-76.2054
0
LINE
8
BLACK
6
CONTINUOUS
10
110.331
20
-76.2054
11
109.22
21
-76.4014
0
LINE
8
BLACK
6
CONTINUOUS
10
109.22
20
-76.4014
11
108.109
21
-76.2054
0
LINE
8
BLACK
6
CONTINUOUS
10
108.109
20
-76.2054
11
107.131
21
-75.6412
0
LINE
8
BLACK
6
CONTINUOUS
10
107.131
20
-75.6412
11
106.406
21
-74.7767
0
LINE
8
BLACK
6
CONTINUOUS
10
106.406
20
-74.7767
11
106.02
21
-73.7162
0
LINE
8
BLACK
6
CONTINUOUS
10
106.02
20
-73.7162
11
106.02
21
-72.5878
0
LINE
8
BLACK
6
CONTINUOUS
10
106.02
20
-72.5878
11
106.406
21
-71.5273
0
LINE
8
BLACK
6
CONTINUOUS
10
106.406
20
-71.5273
11
107.131
21
-70.6628
0
LINE
8
BLACK
6
CONTINUOUS
10
107.131
20
-70.6628
11
108.109
21
-70.0986
0
LINE
8
BLACK
6
CONTINUOUS
10
108.109
20
-70.0986
11
109.22
21
-69.9026
0
LINE
8
BLACK
6
CONTINUOUS
10
109.22
20
-69.9026
11
110.331
21
-70.0986
0
LINE
8
BLACK
6
CONTINUOUS
10
149.639
20
-69.0623
11
149.891
21
-69.2079
0
LINE
8
BLACK
6
CONTINUOUS
10
149.891
20
-69.2079
11
150.078
21
-69.4309
0
LINE
8
BLACK
6
CONTINUOUS
10
150.078
20
-69.4309
11
150.177
21
-69.7044
0
LINE
8
BLACK
6
CONTINUOUS
10
150.177
20
-69.7044
11
150.177
21
-69.9956
0
LINE
8
BLACK
6
CONTINUOUS
10
150.177
20
-69.9956
11
150.078
21
-70.2691
0
LINE
8
BLACK
6
CONTINUOUS
10
150.078
20
-70.2691
11
149.891
21
-70.4921
0
LINE
8
BLACK
6
CONTINUOUS
10
149.891
20
-70.4921
11
149.639
21
-70.6377
0
LINE
8
BLACK
6
CONTINUOUS
10
149.639
20
-70.6377
11
149.352
21
-70.6882
0
LINE
8
BLACK
6
CONTINUOUS
10
149.352
20
-70.6882
11
149.065
21
-70.6377
0
LINE
8
BLACK
6
CONTINUOUS
10
149.065
20
-70.6377
11
148.813
21
-70.4921
0
LINE
8
BLACK
6
CONTINUOUS
10
148.813
20
-70.4921
11
148.626
21
-70.2691
0
LINE
8
BLACK
6
CONTINUOUS
10
148.626
20
-70.2691
11
148.526
21
-69.9956
0
LINE
8
BLACK
6
CONTINUOUS
10
148.526
20
-69.9956
11
148.526
21
-69.7044
0
LINE
8
BLACK
6
CONTINUOUS
10
148.526
20
-69.7044
11
148.626
21
-69.4309
0
LINE
8
BLACK
6
CONTINUOUS
10
148.626
20
-69.4309
11
148.813
21
-69.2079
0
LINE
8
BLACK
6
CONTINUOUS
10
148.813
20
-69.2079
11
149.065
21
-69.0623
0
LINE
8
BLACK
6
CONTINUOUS
10
149.065
20
-69.0623
11
149.352
21
-69.0118
0
LINE
8
BLACK
6
CONTINUOUS
10
149.352
20
-69.0118
11
149.639
21
-69.0623
0
LINE
8
BLACK
6
CONTINUOUS
10
167.927
20
-69.0623
11
168.179
21
-69.2079
0
LINE
8
BLACK
6
CONTINUOUS
10
168.179
20
-69.2079
11
168.366
21
-69.4309
0
LINE
8
BLACK
6
CONTINUOUS
10
168.366
20
-69.4309
11
168.465
21
-69.7044
0
LINE
8
BLACK
6
CONTINUOUS
10
168.465
20
-69.7044
11
168.465
21
-69.9956
0
LINE
8
BLACK
6
CONTINUOUS
10
168.465
20
-69.9956
11
168.366
21
-70.2691
0
LINE
8
BLACK
6
CONTINUOUS
10
168.366
20
-70.2691
11
168.179
21
-70.4921
0
LINE
8
BLACK
6
CONTINUOUS
10
168.179
20
-70.4921
11
167.927
21
-70.6377
0
LINE
8
BLACK
6
CONTINUOUS
10
167.927
20
-70.6377
11
167.64
21
-70.6882
0
LINE
8
BLACK
6
CONTINUOUS
10
167.64
20
-70.6882
11
167.353
21
-70.6377
0
LINE
8
BLACK
6
CONTINUOUS
10
167.353
20
-70.6377
11
167.101
21
-70.4921
0
LINE
8
BLACK
6
CONTINUOUS
10
167.101
20
-70.4921
11
166.914
21
-70.2691
0
LINE
8
BLACK
6
CONTINUOUS
10
166.914
20
-70.2691
11
166.814
21
-69.9956
0
LINE
8
BLACK
6
CONTINUOUS
10
166.814
20
-69.9956
11
166.814
21
-69.7044
0
LINE
8
BLACK
6
CONTINUOUS
10
166.814
20
-69.7044
11
166.914
21
-69.4309
0
LINE
8
BLACK
6
CONTINUOUS
10
166.914
20
-69.4309
11
167.101
21
-69.2079
0
LINE
8
BLACK
6
CONTINUOUS
10
167.101
20
-69.2079
11
167.353
21
-69.0623
0
LINE
8
BLACK
6
CONTINUOUS
10
167.353
20
-69.0623
11
167.64
21
-69.0118
0
LINE
8
BLACK
6
CONTINUOUS
10
167.64
20
-69.0118
11
167.927
21
-69.0623
0
LINE
8
BLACK
6
CONTINUOUS
10
186.215
20
-69.0623
11
186.467
21
-69.2079
0
LINE
8
BLACK
6
CONTINUOUS
10
186.467
20
-69.2079
11
186.654
21
-69.4309
0
LINE
8
BLACK
6
CONTINUOUS
10
186.654
20
-69.4309
11
186.754
21
-69.7044
0
LINE
8
BLACK
6
CONTINUOUS
10
186.754
20
-69.7044
11
186.754
21
-69.9956
0
LINE
8
BLACK
6
CONTINUOUS
10
186.754
20
-69.9956
11
186.654
21
-70.2691
0
LINE
8
BLACK
6
CONTINUOUS
10
186.654
20
-70.2691
11
186.467
21
-70.4921
0
LINE
8
BLACK
6
CONTINUOUS
10
186.467
20
-70.4921
11
186.215
21
-70.6377
0
LINE
8
BLACK
6
CONTINUOUS
10
186.215
20
-70.6377
11
185.928
21
-70.6882
0
LINE
8
BLACK
6
CONTINUOUS
10
185.928
20
-70.6882
11
185.641
21
-70.6377
0
LINE
8
BLACK
6
CONTINUOUS
10
185.641
20
-70.6377
11
185.389
21
-70.4921
0
LINE
8
BLACK
6
CONTINUOUS
10
185.389
20
-70.4921
11
185.202
21
-70.2691
0
LINE
8
BLACK
6
CONTINUOUS
10
185.202
20
-70.2691
11
185.102
21
-69.9956
0
LINE
8
BLACK
6
CONTINUOUS
10
185.102
20
-69.9956
11
185.102
21
-69.7044
0
LINE
8
BLACK
6
CONTINUOUS
10
185.102
20
-69.7044
11
185.202
21
-69.4309
0
LINE
8
BLACK
6
CONTINUOUS
10
185.202
20
-69.4309
11
185.389
21
-69.2079
0
LINE
8
BLACK
6
CONTINUOUS
10
185.389
20
-69.2079
11
185.641
21
-69.0623
0
LINE
8
BLACK
6
CONTINUOUS
10
185.641
20
-69.0623
11
185.928
21
-69.0118
0
LINE
8
BLACK
6
CONTINUOUS
10
185.928
20
-69.0118
11
186.215
21
-69.0623
0
LINE
8
BLACK
6
CONTINUOUS
10
131.351
20
-69.0623
11
131.603
21
-69.2079
0
LINE
8
BLACK
6
CONTINUOUS
10
131.603
20
-69.2079
11
131.79
21
-69.4309
0
LINE
8
BLACK
6
CONTINUOUS
10
131.79
20
-69.4309
11
131.889
21
-69.7044
0
LINE
8
BLACK
6
CONTINUOUS
10
131.889
20
-69.7044
11
131.889
21
-69.9956
0
LINE
8
BLACK
6
CONTINUOUS
10
131.889
20
-69.9956
11
131.79
21
-70.2691
0
LINE
8
BLACK
6
CONTINUOUS
10
131.79
20
-70.2691
11
131.603
21
-70.4921
0
LINE
8
BLACK
6
CONTINUOUS
10
131.603
20
-70.4921
11
131.351
21
-70.6377
0
LINE
8
BLACK
6
CONTINUOUS
10
131.351
20
-70.6377
11
131.064
21
-70.6882
0
LINE
8
BLACK
6
CONTINUOUS
10
131.064
20
-70.6882
11
130.777
21
-70.6377
0
LINE
8
BLACK
6
CONTINUOUS
10
130.777
20
-70.6377
11
130.525
21
-70.4921
0
LINE
8
BLACK
6
CONTINUOUS
10
130.525
20
-70.4921
11
130.338
21
-70.2691
0
LINE
8
BLACK
6
CONTINUOUS
10
130.338
20
-70.2691
11
130.238
21
-69.9956
0
LINE
8
BLACK
6
CONTINUOUS
10
130.238
20
-69.9956
11
130.238
21
-69.7044
0
LINE
8
BLACK
6
CONTINUOUS
10
130.238
20
-69.7044
11
130.338
21
-69.4309
0
LINE
8
BLACK
6
CONTINUOUS
10
130.338
20
-69.4309
11
130.525
21
-69.2079
0
LINE
8
BLACK
6
CONTINUOUS
10
130.525
20
-69.2079
11
130.777
21
-69.0623
0
LINE
8
BLACK
6
CONTINUOUS
10
130.777
20
-69.0623
11
131.064
21
-69.0118
0
LINE
8
BLACK
6
CONTINUOUS
10
131.064
20
-69.0118
11
131.351
21
-69.0623
0
LINE
8
BLACK
6
CONTINUOUS
10
222.283
20
-69.0623
11
222.535
21
-69.2079
0
LINE
8
BLACK
6
CONTINUOUS
10
222.535
20
-69.2079
11
222.722
21
-69.4309
0
LINE
8
BLACK
6
CONTINUOUS
10
222.722
20
-69.4309
11
222.821
21
-69.7044
0
LINE
8
BLACK
6
CONTINUOUS
10
222.821
20
-69.7044
11
222.821
21
-69.9956
0
LINE
8
BLACK
6
CONTINUOUS
10
222.821
20
-69.9956
11
222.722
21
-70.2691
0
LINE
8
BLACK
6
CONTINUOUS
10
222.722
20
-70.2691
11
222.535
21
-70.4921
0
LINE
8
BLACK
6
CONTINUOUS
10
222.535
20
-70.4921
11
222.283
21
-70.6377
0
LINE
8
BLACK
6
CONTINUOUS
10
222.283
20
-70.6377
11
221.996
21
-70.6882
0
LINE
8
BLACK
6
CONTINUOUS
10
221.996
20
-70.6882
11
221.709
21
-70.6377
0
LINE
8
BLACK
6
CONTINUOUS
10
221.709
20
-70.6377
11
221.457
21
-70.4921
0
LINE
8
BLACK
6
CONTINUOUS
10
221.457
20
-70.4921
11
221.27
21
-70.2691
0
LINE
8
BLACK
6
CONTINUOUS
10
221.27
20
-70.2691
11
221.171
21
-69.9956
0
LINE
8
BLACK
6
CONTINUOUS
10
221.171
20
-69.9956
11
221.171
21
-69.7044
0
LINE
8
BLACK
6
CONTINUOUS
10
221.171
20
-69.7044
11
221.27
21
-69.4309
0
LINE
8
BLACK
6
CONTINUOUS
10
221.27
20
-69.4309
11
221.457
21
-69.2079
0
LINE
8
BLACK
6
CONTINUOUS
10
221.457
20
-69.2079
11
221.709
21
-69.0623
0
LINE
8
BLACK
6
CONTINUOUS
10
221.709
20
-69.0623
11
221.996
21
-69.0118
0
LINE
8
BLACK
6
CONTINUOUS
10
221.996
20
-69.0118
11
222.283
21
-69.0623
0
LINE
8
BLACK
6
CONTINUOUS
10
203.995
20
-69.0623
11
204.247
21
-69.2079
0
LINE
8
BLACK
6
CONTINUOUS
10
204.247
20
-69.2079
11
204.434
21
-69.4309
0
LINE
8
BLACK
6
CONTINUOUS
10
204.434
20
-69.4309
11
204.534
21
-69.7044
0
LINE
8
BLACK
6
CONTINUOUS
10
204.534
20
-69.7044
11
204.534
21
-69.9956
0
LINE
8
BLACK
6
CONTINUOUS
10
204.534
20
-69.9956
11
204.434
21
-70.2691
0
LINE
8
BLACK
6
CONTINUOUS
10
204.434
20
-70.2691
11
204.247
21
-70.4921
0
LINE
8
BLACK
6
CONTINUOUS
10
204.247
20
-70.4921
11
203.995
21
-70.6377
0
LINE
8
BLACK
6
CONTINUOUS
10
203.995
20
-70.6377
11
203.708
21
-70.6882
0
LINE
8
BLACK
6
CONTINUOUS
10
203.708
20
-70.6882
11
203.421
21
-70.6377
0
LINE
8
BLACK
6
CONTINUOUS
10
203.421
20
-70.6377
11
203.169
21
-70.4921
0
LINE
8
BLACK
6
CONTINUOUS
10
203.169
20
-70.4921
11
202.982
21
-70.2691
0
LINE
8
BLACK
6
CONTINUOUS
10
202.982
20
-70.2691
11
202.882
21
-69.9956
0
LINE
8
BLACK
6
CONTINUOUS
10
202.882
20
-69.9956
11
202.882
21
-69.7044
0
LINE
8
BLACK
6
CONTINUOUS
10
202.882
20
-69.7044
11
202.982
21
-69.4309
0
LINE
8
BLACK
6
CONTINUOUS
10
202.982
20
-69.4309
11
203.169
21
-69.2079
0
LINE
8
BLACK
6
CONTINUOUS
10
203.169
20
-69.2079
11
203.421
21
-69.0623
0
LINE
8
BLACK
6
CONTINUOUS
10
203.421
20
-69.0623
11
203.708
21
-69.0118
0
LINE
8
BLACK
6
CONTINUOUS
10
203.708
20
-69.0118
11
203.995
21
-69.0623
0
LINE
8
BLACK
6
CONTINUOUS
10
178.385
20
-67.9511
11
178.676
21
-68.1191
0
LINE
8
BLACK
6
CONTINUOUS
10
178.676
20
-68.1191
11
178.892
21
-68.3764
0
LINE
8
BLACK
6
CONTINUOUS
10
178.892
20
-68.3764
11
179.006
21
-68.692
0
LINE
8
BLACK
6
CONTINUOUS
10
179.006
20
-68.692
11
179.006
21
-69.028
0
LINE
8
BLACK
6
CONTINUOUS
10
179.006
20
-69.028
11
178.892
21
-69.3436
0
LINE
8
BLACK
6
CONTINUOUS
10
178.892
20
-69.3436
11
178.676
21
-69.6009
0
LINE
8
BLACK
6
CONTINUOUS
10
178.676
20
-69.6009
11
178.385
21
-69.7689
0
LINE
8
BLACK
6
CONTINUOUS
10
178.385
20
-69.7689
11
178.054
21
-69.8272
0
LINE
8
BLACK
6
CONTINUOUS
10
178.054
20
-69.8272
11
177.723
21
-69.7689
0
LINE
8
BLACK
6
CONTINUOUS
10
177.723
20
-69.7689
11
177.432
21
-69.6009
0
LINE
8
BLACK
6
CONTINUOUS
10
177.432
20
-69.6009
11
177.216
21
-69.3436
0
LINE
8
BLACK
6
CONTINUOUS
10
177.216
20
-69.3436
11
177.101
21
-69.028
0
LINE
8
BLACK
6
CONTINUOUS
10
177.101
20
-69.028
11
177.101
21
-68.692
0
LINE
8
BLACK
6
CONTINUOUS
10
177.101
20
-68.692
11
177.216
21
-68.3764
0
LINE
8
BLACK
6
CONTINUOUS
10
177.216
20
-68.3764
11
177.432
21
-68.1191
0
LINE
8
BLACK
6
CONTINUOUS
10
177.432
20
-68.1191
11
177.723
21
-67.9511
0
LINE
8
BLACK
6
CONTINUOUS
10
177.723
20
-67.9511
11
178.054
21
-67.8928
0
LINE
8
BLACK
6
CONTINUOUS
10
178.054
20
-67.8928
11
178.385
21
-67.9511
0
LINE
8
BLACK
6
CONTINUOUS
10
160.097
20
-67.9511
11
160.388
21
-68.1191
0
LINE
8
BLACK
6
CONTINUOUS
10
160.388
20
-68.1191
11
160.604
21
-68.3764
0
LINE
8
BLACK
6
CONTINUOUS
10
160.604
20
-68.3764
11
160.719
21
-68.692
0
LINE
8
BLACK
6
CONTINUOUS
10
160.719
20
-68.692
11
160.719
21
-69.028
0
LINE
8
BLACK
6
CONTINUOUS
10
160.719
20
-69.028
11
160.604
21
-69.3436
0
LINE
8
BLACK
6
CONTINUOUS
10
160.604
20
-69.3436
11
160.388
21
-69.6009
0
LINE
8
BLACK
6
CONTINUOUS
10
160.388
20
-69.6009
11
160.097
21
-69.7689
0
LINE
8
BLACK
6
CONTINUOUS
10
160.097
20
-69.7689
11
159.766
21
-69.8272
0
LINE
8
BLACK
6
CONTINUOUS
10
159.766
20
-69.8272
11
159.435
21
-69.7689
0
LINE
8
BLACK
6
CONTINUOUS
10
159.435
20
-69.7689
11
159.144
21
-69.6009
0
LINE
8
BLACK
6
CONTINUOUS
10
159.144
20
-69.6009
11
158.928
21
-69.3436
0
LINE
8
BLACK
6
CONTINUOUS
10
158.928
20
-69.3436
11
158.814
21
-69.028
0
LINE
8
BLACK
6
CONTINUOUS
10
158.814
20
-69.028
11
158.814
21
-68.692
0
LINE
8
BLACK
6
CONTINUOUS
10
158.814
20
-68.692
11
158.928
21
-68.3764
0
LINE
8
BLACK
6
CONTINUOUS
10
158.928
20
-68.3764
11
159.144
21
-68.1191
0
LINE
8
BLACK
6
CONTINUOUS
10
159.144
20
-68.1191
11
159.435
21
-67.9511
0
LINE
8
BLACK
6
CONTINUOUS
10
159.435
20
-67.9511
11
159.766
21
-67.8928
0
LINE
8
BLACK
6
CONTINUOUS
10
159.766
20
-67.8928
11
160.097
21
-67.9511
0
LINE
8
BLACK
6
CONTINUOUS
10
123.521
20
-67.9511
11
123.812
21
-68.1191
0
LINE
8
BLACK
6
CONTINUOUS
10
123.812
20
-68.1191
11
124.028
21
-68.3764
0
LINE
8
BLACK
6
CONTINUOUS
10
124.028
20
-68.3764
11
124.142
21
-68.692
0
LINE
8
BLACK
6
CONTINUOUS
10
124.142
20
-68.692
11
124.142
21
-69.028
0
LINE
8
BLACK
6
CONTINUOUS
10
124.142
20
-69.028
11
124.028
21
-69.3436
0
LINE
8
BLACK
6
CONTINUOUS
10
124.028
20
-69.3436
11
123.812
21
-69.6009
0
LINE
8
BLACK
6
CONTINUOUS
10
123.812
20
-69.6009
11
123.521
21
-69.7689
0
LINE
8
BLACK
6
CONTINUOUS
10
123.521
20
-69.7689
11
123.19
21
-69.8272
0
LINE
8
BLACK
6
CONTINUOUS
10
123.19
20
-69.8272
11
122.859
21
-69.7689
0
LINE
8
BLACK
6
CONTINUOUS
10
122.859
20
-69.7689
11
122.568
21
-69.6009
0
LINE
8
BLACK
6
CONTINUOUS
10
122.568
20
-69.6009
11
122.352
21
-69.3436
0
LINE
8
BLACK
6
CONTINUOUS
10
122.352
20
-69.3436
11
122.237
21
-69.028
0
LINE
8
BLACK
6
CONTINUOUS
10
122.237
20
-69.028
11
122.237
21
-68.692
0
LINE
8
BLACK
6
CONTINUOUS
10
122.237
20
-68.692
11
122.352
21
-68.3764
0
LINE
8
BLACK
6
CONTINUOUS
10
122.352
20
-68.3764
11
122.568
21
-68.1191
0
LINE
8
BLACK
6
CONTINUOUS
10
122.568
20
-68.1191
11
122.859
21
-67.9511
0
LINE
8
BLACK
6
CONTINUOUS
10
122.859
20
-67.9511
11
123.19
21
-67.8928
0
LINE
8
BLACK
6
CONTINUOUS
10
123.19
20
-67.8928
11
123.521
21
-67.9511
0
LINE
8
BLACK
6
CONTINUOUS
10
214.453
20
-67.9511
11
214.744
21
-68.1191
0
LINE
8
BLACK
6
CONTINUOUS
10
214.744
20
-68.1191
11
214.96
21
-68.3764
0
LINE
8
BLACK
6
CONTINUOUS
10
214.96
20
-68.3764
11
215.075
21
-68.692
0
LINE
8
BLACK
6
CONTINUOUS
10
215.075
20
-68.692
11
215.075
21
-69.028
0
LINE
8
BLACK
6
CONTINUOUS
10
215.075
20
-69.028
11
214.96
21
-69.3436
0
LINE
8
BLACK
6
CONTINUOUS
10
214.96
20
-69.3436
11
214.744
21
-69.6009
0
LINE
8
BLACK
6
CONTINUOUS
10
214.744
20
-69.6009
11
214.453
21
-69.7689
0
LINE
8
BLACK
6
CONTINUOUS
10
214.453
20
-69.7689
11
214.122
21
-69.8272
0
LINE
8
BLACK
6
CONTINUOUS
10
214.122
20
-69.8272
11
213.791
21
-69.7689
0
LINE
8
BLACK
6
CONTINUOUS
10
213.791
20
-69.7689
11
213.5
21
-69.6009
0
LINE
8
BLACK
6
CONTINUOUS
10
213.5
20
-69.6009
11
213.284
21
-69.3436
0
LINE
8
BLACK
6
CONTINUOUS
10
213.284
20
-69.3436
11
213.169
21
-69.028
0
LINE
8
BLACK
6
CONTINUOUS
10
213.169
20
-69.028
11
213.169
21
-68.692
0
LINE
8
BLACK
6
CONTINUOUS
10
213.169
20
-68.692
11
213.284
21
-68.3764
0
LINE
8
BLACK
6
CONTINUOUS
10
213.284
20
-68.3764
11
213.5
21
-68.1191
0
LINE
8
BLACK
6
CONTINUOUS
10
213.5
20
-68.1191
11
213.791
21
-67.9511
0
LINE
8
BLACK
6
CONTINUOUS
10
213.791
20
-67.9511
11
214.122
21
-67.8928
0
LINE
8
BLACK
6
CONTINUOUS
10
214.122
20
-67.8928
11
214.453
21
-67.9511
0
LINE
8
BLACK
6
CONTINUOUS
10
141.809
20
-67.9511
11
142.1
21
-68.1191
0
LINE
8
BLACK
6
CONTINUOUS
10
142.1
20
-68.1191
11
142.316
21
-68.3764
0
LINE
8
BLACK
6
CONTINUOUS
10
142.316
20
-68.3764
11
142.43
21
-68.692
0
LINE
8
BLACK
6
CONTINUOUS
10
142.43
20
-68.692
11
142.43
21
-69.028
0
LINE
8
BLACK
6
CONTINUOUS
10
142.43
20
-69.028
11
142.316
21
-69.3436
0
LINE
8
BLACK
6
CONTINUOUS
10
142.316
20
-69.3436
11
142.1
21
-69.6009
0
LINE
8
BLACK
6
CONTINUOUS
10
142.1
20
-69.6009
11
141.809
21
-69.7689
0
LINE
8
BLACK
6
CONTINUOUS
10
141.809
20
-69.7689
11
141.478
21
-69.8272
0
LINE
8
BLACK
6
CONTINUOUS
10
141.478
20
-69.8272
11
141.147
21
-69.7689
0
LINE
8
BLACK
6
CONTINUOUS
10
141.147
20
-69.7689
11
140.856
21
-69.6009
0
LINE
8
BLACK
6
CONTINUOUS
10
140.856
20
-69.6009
11
140.64
21
-69.3436
0
LINE
8
BLACK
6
CONTINUOUS
10
140.64
20
-69.3436
11
140.525
21
-69.028
0
LINE
8
BLACK
6
CONTINUOUS
10
140.525
20
-69.028
11
140.525
21
-68.692
0
LINE
8
BLACK
6
CONTINUOUS
10
140.525
20
-68.692
11
140.64
21
-68.3764
0
LINE
8
BLACK
6
CONTINUOUS
10
140.64
20
-68.3764
11
140.856
21
-68.1191
0
LINE
8
BLACK
6
CONTINUOUS
10
140.856
20
-68.1191
11
141.147
21
-67.9511
0
LINE
8
BLACK
6
CONTINUOUS
10
141.147
20
-67.9511
11
141.478
21
-67.8928
0
LINE
8
BLACK
6
CONTINUOUS
10
141.478
20
-67.8928
11
141.809
21
-67.9511
0
LINE
8
BLACK
6
CONTINUOUS
10
196.165
20
-67.9511
11
196.456
21
-68.1191
0
LINE
8
BLACK
6
CONTINUOUS
10
196.456
20
-68.1191
11
196.672
21
-68.3764
0
LINE
8
BLACK
6
CONTINUOUS
10
196.672
20
-68.3764
11
196.786
21
-68.692
0
LINE
8
BLACK
6
CONTINUOUS
10
196.786
20
-68.692
11
196.786
21
-69.028
0
LINE
8
BLACK
6
CONTINUOUS
10
196.786
20
-69.028
11
196.672
21
-69.3436
0
LINE
8
BLACK
6
CONTINUOUS
10
196.672
20
-69.3436
11
196.456
21
-69.6009
0
LINE
8
BLACK
6
CONTINUOUS
10
196.456
20
-69.6009
11
196.165
21
-69.7689
0
LINE
8
BLACK
6
CONTINUOUS
10
196.165
20
-69.7689
11
195.834
21
-69.8272
0
LINE
8
BLACK
6
CONTINUOUS
10
195.834
20
-69.8272
11
195.503
21
-69.7689
0
LINE
8
BLACK
6
CONTINUOUS
10
195.503
20
-69.7689
11
195.212
21
-69.6009
0
LINE
8
BLACK
6
CONTINUOUS
10
195.212
20
-69.6009
11
194.996
21
-69.3436
0
LINE
8
BLACK
6
CONTINUOUS
10
194.996
20
-69.3436
11
194.881
21
-69.028
0
LINE
8
BLACK
6
CONTINUOUS
10
194.881
20
-69.028
11
194.881
21
-68.692
0
LINE
8
BLACK
6
CONTINUOUS
10
194.881
20
-68.692
11
194.996
21
-68.3764
0
LINE
8
BLACK
6
CONTINUOUS
10
194.996
20
-68.3764
11
195.212
21
-68.1191
0
LINE
8
BLACK
6
CONTINUOUS
10
195.212
20
-68.1191
11
195.503
21
-67.9511
0
LINE
8
BLACK
6
CONTINUOUS
10
195.503
20
-67.9511
11
195.834
21
-67.8928
0
LINE
8
BLACK
6
CONTINUOUS
10
195.834
20
-67.8928
11
196.165
21
-67.9511
0
LINE
8
BLACK
6
CONTINUOUS
10
212.534
20
-69.8125
11
210.629
21
-69.8125
0
LINE
8
BLACK
6
CONTINUOUS
10
210.629
20
-69.8125
11
210.629
21
-67.9075
0
LINE
8
BLACK
6
CONTINUOUS
10
210.629
20
-67.9075
11
212.534
21
-67.9075
0
LINE
8
BLACK
6
CONTINUOUS
10
212.534
20
-67.9075
11
212.534
21
-69.8125
0
LINE
8
BLACK
6
CONTINUOUS
10
194.246
20
-69.8125
11
192.341
21
-69.8125
0
LINE
8
BLACK
6
CONTINUOUS
10
192.341
20
-69.8125
11
192.341
21
-67.9075
0
LINE
8
BLACK
6
CONTINUOUS
10
192.341
20
-67.9075
11
194.246
21
-67.9075
0
LINE
8
BLACK
6
CONTINUOUS
10
194.246
20
-67.9075
11
194.246
21
-69.8125
0
LINE
8
BLACK
6
CONTINUOUS
10
121.602
20
-69.8125
11
119.697
21
-69.8125
0
LINE
8
BLACK
6
CONTINUOUS
10
119.697
20
-69.8125
11
119.697
21
-67.9075
0
LINE
8
BLACK
6
CONTINUOUS
10
119.697
20
-67.9075
11
121.602
21
-67.9075
0
LINE
8
BLACK
6
CONTINUOUS
10
121.602
20
-67.9075
11
121.602
21
-69.8125
0
LINE
8
BLACK
6
CONTINUOUS
10
158.178
20
-69.8125
11
156.273
21
-69.8125
0
LINE
8
BLACK
6
CONTINUOUS
10
156.273
20
-69.8125
11
156.273
21
-67.9075
0
LINE
8
BLACK
6
CONTINUOUS
10
156.273
20
-67.9075
11
158.178
21
-67.9075
0
LINE
8
BLACK
6
CONTINUOUS
10
158.178
20
-67.9075
11
158.178
21
-69.8125
0
LINE
8
BLACK
6
CONTINUOUS
10
176.466
20
-69.8125
11
174.561
21
-69.8125
0
LINE
8
BLACK
6
CONTINUOUS
10
174.561
20
-69.8125
11
174.561
21
-67.9075
0
LINE
8
BLACK
6
CONTINUOUS
10
174.561
20
-67.9075
11
176.466
21
-67.9075
0
LINE
8
BLACK
6
CONTINUOUS
10
176.466
20
-67.9075
11
176.466
21
-69.8125
0
LINE
8
BLACK
6
CONTINUOUS
10
139.891
20
-69.8125
11
137.986
21
-69.8125
0
LINE
8
BLACK
6
CONTINUOUS
10
137.986
20
-69.8125
11
137.986
21
-67.9075
0
LINE
8
BLACK
6
CONTINUOUS
10
137.986
20
-67.9075
11
139.891
21
-67.9075
0
LINE
8
BLACK
6
CONTINUOUS
10
139.891
20
-67.9075
11
139.891
21
-69.8125
0
LINE
8
BLACK
6
CONTINUOUS
10
125.468
20
-65.524
11
124.468
21
-65.524
0
LINE
8
BLACK
6
CONTINUOUS
10
124.468
20
-65.524
11
124.468
21
-64.524
0
LINE
8
BLACK
6
CONTINUOUS
10
124.468
20
-64.524
11
125.468
21
-64.524
0
LINE
8
BLACK
6
CONTINUOUS
10
125.468
20
-64.524
11
125.468
21
-65.524
0
LINE
8
BLACK
6
CONTINUOUS
10
143.756
20
-65.524
11
142.756
21
-65.524
0
LINE
8
BLACK
6
CONTINUOUS
10
142.756
20
-65.524
11
142.756
21
-64.524
0
LINE
8
BLACK
6
CONTINUOUS
10
142.756
20
-64.524
11
143.756
21
-64.524
0
LINE
8
BLACK
6
CONTINUOUS
10
143.756
20
-64.524
11
143.756
21
-65.524
0
LINE
8
BLACK
6
CONTINUOUS
10
162.044
20
-65.524
11
161.044
21
-65.524
0
LINE
8
BLACK
6
CONTINUOUS
10
161.044
20
-65.524
11
161.044
21
-64.524
0
LINE
8
BLACK
6
CONTINUOUS
10
161.044
20
-64.524
11
162.044
21
-64.524
0
LINE
8
BLACK
6
CONTINUOUS
10
162.044
20
-64.524
11
162.044
21
-65.524
0
LINE
8
BLACK
6
CONTINUOUS
10
216.4
20
-65.524
11
215.4
21
-65.524
0
LINE
8
BLACK
6
CONTINUOUS
10
215.4
20
-65.524
11
215.4
21
-64.524
0
LINE
8
BLACK
6
CONTINUOUS
10
215.4
20
-64.524
11
216.4
21
-64.524
0
LINE
8
BLACK
6
CONTINUOUS
10
216.4
20
-64.524
11
216.4
21
-65.524
0
LINE
8
BLACK
6
CONTINUOUS
10
222.496
20
-65.524
11
221.496
21
-65.524
0
LINE
8
BLACK
6
CONTINUOUS
10
221.496
20
-65.524
11
221.496
21
-64.524
0
LINE
8
BLACK
6
CONTINUOUS
10
221.496
20
-64.524
11
222.496
21
-64.524
0
LINE
8
BLACK
6
CONTINUOUS
10
222.496
20
-64.524
11
222.496
21
-65.524
0
LINE
8
BLACK
6
CONTINUOUS
10
180.332
20
-65.524
11
179.332
21
-65.524
0
LINE
8
BLACK
6
CONTINUOUS
10
179.332
20
-65.524
11
179.332
21
-64.524
0
LINE
8
BLACK
6
CONTINUOUS
10
179.332
20
-64.524
11
180.332
21
-64.524
0
LINE
8
BLACK
6
CONTINUOUS
10
180.332
20
-64.524
11
180.332
21
-65.524
0
LINE
8
BLACK
6
CONTINUOUS
10
198.112
20
-65.524
11
197.112
21
-65.524
0
LINE
8
BLACK
6
CONTINUOUS
10
197.112
20
-65.524
11
197.112
21
-64.524
0
LINE
8
BLACK
6
CONTINUOUS
10
197.112
20
-64.524
11
198.112
21
-64.524
0
LINE
8
BLACK
6
CONTINUOUS
10
198.112
20
-64.524
11
198.112
21
-65.524
  0
ENDSEC
  0
EOF
