  0
SECTION
  2
HEADER
  9
$ANGBASE
  50
0.0
  9
$ANGDIR
  70
  1
  9
$MEASUREMENT
  70
0
  0
ENDSEC
  0
SECTION
  2
TABLES
  0
TABLE
  2
LTYPE
  70
4
  0
LTYPE
  5
40F
  2
CONTINUOUS
  70
0
  3
Solid line
  72
65
  73
0
  40
0.0
  0
LTYPE
  5
410
  2
DASHDOT
 70
0
  3
Dash Dot ____ _ ____ _
 72
65
 73
4
 40
2.0
 49
1.25
 49
-0.25
 49
0.25
 49
-0.25
  0
LTYPE
  5
411
  2
DASHED
 70
0
  3
Dashed __ __ __ __ __
 72
65
 73
2
 40
0.75
 49
0.5
 49
-0.25
  0
LTYPE
  5
43B
  2
DOTTED
 70
0
  3
Dotted .  .  .  .
 72
65
 73
2
 40
0.2
 49
0.0
 49
-0.2
  0
ENDTAB
  0
TABLE
  2
STYLE
  70
4
  0
STYLE
  2
KICAD
  70
0
  40
0
  41
1
  42
1
  50
0
  71
0
  3
isocp.shx
  0
STYLE
  2
KICADB
  70
0
  40
0
  41
1
  42
1
  50
0
  71
0
  3
isocp.shx
  0
STYLE
  2
KICADI
  70
0
  40
0
  41
1
  42
1
  50
15
  71
0
  3
isocp.shx
  0
STYLE
  2
KICADBI
  70
0
  40
0
  41
1
  42
1
  50
15
  71
0
  3
isocp.shx
  0
ENDTAB
  0
TABLE
  2
LAYER
  70
30
  0
LAYER
  2
BLACK
  70
0
  62
7
  6
CONTINUOUS
  0
LAYER
  2
GRAY1
  70
0
  62
251
  6
CONTINUOUS
  0
LAYER
  2
GRAY2
  70
0
  62
8
  6
CONTINUOUS
  0
LAYER
  2
GRAY3
  70
0
  62
9
  6
CONTINUOUS
  0
LAYER
  2
WHITE
  70
0
  62
7
  6
CONTINUOUS
  0
LAYER
  2
LYELLOW
  70
0
  62
51
  6
CONTINUOUS
  0
LAYER
  2
BLUE1
  70
0
  62
178
  6
CONTINUOUS
  0
LAYER
  2
GREEN1
  70
0
  62
98
  6
CONTINUOUS
  0
LAYER
  2
CYAN1
  70
0
  62
138
  6
CONTINUOUS
  0
LAYER
  2
RED1
  70
0
  62
18
  6
CONTINUOUS
  0
LAYER
  2
MAGENTA1
  70
0
  62
228
  6
CONTINUOUS
  0
LAYER
  2
BROWN1
  70
0
  62
58
  6
CONTINUOUS
  0
LAYER
  2
BLUE2
  70
0
  62
5
  6
CONTINUOUS
  0
LAYER
  2
GREEN2
  70
0
  62
3
  6
CONTINUOUS
  0
LAYER
  2
CYAN2
  70
0
  62
4
  6
CONTINUOUS
  0
LAYER
  2
RED2
  70
0
  62
1
  6
CONTINUOUS
  0
LAYER
  2
MAGENTA2
  70
0
  62
6
  6
CONTINUOUS
  0
LAYER
  2
BROWN2
  70
0
  62
54
  6
CONTINUOUS
  0
LAYER
  2
BLUE3
  70
0
  62
171
  6
CONTINUOUS
  0
LAYER
  2
GREEN3
  70
0
  62
91
  6
CONTINUOUS
  0
LAYER
  2
CYAN3
  70
0
  62
131
  6
CONTINUOUS
  0
LAYER
  2
RED3
  70
0
  62
11
  6
CONTINUOUS
  0
LAYER
  2
MAGENTA3
  70
0
  62
221
  6
CONTINUOUS
  0
LAYER
  2
YELLOW3
  70
0
  62
2
  6
CONTINUOUS
  0
LAYER
  2
BLUE4
  70
0
  62
5
  6
CONTINUOUS
  0
LAYER
  2
GREEN4
  70
0
  62
3
  6
CONTINUOUS
  0
LAYER
  2
CYAN4
  70
0
  62
4
  6
CONTINUOUS
  0
LAYER
  2
RED4
  70
0
  62
1
  6
CONTINUOUS
  0
LAYER
  2
MAGENTA4
  70
0
  62
6
  6
CONTINUOUS
  0
LAYER
  2
YELLOW4
  70
0
  62
2
  6
CONTINUOUS
  0
ENDTAB
  0
ENDSEC
  0
SECTION
  2
ENTITIES
0
LINE
8
BLACK
6
CONTINUOUS
10
231.696
20
-83.833
11
231.696
21
-83.8374
0
LINE
8
BLACK
6
CONTINUOUS
10
231.696
20
-83.8374
11
231.693
21
-83.8412
0
LINE
8
BLACK
6
CONTINUOUS
10
231.693
20
-83.8412
11
231.692
21
-83.8454
0
LINE
8
BLACK
6
CONTINUOUS
10
231.692
20
-83.8454
11
231.689
21
-83.8488
0
LINE
8
BLACK
6
CONTINUOUS
10
231.689
20
-83.8488
11
231.687
21
-83.8526
0
LINE
8
BLACK
6
CONTINUOUS
10
231.687
20
-83.8526
11
231.683
21
-83.8555
0
LINE
8
BLACK
6
CONTINUOUS
10
231.683
20
-83.8555
11
231.681
21
-83.8589
0
LINE
8
BLACK
6
CONTINUOUS
10
231.681
20
-83.8589
11
231.677
21
-83.8611
0
LINE
8
BLACK
6
CONTINUOUS
10
231.677
20
-83.8611
11
231.673
21
-83.864
0
LINE
8
BLACK
6
CONTINUOUS
10
231.673
20
-83.864
11
231.669
21
-83.8655
0
LINE
8
BLACK
6
CONTINUOUS
10
231.669
20
-83.8655
11
231.665
21
-83.8677
0
LINE
8
BLACK
6
CONTINUOUS
10
231.665
20
-83.8677
11
231.661
21
-83.8685
0
LINE
8
BLACK
6
CONTINUOUS
10
231.661
20
-83.8685
11
231.657
21
-83.87
0
LINE
8
BLACK
6
CONTINUOUS
10
231.657
20
-83.87
11
105.147
21
-83.87
0
LINE
8
BLACK
6
CONTINUOUS
10
105.147
20
-83.87
11
105.143
21
-83.8685
0
LINE
8
BLACK
6
CONTINUOUS
10
105.143
20
-83.8685
11
105.139
21
-83.8677
0
LINE
8
BLACK
6
CONTINUOUS
10
105.139
20
-83.8677
11
105.135
21
-83.8655
0
LINE
8
BLACK
6
CONTINUOUS
10
105.135
20
-83.8655
11
105.131
21
-83.864
0
LINE
8
BLACK
6
CONTINUOUS
10
105.131
20
-83.864
11
105.127
21
-83.8611
0
LINE
8
BLACK
6
CONTINUOUS
10
105.127
20
-83.8611
11
105.123
21
-83.8589
0
LINE
8
BLACK
6
CONTINUOUS
10
105.123
20
-83.8589
11
105.121
21
-83.8555
0
LINE
8
BLACK
6
CONTINUOUS
10
105.121
20
-83.8555
11
105.117
21
-83.8526
0
LINE
8
BLACK
6
CONTINUOUS
10
105.117
20
-83.8526
11
105.115
21
-83.8488
0
LINE
8
BLACK
6
CONTINUOUS
10
105.115
20
-83.8488
11
105.112
21
-83.8454
0
LINE
8
BLACK
6
CONTINUOUS
10
105.112
20
-83.8454
11
105.111
21
-83.8412
0
LINE
8
BLACK
6
CONTINUOUS
10
105.111
20
-83.8412
11
105.108
21
-83.8374
0
LINE
8
BLACK
6
CONTINUOUS
10
105.108
20
-83.8374
11
105.108
21
-83.833
0
LINE
8
BLACK
6
CONTINUOUS
10
105.108
20
-83.833
11
105.106
21
-83.8288
0
LINE
8
BLACK
6
CONTINUOUS
10
105.106
20
-83.8288
11
105.106
21
-83.8112
0
LINE
8
BLACK
6
CONTINUOUS
10
105.106
20
-83.8112
11
105.106
21
-83.8112
0
LINE
8
BLACK
6
CONTINUOUS
10
105.106
20
-83.8112
11
105.106
21
-63.4956
0
LINE
8
BLACK
6
CONTINUOUS
10
105.106
20
-63.4956
11
105.106
21
-63.4912
0
LINE
8
BLACK
6
CONTINUOUS
10
105.106
20
-63.4912
11
105.108
21
-63.487
0
LINE
8
BLACK
6
CONTINUOUS
10
105.108
20
-63.487
11
105.108
21
-63.4826
0
LINE
8
BLACK
6
CONTINUOUS
10
105.108
20
-63.4826
11
105.111
21
-63.4788
0
LINE
8
BLACK
6
CONTINUOUS
10
105.111
20
-63.4788
11
105.112
21
-63.4746
0
LINE
8
BLACK
6
CONTINUOUS
10
105.112
20
-63.4746
11
105.115
21
-63.4712
0
LINE
8
BLACK
6
CONTINUOUS
10
105.115
20
-63.4712
11
105.117
21
-63.4674
0
LINE
8
BLACK
6
CONTINUOUS
10
105.117
20
-63.4674
11
105.121
21
-63.4645
0
LINE
8
BLACK
6
CONTINUOUS
10
105.121
20
-63.4645
11
105.123
21
-63.4611
0
LINE
8
BLACK
6
CONTINUOUS
10
105.123
20
-63.4611
11
105.127
21
-63.4589
0
LINE
8
BLACK
6
CONTINUOUS
10
105.127
20
-63.4589
11
105.131
21
-63.456
0
LINE
8
BLACK
6
CONTINUOUS
10
105.131
20
-63.456
11
105.135
21
-63.4545
0
LINE
8
BLACK
6
CONTINUOUS
10
105.135
20
-63.4545
11
105.139
21
-63.4523
0
LINE
8
BLACK
6
CONTINUOUS
10
105.139
20
-63.4523
11
105.143
21
-63.4515
0
LINE
8
BLACK
6
CONTINUOUS
10
105.143
20
-63.4515
11
105.147
21
-63.45
0
LINE
8
BLACK
6
CONTINUOUS
10
105.147
20
-63.45
11
231.657
21
-63.45
0
LINE
8
BLACK
6
CONTINUOUS
10
231.657
20
-63.45
11
231.661
21
-63.4515
0
LINE
8
BLACK
6
CONTINUOUS
10
231.661
20
-63.4515
11
231.665
21
-63.4523
0
LINE
8
BLACK
6
CONTINUOUS
10
231.665
20
-63.4523
11
231.669
21
-63.4545
0
LINE
8
BLACK
6
CONTINUOUS
10
231.669
20
-63.4545
11
231.673
21
-63.456
0
LINE
8
BLACK
6
CONTINUOUS
10
231.673
20
-63.456
11
231.677
21
-63.4589
0
LINE
8
BLACK
6
CONTINUOUS
10
231.677
20
-63.4589
11
231.681
21
-63.4611
0
LINE
8
BLACK
6
CONTINUOUS
10
231.681
20
-63.4611
11
231.683
21
-63.4645
0
LINE
8
BLACK
6
CONTINUOUS
10
231.683
20
-63.4645
11
231.687
21
-63.4674
0
LINE
8
BLACK
6
CONTINUOUS
10
231.687
20
-63.4674
11
231.689
21
-63.4712
0
LINE
8
BLACK
6
CONTINUOUS
10
231.689
20
-63.4712
11
231.692
21
-63.4746
0
LINE
8
BLACK
6
CONTINUOUS
10
231.692
20
-63.4746
11
231.693
21
-63.4788
0
LINE
8
BLACK
6
CONTINUOUS
10
231.693
20
-63.4788
11
231.696
21
-63.4826
0
LINE
8
BLACK
6
CONTINUOUS
10
231.696
20
-63.4826
11
231.696
21
-63.487
0
LINE
8
BLACK
6
CONTINUOUS
10
231.696
20
-63.487
11
231.698
21
-63.4912
0
LINE
8
BLACK
6
CONTINUOUS
10
231.698
20
-63.4912
11
231.698
21
-83.8288
0
LINE
8
BLACK
6
CONTINUOUS
10
231.698
20
-83.8288
11
231.696
21
-83.833
0
LINE
8
BLACK
6
CONTINUOUS
10
105.206
20
-83.77
11
231.598
21
-83.77
0
LINE
8
BLACK
6
CONTINUOUS
10
231.598
20
-83.77
11
231.598
21
-63.55
0
LINE
8
BLACK
6
CONTINUOUS
10
231.598
20
-63.55
11
105.206
21
-63.55
0
LINE
8
BLACK
6
CONTINUOUS
10
105.206
20
-63.55
11
105.206
21
-83.77
  0
ENDSEC
  0
EOF
