G04 #@! TF.GenerationSoftware,KiCad,Pcbnew,(5.0.0)*
G04 #@! TF.CreationDate,2018-08-10T22:40:29+09:00*
G04 #@! TF.ProjectId,keyborad,6B6579626F7261642E6B696361645F70,rev?*
G04 #@! TF.SameCoordinates,Original*
G04 #@! TF.FileFunction,Legend,Top*
G04 #@! TF.FilePolarity,Positive*
%FSLAX46Y46*%
G04 Gerber Fmt 4.6, Leading zero omitted, Abs format (unit mm)*
G04 Created by KiCad (PCBNEW (5.0.0)) date 08/10/18 22:40:29*
%MOMM*%
%LPD*%
G01*
G04 APERTURE LIST*
%ADD10C,0.150000*%
%ADD11C,0.203200*%
%ADD12C,0.120000*%
G04 APERTURE END LIST*
D10*
G04 #@! TO.C,D1*
X129964000Y-74560000D02*
X132164000Y-74560000D01*
X132164000Y-74760000D02*
X129964000Y-74760000D01*
X132064000Y-74960000D02*
X132164000Y-74960000D01*
X132164000Y-74960000D02*
X132064000Y-74960000D01*
X129964000Y-74960000D02*
X132064000Y-74960000D01*
D11*
X132207000Y-72136000D02*
X132207000Y-75184000D01*
X132207000Y-75184000D02*
X129921000Y-75184000D01*
X129921000Y-75184000D02*
X129921000Y-72136000D01*
X129921000Y-72136000D02*
X132207000Y-72136000D01*
D10*
G04 #@! TO.C,D2*
X148252000Y-74560000D02*
X150452000Y-74560000D01*
X150452000Y-74760000D02*
X148252000Y-74760000D01*
X150352000Y-74960000D02*
X150452000Y-74960000D01*
X150452000Y-74960000D02*
X150352000Y-74960000D01*
X148252000Y-74960000D02*
X150352000Y-74960000D01*
D11*
X150495000Y-72136000D02*
X150495000Y-75184000D01*
X150495000Y-75184000D02*
X148209000Y-75184000D01*
X148209000Y-75184000D02*
X148209000Y-72136000D01*
X148209000Y-72136000D02*
X150495000Y-72136000D01*
D10*
G04 #@! TO.C,D3*
X166540000Y-74560000D02*
X168740000Y-74560000D01*
X168740000Y-74760000D02*
X166540000Y-74760000D01*
X168640000Y-74960000D02*
X168740000Y-74960000D01*
X168740000Y-74960000D02*
X168640000Y-74960000D01*
X166540000Y-74960000D02*
X168640000Y-74960000D01*
D11*
X168783000Y-72136000D02*
X168783000Y-75184000D01*
X168783000Y-75184000D02*
X166497000Y-75184000D01*
X166497000Y-75184000D02*
X166497000Y-72136000D01*
X166497000Y-72136000D02*
X168783000Y-72136000D01*
D10*
G04 #@! TO.C,D4*
X184828000Y-74560000D02*
X187028000Y-74560000D01*
X187028000Y-74760000D02*
X184828000Y-74760000D01*
X186928000Y-74960000D02*
X187028000Y-74960000D01*
X187028000Y-74960000D02*
X186928000Y-74960000D01*
X184828000Y-74960000D02*
X186928000Y-74960000D01*
D11*
X187071000Y-72136000D02*
X187071000Y-75184000D01*
X187071000Y-75184000D02*
X184785000Y-75184000D01*
X184785000Y-75184000D02*
X184785000Y-72136000D01*
X184785000Y-72136000D02*
X187071000Y-72136000D01*
D10*
G04 #@! TO.C,D5*
X202608000Y-74560000D02*
X204808000Y-74560000D01*
X204808000Y-74760000D02*
X202608000Y-74760000D01*
X204708000Y-74960000D02*
X204808000Y-74960000D01*
X204808000Y-74960000D02*
X204708000Y-74960000D01*
X202608000Y-74960000D02*
X204708000Y-74960000D01*
D11*
X204851000Y-72136000D02*
X204851000Y-75184000D01*
X204851000Y-75184000D02*
X202565000Y-75184000D01*
X202565000Y-75184000D02*
X202565000Y-72136000D01*
X202565000Y-72136000D02*
X204851000Y-72136000D01*
D10*
G04 #@! TO.C,D6*
X220896000Y-74560000D02*
X223096000Y-74560000D01*
X223096000Y-74760000D02*
X220896000Y-74760000D01*
X222996000Y-74960000D02*
X223096000Y-74960000D01*
X223096000Y-74960000D02*
X222996000Y-74960000D01*
X220896000Y-74960000D02*
X222996000Y-74960000D01*
D11*
X223139000Y-72136000D02*
X223139000Y-75184000D01*
X223139000Y-75184000D02*
X220853000Y-75184000D01*
X220853000Y-75184000D02*
X220853000Y-72136000D01*
X220853000Y-72136000D02*
X223139000Y-72136000D01*
D12*
G04 #@! TO.C,P1*
X123858000Y-65784000D02*
X126078000Y-65784000D01*
X123858000Y-65784000D02*
X123858000Y-65719000D01*
X126078000Y-65784000D02*
X126078000Y-65719000D01*
X123858000Y-65784000D02*
X124404529Y-65784000D01*
X125531471Y-65784000D02*
X126078000Y-65784000D01*
X123858000Y-65024000D02*
X123858000Y-64264000D01*
X123858000Y-64264000D02*
X124968000Y-64264000D01*
G04 #@! TO.C,P2*
X142146000Y-65784000D02*
X144366000Y-65784000D01*
X142146000Y-65784000D02*
X142146000Y-65719000D01*
X144366000Y-65784000D02*
X144366000Y-65719000D01*
X142146000Y-65784000D02*
X142692529Y-65784000D01*
X143819471Y-65784000D02*
X144366000Y-65784000D01*
X142146000Y-65024000D02*
X142146000Y-64264000D01*
X142146000Y-64264000D02*
X143256000Y-64264000D01*
G04 #@! TO.C,P3*
X160434000Y-65784000D02*
X162654000Y-65784000D01*
X160434000Y-65784000D02*
X160434000Y-65719000D01*
X162654000Y-65784000D02*
X162654000Y-65719000D01*
X160434000Y-65784000D02*
X160980529Y-65784000D01*
X162107471Y-65784000D02*
X162654000Y-65784000D01*
X160434000Y-65024000D02*
X160434000Y-64264000D01*
X160434000Y-64264000D02*
X161544000Y-64264000D01*
G04 #@! TO.C,P4*
X178722000Y-83056000D02*
X180942000Y-83056000D01*
X178722000Y-83056000D02*
X178722000Y-82991000D01*
X180942000Y-83056000D02*
X180942000Y-82991000D01*
X178722000Y-83056000D02*
X179268529Y-83056000D01*
X180395471Y-83056000D02*
X180942000Y-83056000D01*
X178722000Y-82296000D02*
X178722000Y-81536000D01*
X178722000Y-81536000D02*
X179832000Y-81536000D01*
G04 #@! TO.C,P5*
X196502000Y-83056000D02*
X198722000Y-83056000D01*
X196502000Y-83056000D02*
X196502000Y-82991000D01*
X198722000Y-83056000D02*
X198722000Y-82991000D01*
X196502000Y-83056000D02*
X197048529Y-83056000D01*
X198175471Y-83056000D02*
X198722000Y-83056000D01*
X196502000Y-82296000D02*
X196502000Y-81536000D01*
X196502000Y-81536000D02*
X197612000Y-81536000D01*
G04 #@! TO.C,P6*
X214790000Y-65784000D02*
X217010000Y-65784000D01*
X214790000Y-65784000D02*
X214790000Y-65719000D01*
X217010000Y-65784000D02*
X217010000Y-65719000D01*
X214790000Y-65784000D02*
X215336529Y-65784000D01*
X216463471Y-65784000D02*
X217010000Y-65784000D01*
X214790000Y-65024000D02*
X214790000Y-64264000D01*
X214790000Y-64264000D02*
X215900000Y-64264000D01*
G04 #@! TO.C,P7*
X220886000Y-65784000D02*
X223106000Y-65784000D01*
X220886000Y-65784000D02*
X220886000Y-65719000D01*
X223106000Y-65784000D02*
X223106000Y-65719000D01*
X220886000Y-65784000D02*
X221432529Y-65784000D01*
X222559471Y-65784000D02*
X223106000Y-65784000D01*
X220886000Y-65024000D02*
X220886000Y-64264000D01*
X220886000Y-64264000D02*
X221996000Y-64264000D01*
G04 #@! TO.C,P8*
X123858000Y-83056000D02*
X126078000Y-83056000D01*
X123858000Y-83056000D02*
X123858000Y-82991000D01*
X126078000Y-83056000D02*
X126078000Y-82991000D01*
X123858000Y-83056000D02*
X124404529Y-83056000D01*
X125531471Y-83056000D02*
X126078000Y-83056000D01*
X123858000Y-82296000D02*
X123858000Y-81536000D01*
X123858000Y-81536000D02*
X124968000Y-81536000D01*
G04 #@! TO.C,P9*
X142146000Y-83056000D02*
X144366000Y-83056000D01*
X142146000Y-83056000D02*
X142146000Y-82991000D01*
X144366000Y-83056000D02*
X144366000Y-82991000D01*
X142146000Y-83056000D02*
X142692529Y-83056000D01*
X143819471Y-83056000D02*
X144366000Y-83056000D01*
X142146000Y-82296000D02*
X142146000Y-81536000D01*
X142146000Y-81536000D02*
X143256000Y-81536000D01*
G04 #@! TO.C,P10*
X160434000Y-83056000D02*
X162654000Y-83056000D01*
X160434000Y-83056000D02*
X160434000Y-82991000D01*
X162654000Y-83056000D02*
X162654000Y-82991000D01*
X160434000Y-83056000D02*
X160980529Y-83056000D01*
X162107471Y-83056000D02*
X162654000Y-83056000D01*
X160434000Y-82296000D02*
X160434000Y-81536000D01*
X160434000Y-81536000D02*
X161544000Y-81536000D01*
G04 #@! TO.C,P11*
X178722000Y-65784000D02*
X180942000Y-65784000D01*
X178722000Y-65784000D02*
X178722000Y-65719000D01*
X180942000Y-65784000D02*
X180942000Y-65719000D01*
X178722000Y-65784000D02*
X179268529Y-65784000D01*
X180395471Y-65784000D02*
X180942000Y-65784000D01*
X178722000Y-65024000D02*
X178722000Y-64264000D01*
X178722000Y-64264000D02*
X179832000Y-64264000D01*
G04 #@! TO.C,P12*
X196502000Y-65784000D02*
X198722000Y-65784000D01*
X196502000Y-65784000D02*
X196502000Y-65719000D01*
X198722000Y-65784000D02*
X198722000Y-65719000D01*
X196502000Y-65784000D02*
X197048529Y-65784000D01*
X198175471Y-65784000D02*
X198722000Y-65784000D01*
X196502000Y-65024000D02*
X196502000Y-64264000D01*
X196502000Y-64264000D02*
X197612000Y-64264000D01*
G04 #@! TO.C,P13*
X214790000Y-83056000D02*
X217010000Y-83056000D01*
X214790000Y-83056000D02*
X214790000Y-82991000D01*
X217010000Y-83056000D02*
X217010000Y-82991000D01*
X214790000Y-83056000D02*
X215336529Y-83056000D01*
X216463471Y-83056000D02*
X217010000Y-83056000D01*
X214790000Y-82296000D02*
X214790000Y-81536000D01*
X214790000Y-81536000D02*
X215900000Y-81536000D01*
G04 #@! TO.C,D1*
D11*
X131638523Y-74784857D02*
X130368523Y-74784857D01*
X130368523Y-74422000D01*
X130429000Y-74204285D01*
X130549952Y-74059142D01*
X130670904Y-73986571D01*
X130912809Y-73914000D01*
X131094238Y-73914000D01*
X131336142Y-73986571D01*
X131457095Y-74059142D01*
X131578047Y-74204285D01*
X131638523Y-74422000D01*
X131638523Y-74784857D01*
X131638523Y-72462571D02*
X131638523Y-73333428D01*
X131638523Y-72898000D02*
X130368523Y-72898000D01*
X130549952Y-73043142D01*
X130670904Y-73188285D01*
X130731380Y-73333428D01*
G04 #@! TO.C,D2*
X149926523Y-74784857D02*
X148656523Y-74784857D01*
X148656523Y-74422000D01*
X148717000Y-74204285D01*
X148837952Y-74059142D01*
X148958904Y-73986571D01*
X149200809Y-73914000D01*
X149382238Y-73914000D01*
X149624142Y-73986571D01*
X149745095Y-74059142D01*
X149866047Y-74204285D01*
X149926523Y-74422000D01*
X149926523Y-74784857D01*
X148777476Y-73333428D02*
X148717000Y-73260857D01*
X148656523Y-73115714D01*
X148656523Y-72752857D01*
X148717000Y-72607714D01*
X148777476Y-72535142D01*
X148898428Y-72462571D01*
X149019380Y-72462571D01*
X149200809Y-72535142D01*
X149926523Y-73406000D01*
X149926523Y-72462571D01*
G04 #@! TO.C,D3*
X168214523Y-74784857D02*
X166944523Y-74784857D01*
X166944523Y-74422000D01*
X167005000Y-74204285D01*
X167125952Y-74059142D01*
X167246904Y-73986571D01*
X167488809Y-73914000D01*
X167670238Y-73914000D01*
X167912142Y-73986571D01*
X168033095Y-74059142D01*
X168154047Y-74204285D01*
X168214523Y-74422000D01*
X168214523Y-74784857D01*
X166944523Y-73406000D02*
X166944523Y-72462571D01*
X167428333Y-72970571D01*
X167428333Y-72752857D01*
X167488809Y-72607714D01*
X167549285Y-72535142D01*
X167670238Y-72462571D01*
X167972619Y-72462571D01*
X168093571Y-72535142D01*
X168154047Y-72607714D01*
X168214523Y-72752857D01*
X168214523Y-73188285D01*
X168154047Y-73333428D01*
X168093571Y-73406000D01*
G04 #@! TO.C,D4*
X186502523Y-74784857D02*
X185232523Y-74784857D01*
X185232523Y-74422000D01*
X185293000Y-74204285D01*
X185413952Y-74059142D01*
X185534904Y-73986571D01*
X185776809Y-73914000D01*
X185958238Y-73914000D01*
X186200142Y-73986571D01*
X186321095Y-74059142D01*
X186442047Y-74204285D01*
X186502523Y-74422000D01*
X186502523Y-74784857D01*
X185655857Y-72607714D02*
X186502523Y-72607714D01*
X185172047Y-72970571D02*
X186079190Y-73333428D01*
X186079190Y-72390000D01*
G04 #@! TO.C,D5*
X204282523Y-74784857D02*
X203012523Y-74784857D01*
X203012523Y-74422000D01*
X203073000Y-74204285D01*
X203193952Y-74059142D01*
X203314904Y-73986571D01*
X203556809Y-73914000D01*
X203738238Y-73914000D01*
X203980142Y-73986571D01*
X204101095Y-74059142D01*
X204222047Y-74204285D01*
X204282523Y-74422000D01*
X204282523Y-74784857D01*
X203012523Y-72535142D02*
X203012523Y-73260857D01*
X203617285Y-73333428D01*
X203556809Y-73260857D01*
X203496333Y-73115714D01*
X203496333Y-72752857D01*
X203556809Y-72607714D01*
X203617285Y-72535142D01*
X203738238Y-72462571D01*
X204040619Y-72462571D01*
X204161571Y-72535142D01*
X204222047Y-72607714D01*
X204282523Y-72752857D01*
X204282523Y-73115714D01*
X204222047Y-73260857D01*
X204161571Y-73333428D01*
G04 #@! TO.C,D6*
X222570523Y-74784857D02*
X221300523Y-74784857D01*
X221300523Y-74422000D01*
X221361000Y-74204285D01*
X221481952Y-74059142D01*
X221602904Y-73986571D01*
X221844809Y-73914000D01*
X222026238Y-73914000D01*
X222268142Y-73986571D01*
X222389095Y-74059142D01*
X222510047Y-74204285D01*
X222570523Y-74422000D01*
X222570523Y-74784857D01*
X221300523Y-72607714D02*
X221300523Y-72898000D01*
X221361000Y-73043142D01*
X221421476Y-73115714D01*
X221602904Y-73260857D01*
X221844809Y-73333428D01*
X222328619Y-73333428D01*
X222449571Y-73260857D01*
X222510047Y-73188285D01*
X222570523Y-73043142D01*
X222570523Y-72752857D01*
X222510047Y-72607714D01*
X222449571Y-72535142D01*
X222328619Y-72462571D01*
X222026238Y-72462571D01*
X221905285Y-72535142D01*
X221844809Y-72607714D01*
X221784333Y-72752857D01*
X221784333Y-73043142D01*
X221844809Y-73188285D01*
X221905285Y-73260857D01*
X222026238Y-73333428D01*
G04 #@! TO.C,H1*
D10*
X108458095Y-69404380D02*
X108458095Y-68404380D01*
X108458095Y-68880571D02*
X109029523Y-68880571D01*
X109029523Y-69404380D02*
X109029523Y-68404380D01*
X110029523Y-69404380D02*
X109458095Y-69404380D01*
X109743809Y-69404380D02*
X109743809Y-68404380D01*
X109648571Y-68547238D01*
X109553333Y-68642476D01*
X109458095Y-68690095D01*
G04 #@! TO.C,H2*
X226822095Y-69912380D02*
X226822095Y-68912380D01*
X226822095Y-69388571D02*
X227393523Y-69388571D01*
X227393523Y-69912380D02*
X227393523Y-68912380D01*
X227822095Y-69007619D02*
X227869714Y-68960000D01*
X227964952Y-68912380D01*
X228203047Y-68912380D01*
X228298285Y-68960000D01*
X228345904Y-69007619D01*
X228393523Y-69102857D01*
X228393523Y-69198095D01*
X228345904Y-69340952D01*
X227774476Y-69912380D01*
X228393523Y-69912380D01*
G04 #@! TO.C,SW1*
X120279047Y-70731428D02*
X121040952Y-70731428D01*
X122809047Y-70731428D02*
X123570952Y-70731428D01*
X123190000Y-71112380D02*
X123190000Y-70350476D01*
G04 #@! TO.C,SW2*
X138567047Y-70731428D02*
X139328952Y-70731428D01*
X141097047Y-70731428D02*
X141858952Y-70731428D01*
X141478000Y-71112380D02*
X141478000Y-70350476D01*
G04 #@! TO.C,SW3*
X156855047Y-70731428D02*
X157616952Y-70731428D01*
X159385047Y-70731428D02*
X160146952Y-70731428D01*
X159766000Y-71112380D02*
X159766000Y-70350476D01*
G04 #@! TO.C,SW4*
X175143047Y-70731428D02*
X175904952Y-70731428D01*
X177673047Y-70731428D02*
X178434952Y-70731428D01*
X178054000Y-71112380D02*
X178054000Y-70350476D01*
G04 #@! TO.C,SW5*
X192923047Y-70731428D02*
X193684952Y-70731428D01*
X195453047Y-70731428D02*
X196214952Y-70731428D01*
X195834000Y-71112380D02*
X195834000Y-70350476D01*
G04 #@! TO.C,SW6*
X211211047Y-70731428D02*
X211972952Y-70731428D01*
X213741047Y-70731428D02*
X214502952Y-70731428D01*
X214122000Y-71112380D02*
X214122000Y-70350476D01*
G04 #@! TO.C,P1*
X124229904Y-63781380D02*
X124229904Y-62781380D01*
X124610857Y-62781380D01*
X124706095Y-62829000D01*
X124753714Y-62876619D01*
X124801333Y-62971857D01*
X124801333Y-63114714D01*
X124753714Y-63209952D01*
X124706095Y-63257571D01*
X124610857Y-63305190D01*
X124229904Y-63305190D01*
X125753714Y-63781380D02*
X125182285Y-63781380D01*
X125468000Y-63781380D02*
X125468000Y-62781380D01*
X125372761Y-62924238D01*
X125277523Y-63019476D01*
X125182285Y-63067095D01*
G04 #@! TO.C,P2*
X142517904Y-63781380D02*
X142517904Y-62781380D01*
X142898857Y-62781380D01*
X142994095Y-62829000D01*
X143041714Y-62876619D01*
X143089333Y-62971857D01*
X143089333Y-63114714D01*
X143041714Y-63209952D01*
X142994095Y-63257571D01*
X142898857Y-63305190D01*
X142517904Y-63305190D01*
X143470285Y-62876619D02*
X143517904Y-62829000D01*
X143613142Y-62781380D01*
X143851238Y-62781380D01*
X143946476Y-62829000D01*
X143994095Y-62876619D01*
X144041714Y-62971857D01*
X144041714Y-63067095D01*
X143994095Y-63209952D01*
X143422666Y-63781380D01*
X144041714Y-63781380D01*
G04 #@! TO.C,P3*
X160805904Y-63781380D02*
X160805904Y-62781380D01*
X161186857Y-62781380D01*
X161282095Y-62829000D01*
X161329714Y-62876619D01*
X161377333Y-62971857D01*
X161377333Y-63114714D01*
X161329714Y-63209952D01*
X161282095Y-63257571D01*
X161186857Y-63305190D01*
X160805904Y-63305190D01*
X161710666Y-62781380D02*
X162329714Y-62781380D01*
X161996380Y-63162333D01*
X162139238Y-63162333D01*
X162234476Y-63209952D01*
X162282095Y-63257571D01*
X162329714Y-63352809D01*
X162329714Y-63590904D01*
X162282095Y-63686142D01*
X162234476Y-63733761D01*
X162139238Y-63781380D01*
X161853523Y-63781380D01*
X161758285Y-63733761D01*
X161710666Y-63686142D01*
G04 #@! TO.C,P4*
X179093904Y-81053380D02*
X179093904Y-80053380D01*
X179474857Y-80053380D01*
X179570095Y-80101000D01*
X179617714Y-80148619D01*
X179665333Y-80243857D01*
X179665333Y-80386714D01*
X179617714Y-80481952D01*
X179570095Y-80529571D01*
X179474857Y-80577190D01*
X179093904Y-80577190D01*
X180522476Y-80386714D02*
X180522476Y-81053380D01*
X180284380Y-80005761D02*
X180046285Y-80720047D01*
X180665333Y-80720047D01*
G04 #@! TO.C,P5*
X196873904Y-81053380D02*
X196873904Y-80053380D01*
X197254857Y-80053380D01*
X197350095Y-80101000D01*
X197397714Y-80148619D01*
X197445333Y-80243857D01*
X197445333Y-80386714D01*
X197397714Y-80481952D01*
X197350095Y-80529571D01*
X197254857Y-80577190D01*
X196873904Y-80577190D01*
X198350095Y-80053380D02*
X197873904Y-80053380D01*
X197826285Y-80529571D01*
X197873904Y-80481952D01*
X197969142Y-80434333D01*
X198207238Y-80434333D01*
X198302476Y-80481952D01*
X198350095Y-80529571D01*
X198397714Y-80624809D01*
X198397714Y-80862904D01*
X198350095Y-80958142D01*
X198302476Y-81005761D01*
X198207238Y-81053380D01*
X197969142Y-81053380D01*
X197873904Y-81005761D01*
X197826285Y-80958142D01*
G04 #@! TO.C,P6*
X215161904Y-63781380D02*
X215161904Y-62781380D01*
X215542857Y-62781380D01*
X215638095Y-62829000D01*
X215685714Y-62876619D01*
X215733333Y-62971857D01*
X215733333Y-63114714D01*
X215685714Y-63209952D01*
X215638095Y-63257571D01*
X215542857Y-63305190D01*
X215161904Y-63305190D01*
X216590476Y-62781380D02*
X216400000Y-62781380D01*
X216304761Y-62829000D01*
X216257142Y-62876619D01*
X216161904Y-63019476D01*
X216114285Y-63209952D01*
X216114285Y-63590904D01*
X216161904Y-63686142D01*
X216209523Y-63733761D01*
X216304761Y-63781380D01*
X216495238Y-63781380D01*
X216590476Y-63733761D01*
X216638095Y-63686142D01*
X216685714Y-63590904D01*
X216685714Y-63352809D01*
X216638095Y-63257571D01*
X216590476Y-63209952D01*
X216495238Y-63162333D01*
X216304761Y-63162333D01*
X216209523Y-63209952D01*
X216161904Y-63257571D01*
X216114285Y-63352809D01*
G04 #@! TO.C,P7*
X221257904Y-63781380D02*
X221257904Y-62781380D01*
X221638857Y-62781380D01*
X221734095Y-62829000D01*
X221781714Y-62876619D01*
X221829333Y-62971857D01*
X221829333Y-63114714D01*
X221781714Y-63209952D01*
X221734095Y-63257571D01*
X221638857Y-63305190D01*
X221257904Y-63305190D01*
X222162666Y-62781380D02*
X222829333Y-62781380D01*
X222400761Y-63781380D01*
G04 #@! TO.C,P8*
X124229904Y-81053380D02*
X124229904Y-80053380D01*
X124610857Y-80053380D01*
X124706095Y-80101000D01*
X124753714Y-80148619D01*
X124801333Y-80243857D01*
X124801333Y-80386714D01*
X124753714Y-80481952D01*
X124706095Y-80529571D01*
X124610857Y-80577190D01*
X124229904Y-80577190D01*
X125372761Y-80481952D02*
X125277523Y-80434333D01*
X125229904Y-80386714D01*
X125182285Y-80291476D01*
X125182285Y-80243857D01*
X125229904Y-80148619D01*
X125277523Y-80101000D01*
X125372761Y-80053380D01*
X125563238Y-80053380D01*
X125658476Y-80101000D01*
X125706095Y-80148619D01*
X125753714Y-80243857D01*
X125753714Y-80291476D01*
X125706095Y-80386714D01*
X125658476Y-80434333D01*
X125563238Y-80481952D01*
X125372761Y-80481952D01*
X125277523Y-80529571D01*
X125229904Y-80577190D01*
X125182285Y-80672428D01*
X125182285Y-80862904D01*
X125229904Y-80958142D01*
X125277523Y-81005761D01*
X125372761Y-81053380D01*
X125563238Y-81053380D01*
X125658476Y-81005761D01*
X125706095Y-80958142D01*
X125753714Y-80862904D01*
X125753714Y-80672428D01*
X125706095Y-80577190D01*
X125658476Y-80529571D01*
X125563238Y-80481952D01*
G04 #@! TO.C,P9*
X142517904Y-81053380D02*
X142517904Y-80053380D01*
X142898857Y-80053380D01*
X142994095Y-80101000D01*
X143041714Y-80148619D01*
X143089333Y-80243857D01*
X143089333Y-80386714D01*
X143041714Y-80481952D01*
X142994095Y-80529571D01*
X142898857Y-80577190D01*
X142517904Y-80577190D01*
X143565523Y-81053380D02*
X143756000Y-81053380D01*
X143851238Y-81005761D01*
X143898857Y-80958142D01*
X143994095Y-80815285D01*
X144041714Y-80624809D01*
X144041714Y-80243857D01*
X143994095Y-80148619D01*
X143946476Y-80101000D01*
X143851238Y-80053380D01*
X143660761Y-80053380D01*
X143565523Y-80101000D01*
X143517904Y-80148619D01*
X143470285Y-80243857D01*
X143470285Y-80481952D01*
X143517904Y-80577190D01*
X143565523Y-80624809D01*
X143660761Y-80672428D01*
X143851238Y-80672428D01*
X143946476Y-80624809D01*
X143994095Y-80577190D01*
X144041714Y-80481952D01*
G04 #@! TO.C,P10*
X160329714Y-81053380D02*
X160329714Y-80053380D01*
X160710666Y-80053380D01*
X160805904Y-80101000D01*
X160853523Y-80148619D01*
X160901142Y-80243857D01*
X160901142Y-80386714D01*
X160853523Y-80481952D01*
X160805904Y-80529571D01*
X160710666Y-80577190D01*
X160329714Y-80577190D01*
X161853523Y-81053380D02*
X161282095Y-81053380D01*
X161567809Y-81053380D02*
X161567809Y-80053380D01*
X161472571Y-80196238D01*
X161377333Y-80291476D01*
X161282095Y-80339095D01*
X162472571Y-80053380D02*
X162567809Y-80053380D01*
X162663047Y-80101000D01*
X162710666Y-80148619D01*
X162758285Y-80243857D01*
X162805904Y-80434333D01*
X162805904Y-80672428D01*
X162758285Y-80862904D01*
X162710666Y-80958142D01*
X162663047Y-81005761D01*
X162567809Y-81053380D01*
X162472571Y-81053380D01*
X162377333Y-81005761D01*
X162329714Y-80958142D01*
X162282095Y-80862904D01*
X162234476Y-80672428D01*
X162234476Y-80434333D01*
X162282095Y-80243857D01*
X162329714Y-80148619D01*
X162377333Y-80101000D01*
X162472571Y-80053380D01*
G04 #@! TO.C,P11*
X178617714Y-63781380D02*
X178617714Y-62781380D01*
X178998666Y-62781380D01*
X179093904Y-62829000D01*
X179141523Y-62876619D01*
X179189142Y-62971857D01*
X179189142Y-63114714D01*
X179141523Y-63209952D01*
X179093904Y-63257571D01*
X178998666Y-63305190D01*
X178617714Y-63305190D01*
X180141523Y-63781380D02*
X179570095Y-63781380D01*
X179855809Y-63781380D02*
X179855809Y-62781380D01*
X179760571Y-62924238D01*
X179665333Y-63019476D01*
X179570095Y-63067095D01*
X181093904Y-63781380D02*
X180522476Y-63781380D01*
X180808190Y-63781380D02*
X180808190Y-62781380D01*
X180712952Y-62924238D01*
X180617714Y-63019476D01*
X180522476Y-63067095D01*
G04 #@! TO.C,P12*
X196397714Y-63781380D02*
X196397714Y-62781380D01*
X196778666Y-62781380D01*
X196873904Y-62829000D01*
X196921523Y-62876619D01*
X196969142Y-62971857D01*
X196969142Y-63114714D01*
X196921523Y-63209952D01*
X196873904Y-63257571D01*
X196778666Y-63305190D01*
X196397714Y-63305190D01*
X197921523Y-63781380D02*
X197350095Y-63781380D01*
X197635809Y-63781380D02*
X197635809Y-62781380D01*
X197540571Y-62924238D01*
X197445333Y-63019476D01*
X197350095Y-63067095D01*
X198302476Y-62876619D02*
X198350095Y-62829000D01*
X198445333Y-62781380D01*
X198683428Y-62781380D01*
X198778666Y-62829000D01*
X198826285Y-62876619D01*
X198873904Y-62971857D01*
X198873904Y-63067095D01*
X198826285Y-63209952D01*
X198254857Y-63781380D01*
X198873904Y-63781380D01*
G04 #@! TO.C,P13*
X214685714Y-81053380D02*
X214685714Y-80053380D01*
X215066666Y-80053380D01*
X215161904Y-80101000D01*
X215209523Y-80148619D01*
X215257142Y-80243857D01*
X215257142Y-80386714D01*
X215209523Y-80481952D01*
X215161904Y-80529571D01*
X215066666Y-80577190D01*
X214685714Y-80577190D01*
X216209523Y-81053380D02*
X215638095Y-81053380D01*
X215923809Y-81053380D02*
X215923809Y-80053380D01*
X215828571Y-80196238D01*
X215733333Y-80291476D01*
X215638095Y-80339095D01*
X216542857Y-80053380D02*
X217161904Y-80053380D01*
X216828571Y-80434333D01*
X216971428Y-80434333D01*
X217066666Y-80481952D01*
X217114285Y-80529571D01*
X217161904Y-80624809D01*
X217161904Y-80862904D01*
X217114285Y-80958142D01*
X217066666Y-81005761D01*
X216971428Y-81053380D01*
X216685714Y-81053380D01*
X216590476Y-81005761D01*
X216542857Y-80958142D01*
G04 #@! TD*
M02*
